G04 #@! TF.GenerationSoftware,KiCad,Pcbnew,(5.0.0-dirty)*
G04 #@! TF.CreationDate,2020-07-10T19:56:49+09:00*
G04 #@! TF.ProjectId,fake-fan-mk2,66616B652D66616E2D6D6B322E6B6963,rev?*
G04 #@! TF.SameCoordinates,Original*
G04 #@! TF.FileFunction,Soldermask,Top*
G04 #@! TF.FilePolarity,Negative*
%FSLAX46Y46*%
G04 Gerber Fmt 4.6, Leading zero omitted, Abs format (unit mm)*
G04 Created by KiCad (PCBNEW (5.0.0-dirty)) date 07/10/20 19:56:49*
%MOMM*%
%LPD*%
G01*
G04 APERTURE LIST*
%ADD10C,0.200000*%
%ADD11C,0.100000*%
%ADD12C,1.275000*%
%ADD13R,1.400000X1.400000*%
%ADD14R,1.500000X1.400000*%
%ADD15R,1.000000X1.600000*%
%ADD16R,1.600000X1.000000*%
%ADD17O,2.100000X2.100000*%
%ADD18R,2.100000X2.100000*%
%ADD19R,1.460000X1.050000*%
G04 APERTURE END LIST*
D10*
X14500000Y-29500000D02*
X14478000Y-14500000D01*
X45500000Y-29500000D02*
X14500000Y-29500000D01*
X45500000Y-14500000D02*
X45500000Y-29500000D01*
X14500000Y-14500000D02*
X45500000Y-14500000D01*
D11*
G04 #@! TO.C,C3*
G36*
X25387493Y-25826535D02*
X25418435Y-25831125D01*
X25448778Y-25838725D01*
X25478230Y-25849263D01*
X25506508Y-25862638D01*
X25533338Y-25878719D01*
X25558463Y-25897353D01*
X25581640Y-25918360D01*
X25602647Y-25941537D01*
X25621281Y-25966662D01*
X25637362Y-25993492D01*
X25650737Y-26021770D01*
X25661275Y-26051222D01*
X25668875Y-26081565D01*
X25673465Y-26112507D01*
X25675000Y-26143750D01*
X25675000Y-26781250D01*
X25673465Y-26812493D01*
X25668875Y-26843435D01*
X25661275Y-26873778D01*
X25650737Y-26903230D01*
X25637362Y-26931508D01*
X25621281Y-26958338D01*
X25602647Y-26983463D01*
X25581640Y-27006640D01*
X25558463Y-27027647D01*
X25533338Y-27046281D01*
X25506508Y-27062362D01*
X25478230Y-27075737D01*
X25448778Y-27086275D01*
X25418435Y-27093875D01*
X25387493Y-27098465D01*
X25356250Y-27100000D01*
X24643750Y-27100000D01*
X24612507Y-27098465D01*
X24581565Y-27093875D01*
X24551222Y-27086275D01*
X24521770Y-27075737D01*
X24493492Y-27062362D01*
X24466662Y-27046281D01*
X24441537Y-27027647D01*
X24418360Y-27006640D01*
X24397353Y-26983463D01*
X24378719Y-26958338D01*
X24362638Y-26931508D01*
X24349263Y-26903230D01*
X24338725Y-26873778D01*
X24331125Y-26843435D01*
X24326535Y-26812493D01*
X24325000Y-26781250D01*
X24325000Y-26143750D01*
X24326535Y-26112507D01*
X24331125Y-26081565D01*
X24338725Y-26051222D01*
X24349263Y-26021770D01*
X24362638Y-25993492D01*
X24378719Y-25966662D01*
X24397353Y-25941537D01*
X24418360Y-25918360D01*
X24441537Y-25897353D01*
X24466662Y-25878719D01*
X24493492Y-25862638D01*
X24521770Y-25849263D01*
X24551222Y-25838725D01*
X24581565Y-25831125D01*
X24612507Y-25826535D01*
X24643750Y-25825000D01*
X25356250Y-25825000D01*
X25387493Y-25826535D01*
X25387493Y-25826535D01*
G37*
D12*
X25000000Y-26462500D03*
D11*
G36*
X25387493Y-27401535D02*
X25418435Y-27406125D01*
X25448778Y-27413725D01*
X25478230Y-27424263D01*
X25506508Y-27437638D01*
X25533338Y-27453719D01*
X25558463Y-27472353D01*
X25581640Y-27493360D01*
X25602647Y-27516537D01*
X25621281Y-27541662D01*
X25637362Y-27568492D01*
X25650737Y-27596770D01*
X25661275Y-27626222D01*
X25668875Y-27656565D01*
X25673465Y-27687507D01*
X25675000Y-27718750D01*
X25675000Y-28356250D01*
X25673465Y-28387493D01*
X25668875Y-28418435D01*
X25661275Y-28448778D01*
X25650737Y-28478230D01*
X25637362Y-28506508D01*
X25621281Y-28533338D01*
X25602647Y-28558463D01*
X25581640Y-28581640D01*
X25558463Y-28602647D01*
X25533338Y-28621281D01*
X25506508Y-28637362D01*
X25478230Y-28650737D01*
X25448778Y-28661275D01*
X25418435Y-28668875D01*
X25387493Y-28673465D01*
X25356250Y-28675000D01*
X24643750Y-28675000D01*
X24612507Y-28673465D01*
X24581565Y-28668875D01*
X24551222Y-28661275D01*
X24521770Y-28650737D01*
X24493492Y-28637362D01*
X24466662Y-28621281D01*
X24441537Y-28602647D01*
X24418360Y-28581640D01*
X24397353Y-28558463D01*
X24378719Y-28533338D01*
X24362638Y-28506508D01*
X24349263Y-28478230D01*
X24338725Y-28448778D01*
X24331125Y-28418435D01*
X24326535Y-28387493D01*
X24325000Y-28356250D01*
X24325000Y-27718750D01*
X24326535Y-27687507D01*
X24331125Y-27656565D01*
X24338725Y-27626222D01*
X24349263Y-27596770D01*
X24362638Y-27568492D01*
X24378719Y-27541662D01*
X24397353Y-27516537D01*
X24418360Y-27493360D01*
X24441537Y-27472353D01*
X24466662Y-27453719D01*
X24493492Y-27437638D01*
X24521770Y-27424263D01*
X24551222Y-27413725D01*
X24581565Y-27406125D01*
X24612507Y-27401535D01*
X24643750Y-27400000D01*
X25356250Y-27400000D01*
X25387493Y-27401535D01*
X25387493Y-27401535D01*
G37*
D12*
X25000000Y-28037500D03*
G04 #@! TD*
D11*
G04 #@! TO.C,C1*
G36*
X29387493Y-26826535D02*
X29418435Y-26831125D01*
X29448778Y-26838725D01*
X29478230Y-26849263D01*
X29506508Y-26862638D01*
X29533338Y-26878719D01*
X29558463Y-26897353D01*
X29581640Y-26918360D01*
X29602647Y-26941537D01*
X29621281Y-26966662D01*
X29637362Y-26993492D01*
X29650737Y-27021770D01*
X29661275Y-27051222D01*
X29668875Y-27081565D01*
X29673465Y-27112507D01*
X29675000Y-27143750D01*
X29675000Y-27856250D01*
X29673465Y-27887493D01*
X29668875Y-27918435D01*
X29661275Y-27948778D01*
X29650737Y-27978230D01*
X29637362Y-28006508D01*
X29621281Y-28033338D01*
X29602647Y-28058463D01*
X29581640Y-28081640D01*
X29558463Y-28102647D01*
X29533338Y-28121281D01*
X29506508Y-28137362D01*
X29478230Y-28150737D01*
X29448778Y-28161275D01*
X29418435Y-28168875D01*
X29387493Y-28173465D01*
X29356250Y-28175000D01*
X28718750Y-28175000D01*
X28687507Y-28173465D01*
X28656565Y-28168875D01*
X28626222Y-28161275D01*
X28596770Y-28150737D01*
X28568492Y-28137362D01*
X28541662Y-28121281D01*
X28516537Y-28102647D01*
X28493360Y-28081640D01*
X28472353Y-28058463D01*
X28453719Y-28033338D01*
X28437638Y-28006508D01*
X28424263Y-27978230D01*
X28413725Y-27948778D01*
X28406125Y-27918435D01*
X28401535Y-27887493D01*
X28400000Y-27856250D01*
X28400000Y-27143750D01*
X28401535Y-27112507D01*
X28406125Y-27081565D01*
X28413725Y-27051222D01*
X28424263Y-27021770D01*
X28437638Y-26993492D01*
X28453719Y-26966662D01*
X28472353Y-26941537D01*
X28493360Y-26918360D01*
X28516537Y-26897353D01*
X28541662Y-26878719D01*
X28568492Y-26862638D01*
X28596770Y-26849263D01*
X28626222Y-26838725D01*
X28656565Y-26831125D01*
X28687507Y-26826535D01*
X28718750Y-26825000D01*
X29356250Y-26825000D01*
X29387493Y-26826535D01*
X29387493Y-26826535D01*
G37*
D12*
X29037500Y-27500000D03*
D11*
G36*
X27812493Y-26826535D02*
X27843435Y-26831125D01*
X27873778Y-26838725D01*
X27903230Y-26849263D01*
X27931508Y-26862638D01*
X27958338Y-26878719D01*
X27983463Y-26897353D01*
X28006640Y-26918360D01*
X28027647Y-26941537D01*
X28046281Y-26966662D01*
X28062362Y-26993492D01*
X28075737Y-27021770D01*
X28086275Y-27051222D01*
X28093875Y-27081565D01*
X28098465Y-27112507D01*
X28100000Y-27143750D01*
X28100000Y-27856250D01*
X28098465Y-27887493D01*
X28093875Y-27918435D01*
X28086275Y-27948778D01*
X28075737Y-27978230D01*
X28062362Y-28006508D01*
X28046281Y-28033338D01*
X28027647Y-28058463D01*
X28006640Y-28081640D01*
X27983463Y-28102647D01*
X27958338Y-28121281D01*
X27931508Y-28137362D01*
X27903230Y-28150737D01*
X27873778Y-28161275D01*
X27843435Y-28168875D01*
X27812493Y-28173465D01*
X27781250Y-28175000D01*
X27143750Y-28175000D01*
X27112507Y-28173465D01*
X27081565Y-28168875D01*
X27051222Y-28161275D01*
X27021770Y-28150737D01*
X26993492Y-28137362D01*
X26966662Y-28121281D01*
X26941537Y-28102647D01*
X26918360Y-28081640D01*
X26897353Y-28058463D01*
X26878719Y-28033338D01*
X26862638Y-28006508D01*
X26849263Y-27978230D01*
X26838725Y-27948778D01*
X26831125Y-27918435D01*
X26826535Y-27887493D01*
X26825000Y-27856250D01*
X26825000Y-27143750D01*
X26826535Y-27112507D01*
X26831125Y-27081565D01*
X26838725Y-27051222D01*
X26849263Y-27021770D01*
X26862638Y-26993492D01*
X26878719Y-26966662D01*
X26897353Y-26941537D01*
X26918360Y-26918360D01*
X26941537Y-26897353D01*
X26966662Y-26878719D01*
X26993492Y-26862638D01*
X27021770Y-26849263D01*
X27051222Y-26838725D01*
X27081565Y-26831125D01*
X27112507Y-26826535D01*
X27143750Y-26825000D01*
X27781250Y-26825000D01*
X27812493Y-26826535D01*
X27812493Y-26826535D01*
G37*
D12*
X27462500Y-27500000D03*
G04 #@! TD*
D11*
G04 #@! TO.C,C2*
G36*
X33637493Y-26826535D02*
X33668435Y-26831125D01*
X33698778Y-26838725D01*
X33728230Y-26849263D01*
X33756508Y-26862638D01*
X33783338Y-26878719D01*
X33808463Y-26897353D01*
X33831640Y-26918360D01*
X33852647Y-26941537D01*
X33871281Y-26966662D01*
X33887362Y-26993492D01*
X33900737Y-27021770D01*
X33911275Y-27051222D01*
X33918875Y-27081565D01*
X33923465Y-27112507D01*
X33925000Y-27143750D01*
X33925000Y-27856250D01*
X33923465Y-27887493D01*
X33918875Y-27918435D01*
X33911275Y-27948778D01*
X33900737Y-27978230D01*
X33887362Y-28006508D01*
X33871281Y-28033338D01*
X33852647Y-28058463D01*
X33831640Y-28081640D01*
X33808463Y-28102647D01*
X33783338Y-28121281D01*
X33756508Y-28137362D01*
X33728230Y-28150737D01*
X33698778Y-28161275D01*
X33668435Y-28168875D01*
X33637493Y-28173465D01*
X33606250Y-28175000D01*
X32968750Y-28175000D01*
X32937507Y-28173465D01*
X32906565Y-28168875D01*
X32876222Y-28161275D01*
X32846770Y-28150737D01*
X32818492Y-28137362D01*
X32791662Y-28121281D01*
X32766537Y-28102647D01*
X32743360Y-28081640D01*
X32722353Y-28058463D01*
X32703719Y-28033338D01*
X32687638Y-28006508D01*
X32674263Y-27978230D01*
X32663725Y-27948778D01*
X32656125Y-27918435D01*
X32651535Y-27887493D01*
X32650000Y-27856250D01*
X32650000Y-27143750D01*
X32651535Y-27112507D01*
X32656125Y-27081565D01*
X32663725Y-27051222D01*
X32674263Y-27021770D01*
X32687638Y-26993492D01*
X32703719Y-26966662D01*
X32722353Y-26941537D01*
X32743360Y-26918360D01*
X32766537Y-26897353D01*
X32791662Y-26878719D01*
X32818492Y-26862638D01*
X32846770Y-26849263D01*
X32876222Y-26838725D01*
X32906565Y-26831125D01*
X32937507Y-26826535D01*
X32968750Y-26825000D01*
X33606250Y-26825000D01*
X33637493Y-26826535D01*
X33637493Y-26826535D01*
G37*
D12*
X33287500Y-27500000D03*
D11*
G36*
X32062493Y-26826535D02*
X32093435Y-26831125D01*
X32123778Y-26838725D01*
X32153230Y-26849263D01*
X32181508Y-26862638D01*
X32208338Y-26878719D01*
X32233463Y-26897353D01*
X32256640Y-26918360D01*
X32277647Y-26941537D01*
X32296281Y-26966662D01*
X32312362Y-26993492D01*
X32325737Y-27021770D01*
X32336275Y-27051222D01*
X32343875Y-27081565D01*
X32348465Y-27112507D01*
X32350000Y-27143750D01*
X32350000Y-27856250D01*
X32348465Y-27887493D01*
X32343875Y-27918435D01*
X32336275Y-27948778D01*
X32325737Y-27978230D01*
X32312362Y-28006508D01*
X32296281Y-28033338D01*
X32277647Y-28058463D01*
X32256640Y-28081640D01*
X32233463Y-28102647D01*
X32208338Y-28121281D01*
X32181508Y-28137362D01*
X32153230Y-28150737D01*
X32123778Y-28161275D01*
X32093435Y-28168875D01*
X32062493Y-28173465D01*
X32031250Y-28175000D01*
X31393750Y-28175000D01*
X31362507Y-28173465D01*
X31331565Y-28168875D01*
X31301222Y-28161275D01*
X31271770Y-28150737D01*
X31243492Y-28137362D01*
X31216662Y-28121281D01*
X31191537Y-28102647D01*
X31168360Y-28081640D01*
X31147353Y-28058463D01*
X31128719Y-28033338D01*
X31112638Y-28006508D01*
X31099263Y-27978230D01*
X31088725Y-27948778D01*
X31081125Y-27918435D01*
X31076535Y-27887493D01*
X31075000Y-27856250D01*
X31075000Y-27143750D01*
X31076535Y-27112507D01*
X31081125Y-27081565D01*
X31088725Y-27051222D01*
X31099263Y-27021770D01*
X31112638Y-26993492D01*
X31128719Y-26966662D01*
X31147353Y-26941537D01*
X31168360Y-26918360D01*
X31191537Y-26897353D01*
X31216662Y-26878719D01*
X31243492Y-26862638D01*
X31271770Y-26849263D01*
X31301222Y-26838725D01*
X31331565Y-26831125D01*
X31362507Y-26826535D01*
X31393750Y-26825000D01*
X32031250Y-26825000D01*
X32062493Y-26826535D01*
X32062493Y-26826535D01*
G37*
D12*
X31712500Y-27500000D03*
G04 #@! TD*
D11*
G04 #@! TO.C,C4*
G36*
X37562493Y-16826535D02*
X37593435Y-16831125D01*
X37623778Y-16838725D01*
X37653230Y-16849263D01*
X37681508Y-16862638D01*
X37708338Y-16878719D01*
X37733463Y-16897353D01*
X37756640Y-16918360D01*
X37777647Y-16941537D01*
X37796281Y-16966662D01*
X37812362Y-16993492D01*
X37825737Y-17021770D01*
X37836275Y-17051222D01*
X37843875Y-17081565D01*
X37848465Y-17112507D01*
X37850000Y-17143750D01*
X37850000Y-17856250D01*
X37848465Y-17887493D01*
X37843875Y-17918435D01*
X37836275Y-17948778D01*
X37825737Y-17978230D01*
X37812362Y-18006508D01*
X37796281Y-18033338D01*
X37777647Y-18058463D01*
X37756640Y-18081640D01*
X37733463Y-18102647D01*
X37708338Y-18121281D01*
X37681508Y-18137362D01*
X37653230Y-18150737D01*
X37623778Y-18161275D01*
X37593435Y-18168875D01*
X37562493Y-18173465D01*
X37531250Y-18175000D01*
X36893750Y-18175000D01*
X36862507Y-18173465D01*
X36831565Y-18168875D01*
X36801222Y-18161275D01*
X36771770Y-18150737D01*
X36743492Y-18137362D01*
X36716662Y-18121281D01*
X36691537Y-18102647D01*
X36668360Y-18081640D01*
X36647353Y-18058463D01*
X36628719Y-18033338D01*
X36612638Y-18006508D01*
X36599263Y-17978230D01*
X36588725Y-17948778D01*
X36581125Y-17918435D01*
X36576535Y-17887493D01*
X36575000Y-17856250D01*
X36575000Y-17143750D01*
X36576535Y-17112507D01*
X36581125Y-17081565D01*
X36588725Y-17051222D01*
X36599263Y-17021770D01*
X36612638Y-16993492D01*
X36628719Y-16966662D01*
X36647353Y-16941537D01*
X36668360Y-16918360D01*
X36691537Y-16897353D01*
X36716662Y-16878719D01*
X36743492Y-16862638D01*
X36771770Y-16849263D01*
X36801222Y-16838725D01*
X36831565Y-16831125D01*
X36862507Y-16826535D01*
X36893750Y-16825000D01*
X37531250Y-16825000D01*
X37562493Y-16826535D01*
X37562493Y-16826535D01*
G37*
D12*
X37212500Y-17500000D03*
D11*
G36*
X39137493Y-16826535D02*
X39168435Y-16831125D01*
X39198778Y-16838725D01*
X39228230Y-16849263D01*
X39256508Y-16862638D01*
X39283338Y-16878719D01*
X39308463Y-16897353D01*
X39331640Y-16918360D01*
X39352647Y-16941537D01*
X39371281Y-16966662D01*
X39387362Y-16993492D01*
X39400737Y-17021770D01*
X39411275Y-17051222D01*
X39418875Y-17081565D01*
X39423465Y-17112507D01*
X39425000Y-17143750D01*
X39425000Y-17856250D01*
X39423465Y-17887493D01*
X39418875Y-17918435D01*
X39411275Y-17948778D01*
X39400737Y-17978230D01*
X39387362Y-18006508D01*
X39371281Y-18033338D01*
X39352647Y-18058463D01*
X39331640Y-18081640D01*
X39308463Y-18102647D01*
X39283338Y-18121281D01*
X39256508Y-18137362D01*
X39228230Y-18150737D01*
X39198778Y-18161275D01*
X39168435Y-18168875D01*
X39137493Y-18173465D01*
X39106250Y-18175000D01*
X38468750Y-18175000D01*
X38437507Y-18173465D01*
X38406565Y-18168875D01*
X38376222Y-18161275D01*
X38346770Y-18150737D01*
X38318492Y-18137362D01*
X38291662Y-18121281D01*
X38266537Y-18102647D01*
X38243360Y-18081640D01*
X38222353Y-18058463D01*
X38203719Y-18033338D01*
X38187638Y-18006508D01*
X38174263Y-17978230D01*
X38163725Y-17948778D01*
X38156125Y-17918435D01*
X38151535Y-17887493D01*
X38150000Y-17856250D01*
X38150000Y-17143750D01*
X38151535Y-17112507D01*
X38156125Y-17081565D01*
X38163725Y-17051222D01*
X38174263Y-17021770D01*
X38187638Y-16993492D01*
X38203719Y-16966662D01*
X38222353Y-16941537D01*
X38243360Y-16918360D01*
X38266537Y-16897353D01*
X38291662Y-16878719D01*
X38318492Y-16862638D01*
X38346770Y-16849263D01*
X38376222Y-16838725D01*
X38406565Y-16831125D01*
X38437507Y-16826535D01*
X38468750Y-16825000D01*
X39106250Y-16825000D01*
X39137493Y-16826535D01*
X39137493Y-16826535D01*
G37*
D12*
X38787500Y-17500000D03*
G04 #@! TD*
D11*
G04 #@! TO.C,R1*
G36*
X23312493Y-22576535D02*
X23343435Y-22581125D01*
X23373778Y-22588725D01*
X23403230Y-22599263D01*
X23431508Y-22612638D01*
X23458338Y-22628719D01*
X23483463Y-22647353D01*
X23506640Y-22668360D01*
X23527647Y-22691537D01*
X23546281Y-22716662D01*
X23562362Y-22743492D01*
X23575737Y-22771770D01*
X23586275Y-22801222D01*
X23593875Y-22831565D01*
X23598465Y-22862507D01*
X23600000Y-22893750D01*
X23600000Y-23606250D01*
X23598465Y-23637493D01*
X23593875Y-23668435D01*
X23586275Y-23698778D01*
X23575737Y-23728230D01*
X23562362Y-23756508D01*
X23546281Y-23783338D01*
X23527647Y-23808463D01*
X23506640Y-23831640D01*
X23483463Y-23852647D01*
X23458338Y-23871281D01*
X23431508Y-23887362D01*
X23403230Y-23900737D01*
X23373778Y-23911275D01*
X23343435Y-23918875D01*
X23312493Y-23923465D01*
X23281250Y-23925000D01*
X22643750Y-23925000D01*
X22612507Y-23923465D01*
X22581565Y-23918875D01*
X22551222Y-23911275D01*
X22521770Y-23900737D01*
X22493492Y-23887362D01*
X22466662Y-23871281D01*
X22441537Y-23852647D01*
X22418360Y-23831640D01*
X22397353Y-23808463D01*
X22378719Y-23783338D01*
X22362638Y-23756508D01*
X22349263Y-23728230D01*
X22338725Y-23698778D01*
X22331125Y-23668435D01*
X22326535Y-23637493D01*
X22325000Y-23606250D01*
X22325000Y-22893750D01*
X22326535Y-22862507D01*
X22331125Y-22831565D01*
X22338725Y-22801222D01*
X22349263Y-22771770D01*
X22362638Y-22743492D01*
X22378719Y-22716662D01*
X22397353Y-22691537D01*
X22418360Y-22668360D01*
X22441537Y-22647353D01*
X22466662Y-22628719D01*
X22493492Y-22612638D01*
X22521770Y-22599263D01*
X22551222Y-22588725D01*
X22581565Y-22581125D01*
X22612507Y-22576535D01*
X22643750Y-22575000D01*
X23281250Y-22575000D01*
X23312493Y-22576535D01*
X23312493Y-22576535D01*
G37*
D12*
X22962500Y-23250000D03*
D11*
G36*
X24887493Y-22576535D02*
X24918435Y-22581125D01*
X24948778Y-22588725D01*
X24978230Y-22599263D01*
X25006508Y-22612638D01*
X25033338Y-22628719D01*
X25058463Y-22647353D01*
X25081640Y-22668360D01*
X25102647Y-22691537D01*
X25121281Y-22716662D01*
X25137362Y-22743492D01*
X25150737Y-22771770D01*
X25161275Y-22801222D01*
X25168875Y-22831565D01*
X25173465Y-22862507D01*
X25175000Y-22893750D01*
X25175000Y-23606250D01*
X25173465Y-23637493D01*
X25168875Y-23668435D01*
X25161275Y-23698778D01*
X25150737Y-23728230D01*
X25137362Y-23756508D01*
X25121281Y-23783338D01*
X25102647Y-23808463D01*
X25081640Y-23831640D01*
X25058463Y-23852647D01*
X25033338Y-23871281D01*
X25006508Y-23887362D01*
X24978230Y-23900737D01*
X24948778Y-23911275D01*
X24918435Y-23918875D01*
X24887493Y-23923465D01*
X24856250Y-23925000D01*
X24218750Y-23925000D01*
X24187507Y-23923465D01*
X24156565Y-23918875D01*
X24126222Y-23911275D01*
X24096770Y-23900737D01*
X24068492Y-23887362D01*
X24041662Y-23871281D01*
X24016537Y-23852647D01*
X23993360Y-23831640D01*
X23972353Y-23808463D01*
X23953719Y-23783338D01*
X23937638Y-23756508D01*
X23924263Y-23728230D01*
X23913725Y-23698778D01*
X23906125Y-23668435D01*
X23901535Y-23637493D01*
X23900000Y-23606250D01*
X23900000Y-22893750D01*
X23901535Y-22862507D01*
X23906125Y-22831565D01*
X23913725Y-22801222D01*
X23924263Y-22771770D01*
X23937638Y-22743492D01*
X23953719Y-22716662D01*
X23972353Y-22691537D01*
X23993360Y-22668360D01*
X24016537Y-22647353D01*
X24041662Y-22628719D01*
X24068492Y-22612638D01*
X24096770Y-22599263D01*
X24126222Y-22588725D01*
X24156565Y-22581125D01*
X24187507Y-22576535D01*
X24218750Y-22575000D01*
X24856250Y-22575000D01*
X24887493Y-22576535D01*
X24887493Y-22576535D01*
G37*
D12*
X24537500Y-23250000D03*
G04 #@! TD*
D13*
G04 #@! TO.C,RV1*
X37650000Y-24500000D03*
X39350000Y-24500000D03*
D14*
X38500000Y-27500000D03*
G04 #@! TD*
D15*
G04 #@! TO.C,U2*
X28200000Y-25250000D03*
X29000000Y-25250000D03*
X29800000Y-25250000D03*
X30600000Y-25250000D03*
X31400000Y-25250000D03*
X32200000Y-25250000D03*
X33000000Y-25250000D03*
X33800000Y-25250000D03*
D16*
X35250000Y-23800000D03*
X35250000Y-23000000D03*
X35250000Y-22200000D03*
X35250000Y-21400000D03*
X35250000Y-20600000D03*
X35250000Y-19800000D03*
X35250000Y-19000000D03*
X35250000Y-18200000D03*
D15*
X33800000Y-16750000D03*
X33000000Y-16750000D03*
X32200000Y-16750000D03*
X31400000Y-16750000D03*
X30600000Y-16750000D03*
X29800000Y-16750000D03*
X29000000Y-16750000D03*
X28200000Y-16750000D03*
D16*
X26750000Y-18200000D03*
X26750000Y-19000000D03*
X26750000Y-19800000D03*
X26750000Y-20600000D03*
X26750000Y-21400000D03*
X26750000Y-22200000D03*
X26750000Y-23000000D03*
X26750000Y-23800000D03*
G04 #@! TD*
D17*
G04 #@! TO.C,J1*
X16750000Y-18380000D03*
X16750000Y-20920000D03*
X16750000Y-23460000D03*
D18*
X16750000Y-26000000D03*
G04 #@! TD*
G04 #@! TO.C,J2*
X42500000Y-26000000D03*
D17*
X42500000Y-23460000D03*
X42500000Y-20920000D03*
X42500000Y-18380000D03*
G04 #@! TD*
D18*
G04 #@! TO.C,J3*
X21000000Y-18000000D03*
D17*
X23540000Y-18000000D03*
X21000000Y-20540000D03*
X23540000Y-20540000D03*
G04 #@! TD*
D19*
G04 #@! TO.C,U1*
X21150000Y-25300000D03*
X21150000Y-26250000D03*
X21150000Y-27200000D03*
X23350000Y-27200000D03*
X23350000Y-25300000D03*
G04 #@! TD*
D11*
G04 #@! TO.C,C5*
G36*
X19887493Y-26401535D02*
X19918435Y-26406125D01*
X19948778Y-26413725D01*
X19978230Y-26424263D01*
X20006508Y-26437638D01*
X20033338Y-26453719D01*
X20058463Y-26472353D01*
X20081640Y-26493360D01*
X20102647Y-26516537D01*
X20121281Y-26541662D01*
X20137362Y-26568492D01*
X20150737Y-26596770D01*
X20161275Y-26626222D01*
X20168875Y-26656565D01*
X20173465Y-26687507D01*
X20175000Y-26718750D01*
X20175000Y-27356250D01*
X20173465Y-27387493D01*
X20168875Y-27418435D01*
X20161275Y-27448778D01*
X20150737Y-27478230D01*
X20137362Y-27506508D01*
X20121281Y-27533338D01*
X20102647Y-27558463D01*
X20081640Y-27581640D01*
X20058463Y-27602647D01*
X20033338Y-27621281D01*
X20006508Y-27637362D01*
X19978230Y-27650737D01*
X19948778Y-27661275D01*
X19918435Y-27668875D01*
X19887493Y-27673465D01*
X19856250Y-27675000D01*
X19143750Y-27675000D01*
X19112507Y-27673465D01*
X19081565Y-27668875D01*
X19051222Y-27661275D01*
X19021770Y-27650737D01*
X18993492Y-27637362D01*
X18966662Y-27621281D01*
X18941537Y-27602647D01*
X18918360Y-27581640D01*
X18897353Y-27558463D01*
X18878719Y-27533338D01*
X18862638Y-27506508D01*
X18849263Y-27478230D01*
X18838725Y-27448778D01*
X18831125Y-27418435D01*
X18826535Y-27387493D01*
X18825000Y-27356250D01*
X18825000Y-26718750D01*
X18826535Y-26687507D01*
X18831125Y-26656565D01*
X18838725Y-26626222D01*
X18849263Y-26596770D01*
X18862638Y-26568492D01*
X18878719Y-26541662D01*
X18897353Y-26516537D01*
X18918360Y-26493360D01*
X18941537Y-26472353D01*
X18966662Y-26453719D01*
X18993492Y-26437638D01*
X19021770Y-26424263D01*
X19051222Y-26413725D01*
X19081565Y-26406125D01*
X19112507Y-26401535D01*
X19143750Y-26400000D01*
X19856250Y-26400000D01*
X19887493Y-26401535D01*
X19887493Y-26401535D01*
G37*
D12*
X19500000Y-27037500D03*
D11*
G36*
X19887493Y-24826535D02*
X19918435Y-24831125D01*
X19948778Y-24838725D01*
X19978230Y-24849263D01*
X20006508Y-24862638D01*
X20033338Y-24878719D01*
X20058463Y-24897353D01*
X20081640Y-24918360D01*
X20102647Y-24941537D01*
X20121281Y-24966662D01*
X20137362Y-24993492D01*
X20150737Y-25021770D01*
X20161275Y-25051222D01*
X20168875Y-25081565D01*
X20173465Y-25112507D01*
X20175000Y-25143750D01*
X20175000Y-25781250D01*
X20173465Y-25812493D01*
X20168875Y-25843435D01*
X20161275Y-25873778D01*
X20150737Y-25903230D01*
X20137362Y-25931508D01*
X20121281Y-25958338D01*
X20102647Y-25983463D01*
X20081640Y-26006640D01*
X20058463Y-26027647D01*
X20033338Y-26046281D01*
X20006508Y-26062362D01*
X19978230Y-26075737D01*
X19948778Y-26086275D01*
X19918435Y-26093875D01*
X19887493Y-26098465D01*
X19856250Y-26100000D01*
X19143750Y-26100000D01*
X19112507Y-26098465D01*
X19081565Y-26093875D01*
X19051222Y-26086275D01*
X19021770Y-26075737D01*
X18993492Y-26062362D01*
X18966662Y-26046281D01*
X18941537Y-26027647D01*
X18918360Y-26006640D01*
X18897353Y-25983463D01*
X18878719Y-25958338D01*
X18862638Y-25931508D01*
X18849263Y-25903230D01*
X18838725Y-25873778D01*
X18831125Y-25843435D01*
X18826535Y-25812493D01*
X18825000Y-25781250D01*
X18825000Y-25143750D01*
X18826535Y-25112507D01*
X18831125Y-25081565D01*
X18838725Y-25051222D01*
X18849263Y-25021770D01*
X18862638Y-24993492D01*
X18878719Y-24966662D01*
X18897353Y-24941537D01*
X18918360Y-24918360D01*
X18941537Y-24897353D01*
X18966662Y-24878719D01*
X18993492Y-24862638D01*
X19021770Y-24849263D01*
X19051222Y-24838725D01*
X19081565Y-24831125D01*
X19112507Y-24826535D01*
X19143750Y-24825000D01*
X19856250Y-24825000D01*
X19887493Y-24826535D01*
X19887493Y-24826535D01*
G37*
D12*
X19500000Y-25462500D03*
G04 #@! TD*
M02*
