M48
;DRILL file {KiCad (5.0.0-dirty)} date 09/03/20 12:08:16
;FORMAT={-:-/ absolute / inch / decimal}
FMAT,2
INCH,TZ
T1C0.0157
T2C0.0394
%
G90
G05
M72
T1
X0.748Y-0.6693
X0.8898Y-0.6614
X1.0236Y-0.6299
X1.0315Y-1.0394
X1.1019Y-0.7082
X1.1417Y-0.7087
X1.1417Y-0.7677
X1.1417Y-0.8465
X1.2008Y-0.7087
X1.2008Y-0.7677
X1.2008Y-1.0433
X1.3091Y-0.7283
X1.3189Y-0.7677
X1.3189Y-0.8071
X1.3287Y-0.876
X1.4567Y-0.8858
X1.5453Y-1.0236
X1.565Y-0.7283
X1.5748Y-0.6299
T2
X0.8268Y-0.7244
X0.8268Y-0.8244
X0.9268Y-0.7244
X0.9268Y-0.8244
X1.6732Y-0.7236
X1.6732Y-0.8236
X1.6732Y-0.9236
X1.6732Y-1.0236
X0.6594Y-0.7236
X0.6594Y-0.8236
X0.6594Y-0.9236
X0.6594Y-1.0236
T0
M30
