G04 #@! TF.GenerationSoftware,KiCad,Pcbnew,(5.0.0-dirty)*
G04 #@! TF.CreationDate,2020-09-03T12:08:13+09:00*
G04 #@! TF.ProjectId,fake-fan-mk2,66616B652D66616E2D6D6B322E6B6963,rev?*
G04 #@! TF.SameCoordinates,Original*
G04 #@! TF.FileFunction,Copper,L2,Bot,Signal*
G04 #@! TF.FilePolarity,Positive*
%FSLAX46Y46*%
G04 Gerber Fmt 4.6, Leading zero omitted, Abs format (unit mm)*
G04 Created by KiCad (PCBNEW (5.0.0-dirty)) date 09/03/20 12:08:13*
%MOMM*%
%LPD*%
G01*
G04 APERTURE LIST*
G04 #@! TA.AperFunction,NonConductor*
%ADD10C,0.200000*%
G04 #@! TD*
G04 #@! TA.AperFunction,ComponentPad*
%ADD11O,1.700000X1.700000*%
G04 #@! TD*
G04 #@! TA.AperFunction,ComponentPad*
%ADD12R,1.700000X1.700000*%
G04 #@! TD*
G04 #@! TA.AperFunction,SMDPad,CuDef*
%ADD13R,1.000000X1.000000*%
G04 #@! TD*
G04 #@! TA.AperFunction,ViaPad*
%ADD14C,0.800000*%
G04 #@! TD*
G04 #@! TA.AperFunction,Conductor*
%ADD15C,0.250000*%
G04 #@! TD*
G04 #@! TA.AperFunction,Conductor*
%ADD16C,2.000000*%
G04 #@! TD*
G04 #@! TA.AperFunction,Conductor*
%ADD17C,0.750000*%
G04 #@! TD*
G04 #@! TA.AperFunction,Conductor*
%ADD18C,0.254000*%
G04 #@! TD*
G04 APERTURE END LIST*
D10*
X14000000Y-30000000D02*
X14000000Y-14000000D01*
X46000000Y-30000000D02*
X14000000Y-30000000D01*
X46000000Y-14000000D02*
X46000000Y-30000000D01*
X14000000Y-14000000D02*
X46000000Y-14000000D01*
D11*
G04 #@! TO.P,J1,4*
G04 #@! TO.N,/PWMIN*
X16750000Y-18380000D03*
G04 #@! TO.P,J1,3*
G04 #@! TO.N,/FAKE_PULSE*
X16750000Y-20920000D03*
G04 #@! TO.P,J1,2*
G04 #@! TO.N,+12V*
X16750000Y-23460000D03*
D12*
G04 #@! TO.P,J1,1*
G04 #@! TO.N,GND*
X16750000Y-26000000D03*
G04 #@! TD*
G04 #@! TO.P,J2,1*
G04 #@! TO.N,GND*
X42500000Y-26000000D03*
D11*
G04 #@! TO.P,J2,2*
G04 #@! TO.N,+12V*
X42500000Y-23460000D03*
G04 #@! TO.P,J2,3*
G04 #@! TO.N,/FAN_PULSE*
X42500000Y-20920000D03*
G04 #@! TO.P,J2,4*
G04 #@! TO.N,/FAN_PWM*
X42500000Y-18380000D03*
G04 #@! TD*
D12*
G04 #@! TO.P,J3,1*
G04 #@! TO.N,GND*
X21000000Y-18400000D03*
D11*
G04 #@! TO.P,J3,2*
G04 #@! TO.N,/SYS_CLK*
X23540000Y-18400000D03*
G04 #@! TO.P,J3,3*
G04 #@! TO.N,/NRST*
X21000000Y-20940000D03*
G04 #@! TO.P,J3,4*
G04 #@! TO.N,/SWDIO*
X23540000Y-20940000D03*
G04 #@! TD*
D13*
G04 #@! TO.P,TP1,1*
G04 #@! TO.N,/USART1_TX*
X35750000Y-18500000D03*
G04 #@! TD*
G04 #@! TO.P,TP2,1*
G04 #@! TO.N,/USART1_RX*
X38000000Y-18500000D03*
G04 #@! TD*
D14*
G04 #@! TO.N,GND*
X33250000Y-18500000D03*
X29000000Y-21500000D03*
X26000000Y-16000000D03*
X39750000Y-18500000D03*
G04 #@! TO.N,+3V3*
X39250000Y-26000000D03*
X26200000Y-26400000D03*
X30500000Y-26500000D03*
G04 #@! TO.N,/SYS_CLK*
X27987347Y-17987347D03*
G04 #@! TO.N,/SWDIO*
X29000000Y-18000000D03*
G04 #@! TO.N,/NRST*
X29000000Y-19500000D03*
G04 #@! TO.N,/PWMIN_3V*
X19000000Y-17000000D03*
X22600000Y-16800000D03*
X30500000Y-19500000D03*
G04 #@! TO.N,/FAKE_PULSE*
X33500000Y-20500000D03*
G04 #@! TO.N,/FAN_PULSE*
X30500000Y-18000000D03*
X40000000Y-16000000D03*
G04 #@! TO.N,/FAN_PWM*
X37000000Y-22500000D03*
G04 #@! TO.N,/USART1_TX*
X33500000Y-19500000D03*
G04 #@! TO.N,/USART1_RX*
X33750000Y-22250000D03*
G04 #@! TD*
D15*
G04 #@! TO.N,GND*
X26000000Y-16000000D02*
X26000000Y-15500000D01*
X26000000Y-15500000D02*
X26500000Y-15500000D01*
D16*
G04 #@! TO.N,+12V*
X41297919Y-23460000D02*
X42500000Y-23460000D01*
X39540000Y-23460000D02*
X41297919Y-23460000D01*
X38600000Y-24400000D02*
X39540000Y-23460000D01*
X19558235Y-24400000D02*
X38600000Y-24400000D01*
X18618235Y-23460000D02*
X19558235Y-24400000D01*
X16750000Y-23460000D02*
X18618235Y-23460000D01*
D17*
G04 #@! TO.N,+3V3*
X38850001Y-26399999D02*
X39250000Y-26000000D01*
X26200000Y-26400000D02*
X38850001Y-26399999D01*
X30500000Y-26500000D02*
X30250000Y-26450000D01*
D15*
G04 #@! TO.N,/SYS_CLK*
X23552653Y-17987347D02*
X23540000Y-18000000D01*
X27987347Y-17987347D02*
X23552653Y-17987347D01*
G04 #@! TO.N,/SWDIO*
X28600001Y-18399999D02*
X29000000Y-18000000D01*
X28225001Y-18774999D02*
X28600001Y-18399999D01*
X25705001Y-18774999D02*
X28225001Y-18774999D01*
X23540000Y-20940000D02*
X25705001Y-18774999D01*
G04 #@! TO.N,/NRST*
X29000000Y-19500000D02*
X26000000Y-19500000D01*
X26000000Y-19500000D02*
X25000000Y-20500000D01*
X21000000Y-20940000D02*
X22300000Y-22240000D01*
X22300000Y-22240000D02*
X24460000Y-22240000D01*
X25000000Y-21700000D02*
X25000000Y-20500000D01*
X24460000Y-22240000D02*
X25000000Y-21700000D01*
G04 #@! TO.N,/PWMIN_3V*
X19000000Y-17000000D02*
X22400000Y-17000000D01*
X22400000Y-17000000D02*
X22600000Y-16800000D01*
X30500000Y-19500000D02*
X29725001Y-18725001D01*
X23165685Y-16800000D02*
X22600000Y-16800000D01*
X28873002Y-16800000D02*
X23165685Y-16800000D01*
X29725001Y-17651999D02*
X28873002Y-16800000D01*
X29725001Y-18725001D02*
X29725001Y-17651999D01*
G04 #@! TO.N,/FAKE_PULSE*
X31500000Y-22500000D02*
X33500000Y-20500000D01*
X31309990Y-22690010D02*
X31500000Y-22500000D01*
X20690010Y-22690010D02*
X31309990Y-22690010D01*
X16750000Y-20920000D02*
X18920000Y-20920000D01*
X18920000Y-20920000D02*
X20690010Y-22690010D01*
G04 #@! TO.N,/FAN_PULSE*
X32500000Y-16000000D02*
X40000000Y-16000000D01*
X30500000Y-18000000D02*
X32500000Y-16000000D01*
G04 #@! TO.N,/FAN_PWM*
X41650001Y-19229999D02*
X42500000Y-18380000D01*
X41225001Y-19654999D02*
X41650001Y-19229999D01*
X41225001Y-21598001D02*
X41225001Y-19654999D01*
X40848001Y-21975001D02*
X41225001Y-21598001D01*
X37975001Y-21975001D02*
X40848001Y-21975001D01*
X37524999Y-21975001D02*
X40848001Y-21975001D01*
X37000000Y-22500000D02*
X37524999Y-21975001D01*
G04 #@! TO.N,/USART1_TX*
X35750000Y-19250000D02*
X35750000Y-18500000D01*
X35500000Y-19500000D02*
X35750000Y-19250000D01*
X33500000Y-19500000D02*
X35500000Y-19500000D01*
G04 #@! TO.N,/USART1_RX*
X38000000Y-19250000D02*
X38000000Y-18500000D01*
X37250000Y-20000000D02*
X38000000Y-19250000D01*
X36000000Y-20000000D02*
X37250000Y-20000000D01*
X33750000Y-22250000D02*
X36000000Y-20000000D01*
G04 #@! TD*
D18*
G04 #@! TO.N,GND*
G36*
X45265001Y-29265000D02*
X14735000Y-29265000D01*
X14735000Y-23460000D01*
X15082969Y-23460000D01*
X15209864Y-24097945D01*
X15571231Y-24638769D01*
X16112055Y-25000136D01*
X16588969Y-25095000D01*
X17940997Y-25095000D01*
X18288247Y-25442250D01*
X18379466Y-25578769D01*
X18701771Y-25794126D01*
X18920289Y-25940136D01*
X19558235Y-26067031D01*
X19719266Y-26035000D01*
X25230912Y-26035000D01*
X25165000Y-26194126D01*
X25165000Y-26605874D01*
X25322569Y-26986280D01*
X25613720Y-27277431D01*
X25994126Y-27435000D01*
X26405874Y-27435000D01*
X26466230Y-27410000D01*
X29928196Y-27409999D01*
X29954379Y-27420877D01*
X30078577Y-27445717D01*
X30294126Y-27535000D01*
X30705874Y-27535000D01*
X31007653Y-27409999D01*
X38750525Y-27409998D01*
X38850001Y-27429785D01*
X39244083Y-27351397D01*
X39493838Y-27184517D01*
X39493841Y-27184514D01*
X39578170Y-27128167D01*
X39634517Y-27043838D01*
X39775923Y-26902432D01*
X39836280Y-26877431D01*
X40127431Y-26586280D01*
X40285000Y-26205874D01*
X40285000Y-25794126D01*
X40127431Y-25413720D01*
X40012975Y-25299264D01*
X40217238Y-25095000D01*
X42661031Y-25095000D01*
X43137945Y-25000136D01*
X43678769Y-24638769D01*
X44040136Y-24097945D01*
X44167031Y-23460000D01*
X44040136Y-22822055D01*
X43678769Y-22281231D01*
X43407236Y-22099798D01*
X43570625Y-21990625D01*
X43898839Y-21499418D01*
X44014092Y-20920000D01*
X43898839Y-20340582D01*
X43570625Y-19849375D01*
X43272239Y-19650000D01*
X43570625Y-19450625D01*
X43898839Y-18959418D01*
X44014092Y-18380000D01*
X43898839Y-17800582D01*
X43570625Y-17309375D01*
X43079418Y-16981161D01*
X42646256Y-16895000D01*
X42353744Y-16895000D01*
X41920582Y-16981161D01*
X41429375Y-17309375D01*
X41101161Y-17800582D01*
X40985908Y-18380000D01*
X41058791Y-18746408D01*
X40740529Y-19064670D01*
X40677073Y-19107070D01*
X40634673Y-19170526D01*
X40634672Y-19170527D01*
X40509098Y-19358462D01*
X40450113Y-19654999D01*
X40465002Y-19729851D01*
X40465001Y-21215001D01*
X37599847Y-21215001D01*
X37524999Y-21200113D01*
X37450151Y-21215001D01*
X37450147Y-21215001D01*
X37276604Y-21249521D01*
X37228461Y-21259097D01*
X37165055Y-21301464D01*
X36977070Y-21427072D01*
X36951727Y-21465000D01*
X36794126Y-21465000D01*
X36413720Y-21622569D01*
X36122569Y-21913720D01*
X35965000Y-22294126D01*
X35965000Y-22705874D01*
X35989491Y-22765000D01*
X34656956Y-22765000D01*
X34785000Y-22455874D01*
X34785000Y-22289801D01*
X36314802Y-20760000D01*
X37175153Y-20760000D01*
X37250000Y-20774888D01*
X37324847Y-20760000D01*
X37324852Y-20760000D01*
X37546537Y-20715904D01*
X37797929Y-20547929D01*
X37840331Y-20484470D01*
X38484473Y-19840329D01*
X38547929Y-19797929D01*
X38671242Y-19613378D01*
X38747765Y-19598157D01*
X38957809Y-19457809D01*
X39098157Y-19247765D01*
X39147440Y-19000000D01*
X39147440Y-18000000D01*
X39098157Y-17752235D01*
X38957809Y-17542191D01*
X38747765Y-17401843D01*
X38500000Y-17352560D01*
X37500000Y-17352560D01*
X37252235Y-17401843D01*
X37042191Y-17542191D01*
X36901843Y-17752235D01*
X36875000Y-17887185D01*
X36848157Y-17752235D01*
X36707809Y-17542191D01*
X36497765Y-17401843D01*
X36250000Y-17352560D01*
X35250000Y-17352560D01*
X35002235Y-17401843D01*
X34792191Y-17542191D01*
X34651843Y-17752235D01*
X34602560Y-18000000D01*
X34602560Y-18740000D01*
X34203711Y-18740000D01*
X34086280Y-18622569D01*
X33705874Y-18465000D01*
X33294126Y-18465000D01*
X32913720Y-18622569D01*
X32622569Y-18913720D01*
X32465000Y-19294126D01*
X32465000Y-19705874D01*
X32586831Y-20000000D01*
X32465000Y-20294126D01*
X32465000Y-20460198D01*
X31015528Y-21909671D01*
X30995189Y-21930010D01*
X25729137Y-21930010D01*
X25760000Y-21774852D01*
X25760000Y-21774848D01*
X25774888Y-21700001D01*
X25760000Y-21625154D01*
X25760000Y-20814801D01*
X26314802Y-20260000D01*
X28296289Y-20260000D01*
X28413720Y-20377431D01*
X28794126Y-20535000D01*
X29205874Y-20535000D01*
X29586280Y-20377431D01*
X29750000Y-20213711D01*
X29913720Y-20377431D01*
X30294126Y-20535000D01*
X30705874Y-20535000D01*
X31086280Y-20377431D01*
X31377431Y-20086280D01*
X31535000Y-19705874D01*
X31535000Y-19294126D01*
X31377431Y-18913720D01*
X31213711Y-18750000D01*
X31377431Y-18586280D01*
X31535000Y-18205874D01*
X31535000Y-18039801D01*
X32814802Y-16760000D01*
X39296289Y-16760000D01*
X39413720Y-16877431D01*
X39794126Y-17035000D01*
X40205874Y-17035000D01*
X40586280Y-16877431D01*
X40877431Y-16586280D01*
X41035000Y-16205874D01*
X41035000Y-15794126D01*
X40877431Y-15413720D01*
X40586280Y-15122569D01*
X40205874Y-14965000D01*
X39794126Y-14965000D01*
X39413720Y-15122569D01*
X39296289Y-15240000D01*
X32574846Y-15240000D01*
X32499999Y-15225112D01*
X32425152Y-15240000D01*
X32425148Y-15240000D01*
X32203463Y-15284096D01*
X31952071Y-15452071D01*
X31909671Y-15515527D01*
X30460199Y-16965000D01*
X30294126Y-16965000D01*
X30165912Y-17018108D01*
X29463333Y-16315530D01*
X29420931Y-16252071D01*
X29169539Y-16084096D01*
X28947854Y-16040000D01*
X28947849Y-16040000D01*
X28873002Y-16025112D01*
X28798155Y-16040000D01*
X23303711Y-16040000D01*
X23186280Y-15922569D01*
X22805874Y-15765000D01*
X22394126Y-15765000D01*
X22013720Y-15922569D01*
X21722569Y-16213720D01*
X21711683Y-16240000D01*
X19703711Y-16240000D01*
X19586280Y-16122569D01*
X19205874Y-15965000D01*
X18794126Y-15965000D01*
X18413720Y-16122569D01*
X18122569Y-16413720D01*
X17965000Y-16794126D01*
X17965000Y-17205874D01*
X18122569Y-17586280D01*
X18413720Y-17877431D01*
X18794126Y-18035000D01*
X19205874Y-18035000D01*
X19586280Y-17877431D01*
X19703711Y-17760000D01*
X22181641Y-17760000D01*
X22141161Y-17820582D01*
X22025908Y-18400000D01*
X22141161Y-18979418D01*
X22469375Y-19470625D01*
X22767761Y-19670000D01*
X22469375Y-19869375D01*
X22270000Y-20167761D01*
X22070625Y-19869375D01*
X21579418Y-19541161D01*
X21146256Y-19455000D01*
X20853744Y-19455000D01*
X20420582Y-19541161D01*
X19929375Y-19869375D01*
X19601161Y-20360582D01*
X19573657Y-20498856D01*
X19510331Y-20435530D01*
X19467929Y-20372071D01*
X19216537Y-20204096D01*
X18994852Y-20160000D01*
X18994847Y-20160000D01*
X18920000Y-20145112D01*
X18845153Y-20160000D01*
X18028178Y-20160000D01*
X17820625Y-19849375D01*
X17522239Y-19650000D01*
X17820625Y-19450625D01*
X18148839Y-18959418D01*
X18264092Y-18380000D01*
X18148839Y-17800582D01*
X17820625Y-17309375D01*
X17329418Y-16981161D01*
X16896256Y-16895000D01*
X16603744Y-16895000D01*
X16170582Y-16981161D01*
X15679375Y-17309375D01*
X15351161Y-17800582D01*
X15235908Y-18380000D01*
X15351161Y-18959418D01*
X15679375Y-19450625D01*
X15977761Y-19650000D01*
X15679375Y-19849375D01*
X15351161Y-20340582D01*
X15235908Y-20920000D01*
X15351161Y-21499418D01*
X15679375Y-21990625D01*
X15842764Y-22099798D01*
X15571231Y-22281231D01*
X15209864Y-22822055D01*
X15082969Y-23460000D01*
X14735000Y-23460000D01*
X14735000Y-14735000D01*
X45265000Y-14735000D01*
X45265001Y-29265000D01*
X45265001Y-29265000D01*
G37*
X45265001Y-29265000D02*
X14735000Y-29265000D01*
X14735000Y-23460000D01*
X15082969Y-23460000D01*
X15209864Y-24097945D01*
X15571231Y-24638769D01*
X16112055Y-25000136D01*
X16588969Y-25095000D01*
X17940997Y-25095000D01*
X18288247Y-25442250D01*
X18379466Y-25578769D01*
X18701771Y-25794126D01*
X18920289Y-25940136D01*
X19558235Y-26067031D01*
X19719266Y-26035000D01*
X25230912Y-26035000D01*
X25165000Y-26194126D01*
X25165000Y-26605874D01*
X25322569Y-26986280D01*
X25613720Y-27277431D01*
X25994126Y-27435000D01*
X26405874Y-27435000D01*
X26466230Y-27410000D01*
X29928196Y-27409999D01*
X29954379Y-27420877D01*
X30078577Y-27445717D01*
X30294126Y-27535000D01*
X30705874Y-27535000D01*
X31007653Y-27409999D01*
X38750525Y-27409998D01*
X38850001Y-27429785D01*
X39244083Y-27351397D01*
X39493838Y-27184517D01*
X39493841Y-27184514D01*
X39578170Y-27128167D01*
X39634517Y-27043838D01*
X39775923Y-26902432D01*
X39836280Y-26877431D01*
X40127431Y-26586280D01*
X40285000Y-26205874D01*
X40285000Y-25794126D01*
X40127431Y-25413720D01*
X40012975Y-25299264D01*
X40217238Y-25095000D01*
X42661031Y-25095000D01*
X43137945Y-25000136D01*
X43678769Y-24638769D01*
X44040136Y-24097945D01*
X44167031Y-23460000D01*
X44040136Y-22822055D01*
X43678769Y-22281231D01*
X43407236Y-22099798D01*
X43570625Y-21990625D01*
X43898839Y-21499418D01*
X44014092Y-20920000D01*
X43898839Y-20340582D01*
X43570625Y-19849375D01*
X43272239Y-19650000D01*
X43570625Y-19450625D01*
X43898839Y-18959418D01*
X44014092Y-18380000D01*
X43898839Y-17800582D01*
X43570625Y-17309375D01*
X43079418Y-16981161D01*
X42646256Y-16895000D01*
X42353744Y-16895000D01*
X41920582Y-16981161D01*
X41429375Y-17309375D01*
X41101161Y-17800582D01*
X40985908Y-18380000D01*
X41058791Y-18746408D01*
X40740529Y-19064670D01*
X40677073Y-19107070D01*
X40634673Y-19170526D01*
X40634672Y-19170527D01*
X40509098Y-19358462D01*
X40450113Y-19654999D01*
X40465002Y-19729851D01*
X40465001Y-21215001D01*
X37599847Y-21215001D01*
X37524999Y-21200113D01*
X37450151Y-21215001D01*
X37450147Y-21215001D01*
X37276604Y-21249521D01*
X37228461Y-21259097D01*
X37165055Y-21301464D01*
X36977070Y-21427072D01*
X36951727Y-21465000D01*
X36794126Y-21465000D01*
X36413720Y-21622569D01*
X36122569Y-21913720D01*
X35965000Y-22294126D01*
X35965000Y-22705874D01*
X35989491Y-22765000D01*
X34656956Y-22765000D01*
X34785000Y-22455874D01*
X34785000Y-22289801D01*
X36314802Y-20760000D01*
X37175153Y-20760000D01*
X37250000Y-20774888D01*
X37324847Y-20760000D01*
X37324852Y-20760000D01*
X37546537Y-20715904D01*
X37797929Y-20547929D01*
X37840331Y-20484470D01*
X38484473Y-19840329D01*
X38547929Y-19797929D01*
X38671242Y-19613378D01*
X38747765Y-19598157D01*
X38957809Y-19457809D01*
X39098157Y-19247765D01*
X39147440Y-19000000D01*
X39147440Y-18000000D01*
X39098157Y-17752235D01*
X38957809Y-17542191D01*
X38747765Y-17401843D01*
X38500000Y-17352560D01*
X37500000Y-17352560D01*
X37252235Y-17401843D01*
X37042191Y-17542191D01*
X36901843Y-17752235D01*
X36875000Y-17887185D01*
X36848157Y-17752235D01*
X36707809Y-17542191D01*
X36497765Y-17401843D01*
X36250000Y-17352560D01*
X35250000Y-17352560D01*
X35002235Y-17401843D01*
X34792191Y-17542191D01*
X34651843Y-17752235D01*
X34602560Y-18000000D01*
X34602560Y-18740000D01*
X34203711Y-18740000D01*
X34086280Y-18622569D01*
X33705874Y-18465000D01*
X33294126Y-18465000D01*
X32913720Y-18622569D01*
X32622569Y-18913720D01*
X32465000Y-19294126D01*
X32465000Y-19705874D01*
X32586831Y-20000000D01*
X32465000Y-20294126D01*
X32465000Y-20460198D01*
X31015528Y-21909671D01*
X30995189Y-21930010D01*
X25729137Y-21930010D01*
X25760000Y-21774852D01*
X25760000Y-21774848D01*
X25774888Y-21700001D01*
X25760000Y-21625154D01*
X25760000Y-20814801D01*
X26314802Y-20260000D01*
X28296289Y-20260000D01*
X28413720Y-20377431D01*
X28794126Y-20535000D01*
X29205874Y-20535000D01*
X29586280Y-20377431D01*
X29750000Y-20213711D01*
X29913720Y-20377431D01*
X30294126Y-20535000D01*
X30705874Y-20535000D01*
X31086280Y-20377431D01*
X31377431Y-20086280D01*
X31535000Y-19705874D01*
X31535000Y-19294126D01*
X31377431Y-18913720D01*
X31213711Y-18750000D01*
X31377431Y-18586280D01*
X31535000Y-18205874D01*
X31535000Y-18039801D01*
X32814802Y-16760000D01*
X39296289Y-16760000D01*
X39413720Y-16877431D01*
X39794126Y-17035000D01*
X40205874Y-17035000D01*
X40586280Y-16877431D01*
X40877431Y-16586280D01*
X41035000Y-16205874D01*
X41035000Y-15794126D01*
X40877431Y-15413720D01*
X40586280Y-15122569D01*
X40205874Y-14965000D01*
X39794126Y-14965000D01*
X39413720Y-15122569D01*
X39296289Y-15240000D01*
X32574846Y-15240000D01*
X32499999Y-15225112D01*
X32425152Y-15240000D01*
X32425148Y-15240000D01*
X32203463Y-15284096D01*
X31952071Y-15452071D01*
X31909671Y-15515527D01*
X30460199Y-16965000D01*
X30294126Y-16965000D01*
X30165912Y-17018108D01*
X29463333Y-16315530D01*
X29420931Y-16252071D01*
X29169539Y-16084096D01*
X28947854Y-16040000D01*
X28947849Y-16040000D01*
X28873002Y-16025112D01*
X28798155Y-16040000D01*
X23303711Y-16040000D01*
X23186280Y-15922569D01*
X22805874Y-15765000D01*
X22394126Y-15765000D01*
X22013720Y-15922569D01*
X21722569Y-16213720D01*
X21711683Y-16240000D01*
X19703711Y-16240000D01*
X19586280Y-16122569D01*
X19205874Y-15965000D01*
X18794126Y-15965000D01*
X18413720Y-16122569D01*
X18122569Y-16413720D01*
X17965000Y-16794126D01*
X17965000Y-17205874D01*
X18122569Y-17586280D01*
X18413720Y-17877431D01*
X18794126Y-18035000D01*
X19205874Y-18035000D01*
X19586280Y-17877431D01*
X19703711Y-17760000D01*
X22181641Y-17760000D01*
X22141161Y-17820582D01*
X22025908Y-18400000D01*
X22141161Y-18979418D01*
X22469375Y-19470625D01*
X22767761Y-19670000D01*
X22469375Y-19869375D01*
X22270000Y-20167761D01*
X22070625Y-19869375D01*
X21579418Y-19541161D01*
X21146256Y-19455000D01*
X20853744Y-19455000D01*
X20420582Y-19541161D01*
X19929375Y-19869375D01*
X19601161Y-20360582D01*
X19573657Y-20498856D01*
X19510331Y-20435530D01*
X19467929Y-20372071D01*
X19216537Y-20204096D01*
X18994852Y-20160000D01*
X18994847Y-20160000D01*
X18920000Y-20145112D01*
X18845153Y-20160000D01*
X18028178Y-20160000D01*
X17820625Y-19849375D01*
X17522239Y-19650000D01*
X17820625Y-19450625D01*
X18148839Y-18959418D01*
X18264092Y-18380000D01*
X18148839Y-17800582D01*
X17820625Y-17309375D01*
X17329418Y-16981161D01*
X16896256Y-16895000D01*
X16603744Y-16895000D01*
X16170582Y-16981161D01*
X15679375Y-17309375D01*
X15351161Y-17800582D01*
X15235908Y-18380000D01*
X15351161Y-18959418D01*
X15679375Y-19450625D01*
X15977761Y-19650000D01*
X15679375Y-19849375D01*
X15351161Y-20340582D01*
X15235908Y-20920000D01*
X15351161Y-21499418D01*
X15679375Y-21990625D01*
X15842764Y-22099798D01*
X15571231Y-22281231D01*
X15209864Y-22822055D01*
X15082969Y-23460000D01*
X14735000Y-23460000D01*
X14735000Y-14735000D01*
X45265000Y-14735000D01*
X45265001Y-29265000D01*
G04 #@! TD*
M02*
