G04 #@! TF.GenerationSoftware,KiCad,Pcbnew,(5.0.0-dirty)*
G04 #@! TF.CreationDate,2020-09-03T12:08:13+09:00*
G04 #@! TF.ProjectId,fake-fan-mk2,66616B652D66616E2D6D6B322E6B6963,rev?*
G04 #@! TF.SameCoordinates,Original*
G04 #@! TF.FileFunction,Legend,Bot*
G04 #@! TF.FilePolarity,Positive*
%FSLAX46Y46*%
G04 Gerber Fmt 4.6, Leading zero omitted, Abs format (unit mm)*
G04 Created by KiCad (PCBNEW (5.0.0-dirty)) date 09/03/20 12:08:13*
%MOMM*%
%LPD*%
G01*
G04 APERTURE LIST*
%ADD10C,0.250000*%
%ADD11C,0.200000*%
%ADD12C,0.010000*%
%ADD13C,0.120000*%
%ADD14C,0.150000*%
G04 APERTURE END LIST*
D10*
X35280952Y-15076190D02*
X35328571Y-15028571D01*
X35423809Y-14980952D01*
X35519047Y-14980952D01*
X35614285Y-15028571D01*
X35661904Y-15076190D01*
X35709523Y-15171428D01*
X35709523Y-15266666D01*
X35661904Y-15361904D01*
X35614285Y-15409523D01*
X35519047Y-15457142D01*
X35423809Y-15457142D01*
X35328571Y-15409523D01*
X35280952Y-15361904D01*
X35280952Y-14980952D02*
X35280952Y-15361904D01*
X35233333Y-15409523D01*
X35185714Y-15409523D01*
X35090476Y-15361904D01*
X35042857Y-15266666D01*
X35042857Y-15028571D01*
X35138095Y-14885714D01*
X35280952Y-14790476D01*
X35471428Y-14742857D01*
X35661904Y-14790476D01*
X35804761Y-14885714D01*
X35900000Y-15028571D01*
X35947619Y-15219047D01*
X35900000Y-15409523D01*
X35804761Y-15552380D01*
X35661904Y-15647619D01*
X35471428Y-15695238D01*
X35280952Y-15647619D01*
X35138095Y-15552380D01*
X34614285Y-15552380D02*
X34614285Y-14552380D01*
X34614285Y-15028571D02*
X34042857Y-15028571D01*
X34042857Y-15552380D02*
X34042857Y-14552380D01*
X33661904Y-14885714D02*
X33423809Y-15552380D01*
X33185714Y-14885714D02*
X33423809Y-15552380D01*
X33519047Y-15790476D01*
X33566666Y-15838095D01*
X33661904Y-15885714D01*
X32804761Y-14885714D02*
X32804761Y-15885714D01*
X32804761Y-14933333D02*
X32709523Y-14885714D01*
X32519047Y-14885714D01*
X32423809Y-14933333D01*
X32376190Y-14980952D01*
X32328571Y-15076190D01*
X32328571Y-15361904D01*
X32376190Y-15457142D01*
X32423809Y-15504761D01*
X32519047Y-15552380D01*
X32709523Y-15552380D01*
X32804761Y-15504761D01*
X31519047Y-15504761D02*
X31614285Y-15552380D01*
X31804761Y-15552380D01*
X31900000Y-15504761D01*
X31947619Y-15409523D01*
X31947619Y-15028571D01*
X31900000Y-14933333D01*
X31804761Y-14885714D01*
X31614285Y-14885714D01*
X31519047Y-14933333D01*
X31471428Y-15028571D01*
X31471428Y-15123809D01*
X31947619Y-15219047D01*
X31042857Y-15552380D02*
X31042857Y-14885714D01*
X31042857Y-15076190D02*
X30995238Y-14980952D01*
X30947619Y-14933333D01*
X30852380Y-14885714D01*
X30757142Y-14885714D01*
X30661904Y-15647619D02*
X29900000Y-15647619D01*
X29661904Y-15552380D02*
X29661904Y-14552380D01*
X29661904Y-14933333D02*
X29566666Y-14885714D01*
X29376190Y-14885714D01*
X29280952Y-14933333D01*
X29233333Y-14980952D01*
X29185714Y-15076190D01*
X29185714Y-15361904D01*
X29233333Y-15457142D01*
X29280952Y-15504761D01*
X29376190Y-15552380D01*
X29566666Y-15552380D01*
X29661904Y-15504761D01*
X28376190Y-15504761D02*
X28471428Y-15552380D01*
X28661904Y-15552380D01*
X28757142Y-15504761D01*
X28804761Y-15409523D01*
X28804761Y-15028571D01*
X28757142Y-14933333D01*
X28661904Y-14885714D01*
X28471428Y-14885714D01*
X28376190Y-14933333D01*
X28328571Y-15028571D01*
X28328571Y-15123809D01*
X28804761Y-15219047D01*
X28042857Y-14885714D02*
X27661904Y-14885714D01*
X27900000Y-14552380D02*
X27900000Y-15409523D01*
X27852380Y-15504761D01*
X27757142Y-15552380D01*
X27661904Y-15552380D01*
X26900000Y-15552380D02*
X26900000Y-15028571D01*
X26947619Y-14933333D01*
X27042857Y-14885714D01*
X27233333Y-14885714D01*
X27328571Y-14933333D01*
X26900000Y-15504761D02*
X26995238Y-15552380D01*
X27233333Y-15552380D01*
X27328571Y-15504761D01*
X27376190Y-15409523D01*
X27376190Y-15314285D01*
X27328571Y-15219047D01*
X27233333Y-15171428D01*
X26995238Y-15171428D01*
X26900000Y-15123809D01*
X25638095Y-28428571D02*
X25971428Y-28428571D01*
X25971428Y-28952380D02*
X25971428Y-27952380D01*
X25495238Y-27952380D01*
X24685714Y-28952380D02*
X24685714Y-28428571D01*
X24733333Y-28333333D01*
X24828571Y-28285714D01*
X25019047Y-28285714D01*
X25114285Y-28333333D01*
X24685714Y-28904761D02*
X24780952Y-28952380D01*
X25019047Y-28952380D01*
X25114285Y-28904761D01*
X25161904Y-28809523D01*
X25161904Y-28714285D01*
X25114285Y-28619047D01*
X25019047Y-28571428D01*
X24780952Y-28571428D01*
X24685714Y-28523809D01*
X24209523Y-28285714D02*
X24209523Y-28952380D01*
X24209523Y-28380952D02*
X24161904Y-28333333D01*
X24066666Y-28285714D01*
X23923809Y-28285714D01*
X23828571Y-28333333D01*
X23780952Y-28428571D01*
X23780952Y-28952380D01*
X23304761Y-28428571D02*
X22971428Y-28428571D01*
X22828571Y-28952380D02*
X23304761Y-28952380D01*
X23304761Y-27952380D01*
X22828571Y-27952380D01*
X22400000Y-28952380D02*
X22400000Y-28285714D01*
X22400000Y-28380952D02*
X22352380Y-28333333D01*
X22257142Y-28285714D01*
X22114285Y-28285714D01*
X22019047Y-28333333D01*
X21971428Y-28428571D01*
X21971428Y-28952380D01*
X21971428Y-28428571D02*
X21923809Y-28333333D01*
X21828571Y-28285714D01*
X21685714Y-28285714D01*
X21590476Y-28333333D01*
X21542857Y-28428571D01*
X21542857Y-28952380D01*
X20638095Y-28285714D02*
X20638095Y-28952380D01*
X21066666Y-28285714D02*
X21066666Y-28809523D01*
X21019047Y-28904761D01*
X20923809Y-28952380D01*
X20780952Y-28952380D01*
X20685714Y-28904761D01*
X20638095Y-28857142D01*
X18828571Y-28952380D02*
X19161904Y-28476190D01*
X19400000Y-28952380D02*
X19400000Y-27952380D01*
X19019047Y-27952380D01*
X18923809Y-28000000D01*
X18876190Y-28047619D01*
X18828571Y-28142857D01*
X18828571Y-28285714D01*
X18876190Y-28380952D01*
X18923809Y-28428571D01*
X19019047Y-28476190D01*
X19400000Y-28476190D01*
X18019047Y-28904761D02*
X18114285Y-28952380D01*
X18304761Y-28952380D01*
X18400000Y-28904761D01*
X18447619Y-28809523D01*
X18447619Y-28428571D01*
X18400000Y-28333333D01*
X18304761Y-28285714D01*
X18114285Y-28285714D01*
X18019047Y-28333333D01*
X17971428Y-28428571D01*
X17971428Y-28523809D01*
X18447619Y-28619047D01*
X17638095Y-28285714D02*
X17400000Y-28952380D01*
X17161904Y-28285714D01*
X16780952Y-28857142D02*
X16733333Y-28904761D01*
X16780952Y-28952380D01*
X16828571Y-28904761D01*
X16780952Y-28857142D01*
X16780952Y-28952380D01*
X15780952Y-28952380D02*
X16352380Y-28952380D01*
X16066666Y-28952380D02*
X16066666Y-27952380D01*
X16161904Y-28095238D01*
X16257142Y-28190476D01*
X16352380Y-28238095D01*
D11*
X14000000Y-30000000D02*
X14000000Y-14000000D01*
X46000000Y-30000000D02*
X14000000Y-30000000D01*
X46000000Y-14000000D02*
X46000000Y-30000000D01*
X14000000Y-14000000D02*
X46000000Y-14000000D01*
D12*
G04 #@! TO.C,G\002A\002A\002A*
G36*
X35622364Y-28008425D02*
X35579163Y-28010427D01*
X35545262Y-28014180D01*
X35516864Y-28020023D01*
X35505100Y-28023353D01*
X35449823Y-28043572D01*
X35394109Y-28069729D01*
X35344544Y-28098527D01*
X35320298Y-28115858D01*
X35287770Y-28141621D01*
X35355054Y-28208905D01*
X35394755Y-28181590D01*
X35425178Y-28162915D01*
X35461856Y-28143498D01*
X35486711Y-28131981D01*
X35507881Y-28123409D01*
X35527004Y-28117359D01*
X35547686Y-28113392D01*
X35573528Y-28111068D01*
X35608134Y-28109945D01*
X35655108Y-28109584D01*
X35670200Y-28109560D01*
X35723889Y-28109854D01*
X35764070Y-28111068D01*
X35794159Y-28113516D01*
X35817572Y-28117513D01*
X35837722Y-28123376D01*
X35843766Y-28125593D01*
X35899202Y-28151051D01*
X35939283Y-28179927D01*
X35965489Y-28213818D01*
X35979302Y-28254321D01*
X35981826Y-28274522D01*
X35980152Y-28321012D01*
X35966433Y-28358008D01*
X35939020Y-28389385D01*
X35929753Y-28396867D01*
X35907912Y-28411111D01*
X35880303Y-28424307D01*
X35844900Y-28437070D01*
X35799678Y-28450014D01*
X35742611Y-28463755D01*
X35671675Y-28478909D01*
X35635931Y-28486106D01*
X35581695Y-28497320D01*
X35530067Y-28508813D01*
X35484539Y-28519746D01*
X35448601Y-28529280D01*
X35425745Y-28536575D01*
X35425418Y-28536703D01*
X35360089Y-28569203D01*
X35309826Y-28609366D01*
X35274493Y-28657400D01*
X35253952Y-28713514D01*
X35248066Y-28777917D01*
X35249548Y-28803604D01*
X35263768Y-28869918D01*
X35292785Y-28929376D01*
X35335599Y-28981222D01*
X35391211Y-29024705D01*
X35458623Y-29059070D01*
X35536834Y-29083562D01*
X35624847Y-29097428D01*
X35640566Y-29098665D01*
X35679580Y-29099821D01*
X35720019Y-29098706D01*
X35746588Y-29096328D01*
X35819352Y-29080442D01*
X35892946Y-29053513D01*
X35963613Y-29017649D01*
X36027596Y-28974959D01*
X36081141Y-28927552D01*
X36111109Y-28891697D01*
X36122499Y-28874352D01*
X36124206Y-28863594D01*
X36116617Y-28852399D01*
X36113483Y-28848897D01*
X36094585Y-28830858D01*
X36075474Y-28815615D01*
X36053182Y-28799725D01*
X35993983Y-28857876D01*
X35930620Y-28910491D01*
X35860199Y-28952022D01*
X35785831Y-28981263D01*
X35710631Y-28997007D01*
X35637712Y-28998050D01*
X35633260Y-28997595D01*
X35578717Y-28987657D01*
X35523046Y-28970684D01*
X35471989Y-28948817D01*
X35431288Y-28924198D01*
X35426582Y-28920522D01*
X35388211Y-28880518D01*
X35363619Y-28835557D01*
X35353190Y-28788265D01*
X35357311Y-28741268D01*
X35376367Y-28697191D01*
X35390928Y-28677847D01*
X35414373Y-28656269D01*
X35445335Y-28637409D01*
X35485818Y-28620525D01*
X35537825Y-28604874D01*
X35603361Y-28589714D01*
X35657501Y-28579155D01*
X35728844Y-28565758D01*
X35786061Y-28554333D01*
X35831750Y-28544202D01*
X35868507Y-28534687D01*
X35898932Y-28525109D01*
X35925623Y-28514790D01*
X35951177Y-28503051D01*
X35953688Y-28501813D01*
X35994657Y-28479437D01*
X36024059Y-28457257D01*
X36046629Y-28430885D01*
X36066393Y-28397300D01*
X36078983Y-28369126D01*
X36085840Y-28341244D01*
X36088503Y-28306365D01*
X36088727Y-28291417D01*
X36082307Y-28226250D01*
X36061925Y-28169846D01*
X36027048Y-28121395D01*
X35977147Y-28080084D01*
X35934416Y-28055684D01*
X35894923Y-28037480D01*
X35858393Y-28024421D01*
X35820614Y-28015720D01*
X35777377Y-28010590D01*
X35724470Y-28008243D01*
X35678666Y-28007833D01*
X35622364Y-28008425D01*
X35622364Y-28008425D01*
G37*
X35622364Y-28008425D02*
X35579163Y-28010427D01*
X35545262Y-28014180D01*
X35516864Y-28020023D01*
X35505100Y-28023353D01*
X35449823Y-28043572D01*
X35394109Y-28069729D01*
X35344544Y-28098527D01*
X35320298Y-28115858D01*
X35287770Y-28141621D01*
X35355054Y-28208905D01*
X35394755Y-28181590D01*
X35425178Y-28162915D01*
X35461856Y-28143498D01*
X35486711Y-28131981D01*
X35507881Y-28123409D01*
X35527004Y-28117359D01*
X35547686Y-28113392D01*
X35573528Y-28111068D01*
X35608134Y-28109945D01*
X35655108Y-28109584D01*
X35670200Y-28109560D01*
X35723889Y-28109854D01*
X35764070Y-28111068D01*
X35794159Y-28113516D01*
X35817572Y-28117513D01*
X35837722Y-28123376D01*
X35843766Y-28125593D01*
X35899202Y-28151051D01*
X35939283Y-28179927D01*
X35965489Y-28213818D01*
X35979302Y-28254321D01*
X35981826Y-28274522D01*
X35980152Y-28321012D01*
X35966433Y-28358008D01*
X35939020Y-28389385D01*
X35929753Y-28396867D01*
X35907912Y-28411111D01*
X35880303Y-28424307D01*
X35844900Y-28437070D01*
X35799678Y-28450014D01*
X35742611Y-28463755D01*
X35671675Y-28478909D01*
X35635931Y-28486106D01*
X35581695Y-28497320D01*
X35530067Y-28508813D01*
X35484539Y-28519746D01*
X35448601Y-28529280D01*
X35425745Y-28536575D01*
X35425418Y-28536703D01*
X35360089Y-28569203D01*
X35309826Y-28609366D01*
X35274493Y-28657400D01*
X35253952Y-28713514D01*
X35248066Y-28777917D01*
X35249548Y-28803604D01*
X35263768Y-28869918D01*
X35292785Y-28929376D01*
X35335599Y-28981222D01*
X35391211Y-29024705D01*
X35458623Y-29059070D01*
X35536834Y-29083562D01*
X35624847Y-29097428D01*
X35640566Y-29098665D01*
X35679580Y-29099821D01*
X35720019Y-29098706D01*
X35746588Y-29096328D01*
X35819352Y-29080442D01*
X35892946Y-29053513D01*
X35963613Y-29017649D01*
X36027596Y-28974959D01*
X36081141Y-28927552D01*
X36111109Y-28891697D01*
X36122499Y-28874352D01*
X36124206Y-28863594D01*
X36116617Y-28852399D01*
X36113483Y-28848897D01*
X36094585Y-28830858D01*
X36075474Y-28815615D01*
X36053182Y-28799725D01*
X35993983Y-28857876D01*
X35930620Y-28910491D01*
X35860199Y-28952022D01*
X35785831Y-28981263D01*
X35710631Y-28997007D01*
X35637712Y-28998050D01*
X35633260Y-28997595D01*
X35578717Y-28987657D01*
X35523046Y-28970684D01*
X35471989Y-28948817D01*
X35431288Y-28924198D01*
X35426582Y-28920522D01*
X35388211Y-28880518D01*
X35363619Y-28835557D01*
X35353190Y-28788265D01*
X35357311Y-28741268D01*
X35376367Y-28697191D01*
X35390928Y-28677847D01*
X35414373Y-28656269D01*
X35445335Y-28637409D01*
X35485818Y-28620525D01*
X35537825Y-28604874D01*
X35603361Y-28589714D01*
X35657501Y-28579155D01*
X35728844Y-28565758D01*
X35786061Y-28554333D01*
X35831750Y-28544202D01*
X35868507Y-28534687D01*
X35898932Y-28525109D01*
X35925623Y-28514790D01*
X35951177Y-28503051D01*
X35953688Y-28501813D01*
X35994657Y-28479437D01*
X36024059Y-28457257D01*
X36046629Y-28430885D01*
X36066393Y-28397300D01*
X36078983Y-28369126D01*
X36085840Y-28341244D01*
X36088503Y-28306365D01*
X36088727Y-28291417D01*
X36082307Y-28226250D01*
X36061925Y-28169846D01*
X36027048Y-28121395D01*
X35977147Y-28080084D01*
X35934416Y-28055684D01*
X35894923Y-28037480D01*
X35858393Y-28024421D01*
X35820614Y-28015720D01*
X35777377Y-28010590D01*
X35724470Y-28008243D01*
X35678666Y-28007833D01*
X35622364Y-28008425D01*
G36*
X30041294Y-28007872D02*
X29956674Y-28023837D01*
X29875754Y-28053668D01*
X29801297Y-28096130D01*
X29736064Y-28149986D01*
X29691442Y-28201720D01*
X29667333Y-28234740D01*
X29667333Y-28020533D01*
X29565733Y-28020533D01*
X29565733Y-29087333D01*
X29667333Y-29087333D01*
X29667869Y-28846033D01*
X29685856Y-28871433D01*
X29699664Y-28888335D01*
X29722047Y-28912965D01*
X29749333Y-28941357D01*
X29765879Y-28957905D01*
X29829859Y-29011603D01*
X29900302Y-29054221D01*
X29973414Y-29083732D01*
X30022933Y-29095313D01*
X30054428Y-29100077D01*
X30078394Y-29102392D01*
X30101068Y-29102259D01*
X30128687Y-29099675D01*
X30162633Y-29095294D01*
X30246444Y-29075735D01*
X30325660Y-29041146D01*
X30398637Y-28993169D01*
X30463730Y-28933450D01*
X30519294Y-28863631D01*
X30563682Y-28785356D01*
X30595251Y-28700269D01*
X30606427Y-28651861D01*
X30616487Y-28554407D01*
X30614050Y-28511261D01*
X30505175Y-28511261D01*
X30504560Y-28570943D01*
X30499211Y-28628164D01*
X30490138Y-28673318D01*
X30461343Y-28749925D01*
X30420302Y-28819577D01*
X30368993Y-28880176D01*
X30309394Y-28929622D01*
X30243482Y-28965818D01*
X30200528Y-28980627D01*
X30150319Y-28989585D01*
X30091596Y-28993097D01*
X30031885Y-28991145D01*
X29978711Y-28983709D01*
X29968196Y-28981221D01*
X29893965Y-28953580D01*
X29828240Y-28912554D01*
X29771961Y-28859908D01*
X29726067Y-28797405D01*
X29691499Y-28726811D01*
X29669195Y-28649889D01*
X29660096Y-28568404D01*
X29665141Y-28484119D01*
X29675614Y-28431890D01*
X29703902Y-28350562D01*
X29744082Y-28279145D01*
X29795005Y-28218936D01*
X29855519Y-28171234D01*
X29924472Y-28137335D01*
X29942140Y-28131400D01*
X30028492Y-28112636D01*
X30112411Y-28109350D01*
X30192365Y-28120768D01*
X30266820Y-28146115D01*
X30334242Y-28184616D01*
X30393099Y-28235495D01*
X30441858Y-28297976D01*
X30478984Y-28371286D01*
X30492025Y-28409420D01*
X30501011Y-28455344D01*
X30505175Y-28511261D01*
X30614050Y-28511261D01*
X30611150Y-28459935D01*
X30591050Y-28370011D01*
X30556820Y-28286199D01*
X30509094Y-28210068D01*
X30448506Y-28143181D01*
X30378579Y-28088960D01*
X30314420Y-28055027D01*
X30240377Y-28028456D01*
X30162631Y-28011257D01*
X30126851Y-28007007D01*
X30041294Y-28007872D01*
X30041294Y-28007872D01*
G37*
X30041294Y-28007872D02*
X29956674Y-28023837D01*
X29875754Y-28053668D01*
X29801297Y-28096130D01*
X29736064Y-28149986D01*
X29691442Y-28201720D01*
X29667333Y-28234740D01*
X29667333Y-28020533D01*
X29565733Y-28020533D01*
X29565733Y-29087333D01*
X29667333Y-29087333D01*
X29667869Y-28846033D01*
X29685856Y-28871433D01*
X29699664Y-28888335D01*
X29722047Y-28912965D01*
X29749333Y-28941357D01*
X29765879Y-28957905D01*
X29829859Y-29011603D01*
X29900302Y-29054221D01*
X29973414Y-29083732D01*
X30022933Y-29095313D01*
X30054428Y-29100077D01*
X30078394Y-29102392D01*
X30101068Y-29102259D01*
X30128687Y-29099675D01*
X30162633Y-29095294D01*
X30246444Y-29075735D01*
X30325660Y-29041146D01*
X30398637Y-28993169D01*
X30463730Y-28933450D01*
X30519294Y-28863631D01*
X30563682Y-28785356D01*
X30595251Y-28700269D01*
X30606427Y-28651861D01*
X30616487Y-28554407D01*
X30614050Y-28511261D01*
X30505175Y-28511261D01*
X30504560Y-28570943D01*
X30499211Y-28628164D01*
X30490138Y-28673318D01*
X30461343Y-28749925D01*
X30420302Y-28819577D01*
X30368993Y-28880176D01*
X30309394Y-28929622D01*
X30243482Y-28965818D01*
X30200528Y-28980627D01*
X30150319Y-28989585D01*
X30091596Y-28993097D01*
X30031885Y-28991145D01*
X29978711Y-28983709D01*
X29968196Y-28981221D01*
X29893965Y-28953580D01*
X29828240Y-28912554D01*
X29771961Y-28859908D01*
X29726067Y-28797405D01*
X29691499Y-28726811D01*
X29669195Y-28649889D01*
X29660096Y-28568404D01*
X29665141Y-28484119D01*
X29675614Y-28431890D01*
X29703902Y-28350562D01*
X29744082Y-28279145D01*
X29795005Y-28218936D01*
X29855519Y-28171234D01*
X29924472Y-28137335D01*
X29942140Y-28131400D01*
X30028492Y-28112636D01*
X30112411Y-28109350D01*
X30192365Y-28120768D01*
X30266820Y-28146115D01*
X30334242Y-28184616D01*
X30393099Y-28235495D01*
X30441858Y-28297976D01*
X30478984Y-28371286D01*
X30492025Y-28409420D01*
X30501011Y-28455344D01*
X30505175Y-28511261D01*
X30614050Y-28511261D01*
X30611150Y-28459935D01*
X30591050Y-28370011D01*
X30556820Y-28286199D01*
X30509094Y-28210068D01*
X30448506Y-28143181D01*
X30378579Y-28088960D01*
X30314420Y-28055027D01*
X30240377Y-28028456D01*
X30162631Y-28011257D01*
X30126851Y-28007007D01*
X30041294Y-28007872D01*
G36*
X34445522Y-28010625D02*
X34356600Y-28031778D01*
X34276079Y-28067385D01*
X34203433Y-28117650D01*
X34170939Y-28147307D01*
X34111616Y-28216514D01*
X34067030Y-28292254D01*
X34036739Y-28375655D01*
X34020301Y-28467846D01*
X34016795Y-28541233D01*
X34024255Y-28642860D01*
X34046345Y-28737625D01*
X34082630Y-28824509D01*
X34132676Y-28902498D01*
X34196050Y-28970573D01*
X34202754Y-28976493D01*
X34240700Y-29004405D01*
X34288782Y-29032561D01*
X34340911Y-29057929D01*
X34390999Y-29077479D01*
X34423900Y-29086570D01*
X34481803Y-29094096D01*
X34547533Y-29095605D01*
X34614089Y-29091369D01*
X34674467Y-29081661D01*
X34696533Y-29075948D01*
X34752627Y-29056262D01*
X34801331Y-29031825D01*
X34847545Y-28999592D01*
X34896166Y-28956519D01*
X34909117Y-28943855D01*
X34945149Y-28905959D01*
X34972059Y-28871712D01*
X34994427Y-28834814D01*
X35007981Y-28807933D01*
X35028961Y-28762527D01*
X35044020Y-28724601D01*
X35054116Y-28689543D01*
X35060203Y-28652745D01*
X35063239Y-28609598D01*
X35064180Y-28555492D01*
X35064198Y-28537000D01*
X35064132Y-28527116D01*
X34965564Y-28527116D01*
X34960901Y-28609265D01*
X34942742Y-28688360D01*
X34912185Y-28762446D01*
X34870330Y-28829572D01*
X34818276Y-28887782D01*
X34757122Y-28935124D01*
X34687967Y-28969644D01*
X34653499Y-28980753D01*
X34602845Y-28989885D01*
X34545429Y-28993158D01*
X34488475Y-28990579D01*
X34439208Y-28982156D01*
X34433486Y-28980555D01*
X34365793Y-28955144D01*
X34307470Y-28920624D01*
X34252368Y-28873322D01*
X34249804Y-28870771D01*
X34195725Y-28805053D01*
X34156120Y-28730711D01*
X34131164Y-28648198D01*
X34121035Y-28557965D01*
X34120799Y-28541233D01*
X34128253Y-28450542D01*
X34150483Y-28367855D01*
X34187293Y-28293549D01*
X34238490Y-28228005D01*
X34303876Y-28171601D01*
X34315811Y-28163336D01*
X34370123Y-28135399D01*
X34434804Y-28115852D01*
X34505230Y-28105213D01*
X34576777Y-28104001D01*
X34644822Y-28112733D01*
X34680581Y-28122463D01*
X34756294Y-28156468D01*
X34821718Y-28203577D01*
X34876082Y-28262890D01*
X34918616Y-28333507D01*
X34948549Y-28414525D01*
X34955631Y-28443866D01*
X34965564Y-28527116D01*
X35064132Y-28527116D01*
X35063862Y-28486863D01*
X35062657Y-28449499D01*
X35060077Y-28420751D01*
X35055618Y-28396463D01*
X35048776Y-28372477D01*
X35041758Y-28352133D01*
X35010486Y-28278905D01*
X34971876Y-28216260D01*
X34922025Y-28158201D01*
X34903873Y-28140382D01*
X34836052Y-28085342D01*
X34763272Y-28045017D01*
X34683587Y-28018668D01*
X34595050Y-28005558D01*
X34543371Y-28003725D01*
X34445522Y-28010625D01*
X34445522Y-28010625D01*
G37*
X34445522Y-28010625D02*
X34356600Y-28031778D01*
X34276079Y-28067385D01*
X34203433Y-28117650D01*
X34170939Y-28147307D01*
X34111616Y-28216514D01*
X34067030Y-28292254D01*
X34036739Y-28375655D01*
X34020301Y-28467846D01*
X34016795Y-28541233D01*
X34024255Y-28642860D01*
X34046345Y-28737625D01*
X34082630Y-28824509D01*
X34132676Y-28902498D01*
X34196050Y-28970573D01*
X34202754Y-28976493D01*
X34240700Y-29004405D01*
X34288782Y-29032561D01*
X34340911Y-29057929D01*
X34390999Y-29077479D01*
X34423900Y-29086570D01*
X34481803Y-29094096D01*
X34547533Y-29095605D01*
X34614089Y-29091369D01*
X34674467Y-29081661D01*
X34696533Y-29075948D01*
X34752627Y-29056262D01*
X34801331Y-29031825D01*
X34847545Y-28999592D01*
X34896166Y-28956519D01*
X34909117Y-28943855D01*
X34945149Y-28905959D01*
X34972059Y-28871712D01*
X34994427Y-28834814D01*
X35007981Y-28807933D01*
X35028961Y-28762527D01*
X35044020Y-28724601D01*
X35054116Y-28689543D01*
X35060203Y-28652745D01*
X35063239Y-28609598D01*
X35064180Y-28555492D01*
X35064198Y-28537000D01*
X35064132Y-28527116D01*
X34965564Y-28527116D01*
X34960901Y-28609265D01*
X34942742Y-28688360D01*
X34912185Y-28762446D01*
X34870330Y-28829572D01*
X34818276Y-28887782D01*
X34757122Y-28935124D01*
X34687967Y-28969644D01*
X34653499Y-28980753D01*
X34602845Y-28989885D01*
X34545429Y-28993158D01*
X34488475Y-28990579D01*
X34439208Y-28982156D01*
X34433486Y-28980555D01*
X34365793Y-28955144D01*
X34307470Y-28920624D01*
X34252368Y-28873322D01*
X34249804Y-28870771D01*
X34195725Y-28805053D01*
X34156120Y-28730711D01*
X34131164Y-28648198D01*
X34121035Y-28557965D01*
X34120799Y-28541233D01*
X34128253Y-28450542D01*
X34150483Y-28367855D01*
X34187293Y-28293549D01*
X34238490Y-28228005D01*
X34303876Y-28171601D01*
X34315811Y-28163336D01*
X34370123Y-28135399D01*
X34434804Y-28115852D01*
X34505230Y-28105213D01*
X34576777Y-28104001D01*
X34644822Y-28112733D01*
X34680581Y-28122463D01*
X34756294Y-28156468D01*
X34821718Y-28203577D01*
X34876082Y-28262890D01*
X34918616Y-28333507D01*
X34948549Y-28414525D01*
X34955631Y-28443866D01*
X34965564Y-28527116D01*
X35064132Y-28527116D01*
X35063862Y-28486863D01*
X35062657Y-28449499D01*
X35060077Y-28420751D01*
X35055618Y-28396463D01*
X35048776Y-28372477D01*
X35041758Y-28352133D01*
X35010486Y-28278905D01*
X34971876Y-28216260D01*
X34922025Y-28158201D01*
X34903873Y-28140382D01*
X34836052Y-28085342D01*
X34763272Y-28045017D01*
X34683587Y-28018668D01*
X34595050Y-28005558D01*
X34543371Y-28003725D01*
X34445522Y-28010625D01*
G36*
X32749200Y-28020533D02*
X32402066Y-28020533D01*
X32402066Y-28105199D01*
X32749200Y-28105199D01*
X32749200Y-28451177D01*
X32748985Y-28533578D01*
X32748370Y-28610207D01*
X32747393Y-28679220D01*
X32746097Y-28738771D01*
X32744521Y-28787015D01*
X32742706Y-28822106D01*
X32740692Y-28842200D01*
X32740590Y-28842761D01*
X32725071Y-28893565D01*
X32700205Y-28937269D01*
X32668478Y-28970008D01*
X32652102Y-28980405D01*
X32612349Y-28993425D01*
X32563272Y-28998069D01*
X32510248Y-28994364D01*
X32458654Y-28982337D01*
X32450144Y-28979368D01*
X32400855Y-28961189D01*
X32384713Y-28996744D01*
X32374960Y-29019870D01*
X32369112Y-29036897D01*
X32368385Y-29040809D01*
X32375570Y-29047960D01*
X32394580Y-29058506D01*
X32421116Y-29070089D01*
X32455557Y-29081564D01*
X32491836Y-29088764D01*
X32536152Y-29092754D01*
X32558700Y-29093730D01*
X32599141Y-29094669D01*
X32627842Y-29093726D01*
X32649960Y-29090144D01*
X32670651Y-29083169D01*
X32689933Y-29074499D01*
X32742680Y-29043445D01*
X32783001Y-29004976D01*
X32813747Y-28955825D01*
X32831363Y-28912550D01*
X32834799Y-28900749D01*
X32837687Y-28885960D01*
X32840091Y-28866602D01*
X32842076Y-28841097D01*
X32843706Y-28807862D01*
X32845044Y-28765319D01*
X32846157Y-28711888D01*
X32847107Y-28645988D01*
X32847960Y-28566039D01*
X32848636Y-28488316D01*
X32851747Y-28105199D01*
X33070933Y-28105199D01*
X33070933Y-28020533D01*
X32850800Y-28020533D01*
X32850800Y-27717948D01*
X32819050Y-27712700D01*
X32792518Y-27709125D01*
X32770038Y-27707388D01*
X32768250Y-27707359D01*
X32749200Y-27707266D01*
X32749200Y-28020533D01*
X32749200Y-28020533D01*
G37*
X32749200Y-28020533D02*
X32402066Y-28020533D01*
X32402066Y-28105199D01*
X32749200Y-28105199D01*
X32749200Y-28451177D01*
X32748985Y-28533578D01*
X32748370Y-28610207D01*
X32747393Y-28679220D01*
X32746097Y-28738771D01*
X32744521Y-28787015D01*
X32742706Y-28822106D01*
X32740692Y-28842200D01*
X32740590Y-28842761D01*
X32725071Y-28893565D01*
X32700205Y-28937269D01*
X32668478Y-28970008D01*
X32652102Y-28980405D01*
X32612349Y-28993425D01*
X32563272Y-28998069D01*
X32510248Y-28994364D01*
X32458654Y-28982337D01*
X32450144Y-28979368D01*
X32400855Y-28961189D01*
X32384713Y-28996744D01*
X32374960Y-29019870D01*
X32369112Y-29036897D01*
X32368385Y-29040809D01*
X32375570Y-29047960D01*
X32394580Y-29058506D01*
X32421116Y-29070089D01*
X32455557Y-29081564D01*
X32491836Y-29088764D01*
X32536152Y-29092754D01*
X32558700Y-29093730D01*
X32599141Y-29094669D01*
X32627842Y-29093726D01*
X32649960Y-29090144D01*
X32670651Y-29083169D01*
X32689933Y-29074499D01*
X32742680Y-29043445D01*
X32783001Y-29004976D01*
X32813747Y-28955825D01*
X32831363Y-28912550D01*
X32834799Y-28900749D01*
X32837687Y-28885960D01*
X32840091Y-28866602D01*
X32842076Y-28841097D01*
X32843706Y-28807862D01*
X32845044Y-28765319D01*
X32846157Y-28711888D01*
X32847107Y-28645988D01*
X32847960Y-28566039D01*
X32848636Y-28488316D01*
X32851747Y-28105199D01*
X33070933Y-28105199D01*
X33070933Y-28020533D01*
X32850800Y-28020533D01*
X32850800Y-27717948D01*
X32819050Y-27712700D01*
X32792518Y-27709125D01*
X32770038Y-27707388D01*
X32768250Y-27707359D01*
X32749200Y-27707266D01*
X32749200Y-28020533D01*
G36*
X27856904Y-28018112D02*
X27769214Y-28043603D01*
X27691505Y-28081922D01*
X27624478Y-28132637D01*
X27568832Y-28195311D01*
X27525269Y-28269511D01*
X27523704Y-28272894D01*
X27506572Y-28319273D01*
X27492389Y-28374634D01*
X27482167Y-28433050D01*
X27476917Y-28488598D01*
X27477652Y-28535351D01*
X27478141Y-28539694D01*
X27484151Y-28587800D01*
X28415755Y-28587800D01*
X28409884Y-28623783D01*
X28397848Y-28672168D01*
X28377851Y-28726287D01*
X28352946Y-28779011D01*
X28326188Y-28823211D01*
X28322026Y-28828900D01*
X28283094Y-28871432D01*
X28233420Y-28912454D01*
X28178949Y-28947586D01*
X28128799Y-28971283D01*
X28071948Y-28985623D01*
X28006666Y-28990730D01*
X27938637Y-28986728D01*
X27873541Y-28973741D01*
X27846999Y-28965103D01*
X27796607Y-28943050D01*
X27745424Y-28914989D01*
X27698303Y-28883976D01*
X27660095Y-28853067D01*
X27645510Y-28838220D01*
X27620349Y-28809564D01*
X27542849Y-28873606D01*
X27595690Y-28924347D01*
X27666960Y-28984659D01*
X27742846Y-29031903D01*
X27810810Y-29062833D01*
X27842281Y-29074525D01*
X27869893Y-29082388D01*
X27898950Y-29087353D01*
X27934754Y-29090347D01*
X27978233Y-29092161D01*
X28046402Y-29092550D01*
X28098728Y-29088820D01*
X28124562Y-29084072D01*
X28204647Y-29055466D01*
X28281213Y-29012069D01*
X28350564Y-28956024D01*
X28357675Y-28949098D01*
X28419575Y-28876574D01*
X28466448Y-28796667D01*
X28498444Y-28708993D01*
X28515717Y-28613170D01*
X28519129Y-28541233D01*
X28516154Y-28494666D01*
X28416151Y-28494666D01*
X27574115Y-28494666D01*
X27580078Y-28445983D01*
X27595425Y-28372467D01*
X27621950Y-28304161D01*
X27657950Y-28244371D01*
X27701718Y-28196409D01*
X27713746Y-28186600D01*
X27776687Y-28148273D01*
X27849404Y-28120342D01*
X27927551Y-28103857D01*
X28006785Y-28099870D01*
X28054597Y-28104143D01*
X28137943Y-28124328D01*
X28211827Y-28158329D01*
X28275633Y-28205522D01*
X28328744Y-28265285D01*
X28370546Y-28336994D01*
X28400422Y-28420026D01*
X28410424Y-28464141D01*
X28416151Y-28494666D01*
X28516154Y-28494666D01*
X28513077Y-28446510D01*
X28494647Y-28361975D01*
X28462929Y-28285354D01*
X28417012Y-28214376D01*
X28364442Y-28155082D01*
X28295027Y-28095620D01*
X28220561Y-28051459D01*
X28139701Y-28022112D01*
X28051106Y-28007091D01*
X27953876Y-28005885D01*
X27856904Y-28018112D01*
X27856904Y-28018112D01*
G37*
X27856904Y-28018112D02*
X27769214Y-28043603D01*
X27691505Y-28081922D01*
X27624478Y-28132637D01*
X27568832Y-28195311D01*
X27525269Y-28269511D01*
X27523704Y-28272894D01*
X27506572Y-28319273D01*
X27492389Y-28374634D01*
X27482167Y-28433050D01*
X27476917Y-28488598D01*
X27477652Y-28535351D01*
X27478141Y-28539694D01*
X27484151Y-28587800D01*
X28415755Y-28587800D01*
X28409884Y-28623783D01*
X28397848Y-28672168D01*
X28377851Y-28726287D01*
X28352946Y-28779011D01*
X28326188Y-28823211D01*
X28322026Y-28828900D01*
X28283094Y-28871432D01*
X28233420Y-28912454D01*
X28178949Y-28947586D01*
X28128799Y-28971283D01*
X28071948Y-28985623D01*
X28006666Y-28990730D01*
X27938637Y-28986728D01*
X27873541Y-28973741D01*
X27846999Y-28965103D01*
X27796607Y-28943050D01*
X27745424Y-28914989D01*
X27698303Y-28883976D01*
X27660095Y-28853067D01*
X27645510Y-28838220D01*
X27620349Y-28809564D01*
X27542849Y-28873606D01*
X27595690Y-28924347D01*
X27666960Y-28984659D01*
X27742846Y-29031903D01*
X27810810Y-29062833D01*
X27842281Y-29074525D01*
X27869893Y-29082388D01*
X27898950Y-29087353D01*
X27934754Y-29090347D01*
X27978233Y-29092161D01*
X28046402Y-29092550D01*
X28098728Y-29088820D01*
X28124562Y-29084072D01*
X28204647Y-29055466D01*
X28281213Y-29012069D01*
X28350564Y-28956024D01*
X28357675Y-28949098D01*
X28419575Y-28876574D01*
X28466448Y-28796667D01*
X28498444Y-28708993D01*
X28515717Y-28613170D01*
X28519129Y-28541233D01*
X28516154Y-28494666D01*
X28416151Y-28494666D01*
X27574115Y-28494666D01*
X27580078Y-28445983D01*
X27595425Y-28372467D01*
X27621950Y-28304161D01*
X27657950Y-28244371D01*
X27701718Y-28196409D01*
X27713746Y-28186600D01*
X27776687Y-28148273D01*
X27849404Y-28120342D01*
X27927551Y-28103857D01*
X28006785Y-28099870D01*
X28054597Y-28104143D01*
X28137943Y-28124328D01*
X28211827Y-28158329D01*
X28275633Y-28205522D01*
X28328744Y-28265285D01*
X28370546Y-28336994D01*
X28400422Y-28420026D01*
X28410424Y-28464141D01*
X28416151Y-28494666D01*
X28516154Y-28494666D01*
X28513077Y-28446510D01*
X28494647Y-28361975D01*
X28462929Y-28285354D01*
X28417012Y-28214376D01*
X28364442Y-28155082D01*
X28295027Y-28095620D01*
X28220561Y-28051459D01*
X28139701Y-28022112D01*
X28051106Y-28007091D01*
X27953876Y-28005885D01*
X27856904Y-28018112D01*
G36*
X37880000Y-29087333D02*
X38142466Y-29087333D01*
X38142466Y-28147533D01*
X37880000Y-28147533D01*
X37880000Y-29087333D01*
X37880000Y-29087333D01*
G37*
X37880000Y-29087333D02*
X38142466Y-29087333D01*
X38142466Y-28147533D01*
X37880000Y-28147533D01*
X37880000Y-29087333D01*
G36*
X37397399Y-29087333D02*
X37659866Y-29087333D01*
X37659866Y-27588733D01*
X37397399Y-27588733D01*
X37397399Y-29087333D01*
X37397399Y-29087333D01*
G37*
X37397399Y-29087333D02*
X37659866Y-29087333D01*
X37659866Y-27588733D01*
X37397399Y-27588733D01*
X37397399Y-29087333D01*
G36*
X36921229Y-28006443D02*
X36919033Y-28424153D01*
X36750302Y-28222343D01*
X36581570Y-28020533D01*
X36426452Y-28020533D01*
X36362688Y-28021014D01*
X36315760Y-28022461D01*
X36285597Y-28024878D01*
X36272129Y-28028269D01*
X36271333Y-28029517D01*
X36276794Y-28037668D01*
X36292341Y-28056940D01*
X36316721Y-28085877D01*
X36348683Y-28123024D01*
X36386973Y-28166925D01*
X36430338Y-28216125D01*
X36477525Y-28269167D01*
X36479470Y-28271343D01*
X36526647Y-28324502D01*
X36569860Y-28373933D01*
X36607885Y-28418179D01*
X36639496Y-28455780D01*
X36663466Y-28485277D01*
X36678570Y-28505212D01*
X36683583Y-28514124D01*
X36683552Y-28514242D01*
X36677293Y-28522602D01*
X36661083Y-28542343D01*
X36636097Y-28572084D01*
X36603512Y-28610444D01*
X36564502Y-28656042D01*
X36520246Y-28707494D01*
X36471918Y-28763420D01*
X36445781Y-28793566D01*
X36395922Y-28851292D01*
X36349698Y-28905354D01*
X36308265Y-28954361D01*
X36272778Y-28996921D01*
X36244391Y-29031644D01*
X36224259Y-29057138D01*
X36213539Y-29072012D01*
X36212066Y-29075083D01*
X36214478Y-29079494D01*
X36223118Y-29082735D01*
X36240091Y-29084974D01*
X36267501Y-29086376D01*
X36307454Y-29087106D01*
X36362054Y-29087332D01*
X36367412Y-29087333D01*
X36522757Y-29087333D01*
X36720895Y-28845556D01*
X36919033Y-28603780D01*
X36921279Y-28845556D01*
X36923526Y-29087333D01*
X37185733Y-29087333D01*
X37185733Y-27588733D01*
X36923424Y-27588733D01*
X36921229Y-28006443D01*
X36921229Y-28006443D01*
G37*
X36921229Y-28006443D02*
X36919033Y-28424153D01*
X36750302Y-28222343D01*
X36581570Y-28020533D01*
X36426452Y-28020533D01*
X36362688Y-28021014D01*
X36315760Y-28022461D01*
X36285597Y-28024878D01*
X36272129Y-28028269D01*
X36271333Y-28029517D01*
X36276794Y-28037668D01*
X36292341Y-28056940D01*
X36316721Y-28085877D01*
X36348683Y-28123024D01*
X36386973Y-28166925D01*
X36430338Y-28216125D01*
X36477525Y-28269167D01*
X36479470Y-28271343D01*
X36526647Y-28324502D01*
X36569860Y-28373933D01*
X36607885Y-28418179D01*
X36639496Y-28455780D01*
X36663466Y-28485277D01*
X36678570Y-28505212D01*
X36683583Y-28514124D01*
X36683552Y-28514242D01*
X36677293Y-28522602D01*
X36661083Y-28542343D01*
X36636097Y-28572084D01*
X36603512Y-28610444D01*
X36564502Y-28656042D01*
X36520246Y-28707494D01*
X36471918Y-28763420D01*
X36445781Y-28793566D01*
X36395922Y-28851292D01*
X36349698Y-28905354D01*
X36308265Y-28954361D01*
X36272778Y-28996921D01*
X36244391Y-29031644D01*
X36224259Y-29057138D01*
X36213539Y-29072012D01*
X36212066Y-29075083D01*
X36214478Y-29079494D01*
X36223118Y-29082735D01*
X36240091Y-29084974D01*
X36267501Y-29086376D01*
X36307454Y-29087106D01*
X36362054Y-29087332D01*
X36367412Y-29087333D01*
X36522757Y-29087333D01*
X36720895Y-28845556D01*
X36919033Y-28603780D01*
X36921279Y-28845556D01*
X36923526Y-29087333D01*
X37185733Y-29087333D01*
X37185733Y-27588733D01*
X36923424Y-27588733D01*
X36921229Y-28006443D01*
G36*
X33363033Y-27584867D02*
X33289276Y-27591070D01*
X33226139Y-27608691D01*
X33174849Y-27637382D01*
X33173439Y-27638462D01*
X33153179Y-27654131D01*
X33179456Y-27692323D01*
X33205732Y-27730514D01*
X33250516Y-27708741D01*
X33293848Y-27693299D01*
X33343347Y-27684390D01*
X33392369Y-27682671D01*
X33434270Y-27688799D01*
X33438675Y-27690149D01*
X33485014Y-27713823D01*
X33521314Y-27750979D01*
X33547604Y-27801675D01*
X33563912Y-27865970D01*
X33570269Y-27943923D01*
X33570366Y-27954916D01*
X33570466Y-28028999D01*
X33231799Y-28028999D01*
X33231799Y-28122133D01*
X33570466Y-28122133D01*
X33570466Y-29087333D01*
X33672066Y-29087333D01*
X33672066Y-28122133D01*
X33883733Y-28122133D01*
X33883733Y-28028999D01*
X33672066Y-28028999D01*
X33672066Y-27948121D01*
X33666734Y-27858738D01*
X33650845Y-27781442D01*
X33624561Y-27716667D01*
X33588044Y-27664844D01*
X33555437Y-27635745D01*
X33516017Y-27611532D01*
X33474180Y-27595784D01*
X33425364Y-27587296D01*
X33365008Y-27584859D01*
X33363033Y-27584867D01*
X33363033Y-27584867D01*
G37*
X33363033Y-27584867D02*
X33289276Y-27591070D01*
X33226139Y-27608691D01*
X33174849Y-27637382D01*
X33173439Y-27638462D01*
X33153179Y-27654131D01*
X33179456Y-27692323D01*
X33205732Y-27730514D01*
X33250516Y-27708741D01*
X33293848Y-27693299D01*
X33343347Y-27684390D01*
X33392369Y-27682671D01*
X33434270Y-27688799D01*
X33438675Y-27690149D01*
X33485014Y-27713823D01*
X33521314Y-27750979D01*
X33547604Y-27801675D01*
X33563912Y-27865970D01*
X33570269Y-27943923D01*
X33570366Y-27954916D01*
X33570466Y-28028999D01*
X33231799Y-28028999D01*
X33231799Y-28122133D01*
X33570466Y-28122133D01*
X33570466Y-29087333D01*
X33672066Y-29087333D01*
X33672066Y-28122133D01*
X33883733Y-28122133D01*
X33883733Y-28028999D01*
X33672066Y-28028999D01*
X33672066Y-27948121D01*
X33666734Y-27858738D01*
X33650845Y-27781442D01*
X33624561Y-27716667D01*
X33588044Y-27664844D01*
X33555437Y-27635745D01*
X33516017Y-27611532D01*
X33474180Y-27595784D01*
X33425364Y-27587296D01*
X33365008Y-27584859D01*
X33363033Y-27584867D01*
G36*
X31309016Y-28481527D02*
X31280456Y-28565974D01*
X31253439Y-28645438D01*
X31228455Y-28718500D01*
X31205996Y-28783743D01*
X31186555Y-28839752D01*
X31170622Y-28885108D01*
X31158688Y-28918394D01*
X31151246Y-28938194D01*
X31148845Y-28943373D01*
X31145031Y-28935714D01*
X31136842Y-28914278D01*
X31125107Y-28881404D01*
X31110653Y-28839429D01*
X31094309Y-28790692D01*
X31088124Y-28771950D01*
X31071373Y-28720995D01*
X31050478Y-28657482D01*
X31026600Y-28584935D01*
X31000899Y-28506877D01*
X30974534Y-28426831D01*
X30948667Y-28348321D01*
X30936207Y-28310516D01*
X30840621Y-28020533D01*
X30782238Y-28020533D01*
X30749924Y-28021414D01*
X30732329Y-28024335D01*
X30727318Y-28029709D01*
X30727639Y-28031116D01*
X30731000Y-28040752D01*
X30739436Y-28065027D01*
X30752474Y-28102578D01*
X30769643Y-28152047D01*
X30790470Y-28212071D01*
X30814483Y-28281290D01*
X30841210Y-28358343D01*
X30870179Y-28441870D01*
X30900917Y-28530509D01*
X30912695Y-28564475D01*
X31093966Y-29087250D01*
X31150320Y-29087292D01*
X31206674Y-29087333D01*
X31219169Y-29051350D01*
X31225434Y-29033351D01*
X31236342Y-29002059D01*
X31250952Y-28960167D01*
X31268326Y-28910370D01*
X31287523Y-28855360D01*
X31301123Y-28816400D01*
X31325606Y-28745346D01*
X31352905Y-28664579D01*
X31380950Y-28580325D01*
X31407670Y-28498812D01*
X31430993Y-28426265D01*
X31433463Y-28418466D01*
X31450916Y-28363244D01*
X31466683Y-28313358D01*
X31480044Y-28271088D01*
X31490279Y-28238709D01*
X31496669Y-28218501D01*
X31498503Y-28212707D01*
X31501549Y-28218219D01*
X31508761Y-28237586D01*
X31519343Y-28268475D01*
X31532496Y-28308550D01*
X31547424Y-28355478D01*
X31549114Y-28360874D01*
X31564010Y-28407522D01*
X31583423Y-28466796D01*
X31606232Y-28535355D01*
X31631315Y-28609860D01*
X31657550Y-28686969D01*
X31683816Y-28763341D01*
X31697089Y-28801583D01*
X31796611Y-29087333D01*
X31854071Y-29087333D01*
X31890958Y-29085695D01*
X31911283Y-29080784D01*
X31915368Y-29076750D01*
X31918769Y-29067015D01*
X31927209Y-29042725D01*
X31940185Y-29005328D01*
X31957195Y-28956269D01*
X31977738Y-28896997D01*
X32001313Y-28828957D01*
X32027418Y-28753597D01*
X32055552Y-28672364D01*
X32080436Y-28600500D01*
X32110506Y-28513699D01*
X32139472Y-28430179D01*
X32166761Y-28351582D01*
X32191801Y-28279553D01*
X32214020Y-28215735D01*
X32232846Y-28161770D01*
X32247707Y-28119304D01*
X32258031Y-28089978D01*
X32262421Y-28077683D01*
X32283174Y-28020533D01*
X32166353Y-28020533D01*
X32011379Y-28485714D01*
X31983103Y-28570435D01*
X31956414Y-28650104D01*
X31931788Y-28723317D01*
X31909704Y-28788668D01*
X31890638Y-28844753D01*
X31875067Y-28890167D01*
X31863470Y-28923505D01*
X31856323Y-28943362D01*
X31854106Y-28948595D01*
X31851052Y-28940379D01*
X31843076Y-28917543D01*
X31830664Y-28881515D01*
X31814304Y-28833720D01*
X31794482Y-28775587D01*
X31771684Y-28708542D01*
X31746398Y-28634012D01*
X31719111Y-28553424D01*
X31696160Y-28485531D01*
X31540512Y-28024766D01*
X31502656Y-28022237D01*
X31464800Y-28019709D01*
X31309016Y-28481527D01*
X31309016Y-28481527D01*
G37*
X31309016Y-28481527D02*
X31280456Y-28565974D01*
X31253439Y-28645438D01*
X31228455Y-28718500D01*
X31205996Y-28783743D01*
X31186555Y-28839752D01*
X31170622Y-28885108D01*
X31158688Y-28918394D01*
X31151246Y-28938194D01*
X31148845Y-28943373D01*
X31145031Y-28935714D01*
X31136842Y-28914278D01*
X31125107Y-28881404D01*
X31110653Y-28839429D01*
X31094309Y-28790692D01*
X31088124Y-28771950D01*
X31071373Y-28720995D01*
X31050478Y-28657482D01*
X31026600Y-28584935D01*
X31000899Y-28506877D01*
X30974534Y-28426831D01*
X30948667Y-28348321D01*
X30936207Y-28310516D01*
X30840621Y-28020533D01*
X30782238Y-28020533D01*
X30749924Y-28021414D01*
X30732329Y-28024335D01*
X30727318Y-28029709D01*
X30727639Y-28031116D01*
X30731000Y-28040752D01*
X30739436Y-28065027D01*
X30752474Y-28102578D01*
X30769643Y-28152047D01*
X30790470Y-28212071D01*
X30814483Y-28281290D01*
X30841210Y-28358343D01*
X30870179Y-28441870D01*
X30900917Y-28530509D01*
X30912695Y-28564475D01*
X31093966Y-29087250D01*
X31150320Y-29087292D01*
X31206674Y-29087333D01*
X31219169Y-29051350D01*
X31225434Y-29033351D01*
X31236342Y-29002059D01*
X31250952Y-28960167D01*
X31268326Y-28910370D01*
X31287523Y-28855360D01*
X31301123Y-28816400D01*
X31325606Y-28745346D01*
X31352905Y-28664579D01*
X31380950Y-28580325D01*
X31407670Y-28498812D01*
X31430993Y-28426265D01*
X31433463Y-28418466D01*
X31450916Y-28363244D01*
X31466683Y-28313358D01*
X31480044Y-28271088D01*
X31490279Y-28238709D01*
X31496669Y-28218501D01*
X31498503Y-28212707D01*
X31501549Y-28218219D01*
X31508761Y-28237586D01*
X31519343Y-28268475D01*
X31532496Y-28308550D01*
X31547424Y-28355478D01*
X31549114Y-28360874D01*
X31564010Y-28407522D01*
X31583423Y-28466796D01*
X31606232Y-28535355D01*
X31631315Y-28609860D01*
X31657550Y-28686969D01*
X31683816Y-28763341D01*
X31697089Y-28801583D01*
X31796611Y-29087333D01*
X31854071Y-29087333D01*
X31890958Y-29085695D01*
X31911283Y-29080784D01*
X31915368Y-29076750D01*
X31918769Y-29067015D01*
X31927209Y-29042725D01*
X31940185Y-29005328D01*
X31957195Y-28956269D01*
X31977738Y-28896997D01*
X32001313Y-28828957D01*
X32027418Y-28753597D01*
X32055552Y-28672364D01*
X32080436Y-28600500D01*
X32110506Y-28513699D01*
X32139472Y-28430179D01*
X32166761Y-28351582D01*
X32191801Y-28279553D01*
X32214020Y-28215735D01*
X32232846Y-28161770D01*
X32247707Y-28119304D01*
X32258031Y-28089978D01*
X32262421Y-28077683D01*
X32283174Y-28020533D01*
X32166353Y-28020533D01*
X32011379Y-28485714D01*
X31983103Y-28570435D01*
X31956414Y-28650104D01*
X31931788Y-28723317D01*
X31909704Y-28788668D01*
X31890638Y-28844753D01*
X31875067Y-28890167D01*
X31863470Y-28923505D01*
X31856323Y-28943362D01*
X31854106Y-28948595D01*
X31851052Y-28940379D01*
X31843076Y-28917543D01*
X31830664Y-28881515D01*
X31814304Y-28833720D01*
X31794482Y-28775587D01*
X31771684Y-28708542D01*
X31746398Y-28634012D01*
X31719111Y-28553424D01*
X31696160Y-28485531D01*
X31540512Y-28024766D01*
X31502656Y-28022237D01*
X31464800Y-28019709D01*
X31309016Y-28481527D01*
G36*
X28807395Y-28013067D02*
X28760457Y-28016398D01*
X28723333Y-28022661D01*
X28717817Y-28024192D01*
X28690888Y-28033544D01*
X28661723Y-28045415D01*
X28636164Y-28057252D01*
X28620057Y-28066503D01*
X28618992Y-28067356D01*
X28621028Y-28075343D01*
X28628895Y-28092857D01*
X28640012Y-28114727D01*
X28651800Y-28135781D01*
X28658323Y-28146174D01*
X28666040Y-28151924D01*
X28679341Y-28149665D01*
X28699962Y-28140174D01*
X28757929Y-28119478D01*
X28823914Y-28111363D01*
X28894433Y-28115979D01*
X28952609Y-28129192D01*
X28996005Y-28148601D01*
X29041376Y-28179445D01*
X29083947Y-28217633D01*
X29118942Y-28259070D01*
X29135408Y-28285891D01*
X29145122Y-28305496D01*
X29153154Y-28323919D01*
X29159663Y-28342953D01*
X29164811Y-28364392D01*
X29168758Y-28390028D01*
X29171662Y-28421655D01*
X29173686Y-28461067D01*
X29174989Y-28510057D01*
X29175730Y-28570418D01*
X29176071Y-28643943D01*
X29176172Y-28732426D01*
X29176175Y-28742316D01*
X29176266Y-29087333D01*
X29286333Y-29087333D01*
X29286333Y-28020533D01*
X29184733Y-28020533D01*
X29184701Y-28111549D01*
X29184670Y-28202566D01*
X29166925Y-28172933D01*
X29127591Y-28122195D01*
X29076053Y-28078171D01*
X29016630Y-28043870D01*
X28953641Y-28022301D01*
X28949366Y-28021378D01*
X28907621Y-28015487D01*
X28858373Y-28012740D01*
X28807395Y-28013067D01*
X28807395Y-28013067D01*
G37*
X28807395Y-28013067D02*
X28760457Y-28016398D01*
X28723333Y-28022661D01*
X28717817Y-28024192D01*
X28690888Y-28033544D01*
X28661723Y-28045415D01*
X28636164Y-28057252D01*
X28620057Y-28066503D01*
X28618992Y-28067356D01*
X28621028Y-28075343D01*
X28628895Y-28092857D01*
X28640012Y-28114727D01*
X28651800Y-28135781D01*
X28658323Y-28146174D01*
X28666040Y-28151924D01*
X28679341Y-28149665D01*
X28699962Y-28140174D01*
X28757929Y-28119478D01*
X28823914Y-28111363D01*
X28894433Y-28115979D01*
X28952609Y-28129192D01*
X28996005Y-28148601D01*
X29041376Y-28179445D01*
X29083947Y-28217633D01*
X29118942Y-28259070D01*
X29135408Y-28285891D01*
X29145122Y-28305496D01*
X29153154Y-28323919D01*
X29159663Y-28342953D01*
X29164811Y-28364392D01*
X29168758Y-28390028D01*
X29171662Y-28421655D01*
X29173686Y-28461067D01*
X29174989Y-28510057D01*
X29175730Y-28570418D01*
X29176071Y-28643943D01*
X29176172Y-28732426D01*
X29176175Y-28742316D01*
X29176266Y-29087333D01*
X29286333Y-29087333D01*
X29286333Y-28020533D01*
X29184733Y-28020533D01*
X29184701Y-28111549D01*
X29184670Y-28202566D01*
X29166925Y-28172933D01*
X29127591Y-28122195D01*
X29076053Y-28078171D01*
X29016630Y-28043870D01*
X28953641Y-28022301D01*
X28949366Y-28021378D01*
X28907621Y-28015487D01*
X28858373Y-28012740D01*
X28807395Y-28013067D01*
G36*
X37956459Y-27605390D02*
X37909215Y-27626089D01*
X37870414Y-27658028D01*
X37855039Y-27678303D01*
X37831107Y-27729827D01*
X37821691Y-27783374D01*
X37826093Y-27836057D01*
X37843612Y-27884986D01*
X37873549Y-27927273D01*
X37915206Y-27960030D01*
X37924437Y-27964963D01*
X37974304Y-27981858D01*
X38028253Y-27986792D01*
X38080128Y-27979562D01*
X38104366Y-27970870D01*
X38149185Y-27942194D01*
X38182653Y-27904025D01*
X38204689Y-27859199D01*
X38215213Y-27810553D01*
X38214142Y-27760924D01*
X38201396Y-27713146D01*
X38176894Y-27670058D01*
X38140554Y-27634495D01*
X38114447Y-27618646D01*
X38062515Y-27600878D01*
X38008706Y-27596723D01*
X37956459Y-27605390D01*
X37956459Y-27605390D01*
G37*
X37956459Y-27605390D02*
X37909215Y-27626089D01*
X37870414Y-27658028D01*
X37855039Y-27678303D01*
X37831107Y-27729827D01*
X37821691Y-27783374D01*
X37826093Y-27836057D01*
X37843612Y-27884986D01*
X37873549Y-27927273D01*
X37915206Y-27960030D01*
X37924437Y-27964963D01*
X37974304Y-27981858D01*
X38028253Y-27986792D01*
X38080128Y-27979562D01*
X38104366Y-27970870D01*
X38149185Y-27942194D01*
X38182653Y-27904025D01*
X38204689Y-27859199D01*
X38215213Y-27810553D01*
X38214142Y-27760924D01*
X38201396Y-27713146D01*
X38176894Y-27670058D01*
X38140554Y-27634495D01*
X38114447Y-27618646D01*
X38062515Y-27600878D01*
X38008706Y-27596723D01*
X37956459Y-27605390D01*
G36*
X32652064Y-19996607D02*
X32547030Y-19998313D01*
X32452034Y-20001034D01*
X32437438Y-20001587D01*
X32367427Y-20004560D01*
X32293435Y-20008087D01*
X32217646Y-20012031D01*
X32142242Y-20016254D01*
X32069407Y-20020618D01*
X32001325Y-20024985D01*
X31940178Y-20029216D01*
X31888150Y-20033175D01*
X31847425Y-20036723D01*
X31820185Y-20039721D01*
X31811516Y-20041135D01*
X31792466Y-20045255D01*
X31792466Y-26994578D01*
X31824216Y-26999226D01*
X31834895Y-27000647D01*
X31848979Y-27002210D01*
X31868083Y-27004045D01*
X31893820Y-27006284D01*
X31927807Y-27009057D01*
X31971655Y-27012495D01*
X32026982Y-27016728D01*
X32095399Y-27021886D01*
X32178523Y-27028101D01*
X32211566Y-27030563D01*
X32248139Y-27032610D01*
X32299678Y-27034506D01*
X32364213Y-27036241D01*
X32439779Y-27037802D01*
X32524407Y-27039178D01*
X32616130Y-27040356D01*
X32712980Y-27041324D01*
X32812989Y-27042072D01*
X32914190Y-27042586D01*
X33014616Y-27042855D01*
X33112298Y-27042867D01*
X33205269Y-27042609D01*
X33291562Y-27042071D01*
X33369208Y-27041241D01*
X33436241Y-27040105D01*
X33490692Y-27038653D01*
X33498996Y-27038357D01*
X33568134Y-27035482D01*
X33648492Y-27031648D01*
X33736252Y-27027078D01*
X33827597Y-27021992D01*
X33918707Y-27016613D01*
X34005766Y-27011161D01*
X34084954Y-27005858D01*
X34152454Y-27000925D01*
X34173716Y-26999237D01*
X34239333Y-26993880D01*
X34239333Y-20105545D01*
X34216049Y-20100747D01*
X34166136Y-20091576D01*
X34101968Y-20081542D01*
X34026186Y-20070960D01*
X33941427Y-20060144D01*
X33850331Y-20049406D01*
X33755535Y-20039060D01*
X33659679Y-20029420D01*
X33565402Y-20020800D01*
X33494266Y-20014956D01*
X33416760Y-20009905D01*
X33325329Y-20005566D01*
X33222969Y-20001977D01*
X33112674Y-19999176D01*
X32997442Y-19997201D01*
X32880265Y-19996089D01*
X32764141Y-19995878D01*
X32652064Y-19996607D01*
X32652064Y-19996607D01*
G37*
X32652064Y-19996607D02*
X32547030Y-19998313D01*
X32452034Y-20001034D01*
X32437438Y-20001587D01*
X32367427Y-20004560D01*
X32293435Y-20008087D01*
X32217646Y-20012031D01*
X32142242Y-20016254D01*
X32069407Y-20020618D01*
X32001325Y-20024985D01*
X31940178Y-20029216D01*
X31888150Y-20033175D01*
X31847425Y-20036723D01*
X31820185Y-20039721D01*
X31811516Y-20041135D01*
X31792466Y-20045255D01*
X31792466Y-26994578D01*
X31824216Y-26999226D01*
X31834895Y-27000647D01*
X31848979Y-27002210D01*
X31868083Y-27004045D01*
X31893820Y-27006284D01*
X31927807Y-27009057D01*
X31971655Y-27012495D01*
X32026982Y-27016728D01*
X32095399Y-27021886D01*
X32178523Y-27028101D01*
X32211566Y-27030563D01*
X32248139Y-27032610D01*
X32299678Y-27034506D01*
X32364213Y-27036241D01*
X32439779Y-27037802D01*
X32524407Y-27039178D01*
X32616130Y-27040356D01*
X32712980Y-27041324D01*
X32812989Y-27042072D01*
X32914190Y-27042586D01*
X33014616Y-27042855D01*
X33112298Y-27042867D01*
X33205269Y-27042609D01*
X33291562Y-27042071D01*
X33369208Y-27041241D01*
X33436241Y-27040105D01*
X33490692Y-27038653D01*
X33498996Y-27038357D01*
X33568134Y-27035482D01*
X33648492Y-27031648D01*
X33736252Y-27027078D01*
X33827597Y-27021992D01*
X33918707Y-27016613D01*
X34005766Y-27011161D01*
X34084954Y-27005858D01*
X34152454Y-27000925D01*
X34173716Y-26999237D01*
X34239333Y-26993880D01*
X34239333Y-20105545D01*
X34216049Y-20100747D01*
X34166136Y-20091576D01*
X34101968Y-20081542D01*
X34026186Y-20070960D01*
X33941427Y-20060144D01*
X33850331Y-20049406D01*
X33755535Y-20039060D01*
X33659679Y-20029420D01*
X33565402Y-20020800D01*
X33494266Y-20014956D01*
X33416760Y-20009905D01*
X33325329Y-20005566D01*
X33222969Y-20001977D01*
X33112674Y-19999176D01*
X32997442Y-19997201D01*
X32880265Y-19996089D01*
X32764141Y-19995878D01*
X32652064Y-19996607D01*
G36*
X38249567Y-22414949D02*
X38241965Y-22435820D01*
X38232139Y-22466680D01*
X38221162Y-22504342D01*
X38221162Y-22504344D01*
X38170227Y-22657371D01*
X38104212Y-22808377D01*
X38024600Y-22955146D01*
X37932876Y-23095460D01*
X37830524Y-23227104D01*
X37719028Y-23347860D01*
X37599872Y-23455511D01*
X37566733Y-23481922D01*
X37430875Y-23579580D01*
X37293173Y-23662778D01*
X37149385Y-23733820D01*
X36995270Y-23795010D01*
X36981183Y-23799962D01*
X36858615Y-23836994D01*
X36727411Y-23866429D01*
X36592081Y-23887684D01*
X36457133Y-23900179D01*
X36327076Y-23903333D01*
X36220996Y-23897987D01*
X36040979Y-23875035D01*
X35870992Y-23839601D01*
X35709531Y-23791019D01*
X35555093Y-23728625D01*
X35406175Y-23651754D01*
X35261274Y-23559743D01*
X35118888Y-23451925D01*
X35020383Y-23367121D01*
X34967466Y-23319340D01*
X34967466Y-26911399D01*
X34990749Y-26910561D01*
X35006461Y-26909024D01*
X35035713Y-26905276D01*
X35075321Y-26899757D01*
X35122102Y-26892910D01*
X35166433Y-26886174D01*
X35358048Y-26854574D01*
X35558883Y-26817750D01*
X35763627Y-26776807D01*
X35966970Y-26732844D01*
X36163601Y-26686964D01*
X36334833Y-26643791D01*
X36631805Y-26560490D01*
X36921208Y-26468612D01*
X37202273Y-26368563D01*
X37474230Y-26260745D01*
X37736312Y-26145563D01*
X37987749Y-26023421D01*
X38227774Y-25894722D01*
X38455616Y-25759872D01*
X38670508Y-25619272D01*
X38871681Y-25473329D01*
X39058365Y-25322445D01*
X39229793Y-25167024D01*
X39323599Y-25073226D01*
X39394376Y-24998203D01*
X39453525Y-24932163D01*
X39502543Y-24873387D01*
X39537574Y-24827562D01*
X39572272Y-24779958D01*
X39527187Y-24645529D01*
X39437318Y-24397785D01*
X39332836Y-24145994D01*
X39214905Y-23892259D01*
X39084689Y-23638682D01*
X38943353Y-23387367D01*
X38792060Y-23140415D01*
X38631975Y-22899929D01*
X38464262Y-22668011D01*
X38352263Y-22523550D01*
X38321912Y-22485866D01*
X38295081Y-22453281D01*
X38273571Y-22427921D01*
X38259181Y-22411914D01*
X38253872Y-22407251D01*
X38249567Y-22414949D01*
X38249567Y-22414949D01*
G37*
X38249567Y-22414949D02*
X38241965Y-22435820D01*
X38232139Y-22466680D01*
X38221162Y-22504342D01*
X38221162Y-22504344D01*
X38170227Y-22657371D01*
X38104212Y-22808377D01*
X38024600Y-22955146D01*
X37932876Y-23095460D01*
X37830524Y-23227104D01*
X37719028Y-23347860D01*
X37599872Y-23455511D01*
X37566733Y-23481922D01*
X37430875Y-23579580D01*
X37293173Y-23662778D01*
X37149385Y-23733820D01*
X36995270Y-23795010D01*
X36981183Y-23799962D01*
X36858615Y-23836994D01*
X36727411Y-23866429D01*
X36592081Y-23887684D01*
X36457133Y-23900179D01*
X36327076Y-23903333D01*
X36220996Y-23897987D01*
X36040979Y-23875035D01*
X35870992Y-23839601D01*
X35709531Y-23791019D01*
X35555093Y-23728625D01*
X35406175Y-23651754D01*
X35261274Y-23559743D01*
X35118888Y-23451925D01*
X35020383Y-23367121D01*
X34967466Y-23319340D01*
X34967466Y-26911399D01*
X34990749Y-26910561D01*
X35006461Y-26909024D01*
X35035713Y-26905276D01*
X35075321Y-26899757D01*
X35122102Y-26892910D01*
X35166433Y-26886174D01*
X35358048Y-26854574D01*
X35558883Y-26817750D01*
X35763627Y-26776807D01*
X35966970Y-26732844D01*
X36163601Y-26686964D01*
X36334833Y-26643791D01*
X36631805Y-26560490D01*
X36921208Y-26468612D01*
X37202273Y-26368563D01*
X37474230Y-26260745D01*
X37736312Y-26145563D01*
X37987749Y-26023421D01*
X38227774Y-25894722D01*
X38455616Y-25759872D01*
X38670508Y-25619272D01*
X38871681Y-25473329D01*
X39058365Y-25322445D01*
X39229793Y-25167024D01*
X39323599Y-25073226D01*
X39394376Y-24998203D01*
X39453525Y-24932163D01*
X39502543Y-24873387D01*
X39537574Y-24827562D01*
X39572272Y-24779958D01*
X39527187Y-24645529D01*
X39437318Y-24397785D01*
X39332836Y-24145994D01*
X39214905Y-23892259D01*
X39084689Y-23638682D01*
X38943353Y-23387367D01*
X38792060Y-23140415D01*
X38631975Y-22899929D01*
X38464262Y-22668011D01*
X38352263Y-22523550D01*
X38321912Y-22485866D01*
X38295081Y-22453281D01*
X38273571Y-22427921D01*
X38259181Y-22411914D01*
X38253872Y-22407251D01*
X38249567Y-22414949D01*
G36*
X31042312Y-20139580D02*
X31017067Y-20143815D01*
X30980336Y-20150314D01*
X30934692Y-20158618D01*
X30882710Y-20168268D01*
X30860903Y-20172368D01*
X30548305Y-20235628D01*
X30248897Y-20305172D01*
X29959828Y-20381855D01*
X29678250Y-20466535D01*
X29401311Y-20560067D01*
X29126162Y-20663308D01*
X28854533Y-20775147D01*
X28630166Y-20871468D01*
X28625933Y-21694361D01*
X28621699Y-22517253D01*
X28096792Y-21992293D01*
X28018529Y-21914097D01*
X27943645Y-21839424D01*
X27873009Y-21769132D01*
X27807489Y-21704078D01*
X27747956Y-21645120D01*
X27695276Y-21593116D01*
X27650320Y-21548924D01*
X27613955Y-21513401D01*
X27587051Y-21487407D01*
X27570477Y-21471797D01*
X27565134Y-21467333D01*
X27555244Y-21472114D01*
X27533434Y-21485647D01*
X27501474Y-21506718D01*
X27461133Y-21534111D01*
X27414180Y-21566611D01*
X27362385Y-21603003D01*
X27307517Y-21642073D01*
X27251344Y-21682604D01*
X27245866Y-21686587D01*
X27049409Y-21833515D01*
X26864398Y-21980460D01*
X26686685Y-22130976D01*
X26512125Y-22288617D01*
X26336570Y-22456938D01*
X26270110Y-22523061D01*
X26119854Y-22673950D01*
X26966466Y-23520436D01*
X26551253Y-23935712D01*
X26136040Y-24350989D01*
X26320537Y-24532823D01*
X26578272Y-24776610D01*
X26841998Y-25005618D01*
X27113773Y-25221538D01*
X27395654Y-25426062D01*
X27465742Y-25474118D01*
X27588252Y-25557196D01*
X28107092Y-25038407D01*
X28625933Y-24519618D01*
X28625933Y-26138993D01*
X28733883Y-26187772D01*
X28940243Y-26278568D01*
X29141242Y-26361809D01*
X29340453Y-26438760D01*
X29541450Y-26510689D01*
X29747807Y-26578862D01*
X29963096Y-26644546D01*
X30190891Y-26709009D01*
X30247299Y-26724299D01*
X30350245Y-26750690D01*
X30468189Y-26778583D01*
X30599303Y-26807568D01*
X30741758Y-26837240D01*
X30856899Y-26860079D01*
X30910548Y-26870527D01*
X30959319Y-26880067D01*
X31000490Y-26888163D01*
X31031341Y-26894280D01*
X31049151Y-26897882D01*
X31051633Y-26898412D01*
X31053058Y-26898639D01*
X31054401Y-26898340D01*
X31055663Y-26897025D01*
X31056847Y-26894206D01*
X31057955Y-26889394D01*
X31058988Y-26882101D01*
X31059950Y-26871839D01*
X31060842Y-26858118D01*
X31061666Y-26840450D01*
X31062424Y-26818346D01*
X31063120Y-26791319D01*
X31063754Y-26758878D01*
X31064328Y-26720536D01*
X31064846Y-26675804D01*
X31065309Y-26624193D01*
X31065720Y-26565215D01*
X31066079Y-26498381D01*
X31066391Y-26423203D01*
X31066656Y-26339191D01*
X31066877Y-26245858D01*
X31067056Y-26142715D01*
X31067195Y-26029272D01*
X31067296Y-25905043D01*
X31067362Y-25769537D01*
X31067394Y-25622266D01*
X31067395Y-25462742D01*
X31067367Y-25290476D01*
X31067312Y-25104980D01*
X31067232Y-24905764D01*
X31067129Y-24692341D01*
X31067006Y-24464221D01*
X31066864Y-24220916D01*
X31066706Y-23961938D01*
X31066534Y-23686797D01*
X31066429Y-23520130D01*
X31066235Y-23226824D01*
X31066033Y-22950022D01*
X31065822Y-22689295D01*
X31065600Y-22444214D01*
X31065365Y-22214348D01*
X31065116Y-21999270D01*
X31064851Y-21798549D01*
X31064568Y-21611757D01*
X31064266Y-21438464D01*
X31063943Y-21278240D01*
X31063598Y-21130658D01*
X31063229Y-20995286D01*
X31062834Y-20871696D01*
X31062411Y-20759460D01*
X31061959Y-20658146D01*
X31061477Y-20567327D01*
X31060962Y-20486572D01*
X31060414Y-20415454D01*
X31059829Y-20353541D01*
X31059208Y-20300406D01*
X31058547Y-20255618D01*
X31057846Y-20218749D01*
X31057103Y-20189369D01*
X31056316Y-20167049D01*
X31055483Y-20151359D01*
X31054603Y-20141871D01*
X31053675Y-20138155D01*
X31053499Y-20138066D01*
X31042312Y-20139580D01*
X31042312Y-20139580D01*
G37*
X31042312Y-20139580D02*
X31017067Y-20143815D01*
X30980336Y-20150314D01*
X30934692Y-20158618D01*
X30882710Y-20168268D01*
X30860903Y-20172368D01*
X30548305Y-20235628D01*
X30248897Y-20305172D01*
X29959828Y-20381855D01*
X29678250Y-20466535D01*
X29401311Y-20560067D01*
X29126162Y-20663308D01*
X28854533Y-20775147D01*
X28630166Y-20871468D01*
X28625933Y-21694361D01*
X28621699Y-22517253D01*
X28096792Y-21992293D01*
X28018529Y-21914097D01*
X27943645Y-21839424D01*
X27873009Y-21769132D01*
X27807489Y-21704078D01*
X27747956Y-21645120D01*
X27695276Y-21593116D01*
X27650320Y-21548924D01*
X27613955Y-21513401D01*
X27587051Y-21487407D01*
X27570477Y-21471797D01*
X27565134Y-21467333D01*
X27555244Y-21472114D01*
X27533434Y-21485647D01*
X27501474Y-21506718D01*
X27461133Y-21534111D01*
X27414180Y-21566611D01*
X27362385Y-21603003D01*
X27307517Y-21642073D01*
X27251344Y-21682604D01*
X27245866Y-21686587D01*
X27049409Y-21833515D01*
X26864398Y-21980460D01*
X26686685Y-22130976D01*
X26512125Y-22288617D01*
X26336570Y-22456938D01*
X26270110Y-22523061D01*
X26119854Y-22673950D01*
X26966466Y-23520436D01*
X26551253Y-23935712D01*
X26136040Y-24350989D01*
X26320537Y-24532823D01*
X26578272Y-24776610D01*
X26841998Y-25005618D01*
X27113773Y-25221538D01*
X27395654Y-25426062D01*
X27465742Y-25474118D01*
X27588252Y-25557196D01*
X28107092Y-25038407D01*
X28625933Y-24519618D01*
X28625933Y-26138993D01*
X28733883Y-26187772D01*
X28940243Y-26278568D01*
X29141242Y-26361809D01*
X29340453Y-26438760D01*
X29541450Y-26510689D01*
X29747807Y-26578862D01*
X29963096Y-26644546D01*
X30190891Y-26709009D01*
X30247299Y-26724299D01*
X30350245Y-26750690D01*
X30468189Y-26778583D01*
X30599303Y-26807568D01*
X30741758Y-26837240D01*
X30856899Y-26860079D01*
X30910548Y-26870527D01*
X30959319Y-26880067D01*
X31000490Y-26888163D01*
X31031341Y-26894280D01*
X31049151Y-26897882D01*
X31051633Y-26898412D01*
X31053058Y-26898639D01*
X31054401Y-26898340D01*
X31055663Y-26897025D01*
X31056847Y-26894206D01*
X31057955Y-26889394D01*
X31058988Y-26882101D01*
X31059950Y-26871839D01*
X31060842Y-26858118D01*
X31061666Y-26840450D01*
X31062424Y-26818346D01*
X31063120Y-26791319D01*
X31063754Y-26758878D01*
X31064328Y-26720536D01*
X31064846Y-26675804D01*
X31065309Y-26624193D01*
X31065720Y-26565215D01*
X31066079Y-26498381D01*
X31066391Y-26423203D01*
X31066656Y-26339191D01*
X31066877Y-26245858D01*
X31067056Y-26142715D01*
X31067195Y-26029272D01*
X31067296Y-25905043D01*
X31067362Y-25769537D01*
X31067394Y-25622266D01*
X31067395Y-25462742D01*
X31067367Y-25290476D01*
X31067312Y-25104980D01*
X31067232Y-24905764D01*
X31067129Y-24692341D01*
X31067006Y-24464221D01*
X31066864Y-24220916D01*
X31066706Y-23961938D01*
X31066534Y-23686797D01*
X31066429Y-23520130D01*
X31066235Y-23226824D01*
X31066033Y-22950022D01*
X31065822Y-22689295D01*
X31065600Y-22444214D01*
X31065365Y-22214348D01*
X31065116Y-21999270D01*
X31064851Y-21798549D01*
X31064568Y-21611757D01*
X31064266Y-21438464D01*
X31063943Y-21278240D01*
X31063598Y-21130658D01*
X31063229Y-20995286D01*
X31062834Y-20871696D01*
X31062411Y-20759460D01*
X31061959Y-20658146D01*
X31061477Y-20567327D01*
X31060962Y-20486572D01*
X31060414Y-20415454D01*
X31059829Y-20353541D01*
X31059208Y-20300406D01*
X31058547Y-20255618D01*
X31057846Y-20218749D01*
X31057103Y-20189369D01*
X31056316Y-20167049D01*
X31055483Y-20151359D01*
X31054603Y-20141871D01*
X31053675Y-20138155D01*
X31053499Y-20138066D01*
X31042312Y-20139580D01*
G36*
X36214804Y-20761244D02*
X36075323Y-20784931D01*
X35942014Y-20824367D01*
X35815101Y-20879461D01*
X35694808Y-20950118D01*
X35581362Y-21036247D01*
X35504691Y-21107142D01*
X35410688Y-21211103D01*
X35331831Y-21320477D01*
X35267197Y-21436981D01*
X35215862Y-21562329D01*
X35176904Y-21698239D01*
X35169887Y-21729799D01*
X35159354Y-21795479D01*
X35152614Y-21871627D01*
X35149727Y-21952877D01*
X35150752Y-22033862D01*
X35155750Y-22109218D01*
X35164781Y-22173577D01*
X35164922Y-22174300D01*
X35200220Y-22316742D01*
X35248632Y-22448859D01*
X35310726Y-22571703D01*
X35387073Y-22686322D01*
X35478240Y-22793767D01*
X35527502Y-22843166D01*
X35636284Y-22935445D01*
X35754206Y-23013605D01*
X35880434Y-23077211D01*
X36014131Y-23125829D01*
X36121571Y-23152761D01*
X36188781Y-23163417D01*
X36265560Y-23170576D01*
X36346053Y-23174043D01*
X36424406Y-23173628D01*
X36494765Y-23169136D01*
X36521099Y-23165905D01*
X36661841Y-23137206D01*
X36796369Y-23093504D01*
X36923642Y-23035608D01*
X37042614Y-22964328D01*
X37152244Y-22880473D01*
X37251489Y-22784854D01*
X37339303Y-22678279D01*
X37414645Y-22561558D01*
X37476472Y-22435502D01*
X37483105Y-22419359D01*
X37528690Y-22284322D01*
X37557953Y-22147765D01*
X37571288Y-22010875D01*
X37569089Y-21874837D01*
X37551751Y-21740837D01*
X37519666Y-21610061D01*
X37473230Y-21483696D01*
X37412836Y-21362927D01*
X37338878Y-21248939D01*
X37251751Y-21142920D01*
X37151847Y-21046055D01*
X37039562Y-20959530D01*
X36986766Y-20925305D01*
X36863840Y-20859589D01*
X36734901Y-20809653D01*
X36599835Y-20775465D01*
X36458531Y-20756996D01*
X36360233Y-20753400D01*
X36214804Y-20761244D01*
X36214804Y-20761244D01*
G37*
X36214804Y-20761244D02*
X36075323Y-20784931D01*
X35942014Y-20824367D01*
X35815101Y-20879461D01*
X35694808Y-20950118D01*
X35581362Y-21036247D01*
X35504691Y-21107142D01*
X35410688Y-21211103D01*
X35331831Y-21320477D01*
X35267197Y-21436981D01*
X35215862Y-21562329D01*
X35176904Y-21698239D01*
X35169887Y-21729799D01*
X35159354Y-21795479D01*
X35152614Y-21871627D01*
X35149727Y-21952877D01*
X35150752Y-22033862D01*
X35155750Y-22109218D01*
X35164781Y-22173577D01*
X35164922Y-22174300D01*
X35200220Y-22316742D01*
X35248632Y-22448859D01*
X35310726Y-22571703D01*
X35387073Y-22686322D01*
X35478240Y-22793767D01*
X35527502Y-22843166D01*
X35636284Y-22935445D01*
X35754206Y-23013605D01*
X35880434Y-23077211D01*
X36014131Y-23125829D01*
X36121571Y-23152761D01*
X36188781Y-23163417D01*
X36265560Y-23170576D01*
X36346053Y-23174043D01*
X36424406Y-23173628D01*
X36494765Y-23169136D01*
X36521099Y-23165905D01*
X36661841Y-23137206D01*
X36796369Y-23093504D01*
X36923642Y-23035608D01*
X37042614Y-22964328D01*
X37152244Y-22880473D01*
X37251489Y-22784854D01*
X37339303Y-22678279D01*
X37414645Y-22561558D01*
X37476472Y-22435502D01*
X37483105Y-22419359D01*
X37528690Y-22284322D01*
X37557953Y-22147765D01*
X37571288Y-22010875D01*
X37569089Y-21874837D01*
X37551751Y-21740837D01*
X37519666Y-21610061D01*
X37473230Y-21483696D01*
X37412836Y-21362927D01*
X37338878Y-21248939D01*
X37251751Y-21142920D01*
X37151847Y-21046055D01*
X37039562Y-20959530D01*
X36986766Y-20925305D01*
X36863840Y-20859589D01*
X36734901Y-20809653D01*
X36599835Y-20775465D01*
X36458531Y-20756996D01*
X36360233Y-20753400D01*
X36214804Y-20761244D01*
D13*
G04 #@! TO.C,TP1*
X35050000Y-17800000D02*
X35050000Y-19200000D01*
X36450000Y-17800000D02*
X35050000Y-17800000D01*
X36450000Y-19200000D02*
X36450000Y-17800000D01*
X35050000Y-19200000D02*
X36450000Y-19200000D01*
G04 #@! TO.C,TP2*
X38700000Y-19200000D02*
X38700000Y-17800000D01*
X38700000Y-17800000D02*
X37300000Y-17800000D01*
X37300000Y-17800000D02*
X37300000Y-19200000D01*
X37300000Y-19200000D02*
X38700000Y-19200000D01*
G04 #@! TD*
G04 #@! TO.C,TP1*
D14*
X36409523Y-19561904D02*
X35952380Y-19561904D01*
X36180952Y-20361904D02*
X36180952Y-19561904D01*
X35685714Y-20361904D02*
X35685714Y-19561904D01*
X35380952Y-19561904D01*
X35304761Y-19600000D01*
X35266666Y-19638095D01*
X35228571Y-19714285D01*
X35228571Y-19828571D01*
X35266666Y-19904761D01*
X35304761Y-19942857D01*
X35380952Y-19980952D01*
X35685714Y-19980952D01*
X34466666Y-20361904D02*
X34923809Y-20361904D01*
X34695238Y-20361904D02*
X34695238Y-19561904D01*
X34771428Y-19676190D01*
X34847619Y-19752380D01*
X34923809Y-19790476D01*
G04 #@! TO.C,TP2*
X39009523Y-19561904D02*
X38552380Y-19561904D01*
X38780952Y-20361904D02*
X38780952Y-19561904D01*
X38285714Y-20361904D02*
X38285714Y-19561904D01*
X37980952Y-19561904D01*
X37904761Y-19600000D01*
X37866666Y-19638095D01*
X37828571Y-19714285D01*
X37828571Y-19828571D01*
X37866666Y-19904761D01*
X37904761Y-19942857D01*
X37980952Y-19980952D01*
X38285714Y-19980952D01*
X37523809Y-19638095D02*
X37485714Y-19600000D01*
X37409523Y-19561904D01*
X37219047Y-19561904D01*
X37142857Y-19600000D01*
X37104761Y-19638095D01*
X37066666Y-19714285D01*
X37066666Y-19790476D01*
X37104761Y-19904761D01*
X37561904Y-20361904D01*
X37066666Y-20361904D01*
G04 #@! TD*
M02*
