G04 #@! TF.GenerationSoftware,KiCad,Pcbnew,(5.0.0-dirty)*
G04 #@! TF.CreationDate,2019-11-15T19:25:29+09:00*
G04 #@! TF.ProjectId,fake-fan-mk2,66616B652D66616E2D6D6B322E6B6963,rev?*
G04 #@! TF.SameCoordinates,Original*
G04 #@! TF.FileFunction,Soldermask,Top*
G04 #@! TF.FilePolarity,Negative*
%FSLAX46Y46*%
G04 Gerber Fmt 4.6, Leading zero omitted, Abs format (unit mm)*
G04 Created by KiCad (PCBNEW (5.0.0-dirty)) date 11/15/19 19:25:29*
%MOMM*%
%LPD*%
G01*
G04 APERTURE LIST*
%ADD10C,0.200000*%
%ADD11C,0.100000*%
%ADD12C,1.275000*%
%ADD13R,2.400000X2.800000*%
%ADD14R,2.200000X2.600000*%
%ADD15R,2.100000X2.100000*%
%ADD16O,2.100000X2.100000*%
%ADD17R,2.000000X3.900000*%
%ADD18R,1.300000X1.200000*%
%ADD19R,1.400000X1.400000*%
%ADD20R,1.400000X1.500000*%
%ADD21R,1.460000X1.050000*%
%ADD22R,1.000000X1.600000*%
%ADD23R,1.600000X1.000000*%
G04 APERTURE END LIST*
D10*
X14478000Y-53086000D02*
X14478000Y-14224000D01*
X63246000Y-53086000D02*
X14478000Y-53086000D01*
X63246000Y-14224000D02*
X63246000Y-53086000D01*
X14478000Y-14224000D02*
X63246000Y-14224000D01*
D11*
G04 #@! TO.C,C3*
G36*
X43313493Y-44347535D02*
X43344435Y-44352125D01*
X43374778Y-44359725D01*
X43404230Y-44370263D01*
X43432508Y-44383638D01*
X43459338Y-44399719D01*
X43484463Y-44418353D01*
X43507640Y-44439360D01*
X43528647Y-44462537D01*
X43547281Y-44487662D01*
X43563362Y-44514492D01*
X43576737Y-44542770D01*
X43587275Y-44572222D01*
X43594875Y-44602565D01*
X43599465Y-44633507D01*
X43601000Y-44664750D01*
X43601000Y-45302250D01*
X43599465Y-45333493D01*
X43594875Y-45364435D01*
X43587275Y-45394778D01*
X43576737Y-45424230D01*
X43563362Y-45452508D01*
X43547281Y-45479338D01*
X43528647Y-45504463D01*
X43507640Y-45527640D01*
X43484463Y-45548647D01*
X43459338Y-45567281D01*
X43432508Y-45583362D01*
X43404230Y-45596737D01*
X43374778Y-45607275D01*
X43344435Y-45614875D01*
X43313493Y-45619465D01*
X43282250Y-45621000D01*
X42569750Y-45621000D01*
X42538507Y-45619465D01*
X42507565Y-45614875D01*
X42477222Y-45607275D01*
X42447770Y-45596737D01*
X42419492Y-45583362D01*
X42392662Y-45567281D01*
X42367537Y-45548647D01*
X42344360Y-45527640D01*
X42323353Y-45504463D01*
X42304719Y-45479338D01*
X42288638Y-45452508D01*
X42275263Y-45424230D01*
X42264725Y-45394778D01*
X42257125Y-45364435D01*
X42252535Y-45333493D01*
X42251000Y-45302250D01*
X42251000Y-44664750D01*
X42252535Y-44633507D01*
X42257125Y-44602565D01*
X42264725Y-44572222D01*
X42275263Y-44542770D01*
X42288638Y-44514492D01*
X42304719Y-44487662D01*
X42323353Y-44462537D01*
X42344360Y-44439360D01*
X42367537Y-44418353D01*
X42392662Y-44399719D01*
X42419492Y-44383638D01*
X42447770Y-44370263D01*
X42477222Y-44359725D01*
X42507565Y-44352125D01*
X42538507Y-44347535D01*
X42569750Y-44346000D01*
X43282250Y-44346000D01*
X43313493Y-44347535D01*
X43313493Y-44347535D01*
G37*
D12*
X42926000Y-44983500D03*
D11*
G36*
X43313493Y-42772535D02*
X43344435Y-42777125D01*
X43374778Y-42784725D01*
X43404230Y-42795263D01*
X43432508Y-42808638D01*
X43459338Y-42824719D01*
X43484463Y-42843353D01*
X43507640Y-42864360D01*
X43528647Y-42887537D01*
X43547281Y-42912662D01*
X43563362Y-42939492D01*
X43576737Y-42967770D01*
X43587275Y-42997222D01*
X43594875Y-43027565D01*
X43599465Y-43058507D01*
X43601000Y-43089750D01*
X43601000Y-43727250D01*
X43599465Y-43758493D01*
X43594875Y-43789435D01*
X43587275Y-43819778D01*
X43576737Y-43849230D01*
X43563362Y-43877508D01*
X43547281Y-43904338D01*
X43528647Y-43929463D01*
X43507640Y-43952640D01*
X43484463Y-43973647D01*
X43459338Y-43992281D01*
X43432508Y-44008362D01*
X43404230Y-44021737D01*
X43374778Y-44032275D01*
X43344435Y-44039875D01*
X43313493Y-44044465D01*
X43282250Y-44046000D01*
X42569750Y-44046000D01*
X42538507Y-44044465D01*
X42507565Y-44039875D01*
X42477222Y-44032275D01*
X42447770Y-44021737D01*
X42419492Y-44008362D01*
X42392662Y-43992281D01*
X42367537Y-43973647D01*
X42344360Y-43952640D01*
X42323353Y-43929463D01*
X42304719Y-43904338D01*
X42288638Y-43877508D01*
X42275263Y-43849230D01*
X42264725Y-43819778D01*
X42257125Y-43789435D01*
X42252535Y-43758493D01*
X42251000Y-43727250D01*
X42251000Y-43089750D01*
X42252535Y-43058507D01*
X42257125Y-43027565D01*
X42264725Y-42997222D01*
X42275263Y-42967770D01*
X42288638Y-42939492D01*
X42304719Y-42912662D01*
X42323353Y-42887537D01*
X42344360Y-42864360D01*
X42367537Y-42843353D01*
X42392662Y-42824719D01*
X42419492Y-42808638D01*
X42447770Y-42795263D01*
X42477222Y-42784725D01*
X42507565Y-42777125D01*
X42538507Y-42772535D01*
X42569750Y-42771000D01*
X43282250Y-42771000D01*
X43313493Y-42772535D01*
X43313493Y-42772535D01*
G37*
D12*
X42926000Y-43408500D03*
G04 #@! TD*
D13*
G04 #@! TO.C,Y1*
X40712000Y-43688000D03*
X37012000Y-43688000D03*
G04 #@! TD*
D11*
G04 #@! TO.C,C1*
G36*
X23247493Y-38251535D02*
X23278435Y-38256125D01*
X23308778Y-38263725D01*
X23338230Y-38274263D01*
X23366508Y-38287638D01*
X23393338Y-38303719D01*
X23418463Y-38322353D01*
X23441640Y-38343360D01*
X23462647Y-38366537D01*
X23481281Y-38391662D01*
X23497362Y-38418492D01*
X23510737Y-38446770D01*
X23521275Y-38476222D01*
X23528875Y-38506565D01*
X23533465Y-38537507D01*
X23535000Y-38568750D01*
X23535000Y-39206250D01*
X23533465Y-39237493D01*
X23528875Y-39268435D01*
X23521275Y-39298778D01*
X23510737Y-39328230D01*
X23497362Y-39356508D01*
X23481281Y-39383338D01*
X23462647Y-39408463D01*
X23441640Y-39431640D01*
X23418463Y-39452647D01*
X23393338Y-39471281D01*
X23366508Y-39487362D01*
X23338230Y-39500737D01*
X23308778Y-39511275D01*
X23278435Y-39518875D01*
X23247493Y-39523465D01*
X23216250Y-39525000D01*
X22503750Y-39525000D01*
X22472507Y-39523465D01*
X22441565Y-39518875D01*
X22411222Y-39511275D01*
X22381770Y-39500737D01*
X22353492Y-39487362D01*
X22326662Y-39471281D01*
X22301537Y-39452647D01*
X22278360Y-39431640D01*
X22257353Y-39408463D01*
X22238719Y-39383338D01*
X22222638Y-39356508D01*
X22209263Y-39328230D01*
X22198725Y-39298778D01*
X22191125Y-39268435D01*
X22186535Y-39237493D01*
X22185000Y-39206250D01*
X22185000Y-38568750D01*
X22186535Y-38537507D01*
X22191125Y-38506565D01*
X22198725Y-38476222D01*
X22209263Y-38446770D01*
X22222638Y-38418492D01*
X22238719Y-38391662D01*
X22257353Y-38366537D01*
X22278360Y-38343360D01*
X22301537Y-38322353D01*
X22326662Y-38303719D01*
X22353492Y-38287638D01*
X22381770Y-38274263D01*
X22411222Y-38263725D01*
X22441565Y-38256125D01*
X22472507Y-38251535D01*
X22503750Y-38250000D01*
X23216250Y-38250000D01*
X23247493Y-38251535D01*
X23247493Y-38251535D01*
G37*
D12*
X22860000Y-38887500D03*
D11*
G36*
X23247493Y-36676535D02*
X23278435Y-36681125D01*
X23308778Y-36688725D01*
X23338230Y-36699263D01*
X23366508Y-36712638D01*
X23393338Y-36728719D01*
X23418463Y-36747353D01*
X23441640Y-36768360D01*
X23462647Y-36791537D01*
X23481281Y-36816662D01*
X23497362Y-36843492D01*
X23510737Y-36871770D01*
X23521275Y-36901222D01*
X23528875Y-36931565D01*
X23533465Y-36962507D01*
X23535000Y-36993750D01*
X23535000Y-37631250D01*
X23533465Y-37662493D01*
X23528875Y-37693435D01*
X23521275Y-37723778D01*
X23510737Y-37753230D01*
X23497362Y-37781508D01*
X23481281Y-37808338D01*
X23462647Y-37833463D01*
X23441640Y-37856640D01*
X23418463Y-37877647D01*
X23393338Y-37896281D01*
X23366508Y-37912362D01*
X23338230Y-37925737D01*
X23308778Y-37936275D01*
X23278435Y-37943875D01*
X23247493Y-37948465D01*
X23216250Y-37950000D01*
X22503750Y-37950000D01*
X22472507Y-37948465D01*
X22441565Y-37943875D01*
X22411222Y-37936275D01*
X22381770Y-37925737D01*
X22353492Y-37912362D01*
X22326662Y-37896281D01*
X22301537Y-37877647D01*
X22278360Y-37856640D01*
X22257353Y-37833463D01*
X22238719Y-37808338D01*
X22222638Y-37781508D01*
X22209263Y-37753230D01*
X22198725Y-37723778D01*
X22191125Y-37693435D01*
X22186535Y-37662493D01*
X22185000Y-37631250D01*
X22185000Y-36993750D01*
X22186535Y-36962507D01*
X22191125Y-36931565D01*
X22198725Y-36901222D01*
X22209263Y-36871770D01*
X22222638Y-36843492D01*
X22238719Y-36816662D01*
X22257353Y-36791537D01*
X22278360Y-36768360D01*
X22301537Y-36747353D01*
X22326662Y-36728719D01*
X22353492Y-36712638D01*
X22381770Y-36699263D01*
X22411222Y-36688725D01*
X22441565Y-36681125D01*
X22472507Y-36676535D01*
X22503750Y-36675000D01*
X23216250Y-36675000D01*
X23247493Y-36676535D01*
X23247493Y-36676535D01*
G37*
D12*
X22860000Y-37312500D03*
G04 #@! TD*
D11*
G04 #@! TO.C,C2*
G36*
X35185493Y-42772535D02*
X35216435Y-42777125D01*
X35246778Y-42784725D01*
X35276230Y-42795263D01*
X35304508Y-42808638D01*
X35331338Y-42824719D01*
X35356463Y-42843353D01*
X35379640Y-42864360D01*
X35400647Y-42887537D01*
X35419281Y-42912662D01*
X35435362Y-42939492D01*
X35448737Y-42967770D01*
X35459275Y-42997222D01*
X35466875Y-43027565D01*
X35471465Y-43058507D01*
X35473000Y-43089750D01*
X35473000Y-43727250D01*
X35471465Y-43758493D01*
X35466875Y-43789435D01*
X35459275Y-43819778D01*
X35448737Y-43849230D01*
X35435362Y-43877508D01*
X35419281Y-43904338D01*
X35400647Y-43929463D01*
X35379640Y-43952640D01*
X35356463Y-43973647D01*
X35331338Y-43992281D01*
X35304508Y-44008362D01*
X35276230Y-44021737D01*
X35246778Y-44032275D01*
X35216435Y-44039875D01*
X35185493Y-44044465D01*
X35154250Y-44046000D01*
X34441750Y-44046000D01*
X34410507Y-44044465D01*
X34379565Y-44039875D01*
X34349222Y-44032275D01*
X34319770Y-44021737D01*
X34291492Y-44008362D01*
X34264662Y-43992281D01*
X34239537Y-43973647D01*
X34216360Y-43952640D01*
X34195353Y-43929463D01*
X34176719Y-43904338D01*
X34160638Y-43877508D01*
X34147263Y-43849230D01*
X34136725Y-43819778D01*
X34129125Y-43789435D01*
X34124535Y-43758493D01*
X34123000Y-43727250D01*
X34123000Y-43089750D01*
X34124535Y-43058507D01*
X34129125Y-43027565D01*
X34136725Y-42997222D01*
X34147263Y-42967770D01*
X34160638Y-42939492D01*
X34176719Y-42912662D01*
X34195353Y-42887537D01*
X34216360Y-42864360D01*
X34239537Y-42843353D01*
X34264662Y-42824719D01*
X34291492Y-42808638D01*
X34319770Y-42795263D01*
X34349222Y-42784725D01*
X34379565Y-42777125D01*
X34410507Y-42772535D01*
X34441750Y-42771000D01*
X35154250Y-42771000D01*
X35185493Y-42772535D01*
X35185493Y-42772535D01*
G37*
D12*
X34798000Y-43408500D03*
D11*
G36*
X35185493Y-44347535D02*
X35216435Y-44352125D01*
X35246778Y-44359725D01*
X35276230Y-44370263D01*
X35304508Y-44383638D01*
X35331338Y-44399719D01*
X35356463Y-44418353D01*
X35379640Y-44439360D01*
X35400647Y-44462537D01*
X35419281Y-44487662D01*
X35435362Y-44514492D01*
X35448737Y-44542770D01*
X35459275Y-44572222D01*
X35466875Y-44602565D01*
X35471465Y-44633507D01*
X35473000Y-44664750D01*
X35473000Y-45302250D01*
X35471465Y-45333493D01*
X35466875Y-45364435D01*
X35459275Y-45394778D01*
X35448737Y-45424230D01*
X35435362Y-45452508D01*
X35419281Y-45479338D01*
X35400647Y-45504463D01*
X35379640Y-45527640D01*
X35356463Y-45548647D01*
X35331338Y-45567281D01*
X35304508Y-45583362D01*
X35276230Y-45596737D01*
X35246778Y-45607275D01*
X35216435Y-45614875D01*
X35185493Y-45619465D01*
X35154250Y-45621000D01*
X34441750Y-45621000D01*
X34410507Y-45619465D01*
X34379565Y-45614875D01*
X34349222Y-45607275D01*
X34319770Y-45596737D01*
X34291492Y-45583362D01*
X34264662Y-45567281D01*
X34239537Y-45548647D01*
X34216360Y-45527640D01*
X34195353Y-45504463D01*
X34176719Y-45479338D01*
X34160638Y-45452508D01*
X34147263Y-45424230D01*
X34136725Y-45394778D01*
X34129125Y-45364435D01*
X34124535Y-45333493D01*
X34123000Y-45302250D01*
X34123000Y-44664750D01*
X34124535Y-44633507D01*
X34129125Y-44602565D01*
X34136725Y-44572222D01*
X34147263Y-44542770D01*
X34160638Y-44514492D01*
X34176719Y-44487662D01*
X34195353Y-44462537D01*
X34216360Y-44439360D01*
X34239537Y-44418353D01*
X34264662Y-44399719D01*
X34291492Y-44383638D01*
X34319770Y-44370263D01*
X34349222Y-44359725D01*
X34379565Y-44352125D01*
X34410507Y-44347535D01*
X34441750Y-44346000D01*
X35154250Y-44346000D01*
X35185493Y-44347535D01*
X35185493Y-44347535D01*
G37*
D12*
X34798000Y-44983500D03*
G04 #@! TD*
D11*
G04 #@! TO.C,C4*
G36*
X26791493Y-39204535D02*
X26822435Y-39209125D01*
X26852778Y-39216725D01*
X26882230Y-39227263D01*
X26910508Y-39240638D01*
X26937338Y-39256719D01*
X26962463Y-39275353D01*
X26985640Y-39296360D01*
X27006647Y-39319537D01*
X27025281Y-39344662D01*
X27041362Y-39371492D01*
X27054737Y-39399770D01*
X27065275Y-39429222D01*
X27072875Y-39459565D01*
X27077465Y-39490507D01*
X27079000Y-39521750D01*
X27079000Y-40234250D01*
X27077465Y-40265493D01*
X27072875Y-40296435D01*
X27065275Y-40326778D01*
X27054737Y-40356230D01*
X27041362Y-40384508D01*
X27025281Y-40411338D01*
X27006647Y-40436463D01*
X26985640Y-40459640D01*
X26962463Y-40480647D01*
X26937338Y-40499281D01*
X26910508Y-40515362D01*
X26882230Y-40528737D01*
X26852778Y-40539275D01*
X26822435Y-40546875D01*
X26791493Y-40551465D01*
X26760250Y-40553000D01*
X26122750Y-40553000D01*
X26091507Y-40551465D01*
X26060565Y-40546875D01*
X26030222Y-40539275D01*
X26000770Y-40528737D01*
X25972492Y-40515362D01*
X25945662Y-40499281D01*
X25920537Y-40480647D01*
X25897360Y-40459640D01*
X25876353Y-40436463D01*
X25857719Y-40411338D01*
X25841638Y-40384508D01*
X25828263Y-40356230D01*
X25817725Y-40326778D01*
X25810125Y-40296435D01*
X25805535Y-40265493D01*
X25804000Y-40234250D01*
X25804000Y-39521750D01*
X25805535Y-39490507D01*
X25810125Y-39459565D01*
X25817725Y-39429222D01*
X25828263Y-39399770D01*
X25841638Y-39371492D01*
X25857719Y-39344662D01*
X25876353Y-39319537D01*
X25897360Y-39296360D01*
X25920537Y-39275353D01*
X25945662Y-39256719D01*
X25972492Y-39240638D01*
X26000770Y-39227263D01*
X26030222Y-39216725D01*
X26060565Y-39209125D01*
X26091507Y-39204535D01*
X26122750Y-39203000D01*
X26760250Y-39203000D01*
X26791493Y-39204535D01*
X26791493Y-39204535D01*
G37*
D12*
X26441500Y-39878000D03*
D11*
G36*
X25216493Y-39204535D02*
X25247435Y-39209125D01*
X25277778Y-39216725D01*
X25307230Y-39227263D01*
X25335508Y-39240638D01*
X25362338Y-39256719D01*
X25387463Y-39275353D01*
X25410640Y-39296360D01*
X25431647Y-39319537D01*
X25450281Y-39344662D01*
X25466362Y-39371492D01*
X25479737Y-39399770D01*
X25490275Y-39429222D01*
X25497875Y-39459565D01*
X25502465Y-39490507D01*
X25504000Y-39521750D01*
X25504000Y-40234250D01*
X25502465Y-40265493D01*
X25497875Y-40296435D01*
X25490275Y-40326778D01*
X25479737Y-40356230D01*
X25466362Y-40384508D01*
X25450281Y-40411338D01*
X25431647Y-40436463D01*
X25410640Y-40459640D01*
X25387463Y-40480647D01*
X25362338Y-40499281D01*
X25335508Y-40515362D01*
X25307230Y-40528737D01*
X25277778Y-40539275D01*
X25247435Y-40546875D01*
X25216493Y-40551465D01*
X25185250Y-40553000D01*
X24547750Y-40553000D01*
X24516507Y-40551465D01*
X24485565Y-40546875D01*
X24455222Y-40539275D01*
X24425770Y-40528737D01*
X24397492Y-40515362D01*
X24370662Y-40499281D01*
X24345537Y-40480647D01*
X24322360Y-40459640D01*
X24301353Y-40436463D01*
X24282719Y-40411338D01*
X24266638Y-40384508D01*
X24253263Y-40356230D01*
X24242725Y-40326778D01*
X24235125Y-40296435D01*
X24230535Y-40265493D01*
X24229000Y-40234250D01*
X24229000Y-39521750D01*
X24230535Y-39490507D01*
X24235125Y-39459565D01*
X24242725Y-39429222D01*
X24253263Y-39399770D01*
X24266638Y-39371492D01*
X24282719Y-39344662D01*
X24301353Y-39319537D01*
X24322360Y-39296360D01*
X24345537Y-39275353D01*
X24370662Y-39256719D01*
X24397492Y-39240638D01*
X24425770Y-39227263D01*
X24455222Y-39216725D01*
X24485565Y-39209125D01*
X24516507Y-39204535D01*
X24547750Y-39203000D01*
X25185250Y-39203000D01*
X25216493Y-39204535D01*
X25216493Y-39204535D01*
G37*
D12*
X24866500Y-39878000D03*
G04 #@! TD*
D11*
G04 #@! TO.C,C5*
G36*
X28772493Y-45554535D02*
X28803435Y-45559125D01*
X28833778Y-45566725D01*
X28863230Y-45577263D01*
X28891508Y-45590638D01*
X28918338Y-45606719D01*
X28943463Y-45625353D01*
X28966640Y-45646360D01*
X28987647Y-45669537D01*
X29006281Y-45694662D01*
X29022362Y-45721492D01*
X29035737Y-45749770D01*
X29046275Y-45779222D01*
X29053875Y-45809565D01*
X29058465Y-45840507D01*
X29060000Y-45871750D01*
X29060000Y-46584250D01*
X29058465Y-46615493D01*
X29053875Y-46646435D01*
X29046275Y-46676778D01*
X29035737Y-46706230D01*
X29022362Y-46734508D01*
X29006281Y-46761338D01*
X28987647Y-46786463D01*
X28966640Y-46809640D01*
X28943463Y-46830647D01*
X28918338Y-46849281D01*
X28891508Y-46865362D01*
X28863230Y-46878737D01*
X28833778Y-46889275D01*
X28803435Y-46896875D01*
X28772493Y-46901465D01*
X28741250Y-46903000D01*
X28103750Y-46903000D01*
X28072507Y-46901465D01*
X28041565Y-46896875D01*
X28011222Y-46889275D01*
X27981770Y-46878737D01*
X27953492Y-46865362D01*
X27926662Y-46849281D01*
X27901537Y-46830647D01*
X27878360Y-46809640D01*
X27857353Y-46786463D01*
X27838719Y-46761338D01*
X27822638Y-46734508D01*
X27809263Y-46706230D01*
X27798725Y-46676778D01*
X27791125Y-46646435D01*
X27786535Y-46615493D01*
X27785000Y-46584250D01*
X27785000Y-45871750D01*
X27786535Y-45840507D01*
X27791125Y-45809565D01*
X27798725Y-45779222D01*
X27809263Y-45749770D01*
X27822638Y-45721492D01*
X27838719Y-45694662D01*
X27857353Y-45669537D01*
X27878360Y-45646360D01*
X27901537Y-45625353D01*
X27926662Y-45606719D01*
X27953492Y-45590638D01*
X27981770Y-45577263D01*
X28011222Y-45566725D01*
X28041565Y-45559125D01*
X28072507Y-45554535D01*
X28103750Y-45553000D01*
X28741250Y-45553000D01*
X28772493Y-45554535D01*
X28772493Y-45554535D01*
G37*
D12*
X28422500Y-46228000D03*
D11*
G36*
X30347493Y-45554535D02*
X30378435Y-45559125D01*
X30408778Y-45566725D01*
X30438230Y-45577263D01*
X30466508Y-45590638D01*
X30493338Y-45606719D01*
X30518463Y-45625353D01*
X30541640Y-45646360D01*
X30562647Y-45669537D01*
X30581281Y-45694662D01*
X30597362Y-45721492D01*
X30610737Y-45749770D01*
X30621275Y-45779222D01*
X30628875Y-45809565D01*
X30633465Y-45840507D01*
X30635000Y-45871750D01*
X30635000Y-46584250D01*
X30633465Y-46615493D01*
X30628875Y-46646435D01*
X30621275Y-46676778D01*
X30610737Y-46706230D01*
X30597362Y-46734508D01*
X30581281Y-46761338D01*
X30562647Y-46786463D01*
X30541640Y-46809640D01*
X30518463Y-46830647D01*
X30493338Y-46849281D01*
X30466508Y-46865362D01*
X30438230Y-46878737D01*
X30408778Y-46889275D01*
X30378435Y-46896875D01*
X30347493Y-46901465D01*
X30316250Y-46903000D01*
X29678750Y-46903000D01*
X29647507Y-46901465D01*
X29616565Y-46896875D01*
X29586222Y-46889275D01*
X29556770Y-46878737D01*
X29528492Y-46865362D01*
X29501662Y-46849281D01*
X29476537Y-46830647D01*
X29453360Y-46809640D01*
X29432353Y-46786463D01*
X29413719Y-46761338D01*
X29397638Y-46734508D01*
X29384263Y-46706230D01*
X29373725Y-46676778D01*
X29366125Y-46646435D01*
X29361535Y-46615493D01*
X29360000Y-46584250D01*
X29360000Y-45871750D01*
X29361535Y-45840507D01*
X29366125Y-45809565D01*
X29373725Y-45779222D01*
X29384263Y-45749770D01*
X29397638Y-45721492D01*
X29413719Y-45694662D01*
X29432353Y-45669537D01*
X29453360Y-45646360D01*
X29476537Y-45625353D01*
X29501662Y-45606719D01*
X29528492Y-45590638D01*
X29556770Y-45577263D01*
X29586222Y-45566725D01*
X29616565Y-45559125D01*
X29647507Y-45554535D01*
X29678750Y-45553000D01*
X30316250Y-45553000D01*
X30347493Y-45554535D01*
X30347493Y-45554535D01*
G37*
D12*
X29997500Y-46228000D03*
G04 #@! TD*
D11*
G04 #@! TO.C,C6*
G36*
X37687993Y-39712535D02*
X37718935Y-39717125D01*
X37749278Y-39724725D01*
X37778730Y-39735263D01*
X37807008Y-39748638D01*
X37833838Y-39764719D01*
X37858963Y-39783353D01*
X37882140Y-39804360D01*
X37903147Y-39827537D01*
X37921781Y-39852662D01*
X37937862Y-39879492D01*
X37951237Y-39907770D01*
X37961775Y-39937222D01*
X37969375Y-39967565D01*
X37973965Y-39998507D01*
X37975500Y-40029750D01*
X37975500Y-40742250D01*
X37973965Y-40773493D01*
X37969375Y-40804435D01*
X37961775Y-40834778D01*
X37951237Y-40864230D01*
X37937862Y-40892508D01*
X37921781Y-40919338D01*
X37903147Y-40944463D01*
X37882140Y-40967640D01*
X37858963Y-40988647D01*
X37833838Y-41007281D01*
X37807008Y-41023362D01*
X37778730Y-41036737D01*
X37749278Y-41047275D01*
X37718935Y-41054875D01*
X37687993Y-41059465D01*
X37656750Y-41061000D01*
X37019250Y-41061000D01*
X36988007Y-41059465D01*
X36957065Y-41054875D01*
X36926722Y-41047275D01*
X36897270Y-41036737D01*
X36868992Y-41023362D01*
X36842162Y-41007281D01*
X36817037Y-40988647D01*
X36793860Y-40967640D01*
X36772853Y-40944463D01*
X36754219Y-40919338D01*
X36738138Y-40892508D01*
X36724763Y-40864230D01*
X36714225Y-40834778D01*
X36706625Y-40804435D01*
X36702035Y-40773493D01*
X36700500Y-40742250D01*
X36700500Y-40029750D01*
X36702035Y-39998507D01*
X36706625Y-39967565D01*
X36714225Y-39937222D01*
X36724763Y-39907770D01*
X36738138Y-39879492D01*
X36754219Y-39852662D01*
X36772853Y-39827537D01*
X36793860Y-39804360D01*
X36817037Y-39783353D01*
X36842162Y-39764719D01*
X36868992Y-39748638D01*
X36897270Y-39735263D01*
X36926722Y-39724725D01*
X36957065Y-39717125D01*
X36988007Y-39712535D01*
X37019250Y-39711000D01*
X37656750Y-39711000D01*
X37687993Y-39712535D01*
X37687993Y-39712535D01*
G37*
D12*
X37338000Y-40386000D03*
D11*
G36*
X36112993Y-39712535D02*
X36143935Y-39717125D01*
X36174278Y-39724725D01*
X36203730Y-39735263D01*
X36232008Y-39748638D01*
X36258838Y-39764719D01*
X36283963Y-39783353D01*
X36307140Y-39804360D01*
X36328147Y-39827537D01*
X36346781Y-39852662D01*
X36362862Y-39879492D01*
X36376237Y-39907770D01*
X36386775Y-39937222D01*
X36394375Y-39967565D01*
X36398965Y-39998507D01*
X36400500Y-40029750D01*
X36400500Y-40742250D01*
X36398965Y-40773493D01*
X36394375Y-40804435D01*
X36386775Y-40834778D01*
X36376237Y-40864230D01*
X36362862Y-40892508D01*
X36346781Y-40919338D01*
X36328147Y-40944463D01*
X36307140Y-40967640D01*
X36283963Y-40988647D01*
X36258838Y-41007281D01*
X36232008Y-41023362D01*
X36203730Y-41036737D01*
X36174278Y-41047275D01*
X36143935Y-41054875D01*
X36112993Y-41059465D01*
X36081750Y-41061000D01*
X35444250Y-41061000D01*
X35413007Y-41059465D01*
X35382065Y-41054875D01*
X35351722Y-41047275D01*
X35322270Y-41036737D01*
X35293992Y-41023362D01*
X35267162Y-41007281D01*
X35242037Y-40988647D01*
X35218860Y-40967640D01*
X35197853Y-40944463D01*
X35179219Y-40919338D01*
X35163138Y-40892508D01*
X35149763Y-40864230D01*
X35139225Y-40834778D01*
X35131625Y-40804435D01*
X35127035Y-40773493D01*
X35125500Y-40742250D01*
X35125500Y-40029750D01*
X35127035Y-39998507D01*
X35131625Y-39967565D01*
X35139225Y-39937222D01*
X35149763Y-39907770D01*
X35163138Y-39879492D01*
X35179219Y-39852662D01*
X35197853Y-39827537D01*
X35218860Y-39804360D01*
X35242037Y-39783353D01*
X35267162Y-39764719D01*
X35293992Y-39748638D01*
X35322270Y-39735263D01*
X35351722Y-39724725D01*
X35382065Y-39717125D01*
X35413007Y-39712535D01*
X35444250Y-39711000D01*
X36081750Y-39711000D01*
X36112993Y-39712535D01*
X36112993Y-39712535D01*
G37*
D12*
X35763000Y-40386000D03*
G04 #@! TD*
D11*
G04 #@! TO.C,C7*
G36*
X46107493Y-42823535D02*
X46138435Y-42828125D01*
X46168778Y-42835725D01*
X46198230Y-42846263D01*
X46226508Y-42859638D01*
X46253338Y-42875719D01*
X46278463Y-42894353D01*
X46301640Y-42915360D01*
X46322647Y-42938537D01*
X46341281Y-42963662D01*
X46357362Y-42990492D01*
X46370737Y-43018770D01*
X46381275Y-43048222D01*
X46388875Y-43078565D01*
X46393465Y-43109507D01*
X46395000Y-43140750D01*
X46395000Y-43778250D01*
X46393465Y-43809493D01*
X46388875Y-43840435D01*
X46381275Y-43870778D01*
X46370737Y-43900230D01*
X46357362Y-43928508D01*
X46341281Y-43955338D01*
X46322647Y-43980463D01*
X46301640Y-44003640D01*
X46278463Y-44024647D01*
X46253338Y-44043281D01*
X46226508Y-44059362D01*
X46198230Y-44072737D01*
X46168778Y-44083275D01*
X46138435Y-44090875D01*
X46107493Y-44095465D01*
X46076250Y-44097000D01*
X45363750Y-44097000D01*
X45332507Y-44095465D01*
X45301565Y-44090875D01*
X45271222Y-44083275D01*
X45241770Y-44072737D01*
X45213492Y-44059362D01*
X45186662Y-44043281D01*
X45161537Y-44024647D01*
X45138360Y-44003640D01*
X45117353Y-43980463D01*
X45098719Y-43955338D01*
X45082638Y-43928508D01*
X45069263Y-43900230D01*
X45058725Y-43870778D01*
X45051125Y-43840435D01*
X45046535Y-43809493D01*
X45045000Y-43778250D01*
X45045000Y-43140750D01*
X45046535Y-43109507D01*
X45051125Y-43078565D01*
X45058725Y-43048222D01*
X45069263Y-43018770D01*
X45082638Y-42990492D01*
X45098719Y-42963662D01*
X45117353Y-42938537D01*
X45138360Y-42915360D01*
X45161537Y-42894353D01*
X45186662Y-42875719D01*
X45213492Y-42859638D01*
X45241770Y-42846263D01*
X45271222Y-42835725D01*
X45301565Y-42828125D01*
X45332507Y-42823535D01*
X45363750Y-42822000D01*
X46076250Y-42822000D01*
X46107493Y-42823535D01*
X46107493Y-42823535D01*
G37*
D12*
X45720000Y-43459500D03*
D11*
G36*
X46107493Y-41248535D02*
X46138435Y-41253125D01*
X46168778Y-41260725D01*
X46198230Y-41271263D01*
X46226508Y-41284638D01*
X46253338Y-41300719D01*
X46278463Y-41319353D01*
X46301640Y-41340360D01*
X46322647Y-41363537D01*
X46341281Y-41388662D01*
X46357362Y-41415492D01*
X46370737Y-41443770D01*
X46381275Y-41473222D01*
X46388875Y-41503565D01*
X46393465Y-41534507D01*
X46395000Y-41565750D01*
X46395000Y-42203250D01*
X46393465Y-42234493D01*
X46388875Y-42265435D01*
X46381275Y-42295778D01*
X46370737Y-42325230D01*
X46357362Y-42353508D01*
X46341281Y-42380338D01*
X46322647Y-42405463D01*
X46301640Y-42428640D01*
X46278463Y-42449647D01*
X46253338Y-42468281D01*
X46226508Y-42484362D01*
X46198230Y-42497737D01*
X46168778Y-42508275D01*
X46138435Y-42515875D01*
X46107493Y-42520465D01*
X46076250Y-42522000D01*
X45363750Y-42522000D01*
X45332507Y-42520465D01*
X45301565Y-42515875D01*
X45271222Y-42508275D01*
X45241770Y-42497737D01*
X45213492Y-42484362D01*
X45186662Y-42468281D01*
X45161537Y-42449647D01*
X45138360Y-42428640D01*
X45117353Y-42405463D01*
X45098719Y-42380338D01*
X45082638Y-42353508D01*
X45069263Y-42325230D01*
X45058725Y-42295778D01*
X45051125Y-42265435D01*
X45046535Y-42234493D01*
X45045000Y-42203250D01*
X45045000Y-41565750D01*
X45046535Y-41534507D01*
X45051125Y-41503565D01*
X45058725Y-41473222D01*
X45069263Y-41443770D01*
X45082638Y-41415492D01*
X45098719Y-41388662D01*
X45117353Y-41363537D01*
X45138360Y-41340360D01*
X45161537Y-41319353D01*
X45186662Y-41300719D01*
X45213492Y-41284638D01*
X45241770Y-41271263D01*
X45271222Y-41260725D01*
X45301565Y-41253125D01*
X45332507Y-41248535D01*
X45363750Y-41247000D01*
X46076250Y-41247000D01*
X46107493Y-41248535D01*
X46107493Y-41248535D01*
G37*
D12*
X45720000Y-41884500D03*
G04 #@! TD*
D11*
G04 #@! TO.C,C8*
G36*
X46869493Y-30149035D02*
X46900435Y-30153625D01*
X46930778Y-30161225D01*
X46960230Y-30171763D01*
X46988508Y-30185138D01*
X47015338Y-30201219D01*
X47040463Y-30219853D01*
X47063640Y-30240860D01*
X47084647Y-30264037D01*
X47103281Y-30289162D01*
X47119362Y-30315992D01*
X47132737Y-30344270D01*
X47143275Y-30373722D01*
X47150875Y-30404065D01*
X47155465Y-30435007D01*
X47157000Y-30466250D01*
X47157000Y-31103750D01*
X47155465Y-31134993D01*
X47150875Y-31165935D01*
X47143275Y-31196278D01*
X47132737Y-31225730D01*
X47119362Y-31254008D01*
X47103281Y-31280838D01*
X47084647Y-31305963D01*
X47063640Y-31329140D01*
X47040463Y-31350147D01*
X47015338Y-31368781D01*
X46988508Y-31384862D01*
X46960230Y-31398237D01*
X46930778Y-31408775D01*
X46900435Y-31416375D01*
X46869493Y-31420965D01*
X46838250Y-31422500D01*
X46125750Y-31422500D01*
X46094507Y-31420965D01*
X46063565Y-31416375D01*
X46033222Y-31408775D01*
X46003770Y-31398237D01*
X45975492Y-31384862D01*
X45948662Y-31368781D01*
X45923537Y-31350147D01*
X45900360Y-31329140D01*
X45879353Y-31305963D01*
X45860719Y-31280838D01*
X45844638Y-31254008D01*
X45831263Y-31225730D01*
X45820725Y-31196278D01*
X45813125Y-31165935D01*
X45808535Y-31134993D01*
X45807000Y-31103750D01*
X45807000Y-30466250D01*
X45808535Y-30435007D01*
X45813125Y-30404065D01*
X45820725Y-30373722D01*
X45831263Y-30344270D01*
X45844638Y-30315992D01*
X45860719Y-30289162D01*
X45879353Y-30264037D01*
X45900360Y-30240860D01*
X45923537Y-30219853D01*
X45948662Y-30201219D01*
X45975492Y-30185138D01*
X46003770Y-30171763D01*
X46033222Y-30161225D01*
X46063565Y-30153625D01*
X46094507Y-30149035D01*
X46125750Y-30147500D01*
X46838250Y-30147500D01*
X46869493Y-30149035D01*
X46869493Y-30149035D01*
G37*
D12*
X46482000Y-30785000D03*
D11*
G36*
X46869493Y-28574035D02*
X46900435Y-28578625D01*
X46930778Y-28586225D01*
X46960230Y-28596763D01*
X46988508Y-28610138D01*
X47015338Y-28626219D01*
X47040463Y-28644853D01*
X47063640Y-28665860D01*
X47084647Y-28689037D01*
X47103281Y-28714162D01*
X47119362Y-28740992D01*
X47132737Y-28769270D01*
X47143275Y-28798722D01*
X47150875Y-28829065D01*
X47155465Y-28860007D01*
X47157000Y-28891250D01*
X47157000Y-29528750D01*
X47155465Y-29559993D01*
X47150875Y-29590935D01*
X47143275Y-29621278D01*
X47132737Y-29650730D01*
X47119362Y-29679008D01*
X47103281Y-29705838D01*
X47084647Y-29730963D01*
X47063640Y-29754140D01*
X47040463Y-29775147D01*
X47015338Y-29793781D01*
X46988508Y-29809862D01*
X46960230Y-29823237D01*
X46930778Y-29833775D01*
X46900435Y-29841375D01*
X46869493Y-29845965D01*
X46838250Y-29847500D01*
X46125750Y-29847500D01*
X46094507Y-29845965D01*
X46063565Y-29841375D01*
X46033222Y-29833775D01*
X46003770Y-29823237D01*
X45975492Y-29809862D01*
X45948662Y-29793781D01*
X45923537Y-29775147D01*
X45900360Y-29754140D01*
X45879353Y-29730963D01*
X45860719Y-29705838D01*
X45844638Y-29679008D01*
X45831263Y-29650730D01*
X45820725Y-29621278D01*
X45813125Y-29590935D01*
X45808535Y-29559993D01*
X45807000Y-29528750D01*
X45807000Y-28891250D01*
X45808535Y-28860007D01*
X45813125Y-28829065D01*
X45820725Y-28798722D01*
X45831263Y-28769270D01*
X45844638Y-28740992D01*
X45860719Y-28714162D01*
X45879353Y-28689037D01*
X45900360Y-28665860D01*
X45923537Y-28644853D01*
X45948662Y-28626219D01*
X45975492Y-28610138D01*
X46003770Y-28596763D01*
X46033222Y-28586225D01*
X46063565Y-28578625D01*
X46094507Y-28574035D01*
X46125750Y-28572500D01*
X46838250Y-28572500D01*
X46869493Y-28574035D01*
X46869493Y-28574035D01*
G37*
D12*
X46482000Y-29210000D03*
G04 #@! TD*
D14*
G04 #@! TO.C,D1*
X31210000Y-43180000D03*
X27210000Y-43180000D03*
G04 #@! TD*
D11*
G04 #@! TO.C,D2*
G36*
X22904993Y-26758535D02*
X22935935Y-26763125D01*
X22966278Y-26770725D01*
X22995730Y-26781263D01*
X23024008Y-26794638D01*
X23050838Y-26810719D01*
X23075963Y-26829353D01*
X23099140Y-26850360D01*
X23120147Y-26873537D01*
X23138781Y-26898662D01*
X23154862Y-26925492D01*
X23168237Y-26953770D01*
X23178775Y-26983222D01*
X23186375Y-27013565D01*
X23190965Y-27044507D01*
X23192500Y-27075750D01*
X23192500Y-27788250D01*
X23190965Y-27819493D01*
X23186375Y-27850435D01*
X23178775Y-27880778D01*
X23168237Y-27910230D01*
X23154862Y-27938508D01*
X23138781Y-27965338D01*
X23120147Y-27990463D01*
X23099140Y-28013640D01*
X23075963Y-28034647D01*
X23050838Y-28053281D01*
X23024008Y-28069362D01*
X22995730Y-28082737D01*
X22966278Y-28093275D01*
X22935935Y-28100875D01*
X22904993Y-28105465D01*
X22873750Y-28107000D01*
X22236250Y-28107000D01*
X22205007Y-28105465D01*
X22174065Y-28100875D01*
X22143722Y-28093275D01*
X22114270Y-28082737D01*
X22085992Y-28069362D01*
X22059162Y-28053281D01*
X22034037Y-28034647D01*
X22010860Y-28013640D01*
X21989853Y-27990463D01*
X21971219Y-27965338D01*
X21955138Y-27938508D01*
X21941763Y-27910230D01*
X21931225Y-27880778D01*
X21923625Y-27850435D01*
X21919035Y-27819493D01*
X21917500Y-27788250D01*
X21917500Y-27075750D01*
X21919035Y-27044507D01*
X21923625Y-27013565D01*
X21931225Y-26983222D01*
X21941763Y-26953770D01*
X21955138Y-26925492D01*
X21971219Y-26898662D01*
X21989853Y-26873537D01*
X22010860Y-26850360D01*
X22034037Y-26829353D01*
X22059162Y-26810719D01*
X22085992Y-26794638D01*
X22114270Y-26781263D01*
X22143722Y-26770725D01*
X22174065Y-26763125D01*
X22205007Y-26758535D01*
X22236250Y-26757000D01*
X22873750Y-26757000D01*
X22904993Y-26758535D01*
X22904993Y-26758535D01*
G37*
D12*
X22555000Y-27432000D03*
D11*
G36*
X24479993Y-26758535D02*
X24510935Y-26763125D01*
X24541278Y-26770725D01*
X24570730Y-26781263D01*
X24599008Y-26794638D01*
X24625838Y-26810719D01*
X24650963Y-26829353D01*
X24674140Y-26850360D01*
X24695147Y-26873537D01*
X24713781Y-26898662D01*
X24729862Y-26925492D01*
X24743237Y-26953770D01*
X24753775Y-26983222D01*
X24761375Y-27013565D01*
X24765965Y-27044507D01*
X24767500Y-27075750D01*
X24767500Y-27788250D01*
X24765965Y-27819493D01*
X24761375Y-27850435D01*
X24753775Y-27880778D01*
X24743237Y-27910230D01*
X24729862Y-27938508D01*
X24713781Y-27965338D01*
X24695147Y-27990463D01*
X24674140Y-28013640D01*
X24650963Y-28034647D01*
X24625838Y-28053281D01*
X24599008Y-28069362D01*
X24570730Y-28082737D01*
X24541278Y-28093275D01*
X24510935Y-28100875D01*
X24479993Y-28105465D01*
X24448750Y-28107000D01*
X23811250Y-28107000D01*
X23780007Y-28105465D01*
X23749065Y-28100875D01*
X23718722Y-28093275D01*
X23689270Y-28082737D01*
X23660992Y-28069362D01*
X23634162Y-28053281D01*
X23609037Y-28034647D01*
X23585860Y-28013640D01*
X23564853Y-27990463D01*
X23546219Y-27965338D01*
X23530138Y-27938508D01*
X23516763Y-27910230D01*
X23506225Y-27880778D01*
X23498625Y-27850435D01*
X23494035Y-27819493D01*
X23492500Y-27788250D01*
X23492500Y-27075750D01*
X23494035Y-27044507D01*
X23498625Y-27013565D01*
X23506225Y-26983222D01*
X23516763Y-26953770D01*
X23530138Y-26925492D01*
X23546219Y-26898662D01*
X23564853Y-26873537D01*
X23585860Y-26850360D01*
X23609037Y-26829353D01*
X23634162Y-26810719D01*
X23660992Y-26794638D01*
X23689270Y-26781263D01*
X23718722Y-26770725D01*
X23749065Y-26763125D01*
X23780007Y-26758535D01*
X23811250Y-26757000D01*
X24448750Y-26757000D01*
X24479993Y-26758535D01*
X24479993Y-26758535D01*
G37*
D12*
X24130000Y-27432000D03*
G04 #@! TD*
D11*
G04 #@! TO.C,D3*
G36*
X24479993Y-28536535D02*
X24510935Y-28541125D01*
X24541278Y-28548725D01*
X24570730Y-28559263D01*
X24599008Y-28572638D01*
X24625838Y-28588719D01*
X24650963Y-28607353D01*
X24674140Y-28628360D01*
X24695147Y-28651537D01*
X24713781Y-28676662D01*
X24729862Y-28703492D01*
X24743237Y-28731770D01*
X24753775Y-28761222D01*
X24761375Y-28791565D01*
X24765965Y-28822507D01*
X24767500Y-28853750D01*
X24767500Y-29566250D01*
X24765965Y-29597493D01*
X24761375Y-29628435D01*
X24753775Y-29658778D01*
X24743237Y-29688230D01*
X24729862Y-29716508D01*
X24713781Y-29743338D01*
X24695147Y-29768463D01*
X24674140Y-29791640D01*
X24650963Y-29812647D01*
X24625838Y-29831281D01*
X24599008Y-29847362D01*
X24570730Y-29860737D01*
X24541278Y-29871275D01*
X24510935Y-29878875D01*
X24479993Y-29883465D01*
X24448750Y-29885000D01*
X23811250Y-29885000D01*
X23780007Y-29883465D01*
X23749065Y-29878875D01*
X23718722Y-29871275D01*
X23689270Y-29860737D01*
X23660992Y-29847362D01*
X23634162Y-29831281D01*
X23609037Y-29812647D01*
X23585860Y-29791640D01*
X23564853Y-29768463D01*
X23546219Y-29743338D01*
X23530138Y-29716508D01*
X23516763Y-29688230D01*
X23506225Y-29658778D01*
X23498625Y-29628435D01*
X23494035Y-29597493D01*
X23492500Y-29566250D01*
X23492500Y-28853750D01*
X23494035Y-28822507D01*
X23498625Y-28791565D01*
X23506225Y-28761222D01*
X23516763Y-28731770D01*
X23530138Y-28703492D01*
X23546219Y-28676662D01*
X23564853Y-28651537D01*
X23585860Y-28628360D01*
X23609037Y-28607353D01*
X23634162Y-28588719D01*
X23660992Y-28572638D01*
X23689270Y-28559263D01*
X23718722Y-28548725D01*
X23749065Y-28541125D01*
X23780007Y-28536535D01*
X23811250Y-28535000D01*
X24448750Y-28535000D01*
X24479993Y-28536535D01*
X24479993Y-28536535D01*
G37*
D12*
X24130000Y-29210000D03*
D11*
G36*
X22904993Y-28536535D02*
X22935935Y-28541125D01*
X22966278Y-28548725D01*
X22995730Y-28559263D01*
X23024008Y-28572638D01*
X23050838Y-28588719D01*
X23075963Y-28607353D01*
X23099140Y-28628360D01*
X23120147Y-28651537D01*
X23138781Y-28676662D01*
X23154862Y-28703492D01*
X23168237Y-28731770D01*
X23178775Y-28761222D01*
X23186375Y-28791565D01*
X23190965Y-28822507D01*
X23192500Y-28853750D01*
X23192500Y-29566250D01*
X23190965Y-29597493D01*
X23186375Y-29628435D01*
X23178775Y-29658778D01*
X23168237Y-29688230D01*
X23154862Y-29716508D01*
X23138781Y-29743338D01*
X23120147Y-29768463D01*
X23099140Y-29791640D01*
X23075963Y-29812647D01*
X23050838Y-29831281D01*
X23024008Y-29847362D01*
X22995730Y-29860737D01*
X22966278Y-29871275D01*
X22935935Y-29878875D01*
X22904993Y-29883465D01*
X22873750Y-29885000D01*
X22236250Y-29885000D01*
X22205007Y-29883465D01*
X22174065Y-29878875D01*
X22143722Y-29871275D01*
X22114270Y-29860737D01*
X22085992Y-29847362D01*
X22059162Y-29831281D01*
X22034037Y-29812647D01*
X22010860Y-29791640D01*
X21989853Y-29768463D01*
X21971219Y-29743338D01*
X21955138Y-29716508D01*
X21941763Y-29688230D01*
X21931225Y-29658778D01*
X21923625Y-29628435D01*
X21919035Y-29597493D01*
X21917500Y-29566250D01*
X21917500Y-28853750D01*
X21919035Y-28822507D01*
X21923625Y-28791565D01*
X21931225Y-28761222D01*
X21941763Y-28731770D01*
X21955138Y-28703492D01*
X21971219Y-28676662D01*
X21989853Y-28651537D01*
X22010860Y-28628360D01*
X22034037Y-28607353D01*
X22059162Y-28588719D01*
X22085992Y-28572638D01*
X22114270Y-28559263D01*
X22143722Y-28548725D01*
X22174065Y-28541125D01*
X22205007Y-28536535D01*
X22236250Y-28535000D01*
X22873750Y-28535000D01*
X22904993Y-28536535D01*
X22904993Y-28536535D01*
G37*
D12*
X22555000Y-29210000D03*
G04 #@! TD*
D14*
G04 #@! TO.C,D4*
X16288000Y-20828000D03*
X20288000Y-20828000D03*
G04 #@! TD*
G04 #@! TO.C,D5*
X28226000Y-20828000D03*
X32226000Y-20828000D03*
G04 #@! TD*
G04 #@! TO.C,D6*
X44418000Y-20828000D03*
X40418000Y-20828000D03*
G04 #@! TD*
G04 #@! TO.C,D7*
X56610000Y-20828000D03*
X52610000Y-20828000D03*
G04 #@! TD*
D15*
G04 #@! TO.C,J2*
X19050000Y-36322000D03*
D16*
X19050000Y-38862000D03*
G04 #@! TD*
G04 #@! TO.C,J4*
X24384000Y-50800000D03*
X21844000Y-50800000D03*
X19304000Y-50800000D03*
D15*
X16764000Y-50800000D03*
G04 #@! TD*
G04 #@! TO.C,J5*
X16764000Y-16510000D03*
D16*
X19304000Y-16510000D03*
X21844000Y-16510000D03*
X24384000Y-16510000D03*
G04 #@! TD*
G04 #@! TO.C,J6*
X36576000Y-50800000D03*
X34036000Y-50800000D03*
X31496000Y-50800000D03*
D15*
X28956000Y-50800000D03*
G04 #@! TD*
G04 #@! TO.C,J7*
X28956000Y-16510000D03*
D16*
X31496000Y-16510000D03*
X34036000Y-16510000D03*
X36576000Y-16510000D03*
G04 #@! TD*
D15*
G04 #@! TO.C,J8*
X41148000Y-50800000D03*
D16*
X43688000Y-50800000D03*
X46228000Y-50800000D03*
X48768000Y-50800000D03*
G04 #@! TD*
D15*
G04 #@! TO.C,J9*
X41148000Y-16510000D03*
D16*
X43688000Y-16510000D03*
X46228000Y-16510000D03*
X48768000Y-16510000D03*
G04 #@! TD*
G04 #@! TO.C,J10*
X60960000Y-50800000D03*
X58420000Y-50800000D03*
X55880000Y-50800000D03*
D15*
X53340000Y-50800000D03*
G04 #@! TD*
D16*
G04 #@! TO.C,J11*
X60960000Y-16510000D03*
X58420000Y-16510000D03*
X55880000Y-16510000D03*
D15*
X53340000Y-16510000D03*
G04 #@! TD*
D17*
G04 #@! TO.C,L1*
X24768000Y-43180000D03*
X21968000Y-43180000D03*
G04 #@! TD*
D18*
G04 #@! TO.C,Q1*
X18558000Y-24892000D03*
X20558000Y-23942000D03*
X20558000Y-25842000D03*
G04 #@! TD*
G04 #@! TO.C,Q2*
X32496000Y-25842000D03*
X32496000Y-23942000D03*
X30496000Y-24892000D03*
G04 #@! TD*
G04 #@! TO.C,Q3*
X42688000Y-24892000D03*
X44688000Y-23942000D03*
X44688000Y-25842000D03*
G04 #@! TD*
G04 #@! TO.C,Q4*
X56880000Y-25842000D03*
X56880000Y-23942000D03*
X54880000Y-24892000D03*
G04 #@! TD*
D11*
G04 #@! TO.C,R1*
G36*
X23247493Y-33628535D02*
X23278435Y-33633125D01*
X23308778Y-33640725D01*
X23338230Y-33651263D01*
X23366508Y-33664638D01*
X23393338Y-33680719D01*
X23418463Y-33699353D01*
X23441640Y-33720360D01*
X23462647Y-33743537D01*
X23481281Y-33768662D01*
X23497362Y-33795492D01*
X23510737Y-33823770D01*
X23521275Y-33853222D01*
X23528875Y-33883565D01*
X23533465Y-33914507D01*
X23535000Y-33945750D01*
X23535000Y-34583250D01*
X23533465Y-34614493D01*
X23528875Y-34645435D01*
X23521275Y-34675778D01*
X23510737Y-34705230D01*
X23497362Y-34733508D01*
X23481281Y-34760338D01*
X23462647Y-34785463D01*
X23441640Y-34808640D01*
X23418463Y-34829647D01*
X23393338Y-34848281D01*
X23366508Y-34864362D01*
X23338230Y-34877737D01*
X23308778Y-34888275D01*
X23278435Y-34895875D01*
X23247493Y-34900465D01*
X23216250Y-34902000D01*
X22503750Y-34902000D01*
X22472507Y-34900465D01*
X22441565Y-34895875D01*
X22411222Y-34888275D01*
X22381770Y-34877737D01*
X22353492Y-34864362D01*
X22326662Y-34848281D01*
X22301537Y-34829647D01*
X22278360Y-34808640D01*
X22257353Y-34785463D01*
X22238719Y-34760338D01*
X22222638Y-34733508D01*
X22209263Y-34705230D01*
X22198725Y-34675778D01*
X22191125Y-34645435D01*
X22186535Y-34614493D01*
X22185000Y-34583250D01*
X22185000Y-33945750D01*
X22186535Y-33914507D01*
X22191125Y-33883565D01*
X22198725Y-33853222D01*
X22209263Y-33823770D01*
X22222638Y-33795492D01*
X22238719Y-33768662D01*
X22257353Y-33743537D01*
X22278360Y-33720360D01*
X22301537Y-33699353D01*
X22326662Y-33680719D01*
X22353492Y-33664638D01*
X22381770Y-33651263D01*
X22411222Y-33640725D01*
X22441565Y-33633125D01*
X22472507Y-33628535D01*
X22503750Y-33627000D01*
X23216250Y-33627000D01*
X23247493Y-33628535D01*
X23247493Y-33628535D01*
G37*
D12*
X22860000Y-34264500D03*
D11*
G36*
X23247493Y-35203535D02*
X23278435Y-35208125D01*
X23308778Y-35215725D01*
X23338230Y-35226263D01*
X23366508Y-35239638D01*
X23393338Y-35255719D01*
X23418463Y-35274353D01*
X23441640Y-35295360D01*
X23462647Y-35318537D01*
X23481281Y-35343662D01*
X23497362Y-35370492D01*
X23510737Y-35398770D01*
X23521275Y-35428222D01*
X23528875Y-35458565D01*
X23533465Y-35489507D01*
X23535000Y-35520750D01*
X23535000Y-36158250D01*
X23533465Y-36189493D01*
X23528875Y-36220435D01*
X23521275Y-36250778D01*
X23510737Y-36280230D01*
X23497362Y-36308508D01*
X23481281Y-36335338D01*
X23462647Y-36360463D01*
X23441640Y-36383640D01*
X23418463Y-36404647D01*
X23393338Y-36423281D01*
X23366508Y-36439362D01*
X23338230Y-36452737D01*
X23308778Y-36463275D01*
X23278435Y-36470875D01*
X23247493Y-36475465D01*
X23216250Y-36477000D01*
X22503750Y-36477000D01*
X22472507Y-36475465D01*
X22441565Y-36470875D01*
X22411222Y-36463275D01*
X22381770Y-36452737D01*
X22353492Y-36439362D01*
X22326662Y-36423281D01*
X22301537Y-36404647D01*
X22278360Y-36383640D01*
X22257353Y-36360463D01*
X22238719Y-36335338D01*
X22222638Y-36308508D01*
X22209263Y-36280230D01*
X22198725Y-36250778D01*
X22191125Y-36220435D01*
X22186535Y-36189493D01*
X22185000Y-36158250D01*
X22185000Y-35520750D01*
X22186535Y-35489507D01*
X22191125Y-35458565D01*
X22198725Y-35428222D01*
X22209263Y-35398770D01*
X22222638Y-35370492D01*
X22238719Y-35343662D01*
X22257353Y-35318537D01*
X22278360Y-35295360D01*
X22301537Y-35274353D01*
X22326662Y-35255719D01*
X22353492Y-35239638D01*
X22381770Y-35226263D01*
X22411222Y-35215725D01*
X22441565Y-35208125D01*
X22472507Y-35203535D01*
X22503750Y-35202000D01*
X23216250Y-35202000D01*
X23247493Y-35203535D01*
X23247493Y-35203535D01*
G37*
D12*
X22860000Y-35839500D03*
G04 #@! TD*
D11*
G04 #@! TO.C,R4*
G36*
X34677493Y-37692535D02*
X34708435Y-37697125D01*
X34738778Y-37704725D01*
X34768230Y-37715263D01*
X34796508Y-37728638D01*
X34823338Y-37744719D01*
X34848463Y-37763353D01*
X34871640Y-37784360D01*
X34892647Y-37807537D01*
X34911281Y-37832662D01*
X34927362Y-37859492D01*
X34940737Y-37887770D01*
X34951275Y-37917222D01*
X34958875Y-37947565D01*
X34963465Y-37978507D01*
X34965000Y-38009750D01*
X34965000Y-38647250D01*
X34963465Y-38678493D01*
X34958875Y-38709435D01*
X34951275Y-38739778D01*
X34940737Y-38769230D01*
X34927362Y-38797508D01*
X34911281Y-38824338D01*
X34892647Y-38849463D01*
X34871640Y-38872640D01*
X34848463Y-38893647D01*
X34823338Y-38912281D01*
X34796508Y-38928362D01*
X34768230Y-38941737D01*
X34738778Y-38952275D01*
X34708435Y-38959875D01*
X34677493Y-38964465D01*
X34646250Y-38966000D01*
X33933750Y-38966000D01*
X33902507Y-38964465D01*
X33871565Y-38959875D01*
X33841222Y-38952275D01*
X33811770Y-38941737D01*
X33783492Y-38928362D01*
X33756662Y-38912281D01*
X33731537Y-38893647D01*
X33708360Y-38872640D01*
X33687353Y-38849463D01*
X33668719Y-38824338D01*
X33652638Y-38797508D01*
X33639263Y-38769230D01*
X33628725Y-38739778D01*
X33621125Y-38709435D01*
X33616535Y-38678493D01*
X33615000Y-38647250D01*
X33615000Y-38009750D01*
X33616535Y-37978507D01*
X33621125Y-37947565D01*
X33628725Y-37917222D01*
X33639263Y-37887770D01*
X33652638Y-37859492D01*
X33668719Y-37832662D01*
X33687353Y-37807537D01*
X33708360Y-37784360D01*
X33731537Y-37763353D01*
X33756662Y-37744719D01*
X33783492Y-37728638D01*
X33811770Y-37715263D01*
X33841222Y-37704725D01*
X33871565Y-37697125D01*
X33902507Y-37692535D01*
X33933750Y-37691000D01*
X34646250Y-37691000D01*
X34677493Y-37692535D01*
X34677493Y-37692535D01*
G37*
D12*
X34290000Y-38328500D03*
D11*
G36*
X34677493Y-39267535D02*
X34708435Y-39272125D01*
X34738778Y-39279725D01*
X34768230Y-39290263D01*
X34796508Y-39303638D01*
X34823338Y-39319719D01*
X34848463Y-39338353D01*
X34871640Y-39359360D01*
X34892647Y-39382537D01*
X34911281Y-39407662D01*
X34927362Y-39434492D01*
X34940737Y-39462770D01*
X34951275Y-39492222D01*
X34958875Y-39522565D01*
X34963465Y-39553507D01*
X34965000Y-39584750D01*
X34965000Y-40222250D01*
X34963465Y-40253493D01*
X34958875Y-40284435D01*
X34951275Y-40314778D01*
X34940737Y-40344230D01*
X34927362Y-40372508D01*
X34911281Y-40399338D01*
X34892647Y-40424463D01*
X34871640Y-40447640D01*
X34848463Y-40468647D01*
X34823338Y-40487281D01*
X34796508Y-40503362D01*
X34768230Y-40516737D01*
X34738778Y-40527275D01*
X34708435Y-40534875D01*
X34677493Y-40539465D01*
X34646250Y-40541000D01*
X33933750Y-40541000D01*
X33902507Y-40539465D01*
X33871565Y-40534875D01*
X33841222Y-40527275D01*
X33811770Y-40516737D01*
X33783492Y-40503362D01*
X33756662Y-40487281D01*
X33731537Y-40468647D01*
X33708360Y-40447640D01*
X33687353Y-40424463D01*
X33668719Y-40399338D01*
X33652638Y-40372508D01*
X33639263Y-40344230D01*
X33628725Y-40314778D01*
X33621125Y-40284435D01*
X33616535Y-40253493D01*
X33615000Y-40222250D01*
X33615000Y-39584750D01*
X33616535Y-39553507D01*
X33621125Y-39522565D01*
X33628725Y-39492222D01*
X33639263Y-39462770D01*
X33652638Y-39434492D01*
X33668719Y-39407662D01*
X33687353Y-39382537D01*
X33708360Y-39359360D01*
X33731537Y-39338353D01*
X33756662Y-39319719D01*
X33783492Y-39303638D01*
X33811770Y-39290263D01*
X33841222Y-39279725D01*
X33871565Y-39272125D01*
X33902507Y-39267535D01*
X33933750Y-39266000D01*
X34646250Y-39266000D01*
X34677493Y-39267535D01*
X34677493Y-39267535D01*
G37*
D12*
X34290000Y-39903500D03*
G04 #@! TD*
D11*
G04 #@! TO.C,R5*
G36*
X31121493Y-38251535D02*
X31152435Y-38256125D01*
X31182778Y-38263725D01*
X31212230Y-38274263D01*
X31240508Y-38287638D01*
X31267338Y-38303719D01*
X31292463Y-38322353D01*
X31315640Y-38343360D01*
X31336647Y-38366537D01*
X31355281Y-38391662D01*
X31371362Y-38418492D01*
X31384737Y-38446770D01*
X31395275Y-38476222D01*
X31402875Y-38506565D01*
X31407465Y-38537507D01*
X31409000Y-38568750D01*
X31409000Y-39206250D01*
X31407465Y-39237493D01*
X31402875Y-39268435D01*
X31395275Y-39298778D01*
X31384737Y-39328230D01*
X31371362Y-39356508D01*
X31355281Y-39383338D01*
X31336647Y-39408463D01*
X31315640Y-39431640D01*
X31292463Y-39452647D01*
X31267338Y-39471281D01*
X31240508Y-39487362D01*
X31212230Y-39500737D01*
X31182778Y-39511275D01*
X31152435Y-39518875D01*
X31121493Y-39523465D01*
X31090250Y-39525000D01*
X30377750Y-39525000D01*
X30346507Y-39523465D01*
X30315565Y-39518875D01*
X30285222Y-39511275D01*
X30255770Y-39500737D01*
X30227492Y-39487362D01*
X30200662Y-39471281D01*
X30175537Y-39452647D01*
X30152360Y-39431640D01*
X30131353Y-39408463D01*
X30112719Y-39383338D01*
X30096638Y-39356508D01*
X30083263Y-39328230D01*
X30072725Y-39298778D01*
X30065125Y-39268435D01*
X30060535Y-39237493D01*
X30059000Y-39206250D01*
X30059000Y-38568750D01*
X30060535Y-38537507D01*
X30065125Y-38506565D01*
X30072725Y-38476222D01*
X30083263Y-38446770D01*
X30096638Y-38418492D01*
X30112719Y-38391662D01*
X30131353Y-38366537D01*
X30152360Y-38343360D01*
X30175537Y-38322353D01*
X30200662Y-38303719D01*
X30227492Y-38287638D01*
X30255770Y-38274263D01*
X30285222Y-38263725D01*
X30315565Y-38256125D01*
X30346507Y-38251535D01*
X30377750Y-38250000D01*
X31090250Y-38250000D01*
X31121493Y-38251535D01*
X31121493Y-38251535D01*
G37*
D12*
X30734000Y-38887500D03*
D11*
G36*
X31121493Y-36676535D02*
X31152435Y-36681125D01*
X31182778Y-36688725D01*
X31212230Y-36699263D01*
X31240508Y-36712638D01*
X31267338Y-36728719D01*
X31292463Y-36747353D01*
X31315640Y-36768360D01*
X31336647Y-36791537D01*
X31355281Y-36816662D01*
X31371362Y-36843492D01*
X31384737Y-36871770D01*
X31395275Y-36901222D01*
X31402875Y-36931565D01*
X31407465Y-36962507D01*
X31409000Y-36993750D01*
X31409000Y-37631250D01*
X31407465Y-37662493D01*
X31402875Y-37693435D01*
X31395275Y-37723778D01*
X31384737Y-37753230D01*
X31371362Y-37781508D01*
X31355281Y-37808338D01*
X31336647Y-37833463D01*
X31315640Y-37856640D01*
X31292463Y-37877647D01*
X31267338Y-37896281D01*
X31240508Y-37912362D01*
X31212230Y-37925737D01*
X31182778Y-37936275D01*
X31152435Y-37943875D01*
X31121493Y-37948465D01*
X31090250Y-37950000D01*
X30377750Y-37950000D01*
X30346507Y-37948465D01*
X30315565Y-37943875D01*
X30285222Y-37936275D01*
X30255770Y-37925737D01*
X30227492Y-37912362D01*
X30200662Y-37896281D01*
X30175537Y-37877647D01*
X30152360Y-37856640D01*
X30131353Y-37833463D01*
X30112719Y-37808338D01*
X30096638Y-37781508D01*
X30083263Y-37753230D01*
X30072725Y-37723778D01*
X30065125Y-37693435D01*
X30060535Y-37662493D01*
X30059000Y-37631250D01*
X30059000Y-36993750D01*
X30060535Y-36962507D01*
X30065125Y-36931565D01*
X30072725Y-36901222D01*
X30083263Y-36871770D01*
X30096638Y-36843492D01*
X30112719Y-36816662D01*
X30131353Y-36791537D01*
X30152360Y-36768360D01*
X30175537Y-36747353D01*
X30200662Y-36728719D01*
X30227492Y-36712638D01*
X30255770Y-36699263D01*
X30285222Y-36688725D01*
X30315565Y-36681125D01*
X30346507Y-36676535D01*
X30377750Y-36675000D01*
X31090250Y-36675000D01*
X31121493Y-36676535D01*
X31121493Y-36676535D01*
G37*
D12*
X30734000Y-37312500D03*
G04 #@! TD*
D11*
G04 #@! TO.C,R6*
G36*
X29597493Y-38251535D02*
X29628435Y-38256125D01*
X29658778Y-38263725D01*
X29688230Y-38274263D01*
X29716508Y-38287638D01*
X29743338Y-38303719D01*
X29768463Y-38322353D01*
X29791640Y-38343360D01*
X29812647Y-38366537D01*
X29831281Y-38391662D01*
X29847362Y-38418492D01*
X29860737Y-38446770D01*
X29871275Y-38476222D01*
X29878875Y-38506565D01*
X29883465Y-38537507D01*
X29885000Y-38568750D01*
X29885000Y-39206250D01*
X29883465Y-39237493D01*
X29878875Y-39268435D01*
X29871275Y-39298778D01*
X29860737Y-39328230D01*
X29847362Y-39356508D01*
X29831281Y-39383338D01*
X29812647Y-39408463D01*
X29791640Y-39431640D01*
X29768463Y-39452647D01*
X29743338Y-39471281D01*
X29716508Y-39487362D01*
X29688230Y-39500737D01*
X29658778Y-39511275D01*
X29628435Y-39518875D01*
X29597493Y-39523465D01*
X29566250Y-39525000D01*
X28853750Y-39525000D01*
X28822507Y-39523465D01*
X28791565Y-39518875D01*
X28761222Y-39511275D01*
X28731770Y-39500737D01*
X28703492Y-39487362D01*
X28676662Y-39471281D01*
X28651537Y-39452647D01*
X28628360Y-39431640D01*
X28607353Y-39408463D01*
X28588719Y-39383338D01*
X28572638Y-39356508D01*
X28559263Y-39328230D01*
X28548725Y-39298778D01*
X28541125Y-39268435D01*
X28536535Y-39237493D01*
X28535000Y-39206250D01*
X28535000Y-38568750D01*
X28536535Y-38537507D01*
X28541125Y-38506565D01*
X28548725Y-38476222D01*
X28559263Y-38446770D01*
X28572638Y-38418492D01*
X28588719Y-38391662D01*
X28607353Y-38366537D01*
X28628360Y-38343360D01*
X28651537Y-38322353D01*
X28676662Y-38303719D01*
X28703492Y-38287638D01*
X28731770Y-38274263D01*
X28761222Y-38263725D01*
X28791565Y-38256125D01*
X28822507Y-38251535D01*
X28853750Y-38250000D01*
X29566250Y-38250000D01*
X29597493Y-38251535D01*
X29597493Y-38251535D01*
G37*
D12*
X29210000Y-38887500D03*
D11*
G36*
X29597493Y-36676535D02*
X29628435Y-36681125D01*
X29658778Y-36688725D01*
X29688230Y-36699263D01*
X29716508Y-36712638D01*
X29743338Y-36728719D01*
X29768463Y-36747353D01*
X29791640Y-36768360D01*
X29812647Y-36791537D01*
X29831281Y-36816662D01*
X29847362Y-36843492D01*
X29860737Y-36871770D01*
X29871275Y-36901222D01*
X29878875Y-36931565D01*
X29883465Y-36962507D01*
X29885000Y-36993750D01*
X29885000Y-37631250D01*
X29883465Y-37662493D01*
X29878875Y-37693435D01*
X29871275Y-37723778D01*
X29860737Y-37753230D01*
X29847362Y-37781508D01*
X29831281Y-37808338D01*
X29812647Y-37833463D01*
X29791640Y-37856640D01*
X29768463Y-37877647D01*
X29743338Y-37896281D01*
X29716508Y-37912362D01*
X29688230Y-37925737D01*
X29658778Y-37936275D01*
X29628435Y-37943875D01*
X29597493Y-37948465D01*
X29566250Y-37950000D01*
X28853750Y-37950000D01*
X28822507Y-37948465D01*
X28791565Y-37943875D01*
X28761222Y-37936275D01*
X28731770Y-37925737D01*
X28703492Y-37912362D01*
X28676662Y-37896281D01*
X28651537Y-37877647D01*
X28628360Y-37856640D01*
X28607353Y-37833463D01*
X28588719Y-37808338D01*
X28572638Y-37781508D01*
X28559263Y-37753230D01*
X28548725Y-37723778D01*
X28541125Y-37693435D01*
X28536535Y-37662493D01*
X28535000Y-37631250D01*
X28535000Y-36993750D01*
X28536535Y-36962507D01*
X28541125Y-36931565D01*
X28548725Y-36901222D01*
X28559263Y-36871770D01*
X28572638Y-36843492D01*
X28588719Y-36816662D01*
X28607353Y-36791537D01*
X28628360Y-36768360D01*
X28651537Y-36747353D01*
X28676662Y-36728719D01*
X28703492Y-36712638D01*
X28731770Y-36699263D01*
X28761222Y-36688725D01*
X28791565Y-36681125D01*
X28822507Y-36676535D01*
X28853750Y-36675000D01*
X29566250Y-36675000D01*
X29597493Y-36676535D01*
X29597493Y-36676535D01*
G37*
D12*
X29210000Y-37312500D03*
G04 #@! TD*
D11*
G04 #@! TO.C,R7*
G36*
X25952993Y-26758535D02*
X25983935Y-26763125D01*
X26014278Y-26770725D01*
X26043730Y-26781263D01*
X26072008Y-26794638D01*
X26098838Y-26810719D01*
X26123963Y-26829353D01*
X26147140Y-26850360D01*
X26168147Y-26873537D01*
X26186781Y-26898662D01*
X26202862Y-26925492D01*
X26216237Y-26953770D01*
X26226775Y-26983222D01*
X26234375Y-27013565D01*
X26238965Y-27044507D01*
X26240500Y-27075750D01*
X26240500Y-27788250D01*
X26238965Y-27819493D01*
X26234375Y-27850435D01*
X26226775Y-27880778D01*
X26216237Y-27910230D01*
X26202862Y-27938508D01*
X26186781Y-27965338D01*
X26168147Y-27990463D01*
X26147140Y-28013640D01*
X26123963Y-28034647D01*
X26098838Y-28053281D01*
X26072008Y-28069362D01*
X26043730Y-28082737D01*
X26014278Y-28093275D01*
X25983935Y-28100875D01*
X25952993Y-28105465D01*
X25921750Y-28107000D01*
X25284250Y-28107000D01*
X25253007Y-28105465D01*
X25222065Y-28100875D01*
X25191722Y-28093275D01*
X25162270Y-28082737D01*
X25133992Y-28069362D01*
X25107162Y-28053281D01*
X25082037Y-28034647D01*
X25058860Y-28013640D01*
X25037853Y-27990463D01*
X25019219Y-27965338D01*
X25003138Y-27938508D01*
X24989763Y-27910230D01*
X24979225Y-27880778D01*
X24971625Y-27850435D01*
X24967035Y-27819493D01*
X24965500Y-27788250D01*
X24965500Y-27075750D01*
X24967035Y-27044507D01*
X24971625Y-27013565D01*
X24979225Y-26983222D01*
X24989763Y-26953770D01*
X25003138Y-26925492D01*
X25019219Y-26898662D01*
X25037853Y-26873537D01*
X25058860Y-26850360D01*
X25082037Y-26829353D01*
X25107162Y-26810719D01*
X25133992Y-26794638D01*
X25162270Y-26781263D01*
X25191722Y-26770725D01*
X25222065Y-26763125D01*
X25253007Y-26758535D01*
X25284250Y-26757000D01*
X25921750Y-26757000D01*
X25952993Y-26758535D01*
X25952993Y-26758535D01*
G37*
D12*
X25603000Y-27432000D03*
D11*
G36*
X27527993Y-26758535D02*
X27558935Y-26763125D01*
X27589278Y-26770725D01*
X27618730Y-26781263D01*
X27647008Y-26794638D01*
X27673838Y-26810719D01*
X27698963Y-26829353D01*
X27722140Y-26850360D01*
X27743147Y-26873537D01*
X27761781Y-26898662D01*
X27777862Y-26925492D01*
X27791237Y-26953770D01*
X27801775Y-26983222D01*
X27809375Y-27013565D01*
X27813965Y-27044507D01*
X27815500Y-27075750D01*
X27815500Y-27788250D01*
X27813965Y-27819493D01*
X27809375Y-27850435D01*
X27801775Y-27880778D01*
X27791237Y-27910230D01*
X27777862Y-27938508D01*
X27761781Y-27965338D01*
X27743147Y-27990463D01*
X27722140Y-28013640D01*
X27698963Y-28034647D01*
X27673838Y-28053281D01*
X27647008Y-28069362D01*
X27618730Y-28082737D01*
X27589278Y-28093275D01*
X27558935Y-28100875D01*
X27527993Y-28105465D01*
X27496750Y-28107000D01*
X26859250Y-28107000D01*
X26828007Y-28105465D01*
X26797065Y-28100875D01*
X26766722Y-28093275D01*
X26737270Y-28082737D01*
X26708992Y-28069362D01*
X26682162Y-28053281D01*
X26657037Y-28034647D01*
X26633860Y-28013640D01*
X26612853Y-27990463D01*
X26594219Y-27965338D01*
X26578138Y-27938508D01*
X26564763Y-27910230D01*
X26554225Y-27880778D01*
X26546625Y-27850435D01*
X26542035Y-27819493D01*
X26540500Y-27788250D01*
X26540500Y-27075750D01*
X26542035Y-27044507D01*
X26546625Y-27013565D01*
X26554225Y-26983222D01*
X26564763Y-26953770D01*
X26578138Y-26925492D01*
X26594219Y-26898662D01*
X26612853Y-26873537D01*
X26633860Y-26850360D01*
X26657037Y-26829353D01*
X26682162Y-26810719D01*
X26708992Y-26794638D01*
X26737270Y-26781263D01*
X26766722Y-26770725D01*
X26797065Y-26763125D01*
X26828007Y-26758535D01*
X26859250Y-26757000D01*
X27496750Y-26757000D01*
X27527993Y-26758535D01*
X27527993Y-26758535D01*
G37*
D12*
X27178000Y-27432000D03*
G04 #@! TD*
D11*
G04 #@! TO.C,R8*
G36*
X27527993Y-28536535D02*
X27558935Y-28541125D01*
X27589278Y-28548725D01*
X27618730Y-28559263D01*
X27647008Y-28572638D01*
X27673838Y-28588719D01*
X27698963Y-28607353D01*
X27722140Y-28628360D01*
X27743147Y-28651537D01*
X27761781Y-28676662D01*
X27777862Y-28703492D01*
X27791237Y-28731770D01*
X27801775Y-28761222D01*
X27809375Y-28791565D01*
X27813965Y-28822507D01*
X27815500Y-28853750D01*
X27815500Y-29566250D01*
X27813965Y-29597493D01*
X27809375Y-29628435D01*
X27801775Y-29658778D01*
X27791237Y-29688230D01*
X27777862Y-29716508D01*
X27761781Y-29743338D01*
X27743147Y-29768463D01*
X27722140Y-29791640D01*
X27698963Y-29812647D01*
X27673838Y-29831281D01*
X27647008Y-29847362D01*
X27618730Y-29860737D01*
X27589278Y-29871275D01*
X27558935Y-29878875D01*
X27527993Y-29883465D01*
X27496750Y-29885000D01*
X26859250Y-29885000D01*
X26828007Y-29883465D01*
X26797065Y-29878875D01*
X26766722Y-29871275D01*
X26737270Y-29860737D01*
X26708992Y-29847362D01*
X26682162Y-29831281D01*
X26657037Y-29812647D01*
X26633860Y-29791640D01*
X26612853Y-29768463D01*
X26594219Y-29743338D01*
X26578138Y-29716508D01*
X26564763Y-29688230D01*
X26554225Y-29658778D01*
X26546625Y-29628435D01*
X26542035Y-29597493D01*
X26540500Y-29566250D01*
X26540500Y-28853750D01*
X26542035Y-28822507D01*
X26546625Y-28791565D01*
X26554225Y-28761222D01*
X26564763Y-28731770D01*
X26578138Y-28703492D01*
X26594219Y-28676662D01*
X26612853Y-28651537D01*
X26633860Y-28628360D01*
X26657037Y-28607353D01*
X26682162Y-28588719D01*
X26708992Y-28572638D01*
X26737270Y-28559263D01*
X26766722Y-28548725D01*
X26797065Y-28541125D01*
X26828007Y-28536535D01*
X26859250Y-28535000D01*
X27496750Y-28535000D01*
X27527993Y-28536535D01*
X27527993Y-28536535D01*
G37*
D12*
X27178000Y-29210000D03*
D11*
G36*
X25952993Y-28536535D02*
X25983935Y-28541125D01*
X26014278Y-28548725D01*
X26043730Y-28559263D01*
X26072008Y-28572638D01*
X26098838Y-28588719D01*
X26123963Y-28607353D01*
X26147140Y-28628360D01*
X26168147Y-28651537D01*
X26186781Y-28676662D01*
X26202862Y-28703492D01*
X26216237Y-28731770D01*
X26226775Y-28761222D01*
X26234375Y-28791565D01*
X26238965Y-28822507D01*
X26240500Y-28853750D01*
X26240500Y-29566250D01*
X26238965Y-29597493D01*
X26234375Y-29628435D01*
X26226775Y-29658778D01*
X26216237Y-29688230D01*
X26202862Y-29716508D01*
X26186781Y-29743338D01*
X26168147Y-29768463D01*
X26147140Y-29791640D01*
X26123963Y-29812647D01*
X26098838Y-29831281D01*
X26072008Y-29847362D01*
X26043730Y-29860737D01*
X26014278Y-29871275D01*
X25983935Y-29878875D01*
X25952993Y-29883465D01*
X25921750Y-29885000D01*
X25284250Y-29885000D01*
X25253007Y-29883465D01*
X25222065Y-29878875D01*
X25191722Y-29871275D01*
X25162270Y-29860737D01*
X25133992Y-29847362D01*
X25107162Y-29831281D01*
X25082037Y-29812647D01*
X25058860Y-29791640D01*
X25037853Y-29768463D01*
X25019219Y-29743338D01*
X25003138Y-29716508D01*
X24989763Y-29688230D01*
X24979225Y-29658778D01*
X24971625Y-29628435D01*
X24967035Y-29597493D01*
X24965500Y-29566250D01*
X24965500Y-28853750D01*
X24967035Y-28822507D01*
X24971625Y-28791565D01*
X24979225Y-28761222D01*
X24989763Y-28731770D01*
X25003138Y-28703492D01*
X25019219Y-28676662D01*
X25037853Y-28651537D01*
X25058860Y-28628360D01*
X25082037Y-28607353D01*
X25107162Y-28588719D01*
X25133992Y-28572638D01*
X25162270Y-28559263D01*
X25191722Y-28548725D01*
X25222065Y-28541125D01*
X25253007Y-28536535D01*
X25284250Y-28535000D01*
X25921750Y-28535000D01*
X25952993Y-28536535D01*
X25952993Y-28536535D01*
G37*
D12*
X25603000Y-29210000D03*
G04 #@! TD*
D11*
G04 #@! TO.C,R9*
G36*
X24771493Y-18642535D02*
X24802435Y-18647125D01*
X24832778Y-18654725D01*
X24862230Y-18665263D01*
X24890508Y-18678638D01*
X24917338Y-18694719D01*
X24942463Y-18713353D01*
X24965640Y-18734360D01*
X24986647Y-18757537D01*
X25005281Y-18782662D01*
X25021362Y-18809492D01*
X25034737Y-18837770D01*
X25045275Y-18867222D01*
X25052875Y-18897565D01*
X25057465Y-18928507D01*
X25059000Y-18959750D01*
X25059000Y-19597250D01*
X25057465Y-19628493D01*
X25052875Y-19659435D01*
X25045275Y-19689778D01*
X25034737Y-19719230D01*
X25021362Y-19747508D01*
X25005281Y-19774338D01*
X24986647Y-19799463D01*
X24965640Y-19822640D01*
X24942463Y-19843647D01*
X24917338Y-19862281D01*
X24890508Y-19878362D01*
X24862230Y-19891737D01*
X24832778Y-19902275D01*
X24802435Y-19909875D01*
X24771493Y-19914465D01*
X24740250Y-19916000D01*
X24027750Y-19916000D01*
X23996507Y-19914465D01*
X23965565Y-19909875D01*
X23935222Y-19902275D01*
X23905770Y-19891737D01*
X23877492Y-19878362D01*
X23850662Y-19862281D01*
X23825537Y-19843647D01*
X23802360Y-19822640D01*
X23781353Y-19799463D01*
X23762719Y-19774338D01*
X23746638Y-19747508D01*
X23733263Y-19719230D01*
X23722725Y-19689778D01*
X23715125Y-19659435D01*
X23710535Y-19628493D01*
X23709000Y-19597250D01*
X23709000Y-18959750D01*
X23710535Y-18928507D01*
X23715125Y-18897565D01*
X23722725Y-18867222D01*
X23733263Y-18837770D01*
X23746638Y-18809492D01*
X23762719Y-18782662D01*
X23781353Y-18757537D01*
X23802360Y-18734360D01*
X23825537Y-18713353D01*
X23850662Y-18694719D01*
X23877492Y-18678638D01*
X23905770Y-18665263D01*
X23935222Y-18654725D01*
X23965565Y-18647125D01*
X23996507Y-18642535D01*
X24027750Y-18641000D01*
X24740250Y-18641000D01*
X24771493Y-18642535D01*
X24771493Y-18642535D01*
G37*
D12*
X24384000Y-19278500D03*
D11*
G36*
X24771493Y-20217535D02*
X24802435Y-20222125D01*
X24832778Y-20229725D01*
X24862230Y-20240263D01*
X24890508Y-20253638D01*
X24917338Y-20269719D01*
X24942463Y-20288353D01*
X24965640Y-20309360D01*
X24986647Y-20332537D01*
X25005281Y-20357662D01*
X25021362Y-20384492D01*
X25034737Y-20412770D01*
X25045275Y-20442222D01*
X25052875Y-20472565D01*
X25057465Y-20503507D01*
X25059000Y-20534750D01*
X25059000Y-21172250D01*
X25057465Y-21203493D01*
X25052875Y-21234435D01*
X25045275Y-21264778D01*
X25034737Y-21294230D01*
X25021362Y-21322508D01*
X25005281Y-21349338D01*
X24986647Y-21374463D01*
X24965640Y-21397640D01*
X24942463Y-21418647D01*
X24917338Y-21437281D01*
X24890508Y-21453362D01*
X24862230Y-21466737D01*
X24832778Y-21477275D01*
X24802435Y-21484875D01*
X24771493Y-21489465D01*
X24740250Y-21491000D01*
X24027750Y-21491000D01*
X23996507Y-21489465D01*
X23965565Y-21484875D01*
X23935222Y-21477275D01*
X23905770Y-21466737D01*
X23877492Y-21453362D01*
X23850662Y-21437281D01*
X23825537Y-21418647D01*
X23802360Y-21397640D01*
X23781353Y-21374463D01*
X23762719Y-21349338D01*
X23746638Y-21322508D01*
X23733263Y-21294230D01*
X23722725Y-21264778D01*
X23715125Y-21234435D01*
X23710535Y-21203493D01*
X23709000Y-21172250D01*
X23709000Y-20534750D01*
X23710535Y-20503507D01*
X23715125Y-20472565D01*
X23722725Y-20442222D01*
X23733263Y-20412770D01*
X23746638Y-20384492D01*
X23762719Y-20357662D01*
X23781353Y-20332537D01*
X23802360Y-20309360D01*
X23825537Y-20288353D01*
X23850662Y-20269719D01*
X23877492Y-20253638D01*
X23905770Y-20240263D01*
X23935222Y-20229725D01*
X23965565Y-20222125D01*
X23996507Y-20217535D01*
X24027750Y-20216000D01*
X24740250Y-20216000D01*
X24771493Y-20217535D01*
X24771493Y-20217535D01*
G37*
D12*
X24384000Y-20853500D03*
G04 #@! TD*
D11*
G04 #@! TO.C,R10*
G36*
X36963493Y-20217535D02*
X36994435Y-20222125D01*
X37024778Y-20229725D01*
X37054230Y-20240263D01*
X37082508Y-20253638D01*
X37109338Y-20269719D01*
X37134463Y-20288353D01*
X37157640Y-20309360D01*
X37178647Y-20332537D01*
X37197281Y-20357662D01*
X37213362Y-20384492D01*
X37226737Y-20412770D01*
X37237275Y-20442222D01*
X37244875Y-20472565D01*
X37249465Y-20503507D01*
X37251000Y-20534750D01*
X37251000Y-21172250D01*
X37249465Y-21203493D01*
X37244875Y-21234435D01*
X37237275Y-21264778D01*
X37226737Y-21294230D01*
X37213362Y-21322508D01*
X37197281Y-21349338D01*
X37178647Y-21374463D01*
X37157640Y-21397640D01*
X37134463Y-21418647D01*
X37109338Y-21437281D01*
X37082508Y-21453362D01*
X37054230Y-21466737D01*
X37024778Y-21477275D01*
X36994435Y-21484875D01*
X36963493Y-21489465D01*
X36932250Y-21491000D01*
X36219750Y-21491000D01*
X36188507Y-21489465D01*
X36157565Y-21484875D01*
X36127222Y-21477275D01*
X36097770Y-21466737D01*
X36069492Y-21453362D01*
X36042662Y-21437281D01*
X36017537Y-21418647D01*
X35994360Y-21397640D01*
X35973353Y-21374463D01*
X35954719Y-21349338D01*
X35938638Y-21322508D01*
X35925263Y-21294230D01*
X35914725Y-21264778D01*
X35907125Y-21234435D01*
X35902535Y-21203493D01*
X35901000Y-21172250D01*
X35901000Y-20534750D01*
X35902535Y-20503507D01*
X35907125Y-20472565D01*
X35914725Y-20442222D01*
X35925263Y-20412770D01*
X35938638Y-20384492D01*
X35954719Y-20357662D01*
X35973353Y-20332537D01*
X35994360Y-20309360D01*
X36017537Y-20288353D01*
X36042662Y-20269719D01*
X36069492Y-20253638D01*
X36097770Y-20240263D01*
X36127222Y-20229725D01*
X36157565Y-20222125D01*
X36188507Y-20217535D01*
X36219750Y-20216000D01*
X36932250Y-20216000D01*
X36963493Y-20217535D01*
X36963493Y-20217535D01*
G37*
D12*
X36576000Y-20853500D03*
D11*
G36*
X36963493Y-18642535D02*
X36994435Y-18647125D01*
X37024778Y-18654725D01*
X37054230Y-18665263D01*
X37082508Y-18678638D01*
X37109338Y-18694719D01*
X37134463Y-18713353D01*
X37157640Y-18734360D01*
X37178647Y-18757537D01*
X37197281Y-18782662D01*
X37213362Y-18809492D01*
X37226737Y-18837770D01*
X37237275Y-18867222D01*
X37244875Y-18897565D01*
X37249465Y-18928507D01*
X37251000Y-18959750D01*
X37251000Y-19597250D01*
X37249465Y-19628493D01*
X37244875Y-19659435D01*
X37237275Y-19689778D01*
X37226737Y-19719230D01*
X37213362Y-19747508D01*
X37197281Y-19774338D01*
X37178647Y-19799463D01*
X37157640Y-19822640D01*
X37134463Y-19843647D01*
X37109338Y-19862281D01*
X37082508Y-19878362D01*
X37054230Y-19891737D01*
X37024778Y-19902275D01*
X36994435Y-19909875D01*
X36963493Y-19914465D01*
X36932250Y-19916000D01*
X36219750Y-19916000D01*
X36188507Y-19914465D01*
X36157565Y-19909875D01*
X36127222Y-19902275D01*
X36097770Y-19891737D01*
X36069492Y-19878362D01*
X36042662Y-19862281D01*
X36017537Y-19843647D01*
X35994360Y-19822640D01*
X35973353Y-19799463D01*
X35954719Y-19774338D01*
X35938638Y-19747508D01*
X35925263Y-19719230D01*
X35914725Y-19689778D01*
X35907125Y-19659435D01*
X35902535Y-19628493D01*
X35901000Y-19597250D01*
X35901000Y-18959750D01*
X35902535Y-18928507D01*
X35907125Y-18897565D01*
X35914725Y-18867222D01*
X35925263Y-18837770D01*
X35938638Y-18809492D01*
X35954719Y-18782662D01*
X35973353Y-18757537D01*
X35994360Y-18734360D01*
X36017537Y-18713353D01*
X36042662Y-18694719D01*
X36069492Y-18678638D01*
X36097770Y-18665263D01*
X36127222Y-18654725D01*
X36157565Y-18647125D01*
X36188507Y-18642535D01*
X36219750Y-18641000D01*
X36932250Y-18641000D01*
X36963493Y-18642535D01*
X36963493Y-18642535D01*
G37*
D12*
X36576000Y-19278500D03*
G04 #@! TD*
D11*
G04 #@! TO.C,R11*
G36*
X49155493Y-18642535D02*
X49186435Y-18647125D01*
X49216778Y-18654725D01*
X49246230Y-18665263D01*
X49274508Y-18678638D01*
X49301338Y-18694719D01*
X49326463Y-18713353D01*
X49349640Y-18734360D01*
X49370647Y-18757537D01*
X49389281Y-18782662D01*
X49405362Y-18809492D01*
X49418737Y-18837770D01*
X49429275Y-18867222D01*
X49436875Y-18897565D01*
X49441465Y-18928507D01*
X49443000Y-18959750D01*
X49443000Y-19597250D01*
X49441465Y-19628493D01*
X49436875Y-19659435D01*
X49429275Y-19689778D01*
X49418737Y-19719230D01*
X49405362Y-19747508D01*
X49389281Y-19774338D01*
X49370647Y-19799463D01*
X49349640Y-19822640D01*
X49326463Y-19843647D01*
X49301338Y-19862281D01*
X49274508Y-19878362D01*
X49246230Y-19891737D01*
X49216778Y-19902275D01*
X49186435Y-19909875D01*
X49155493Y-19914465D01*
X49124250Y-19916000D01*
X48411750Y-19916000D01*
X48380507Y-19914465D01*
X48349565Y-19909875D01*
X48319222Y-19902275D01*
X48289770Y-19891737D01*
X48261492Y-19878362D01*
X48234662Y-19862281D01*
X48209537Y-19843647D01*
X48186360Y-19822640D01*
X48165353Y-19799463D01*
X48146719Y-19774338D01*
X48130638Y-19747508D01*
X48117263Y-19719230D01*
X48106725Y-19689778D01*
X48099125Y-19659435D01*
X48094535Y-19628493D01*
X48093000Y-19597250D01*
X48093000Y-18959750D01*
X48094535Y-18928507D01*
X48099125Y-18897565D01*
X48106725Y-18867222D01*
X48117263Y-18837770D01*
X48130638Y-18809492D01*
X48146719Y-18782662D01*
X48165353Y-18757537D01*
X48186360Y-18734360D01*
X48209537Y-18713353D01*
X48234662Y-18694719D01*
X48261492Y-18678638D01*
X48289770Y-18665263D01*
X48319222Y-18654725D01*
X48349565Y-18647125D01*
X48380507Y-18642535D01*
X48411750Y-18641000D01*
X49124250Y-18641000D01*
X49155493Y-18642535D01*
X49155493Y-18642535D01*
G37*
D12*
X48768000Y-19278500D03*
D11*
G36*
X49155493Y-20217535D02*
X49186435Y-20222125D01*
X49216778Y-20229725D01*
X49246230Y-20240263D01*
X49274508Y-20253638D01*
X49301338Y-20269719D01*
X49326463Y-20288353D01*
X49349640Y-20309360D01*
X49370647Y-20332537D01*
X49389281Y-20357662D01*
X49405362Y-20384492D01*
X49418737Y-20412770D01*
X49429275Y-20442222D01*
X49436875Y-20472565D01*
X49441465Y-20503507D01*
X49443000Y-20534750D01*
X49443000Y-21172250D01*
X49441465Y-21203493D01*
X49436875Y-21234435D01*
X49429275Y-21264778D01*
X49418737Y-21294230D01*
X49405362Y-21322508D01*
X49389281Y-21349338D01*
X49370647Y-21374463D01*
X49349640Y-21397640D01*
X49326463Y-21418647D01*
X49301338Y-21437281D01*
X49274508Y-21453362D01*
X49246230Y-21466737D01*
X49216778Y-21477275D01*
X49186435Y-21484875D01*
X49155493Y-21489465D01*
X49124250Y-21491000D01*
X48411750Y-21491000D01*
X48380507Y-21489465D01*
X48349565Y-21484875D01*
X48319222Y-21477275D01*
X48289770Y-21466737D01*
X48261492Y-21453362D01*
X48234662Y-21437281D01*
X48209537Y-21418647D01*
X48186360Y-21397640D01*
X48165353Y-21374463D01*
X48146719Y-21349338D01*
X48130638Y-21322508D01*
X48117263Y-21294230D01*
X48106725Y-21264778D01*
X48099125Y-21234435D01*
X48094535Y-21203493D01*
X48093000Y-21172250D01*
X48093000Y-20534750D01*
X48094535Y-20503507D01*
X48099125Y-20472565D01*
X48106725Y-20442222D01*
X48117263Y-20412770D01*
X48130638Y-20384492D01*
X48146719Y-20357662D01*
X48165353Y-20332537D01*
X48186360Y-20309360D01*
X48209537Y-20288353D01*
X48234662Y-20269719D01*
X48261492Y-20253638D01*
X48289770Y-20240263D01*
X48319222Y-20229725D01*
X48349565Y-20222125D01*
X48380507Y-20217535D01*
X48411750Y-20216000D01*
X49124250Y-20216000D01*
X49155493Y-20217535D01*
X49155493Y-20217535D01*
G37*
D12*
X48768000Y-20853500D03*
G04 #@! TD*
D11*
G04 #@! TO.C,R12*
G36*
X61347493Y-20243035D02*
X61378435Y-20247625D01*
X61408778Y-20255225D01*
X61438230Y-20265763D01*
X61466508Y-20279138D01*
X61493338Y-20295219D01*
X61518463Y-20313853D01*
X61541640Y-20334860D01*
X61562647Y-20358037D01*
X61581281Y-20383162D01*
X61597362Y-20409992D01*
X61610737Y-20438270D01*
X61621275Y-20467722D01*
X61628875Y-20498065D01*
X61633465Y-20529007D01*
X61635000Y-20560250D01*
X61635000Y-21197750D01*
X61633465Y-21228993D01*
X61628875Y-21259935D01*
X61621275Y-21290278D01*
X61610737Y-21319730D01*
X61597362Y-21348008D01*
X61581281Y-21374838D01*
X61562647Y-21399963D01*
X61541640Y-21423140D01*
X61518463Y-21444147D01*
X61493338Y-21462781D01*
X61466508Y-21478862D01*
X61438230Y-21492237D01*
X61408778Y-21502775D01*
X61378435Y-21510375D01*
X61347493Y-21514965D01*
X61316250Y-21516500D01*
X60603750Y-21516500D01*
X60572507Y-21514965D01*
X60541565Y-21510375D01*
X60511222Y-21502775D01*
X60481770Y-21492237D01*
X60453492Y-21478862D01*
X60426662Y-21462781D01*
X60401537Y-21444147D01*
X60378360Y-21423140D01*
X60357353Y-21399963D01*
X60338719Y-21374838D01*
X60322638Y-21348008D01*
X60309263Y-21319730D01*
X60298725Y-21290278D01*
X60291125Y-21259935D01*
X60286535Y-21228993D01*
X60285000Y-21197750D01*
X60285000Y-20560250D01*
X60286535Y-20529007D01*
X60291125Y-20498065D01*
X60298725Y-20467722D01*
X60309263Y-20438270D01*
X60322638Y-20409992D01*
X60338719Y-20383162D01*
X60357353Y-20358037D01*
X60378360Y-20334860D01*
X60401537Y-20313853D01*
X60426662Y-20295219D01*
X60453492Y-20279138D01*
X60481770Y-20265763D01*
X60511222Y-20255225D01*
X60541565Y-20247625D01*
X60572507Y-20243035D01*
X60603750Y-20241500D01*
X61316250Y-20241500D01*
X61347493Y-20243035D01*
X61347493Y-20243035D01*
G37*
D12*
X60960000Y-20879000D03*
D11*
G36*
X61347493Y-18668035D02*
X61378435Y-18672625D01*
X61408778Y-18680225D01*
X61438230Y-18690763D01*
X61466508Y-18704138D01*
X61493338Y-18720219D01*
X61518463Y-18738853D01*
X61541640Y-18759860D01*
X61562647Y-18783037D01*
X61581281Y-18808162D01*
X61597362Y-18834992D01*
X61610737Y-18863270D01*
X61621275Y-18892722D01*
X61628875Y-18923065D01*
X61633465Y-18954007D01*
X61635000Y-18985250D01*
X61635000Y-19622750D01*
X61633465Y-19653993D01*
X61628875Y-19684935D01*
X61621275Y-19715278D01*
X61610737Y-19744730D01*
X61597362Y-19773008D01*
X61581281Y-19799838D01*
X61562647Y-19824963D01*
X61541640Y-19848140D01*
X61518463Y-19869147D01*
X61493338Y-19887781D01*
X61466508Y-19903862D01*
X61438230Y-19917237D01*
X61408778Y-19927775D01*
X61378435Y-19935375D01*
X61347493Y-19939965D01*
X61316250Y-19941500D01*
X60603750Y-19941500D01*
X60572507Y-19939965D01*
X60541565Y-19935375D01*
X60511222Y-19927775D01*
X60481770Y-19917237D01*
X60453492Y-19903862D01*
X60426662Y-19887781D01*
X60401537Y-19869147D01*
X60378360Y-19848140D01*
X60357353Y-19824963D01*
X60338719Y-19799838D01*
X60322638Y-19773008D01*
X60309263Y-19744730D01*
X60298725Y-19715278D01*
X60291125Y-19684935D01*
X60286535Y-19653993D01*
X60285000Y-19622750D01*
X60285000Y-18985250D01*
X60286535Y-18954007D01*
X60291125Y-18923065D01*
X60298725Y-18892722D01*
X60309263Y-18863270D01*
X60322638Y-18834992D01*
X60338719Y-18808162D01*
X60357353Y-18783037D01*
X60378360Y-18759860D01*
X60401537Y-18738853D01*
X60426662Y-18720219D01*
X60453492Y-18704138D01*
X60481770Y-18690763D01*
X60511222Y-18680225D01*
X60541565Y-18672625D01*
X60572507Y-18668035D01*
X60603750Y-18666500D01*
X61316250Y-18666500D01*
X61347493Y-18668035D01*
X61347493Y-18668035D01*
G37*
D12*
X60960000Y-19304000D03*
G04 #@! TD*
D19*
G04 #@! TO.C,RV1*
X60428000Y-44870000D03*
X60428000Y-46570000D03*
D20*
X57428000Y-45720000D03*
G04 #@! TD*
G04 #@! TO.C,RV2*
X57428000Y-40640000D03*
D19*
X60428000Y-41490000D03*
X60428000Y-39790000D03*
G04 #@! TD*
D20*
G04 #@! TO.C,RV3*
X57428000Y-35560000D03*
D19*
X60428000Y-36410000D03*
X60428000Y-34710000D03*
G04 #@! TD*
G04 #@! TO.C,RV4*
X60428000Y-29630000D03*
X60428000Y-31330000D03*
D20*
X57428000Y-30480000D03*
G04 #@! TD*
D19*
G04 #@! TO.C,RV5*
X54332000Y-44870000D03*
X54332000Y-46570000D03*
D20*
X51332000Y-45720000D03*
G04 #@! TD*
G04 #@! TO.C,RV6*
X51332000Y-40640000D03*
D19*
X54332000Y-41490000D03*
X54332000Y-39790000D03*
G04 #@! TD*
G04 #@! TO.C,RV7*
X54332000Y-34710000D03*
X54332000Y-36410000D03*
D20*
X51332000Y-35560000D03*
G04 #@! TD*
G04 #@! TO.C,RV8*
X51332000Y-30480000D03*
D19*
X54332000Y-31330000D03*
X54332000Y-29630000D03*
G04 #@! TD*
D21*
G04 #@! TO.C,U1*
X26754000Y-38034000D03*
X26754000Y-37084000D03*
X26754000Y-36134000D03*
X24554000Y-36134000D03*
X24554000Y-38034000D03*
X24554000Y-37084000D03*
G04 #@! TD*
D22*
G04 #@! TO.C,U2*
X37586000Y-38540000D03*
X38386000Y-38540000D03*
X39186000Y-38540000D03*
X39986000Y-38540000D03*
X40786000Y-38540000D03*
X41586000Y-38540000D03*
X42386000Y-38540000D03*
X43186000Y-38540000D03*
D23*
X44636000Y-37090000D03*
X44636000Y-36290000D03*
X44636000Y-35490000D03*
X44636000Y-34690000D03*
X44636000Y-33890000D03*
X44636000Y-33090000D03*
X44636000Y-32290000D03*
X44636000Y-31490000D03*
D22*
X43186000Y-30040000D03*
X42386000Y-30040000D03*
X41586000Y-30040000D03*
X40786000Y-30040000D03*
X39986000Y-30040000D03*
X39186000Y-30040000D03*
X38386000Y-30040000D03*
X37586000Y-30040000D03*
D23*
X36136000Y-31490000D03*
X36136000Y-32290000D03*
X36136000Y-33090000D03*
X36136000Y-33890000D03*
X36136000Y-34690000D03*
X36136000Y-35490000D03*
X36136000Y-36290000D03*
X36136000Y-37090000D03*
G04 #@! TD*
D15*
G04 #@! TO.C,J1*
X30734000Y-31496000D03*
D16*
X30734000Y-28956000D03*
X33274000Y-31496000D03*
X33274000Y-28956000D03*
G04 #@! TD*
M02*
