G04 #@! TF.GenerationSoftware,KiCad,Pcbnew,(5.0.0-dirty)*
G04 #@! TF.CreationDate,2019-11-15T19:25:29+09:00*
G04 #@! TF.ProjectId,fake-fan-mk2,66616B652D66616E2D6D6B322E6B6963,rev?*
G04 #@! TF.SameCoordinates,Original*
G04 #@! TF.FileFunction,Copper,L2,Bot,Signal*
G04 #@! TF.FilePolarity,Positive*
%FSLAX46Y46*%
G04 Gerber Fmt 4.6, Leading zero omitted, Abs format (unit mm)*
G04 Created by KiCad (PCBNEW (5.0.0-dirty)) date 11/15/19 19:25:29*
%MOMM*%
%LPD*%
G01*
G04 APERTURE LIST*
G04 #@! TA.AperFunction,NonConductor*
%ADD10C,0.200000*%
G04 #@! TD*
G04 #@! TA.AperFunction,ComponentPad*
%ADD11R,1.700000X1.700000*%
G04 #@! TD*
G04 #@! TA.AperFunction,ComponentPad*
%ADD12O,1.700000X1.700000*%
G04 #@! TD*
G04 #@! TA.AperFunction,SMDPad,CuDef*
%ADD13C,0.300000*%
G04 #@! TD*
G04 #@! TA.AperFunction,Conductor*
%ADD14C,0.100000*%
G04 #@! TD*
G04 #@! TA.AperFunction,ViaPad*
%ADD15C,0.800000*%
G04 #@! TD*
G04 #@! TA.AperFunction,Conductor*
%ADD16C,0.250000*%
G04 #@! TD*
G04 #@! TA.AperFunction,Conductor*
%ADD17C,0.500000*%
G04 #@! TD*
G04 #@! TA.AperFunction,Conductor*
%ADD18C,0.750000*%
G04 #@! TD*
G04 #@! TA.AperFunction,Conductor*
%ADD19C,1.500000*%
G04 #@! TD*
G04 #@! TA.AperFunction,Conductor*
%ADD20C,1.000000*%
G04 #@! TD*
G04 #@! TA.AperFunction,Conductor*
%ADD21C,0.254000*%
G04 #@! TD*
G04 APERTURE END LIST*
D10*
X14478000Y-53086000D02*
X14478000Y-14224000D01*
X63246000Y-53086000D02*
X14478000Y-53086000D01*
X63246000Y-14224000D02*
X63246000Y-53086000D01*
X14478000Y-14224000D02*
X63246000Y-14224000D01*
D11*
G04 #@! TO.P,J2,1*
G04 #@! TO.N,+12V*
X19050000Y-36322000D03*
D12*
G04 #@! TO.P,J2,2*
G04 #@! TO.N,GND*
X19050000Y-38862000D03*
G04 #@! TD*
G04 #@! TO.P,J4,4*
G04 #@! TO.N,Net-(J4-Pad4)*
X24384000Y-50800000D03*
G04 #@! TO.P,J4,3*
G04 #@! TO.N,/FAKE1*
X21844000Y-50800000D03*
G04 #@! TO.P,J4,2*
G04 #@! TO.N,Net-(D4-Pad1)*
X19304000Y-50800000D03*
D11*
G04 #@! TO.P,J4,1*
G04 #@! TO.N,GND*
X16764000Y-50800000D03*
G04 #@! TD*
G04 #@! TO.P,J5,1*
G04 #@! TO.N,Net-(D4-Pad2)*
X16764000Y-16510000D03*
D12*
G04 #@! TO.P,J5,2*
G04 #@! TO.N,Net-(D4-Pad1)*
X19304000Y-16510000D03*
G04 #@! TO.P,J5,3*
G04 #@! TO.N,Net-(J5-Pad3)*
X21844000Y-16510000D03*
G04 #@! TO.P,J5,4*
G04 #@! TO.N,/FAN1*
X24384000Y-16510000D03*
G04 #@! TD*
G04 #@! TO.P,J6,4*
G04 #@! TO.N,Net-(J6-Pad4)*
X36576000Y-50800000D03*
G04 #@! TO.P,J6,3*
G04 #@! TO.N,/FAKE2*
X34036000Y-50800000D03*
G04 #@! TO.P,J6,2*
G04 #@! TO.N,Net-(D5-Pad1)*
X31496000Y-50800000D03*
D11*
G04 #@! TO.P,J6,1*
G04 #@! TO.N,GND*
X28956000Y-50800000D03*
G04 #@! TD*
G04 #@! TO.P,J7,1*
G04 #@! TO.N,Net-(D5-Pad2)*
X28956000Y-16510000D03*
D12*
G04 #@! TO.P,J7,2*
G04 #@! TO.N,Net-(D5-Pad1)*
X31496000Y-16510000D03*
G04 #@! TO.P,J7,3*
G04 #@! TO.N,Net-(J7-Pad3)*
X34036000Y-16510000D03*
G04 #@! TO.P,J7,4*
G04 #@! TO.N,/FAN2*
X36576000Y-16510000D03*
G04 #@! TD*
D11*
G04 #@! TO.P,J8,1*
G04 #@! TO.N,GND*
X41148000Y-50800000D03*
D12*
G04 #@! TO.P,J8,2*
G04 #@! TO.N,Net-(D6-Pad1)*
X43688000Y-50800000D03*
G04 #@! TO.P,J8,3*
G04 #@! TO.N,/FAKE3*
X46228000Y-50800000D03*
G04 #@! TO.P,J8,4*
G04 #@! TO.N,Net-(J8-Pad4)*
X48768000Y-50800000D03*
G04 #@! TD*
D11*
G04 #@! TO.P,J9,1*
G04 #@! TO.N,Net-(D6-Pad2)*
X41148000Y-16510000D03*
D12*
G04 #@! TO.P,J9,2*
G04 #@! TO.N,Net-(D6-Pad1)*
X43688000Y-16510000D03*
G04 #@! TO.P,J9,3*
G04 #@! TO.N,Net-(J9-Pad3)*
X46228000Y-16510000D03*
G04 #@! TO.P,J9,4*
G04 #@! TO.N,/FAN3*
X48768000Y-16510000D03*
G04 #@! TD*
G04 #@! TO.P,J10,4*
G04 #@! TO.N,Net-(J10-Pad4)*
X60960000Y-50800000D03*
G04 #@! TO.P,J10,3*
G04 #@! TO.N,/FAKE4*
X58420000Y-50800000D03*
G04 #@! TO.P,J10,2*
G04 #@! TO.N,Net-(D7-Pad1)*
X55880000Y-50800000D03*
D11*
G04 #@! TO.P,J10,1*
G04 #@! TO.N,GND*
X53340000Y-50800000D03*
G04 #@! TD*
D12*
G04 #@! TO.P,J11,4*
G04 #@! TO.N,/FAN4*
X60960000Y-16510000D03*
G04 #@! TO.P,J11,3*
G04 #@! TO.N,Net-(J11-Pad3)*
X58420000Y-16510000D03*
G04 #@! TO.P,J11,2*
G04 #@! TO.N,Net-(D7-Pad1)*
X55880000Y-16510000D03*
D11*
G04 #@! TO.P,J11,1*
G04 #@! TO.N,Net-(D7-Pad2)*
X53340000Y-16510000D03*
G04 #@! TD*
D13*
G04 #@! TO.P,JP1,1*
G04 #@! TO.N,+12V*
X21373000Y-42672000D03*
D14*
G04 #@! TD*
G04 #@! TO.N,+12V*
G04 #@! TO.C,JP1*
G36*
X22373000Y-42672000D02*
X21873000Y-43422000D01*
X20873000Y-43422000D01*
X20873000Y-41922000D01*
X21873000Y-41922000D01*
X22373000Y-42672000D01*
X22373000Y-42672000D01*
G37*
D13*
G04 #@! TO.P,JP1,2*
G04 #@! TO.N,Net-(D4-Pad1)*
X22823000Y-42672000D03*
D14*
G04 #@! TD*
G04 #@! TO.N,Net-(D4-Pad1)*
G04 #@! TO.C,JP1*
G36*
X23323000Y-43422000D02*
X22173000Y-43422000D01*
X22673000Y-42672000D01*
X22173000Y-41922000D01*
X23323000Y-41922000D01*
X23323000Y-43422000D01*
X23323000Y-43422000D01*
G37*
D13*
G04 #@! TO.P,JP2,2*
G04 #@! TO.N,GND*
X16764000Y-20754000D03*
D14*
G04 #@! TD*
G04 #@! TO.N,GND*
G04 #@! TO.C,JP2*
G36*
X16014000Y-21254000D02*
X16014000Y-20104000D01*
X16764000Y-20604000D01*
X17514000Y-20104000D01*
X17514000Y-21254000D01*
X16014000Y-21254000D01*
X16014000Y-21254000D01*
G37*
D13*
G04 #@! TO.P,JP2,1*
G04 #@! TO.N,Net-(D4-Pad2)*
X16764000Y-19304000D03*
D14*
G04 #@! TD*
G04 #@! TO.N,Net-(D4-Pad2)*
G04 #@! TO.C,JP2*
G36*
X16764000Y-20304000D02*
X16014000Y-19804000D01*
X16014000Y-18804000D01*
X17514000Y-18804000D01*
X17514000Y-19804000D01*
X16764000Y-20304000D01*
X16764000Y-20304000D01*
G37*
D13*
G04 #@! TO.P,JP3,1*
G04 #@! TO.N,Net-(D5-Pad2)*
X28956000Y-19304000D03*
D14*
G04 #@! TD*
G04 #@! TO.N,Net-(D5-Pad2)*
G04 #@! TO.C,JP3*
G36*
X28956000Y-20304000D02*
X28206000Y-19804000D01*
X28206000Y-18804000D01*
X29706000Y-18804000D01*
X29706000Y-19804000D01*
X28956000Y-20304000D01*
X28956000Y-20304000D01*
G37*
D13*
G04 #@! TO.P,JP3,2*
G04 #@! TO.N,GND*
X28956000Y-20754000D03*
D14*
G04 #@! TD*
G04 #@! TO.N,GND*
G04 #@! TO.C,JP3*
G36*
X28206000Y-21254000D02*
X28206000Y-20104000D01*
X28956000Y-20604000D01*
X29706000Y-20104000D01*
X29706000Y-21254000D01*
X28206000Y-21254000D01*
X28206000Y-21254000D01*
G37*
D13*
G04 #@! TO.P,JP4,2*
G04 #@! TO.N,GND*
X41148000Y-20791000D03*
D14*
G04 #@! TD*
G04 #@! TO.N,GND*
G04 #@! TO.C,JP4*
G36*
X40398000Y-21291000D02*
X40398000Y-20141000D01*
X41148000Y-20641000D01*
X41898000Y-20141000D01*
X41898000Y-21291000D01*
X40398000Y-21291000D01*
X40398000Y-21291000D01*
G37*
D13*
G04 #@! TO.P,JP4,1*
G04 #@! TO.N,Net-(D6-Pad2)*
X41148000Y-19341000D03*
D14*
G04 #@! TD*
G04 #@! TO.N,Net-(D6-Pad2)*
G04 #@! TO.C,JP4*
G36*
X41148000Y-20341000D02*
X40398000Y-19841000D01*
X40398000Y-18841000D01*
X41898000Y-18841000D01*
X41898000Y-19841000D01*
X41148000Y-20341000D01*
X41148000Y-20341000D01*
G37*
D13*
G04 #@! TO.P,JP5,2*
G04 #@! TO.N,GND*
X53340000Y-20828000D03*
D14*
G04 #@! TD*
G04 #@! TO.N,GND*
G04 #@! TO.C,JP5*
G36*
X52590000Y-21328000D02*
X52590000Y-20178000D01*
X53340000Y-20678000D01*
X54090000Y-20178000D01*
X54090000Y-21328000D01*
X52590000Y-21328000D01*
X52590000Y-21328000D01*
G37*
D13*
G04 #@! TO.P,JP5,1*
G04 #@! TO.N,Net-(D7-Pad2)*
X53340000Y-19378000D03*
D14*
G04 #@! TD*
G04 #@! TO.N,Net-(D7-Pad2)*
G04 #@! TO.C,JP5*
G36*
X53340000Y-20378000D02*
X52590000Y-19878000D01*
X52590000Y-18878000D01*
X54090000Y-18878000D01*
X54090000Y-19878000D01*
X53340000Y-20378000D01*
X53340000Y-20378000D01*
G37*
D11*
G04 #@! TO.P,J1,1*
G04 #@! TO.N,GND*
X30734000Y-31496000D03*
D12*
G04 #@! TO.P,J1,2*
G04 #@! TO.N,/SYS_CLK*
X30734000Y-28956000D03*
G04 #@! TO.P,J1,3*
G04 #@! TO.N,/NRST*
X33274000Y-31496000D03*
G04 #@! TO.P,J1,4*
G04 #@! TO.N,/SWDIO*
X33274000Y-28956000D03*
G04 #@! TD*
D15*
G04 #@! TO.N,GND*
X28194000Y-39624000D03*
X22352000Y-23876000D03*
X34798000Y-23622000D03*
X46482000Y-23622000D03*
X58674000Y-23622000D03*
X48514000Y-29972000D03*
X21082000Y-28194000D03*
X50546000Y-25400000D03*
X50546000Y-25400000D03*
X33274000Y-43434000D03*
X32766000Y-39878000D03*
X38100000Y-36322000D03*
X41402000Y-33782000D03*
G04 #@! TO.N,+3V3*
X52832000Y-46482000D03*
X52832000Y-41402000D03*
X52832000Y-36322000D03*
X52832000Y-31496000D03*
X58928000Y-46482000D03*
X58928000Y-41402000D03*
X58928000Y-36322000D03*
X58928000Y-31496000D03*
X48514000Y-43688000D03*
X49784000Y-28748388D03*
G04 #@! TO.N,/FAKE3*
X46736000Y-32766000D03*
G04 #@! TO.N,/FAKE4*
X50800000Y-49276000D03*
X47752000Y-32004000D03*
G04 #@! TD*
D16*
G04 #@! TO.N,GND*
X48768000Y-30226000D02*
X48514000Y-29972000D01*
X48768000Y-30480000D02*
X48768000Y-30226000D01*
D17*
X21082000Y-25146000D02*
X22352000Y-23876000D01*
X21082000Y-28194000D02*
X21082000Y-25146000D01*
X46482000Y-23622000D02*
X48768000Y-23622000D01*
X48768000Y-23622000D02*
X50546000Y-25400000D01*
X33274000Y-43434000D02*
X33274000Y-40386000D01*
X33274000Y-40386000D02*
X32766000Y-39878000D01*
D16*
X38100000Y-36322000D02*
X40640000Y-33782000D01*
X40640000Y-33782000D02*
X41402000Y-33782000D01*
D18*
G04 #@! TO.N,+12V*
X21373000Y-37045000D02*
X21373000Y-42672000D01*
X19050000Y-36322000D02*
X20650000Y-36322000D01*
X20650000Y-36322000D02*
X21373000Y-37045000D01*
D16*
G04 #@! TO.N,+3V3*
X52832000Y-46482000D02*
X52832000Y-41402000D01*
X52832000Y-41402000D02*
X52832000Y-40640000D01*
X52832000Y-40640000D02*
X52832000Y-36322000D01*
X52832000Y-36322000D02*
X52832000Y-35756315D01*
X52832000Y-35756315D02*
X52832000Y-31496000D01*
X58928000Y-46482000D02*
X58928000Y-45466000D01*
X58928000Y-45466000D02*
X58928000Y-41402000D01*
X58928000Y-41402000D02*
X58928000Y-36322000D01*
X58928000Y-36322000D02*
X58928000Y-31496000D01*
D17*
X49784000Y-42418000D02*
X49784000Y-28748388D01*
X48514000Y-43688000D02*
X49784000Y-42418000D01*
D19*
G04 #@! TO.N,Net-(D4-Pad1)*
X19304000Y-50800000D02*
X19304000Y-49597919D01*
X19304000Y-26162000D02*
X19304000Y-16510000D01*
X19304000Y-30480000D02*
X19304000Y-26162000D01*
X19304000Y-31750000D02*
X19304000Y-30480000D01*
X23368000Y-35814000D02*
X19304000Y-31750000D01*
X23368000Y-44958000D02*
X23368000Y-35814000D01*
X19304000Y-50800000D02*
X19304000Y-49022000D01*
X19304000Y-49022000D02*
X23368000Y-44958000D01*
D20*
G04 #@! TO.N,Net-(D4-Pad2)*
X16764000Y-16510000D02*
X16764000Y-19304000D01*
D19*
G04 #@! TO.N,Net-(D5-Pad1)*
X31496000Y-16510000D02*
X31496000Y-17712081D01*
X31496000Y-17712081D02*
X33782000Y-19998081D01*
X33782000Y-19998081D02*
X36000081Y-19998081D01*
X31496000Y-48260000D02*
X31496000Y-50800000D01*
X35560000Y-44196000D02*
X31496000Y-48260000D01*
X36000081Y-19998081D02*
X38354000Y-22352000D01*
X38354000Y-22352000D02*
X38354000Y-31496000D01*
X35560000Y-34290000D02*
X35560000Y-40132000D01*
X38354000Y-31496000D02*
X35560000Y-34290000D01*
X35560000Y-44196000D02*
X35560000Y-40132000D01*
X35560000Y-40132000D02*
X35560000Y-37592000D01*
D20*
G04 #@! TO.N,Net-(D5-Pad2)*
X28956000Y-19304000D02*
X28956000Y-16510000D01*
D19*
G04 #@! TO.N,Net-(D6-Pad1)*
X43688000Y-50800000D02*
X43688000Y-16510000D01*
D16*
G04 #@! TO.N,/FAKE3*
X46228000Y-50800000D02*
X46228000Y-33274000D01*
X46228000Y-33274000D02*
X46736000Y-32766000D01*
D20*
G04 #@! TO.N,Net-(D6-Pad2)*
X41148000Y-19341000D02*
X41148000Y-16510000D01*
D16*
G04 #@! TO.N,/FAKE4*
X50800000Y-49276000D02*
X48006000Y-49276000D01*
X48006000Y-49276000D02*
X47244000Y-48514000D01*
X47244000Y-48514000D02*
X47244000Y-33782000D01*
X47244000Y-33782000D02*
X47752000Y-33274000D01*
X47752000Y-33274000D02*
X47752000Y-32004000D01*
D19*
G04 #@! TO.N,Net-(D7-Pad1)*
X55880000Y-50800000D02*
X55880000Y-16510000D01*
D20*
G04 #@! TO.N,Net-(D7-Pad2)*
X53340000Y-19378000D02*
X53340000Y-16510000D01*
G04 #@! TD*
D21*
G04 #@! TO.N,GND*
G36*
X62511001Y-52351000D02*
X15213000Y-52351000D01*
X15213000Y-15660000D01*
X15266560Y-15660000D01*
X15266560Y-17360000D01*
X15315843Y-17607765D01*
X15456191Y-17817809D01*
X15629001Y-17933278D01*
X15629001Y-18297541D01*
X15556191Y-18346191D01*
X15415843Y-18556235D01*
X15366560Y-18804000D01*
X15366560Y-19804000D01*
X15379133Y-19930973D01*
X15476050Y-20164261D01*
X15654865Y-20342703D01*
X16404865Y-20842703D01*
X16637027Y-20938867D01*
X16889645Y-20939131D01*
X17123135Y-20842703D01*
X17873135Y-20342703D01*
X17919001Y-20305102D01*
X17919000Y-26298406D01*
X17919001Y-26298411D01*
X17919000Y-30343593D01*
X17919000Y-31613593D01*
X17891867Y-31750000D01*
X17951560Y-32050097D01*
X17999359Y-32290399D01*
X18305471Y-32748528D01*
X18421112Y-32825797D01*
X20946506Y-35351192D01*
X20749476Y-35312000D01*
X20749471Y-35312000D01*
X20650000Y-35292214D01*
X20550529Y-35312000D01*
X20515614Y-35312000D01*
X20498157Y-35224235D01*
X20357809Y-35014191D01*
X20147765Y-34873843D01*
X19900000Y-34824560D01*
X18200000Y-34824560D01*
X17952235Y-34873843D01*
X17742191Y-35014191D01*
X17601843Y-35224235D01*
X17552560Y-35472000D01*
X17552560Y-37172000D01*
X17601843Y-37419765D01*
X17742191Y-37629809D01*
X17952235Y-37770157D01*
X18200000Y-37819440D01*
X19900000Y-37819440D01*
X20147765Y-37770157D01*
X20357809Y-37629809D01*
X20363000Y-37622040D01*
X20363001Y-41542299D01*
X20274843Y-41674235D01*
X20225560Y-41922000D01*
X20225560Y-43422000D01*
X20274843Y-43669765D01*
X20415191Y-43879809D01*
X20625235Y-44020157D01*
X20873000Y-44069440D01*
X21873000Y-44069440D01*
X21983000Y-44058548D01*
X21983000Y-44384314D01*
X18421112Y-47946203D01*
X18305472Y-48023471D01*
X18228203Y-48139112D01*
X17999359Y-48481601D01*
X17891867Y-49022000D01*
X17919001Y-49158411D01*
X17919001Y-49461508D01*
X17919000Y-49461512D01*
X17919000Y-50199870D01*
X17905161Y-50220582D01*
X17789908Y-50800000D01*
X17905161Y-51379418D01*
X18233375Y-51870625D01*
X18724582Y-52198839D01*
X19157744Y-52285000D01*
X19450256Y-52285000D01*
X19883418Y-52198839D01*
X20374625Y-51870625D01*
X20574000Y-51572239D01*
X20773375Y-51870625D01*
X21264582Y-52198839D01*
X21697744Y-52285000D01*
X21990256Y-52285000D01*
X22423418Y-52198839D01*
X22914625Y-51870625D01*
X23114000Y-51572239D01*
X23313375Y-51870625D01*
X23804582Y-52198839D01*
X24237744Y-52285000D01*
X24530256Y-52285000D01*
X24963418Y-52198839D01*
X25454625Y-51870625D01*
X25782839Y-51379418D01*
X25898092Y-50800000D01*
X25782839Y-50220582D01*
X25454625Y-49729375D01*
X24963418Y-49401161D01*
X24530256Y-49315000D01*
X24237744Y-49315000D01*
X23804582Y-49401161D01*
X23313375Y-49729375D01*
X23114000Y-50027761D01*
X22914625Y-49729375D01*
X22423418Y-49401161D01*
X21990256Y-49315000D01*
X21697744Y-49315000D01*
X21264582Y-49401161D01*
X20773375Y-49729375D01*
X20689000Y-49855651D01*
X20689000Y-49595685D01*
X24250890Y-46033796D01*
X24366528Y-45956529D01*
X24443795Y-45840891D01*
X24443797Y-45840889D01*
X24672641Y-45498400D01*
X24780133Y-44958000D01*
X24753000Y-44821593D01*
X24753000Y-35950407D01*
X24780133Y-35814000D01*
X24672641Y-35273600D01*
X24499309Y-35014191D01*
X24366529Y-34815471D01*
X24250888Y-34738202D01*
X20689000Y-31176315D01*
X20689000Y-28956000D01*
X29219908Y-28956000D01*
X29335161Y-29535418D01*
X29663375Y-30026625D01*
X30154582Y-30354839D01*
X30587744Y-30441000D01*
X30880256Y-30441000D01*
X31313418Y-30354839D01*
X31804625Y-30026625D01*
X32004000Y-29728239D01*
X32203375Y-30026625D01*
X32501761Y-30226000D01*
X32203375Y-30425375D01*
X31875161Y-30916582D01*
X31759908Y-31496000D01*
X31875161Y-32075418D01*
X32203375Y-32566625D01*
X32694582Y-32894839D01*
X33127744Y-32981000D01*
X33420256Y-32981000D01*
X33853418Y-32894839D01*
X34344625Y-32566625D01*
X34672839Y-32075418D01*
X34788092Y-31496000D01*
X34672839Y-30916582D01*
X34344625Y-30425375D01*
X34046239Y-30226000D01*
X34344625Y-30026625D01*
X34672839Y-29535418D01*
X34788092Y-28956000D01*
X34672839Y-28376582D01*
X34344625Y-27885375D01*
X33853418Y-27557161D01*
X33420256Y-27471000D01*
X33127744Y-27471000D01*
X32694582Y-27557161D01*
X32203375Y-27885375D01*
X32004000Y-28183761D01*
X31804625Y-27885375D01*
X31313418Y-27557161D01*
X30880256Y-27471000D01*
X30587744Y-27471000D01*
X30154582Y-27557161D01*
X29663375Y-27885375D01*
X29335161Y-28376582D01*
X29219908Y-28956000D01*
X20689000Y-28956000D01*
X20689000Y-17454349D01*
X20773375Y-17580625D01*
X21264582Y-17908839D01*
X21697744Y-17995000D01*
X21990256Y-17995000D01*
X22423418Y-17908839D01*
X22914625Y-17580625D01*
X23114000Y-17282239D01*
X23313375Y-17580625D01*
X23804582Y-17908839D01*
X24237744Y-17995000D01*
X24530256Y-17995000D01*
X24963418Y-17908839D01*
X25454625Y-17580625D01*
X25782839Y-17089418D01*
X25898092Y-16510000D01*
X25782839Y-15930582D01*
X25602042Y-15660000D01*
X27458560Y-15660000D01*
X27458560Y-17360000D01*
X27507843Y-17607765D01*
X27648191Y-17817809D01*
X27821000Y-17933278D01*
X27821000Y-18297541D01*
X27748191Y-18346191D01*
X27607843Y-18556235D01*
X27558560Y-18804000D01*
X27558560Y-19804000D01*
X27571133Y-19930973D01*
X27668050Y-20164261D01*
X27846865Y-20342703D01*
X28596865Y-20842703D01*
X28829027Y-20938867D01*
X29081645Y-20939131D01*
X29315135Y-20842703D01*
X30065135Y-20342703D01*
X30163809Y-20261809D01*
X30304157Y-20051765D01*
X30353440Y-19804000D01*
X30353440Y-18804000D01*
X30304157Y-18556235D01*
X30163809Y-18346191D01*
X30091000Y-18297541D01*
X30091000Y-17933277D01*
X30123541Y-17911534D01*
X30191359Y-18252481D01*
X30497472Y-18710610D01*
X30613112Y-18787878D01*
X32706202Y-20880969D01*
X32783471Y-20996610D01*
X33241600Y-21302722D01*
X33645593Y-21383081D01*
X33781999Y-21410214D01*
X33918405Y-21383081D01*
X35426396Y-21383081D01*
X36969000Y-22925686D01*
X36969001Y-30922313D01*
X34677112Y-33214203D01*
X34561471Y-33291472D01*
X34484203Y-33407112D01*
X34255359Y-33749601D01*
X34147867Y-34290000D01*
X34175000Y-34426407D01*
X34175001Y-37455593D01*
X34175000Y-40268406D01*
X34175001Y-40268411D01*
X34175000Y-43622314D01*
X30613112Y-47184203D01*
X30497471Y-47261472D01*
X30420203Y-47377112D01*
X30191359Y-47719601D01*
X30083867Y-48260000D01*
X30111000Y-48396407D01*
X30111001Y-50199869D01*
X30097161Y-50220582D01*
X29981908Y-50800000D01*
X30097161Y-51379418D01*
X30425375Y-51870625D01*
X30916582Y-52198839D01*
X31349744Y-52285000D01*
X31642256Y-52285000D01*
X32075418Y-52198839D01*
X32566625Y-51870625D01*
X32766000Y-51572239D01*
X32965375Y-51870625D01*
X33456582Y-52198839D01*
X33889744Y-52285000D01*
X34182256Y-52285000D01*
X34615418Y-52198839D01*
X35106625Y-51870625D01*
X35306000Y-51572239D01*
X35505375Y-51870625D01*
X35996582Y-52198839D01*
X36429744Y-52285000D01*
X36722256Y-52285000D01*
X37155418Y-52198839D01*
X37646625Y-51870625D01*
X37974839Y-51379418D01*
X38090092Y-50800000D01*
X37974839Y-50220582D01*
X37646625Y-49729375D01*
X37155418Y-49401161D01*
X36722256Y-49315000D01*
X36429744Y-49315000D01*
X35996582Y-49401161D01*
X35505375Y-49729375D01*
X35306000Y-50027761D01*
X35106625Y-49729375D01*
X34615418Y-49401161D01*
X34182256Y-49315000D01*
X33889744Y-49315000D01*
X33456582Y-49401161D01*
X32965375Y-49729375D01*
X32881000Y-49855651D01*
X32881000Y-48833685D01*
X36442890Y-45271796D01*
X36558528Y-45194529D01*
X36635795Y-45078891D01*
X36635797Y-45078889D01*
X36864641Y-44736400D01*
X36972133Y-44196000D01*
X36945000Y-44059593D01*
X36945000Y-34863685D01*
X39236888Y-32571798D01*
X39352529Y-32494529D01*
X39658641Y-32036400D01*
X39739000Y-31632407D01*
X39766133Y-31496000D01*
X39739000Y-31359593D01*
X39739000Y-22488405D01*
X39766133Y-22351999D01*
X39739000Y-22215593D01*
X39658641Y-21811600D01*
X39574692Y-21685962D01*
X39429797Y-21469111D01*
X39429795Y-21469109D01*
X39352528Y-21353471D01*
X39236890Y-21276204D01*
X37075880Y-19115195D01*
X36998610Y-18999552D01*
X36540481Y-18693440D01*
X36136488Y-18613081D01*
X36000081Y-18585948D01*
X35863674Y-18613081D01*
X34355686Y-18613081D01*
X33699828Y-17957223D01*
X33889744Y-17995000D01*
X34182256Y-17995000D01*
X34615418Y-17908839D01*
X35106625Y-17580625D01*
X35306000Y-17282239D01*
X35505375Y-17580625D01*
X35996582Y-17908839D01*
X36429744Y-17995000D01*
X36722256Y-17995000D01*
X37155418Y-17908839D01*
X37646625Y-17580625D01*
X37974839Y-17089418D01*
X38090092Y-16510000D01*
X37974839Y-15930582D01*
X37794042Y-15660000D01*
X39650560Y-15660000D01*
X39650560Y-17360000D01*
X39699843Y-17607765D01*
X39840191Y-17817809D01*
X40013000Y-17933278D01*
X40013000Y-18334541D01*
X39940191Y-18383191D01*
X39799843Y-18593235D01*
X39750560Y-18841000D01*
X39750560Y-19841000D01*
X39763133Y-19967973D01*
X39860050Y-20201261D01*
X40038865Y-20379703D01*
X40788865Y-20879703D01*
X41021027Y-20975867D01*
X41273645Y-20976131D01*
X41507135Y-20879703D01*
X42257135Y-20379703D01*
X42303001Y-20342102D01*
X42303000Y-50199870D01*
X42289161Y-50220582D01*
X42173908Y-50800000D01*
X42289161Y-51379418D01*
X42617375Y-51870625D01*
X43108582Y-52198839D01*
X43541744Y-52285000D01*
X43834256Y-52285000D01*
X44267418Y-52198839D01*
X44758625Y-51870625D01*
X44958000Y-51572239D01*
X45157375Y-51870625D01*
X45648582Y-52198839D01*
X46081744Y-52285000D01*
X46374256Y-52285000D01*
X46807418Y-52198839D01*
X47298625Y-51870625D01*
X47498000Y-51572239D01*
X47697375Y-51870625D01*
X48188582Y-52198839D01*
X48621744Y-52285000D01*
X48914256Y-52285000D01*
X49347418Y-52198839D01*
X49838625Y-51870625D01*
X50166839Y-51379418D01*
X50282092Y-50800000D01*
X50166839Y-50220582D01*
X50043505Y-50036000D01*
X50096289Y-50036000D01*
X50213720Y-50153431D01*
X50594126Y-50311000D01*
X51005874Y-50311000D01*
X51386280Y-50153431D01*
X51677431Y-49862280D01*
X51835000Y-49481874D01*
X51835000Y-49070126D01*
X51677431Y-48689720D01*
X51386280Y-48398569D01*
X51005874Y-48241000D01*
X50594126Y-48241000D01*
X50213720Y-48398569D01*
X50096289Y-48516000D01*
X48320802Y-48516000D01*
X48004000Y-48199199D01*
X48004000Y-44597027D01*
X48308126Y-44723000D01*
X48719874Y-44723000D01*
X49100280Y-44565431D01*
X49391431Y-44274280D01*
X49541431Y-43912147D01*
X50348156Y-43105423D01*
X50422049Y-43056049D01*
X50617652Y-42763310D01*
X50669000Y-42505165D01*
X50669000Y-42505161D01*
X50686337Y-42418001D01*
X50669000Y-42330841D01*
X50669000Y-31290126D01*
X51797000Y-31290126D01*
X51797000Y-31701874D01*
X51954569Y-32082280D01*
X52072001Y-32199712D01*
X52072000Y-35618289D01*
X51954569Y-35735720D01*
X51797000Y-36116126D01*
X51797000Y-36527874D01*
X51954569Y-36908280D01*
X52072001Y-37025712D01*
X52072000Y-40565148D01*
X52072000Y-40698289D01*
X51954569Y-40815720D01*
X51797000Y-41196126D01*
X51797000Y-41607874D01*
X51954569Y-41988280D01*
X52072001Y-42105712D01*
X52072000Y-45778289D01*
X51954569Y-45895720D01*
X51797000Y-46276126D01*
X51797000Y-46687874D01*
X51954569Y-47068280D01*
X52245720Y-47359431D01*
X52626126Y-47517000D01*
X53037874Y-47517000D01*
X53418280Y-47359431D01*
X53709431Y-47068280D01*
X53867000Y-46687874D01*
X53867000Y-46276126D01*
X53709431Y-45895720D01*
X53592000Y-45778289D01*
X53592000Y-42105711D01*
X53709431Y-41988280D01*
X53867000Y-41607874D01*
X53867000Y-41196126D01*
X53709431Y-40815720D01*
X53592000Y-40698289D01*
X53592000Y-37025711D01*
X53709431Y-36908280D01*
X53867000Y-36527874D01*
X53867000Y-36116126D01*
X53709431Y-35735720D01*
X53592000Y-35618289D01*
X53592000Y-32199711D01*
X53709431Y-32082280D01*
X53867000Y-31701874D01*
X53867000Y-31290126D01*
X53709431Y-30909720D01*
X53418280Y-30618569D01*
X53037874Y-30461000D01*
X52626126Y-30461000D01*
X52245720Y-30618569D01*
X51954569Y-30909720D01*
X51797000Y-31290126D01*
X50669000Y-31290126D01*
X50669000Y-29316395D01*
X50819000Y-28954262D01*
X50819000Y-28542514D01*
X50661431Y-28162108D01*
X50370280Y-27870957D01*
X49989874Y-27713388D01*
X49578126Y-27713388D01*
X49197720Y-27870957D01*
X48906569Y-28162108D01*
X48749000Y-28542514D01*
X48749000Y-28954262D01*
X48899001Y-29316397D01*
X48899000Y-42051421D01*
X48289853Y-42660569D01*
X48004000Y-42778973D01*
X48004000Y-34096802D01*
X48236475Y-33864327D01*
X48299929Y-33821929D01*
X48342327Y-33758476D01*
X48342329Y-33758474D01*
X48467903Y-33570538D01*
X48467904Y-33570537D01*
X48512000Y-33348852D01*
X48512000Y-33348848D01*
X48526888Y-33274001D01*
X48512000Y-33199154D01*
X48512000Y-32707711D01*
X48629431Y-32590280D01*
X48787000Y-32209874D01*
X48787000Y-31798126D01*
X48629431Y-31417720D01*
X48338280Y-31126569D01*
X47957874Y-30969000D01*
X47546126Y-30969000D01*
X47165720Y-31126569D01*
X46874569Y-31417720D01*
X46744804Y-31731000D01*
X46530126Y-31731000D01*
X46149720Y-31888569D01*
X45858569Y-32179720D01*
X45701000Y-32560126D01*
X45701000Y-32712087D01*
X45680072Y-32726071D01*
X45637672Y-32789527D01*
X45637671Y-32789528D01*
X45567305Y-32894839D01*
X45512097Y-32977463D01*
X45499857Y-33039000D01*
X45453112Y-33274000D01*
X45468001Y-33348851D01*
X45468000Y-49521822D01*
X45157375Y-49729375D01*
X45073000Y-49855651D01*
X45073000Y-17454349D01*
X45157375Y-17580625D01*
X45648582Y-17908839D01*
X46081744Y-17995000D01*
X46374256Y-17995000D01*
X46807418Y-17908839D01*
X47298625Y-17580625D01*
X47498000Y-17282239D01*
X47697375Y-17580625D01*
X48188582Y-17908839D01*
X48621744Y-17995000D01*
X48914256Y-17995000D01*
X49347418Y-17908839D01*
X49838625Y-17580625D01*
X50166839Y-17089418D01*
X50282092Y-16510000D01*
X50166839Y-15930582D01*
X49986042Y-15660000D01*
X51842560Y-15660000D01*
X51842560Y-17360000D01*
X51891843Y-17607765D01*
X52032191Y-17817809D01*
X52205001Y-17933278D01*
X52205000Y-18371541D01*
X52132191Y-18420191D01*
X51991843Y-18630235D01*
X51942560Y-18878000D01*
X51942560Y-19878000D01*
X51955133Y-20004973D01*
X52052050Y-20238261D01*
X52230865Y-20416703D01*
X52980865Y-20916703D01*
X53213027Y-21012867D01*
X53465645Y-21013131D01*
X53699135Y-20916703D01*
X54449135Y-20416703D01*
X54495001Y-20379102D01*
X54495000Y-50199870D01*
X54481161Y-50220582D01*
X54365908Y-50800000D01*
X54481161Y-51379418D01*
X54809375Y-51870625D01*
X55300582Y-52198839D01*
X55733744Y-52285000D01*
X56026256Y-52285000D01*
X56459418Y-52198839D01*
X56950625Y-51870625D01*
X57150000Y-51572239D01*
X57349375Y-51870625D01*
X57840582Y-52198839D01*
X58273744Y-52285000D01*
X58566256Y-52285000D01*
X58999418Y-52198839D01*
X59490625Y-51870625D01*
X59690000Y-51572239D01*
X59889375Y-51870625D01*
X60380582Y-52198839D01*
X60813744Y-52285000D01*
X61106256Y-52285000D01*
X61539418Y-52198839D01*
X62030625Y-51870625D01*
X62358839Y-51379418D01*
X62474092Y-50800000D01*
X62358839Y-50220582D01*
X62030625Y-49729375D01*
X61539418Y-49401161D01*
X61106256Y-49315000D01*
X60813744Y-49315000D01*
X60380582Y-49401161D01*
X59889375Y-49729375D01*
X59690000Y-50027761D01*
X59490625Y-49729375D01*
X58999418Y-49401161D01*
X58566256Y-49315000D01*
X58273744Y-49315000D01*
X57840582Y-49401161D01*
X57349375Y-49729375D01*
X57265000Y-49855651D01*
X57265000Y-31290126D01*
X57893000Y-31290126D01*
X57893000Y-31701874D01*
X58050569Y-32082280D01*
X58168001Y-32199712D01*
X58168000Y-35618289D01*
X58050569Y-35735720D01*
X57893000Y-36116126D01*
X57893000Y-36527874D01*
X58050569Y-36908280D01*
X58168001Y-37025712D01*
X58168000Y-40698289D01*
X58050569Y-40815720D01*
X57893000Y-41196126D01*
X57893000Y-41607874D01*
X58050569Y-41988280D01*
X58168001Y-42105712D01*
X58168000Y-45540851D01*
X58168001Y-45540855D01*
X58168001Y-45778288D01*
X58050569Y-45895720D01*
X57893000Y-46276126D01*
X57893000Y-46687874D01*
X58050569Y-47068280D01*
X58341720Y-47359431D01*
X58722126Y-47517000D01*
X59133874Y-47517000D01*
X59514280Y-47359431D01*
X59805431Y-47068280D01*
X59963000Y-46687874D01*
X59963000Y-46276126D01*
X59805431Y-45895720D01*
X59688000Y-45778289D01*
X59688000Y-42105711D01*
X59805431Y-41988280D01*
X59963000Y-41607874D01*
X59963000Y-41196126D01*
X59805431Y-40815720D01*
X59688000Y-40698289D01*
X59688000Y-37025711D01*
X59805431Y-36908280D01*
X59963000Y-36527874D01*
X59963000Y-36116126D01*
X59805431Y-35735720D01*
X59688000Y-35618289D01*
X59688000Y-32199711D01*
X59805431Y-32082280D01*
X59963000Y-31701874D01*
X59963000Y-31290126D01*
X59805431Y-30909720D01*
X59514280Y-30618569D01*
X59133874Y-30461000D01*
X58722126Y-30461000D01*
X58341720Y-30618569D01*
X58050569Y-30909720D01*
X57893000Y-31290126D01*
X57265000Y-31290126D01*
X57265000Y-17454349D01*
X57349375Y-17580625D01*
X57840582Y-17908839D01*
X58273744Y-17995000D01*
X58566256Y-17995000D01*
X58999418Y-17908839D01*
X59490625Y-17580625D01*
X59690000Y-17282239D01*
X59889375Y-17580625D01*
X60380582Y-17908839D01*
X60813744Y-17995000D01*
X61106256Y-17995000D01*
X61539418Y-17908839D01*
X62030625Y-17580625D01*
X62358839Y-17089418D01*
X62474092Y-16510000D01*
X62358839Y-15930582D01*
X62030625Y-15439375D01*
X61539418Y-15111161D01*
X61106256Y-15025000D01*
X60813744Y-15025000D01*
X60380582Y-15111161D01*
X59889375Y-15439375D01*
X59690000Y-15737761D01*
X59490625Y-15439375D01*
X58999418Y-15111161D01*
X58566256Y-15025000D01*
X58273744Y-15025000D01*
X57840582Y-15111161D01*
X57349375Y-15439375D01*
X57150000Y-15737761D01*
X56950625Y-15439375D01*
X56459418Y-15111161D01*
X56026256Y-15025000D01*
X55733744Y-15025000D01*
X55300582Y-15111161D01*
X54809375Y-15439375D01*
X54797184Y-15457619D01*
X54788157Y-15412235D01*
X54647809Y-15202191D01*
X54437765Y-15061843D01*
X54190000Y-15012560D01*
X52490000Y-15012560D01*
X52242235Y-15061843D01*
X52032191Y-15202191D01*
X51891843Y-15412235D01*
X51842560Y-15660000D01*
X49986042Y-15660000D01*
X49838625Y-15439375D01*
X49347418Y-15111161D01*
X48914256Y-15025000D01*
X48621744Y-15025000D01*
X48188582Y-15111161D01*
X47697375Y-15439375D01*
X47498000Y-15737761D01*
X47298625Y-15439375D01*
X46807418Y-15111161D01*
X46374256Y-15025000D01*
X46081744Y-15025000D01*
X45648582Y-15111161D01*
X45157375Y-15439375D01*
X44958000Y-15737761D01*
X44758625Y-15439375D01*
X44267418Y-15111161D01*
X43834256Y-15025000D01*
X43541744Y-15025000D01*
X43108582Y-15111161D01*
X42617375Y-15439375D01*
X42605184Y-15457619D01*
X42596157Y-15412235D01*
X42455809Y-15202191D01*
X42245765Y-15061843D01*
X41998000Y-15012560D01*
X40298000Y-15012560D01*
X40050235Y-15061843D01*
X39840191Y-15202191D01*
X39699843Y-15412235D01*
X39650560Y-15660000D01*
X37794042Y-15660000D01*
X37646625Y-15439375D01*
X37155418Y-15111161D01*
X36722256Y-15025000D01*
X36429744Y-15025000D01*
X35996582Y-15111161D01*
X35505375Y-15439375D01*
X35306000Y-15737761D01*
X35106625Y-15439375D01*
X34615418Y-15111161D01*
X34182256Y-15025000D01*
X33889744Y-15025000D01*
X33456582Y-15111161D01*
X32965375Y-15439375D01*
X32766000Y-15737761D01*
X32566625Y-15439375D01*
X32075418Y-15111161D01*
X31642256Y-15025000D01*
X31349744Y-15025000D01*
X30916582Y-15111161D01*
X30425375Y-15439375D01*
X30413184Y-15457619D01*
X30404157Y-15412235D01*
X30263809Y-15202191D01*
X30053765Y-15061843D01*
X29806000Y-15012560D01*
X28106000Y-15012560D01*
X27858235Y-15061843D01*
X27648191Y-15202191D01*
X27507843Y-15412235D01*
X27458560Y-15660000D01*
X25602042Y-15660000D01*
X25454625Y-15439375D01*
X24963418Y-15111161D01*
X24530256Y-15025000D01*
X24237744Y-15025000D01*
X23804582Y-15111161D01*
X23313375Y-15439375D01*
X23114000Y-15737761D01*
X22914625Y-15439375D01*
X22423418Y-15111161D01*
X21990256Y-15025000D01*
X21697744Y-15025000D01*
X21264582Y-15111161D01*
X20773375Y-15439375D01*
X20574000Y-15737761D01*
X20374625Y-15439375D01*
X19883418Y-15111161D01*
X19450256Y-15025000D01*
X19157744Y-15025000D01*
X18724582Y-15111161D01*
X18233375Y-15439375D01*
X18221184Y-15457619D01*
X18212157Y-15412235D01*
X18071809Y-15202191D01*
X17861765Y-15061843D01*
X17614000Y-15012560D01*
X15914000Y-15012560D01*
X15666235Y-15061843D01*
X15456191Y-15202191D01*
X15315843Y-15412235D01*
X15266560Y-15660000D01*
X15213000Y-15660000D01*
X15213000Y-14959000D01*
X62511000Y-14959000D01*
X62511001Y-52351000D01*
X62511001Y-52351000D01*
G37*
X62511001Y-52351000D02*
X15213000Y-52351000D01*
X15213000Y-15660000D01*
X15266560Y-15660000D01*
X15266560Y-17360000D01*
X15315843Y-17607765D01*
X15456191Y-17817809D01*
X15629001Y-17933278D01*
X15629001Y-18297541D01*
X15556191Y-18346191D01*
X15415843Y-18556235D01*
X15366560Y-18804000D01*
X15366560Y-19804000D01*
X15379133Y-19930973D01*
X15476050Y-20164261D01*
X15654865Y-20342703D01*
X16404865Y-20842703D01*
X16637027Y-20938867D01*
X16889645Y-20939131D01*
X17123135Y-20842703D01*
X17873135Y-20342703D01*
X17919001Y-20305102D01*
X17919000Y-26298406D01*
X17919001Y-26298411D01*
X17919000Y-30343593D01*
X17919000Y-31613593D01*
X17891867Y-31750000D01*
X17951560Y-32050097D01*
X17999359Y-32290399D01*
X18305471Y-32748528D01*
X18421112Y-32825797D01*
X20946506Y-35351192D01*
X20749476Y-35312000D01*
X20749471Y-35312000D01*
X20650000Y-35292214D01*
X20550529Y-35312000D01*
X20515614Y-35312000D01*
X20498157Y-35224235D01*
X20357809Y-35014191D01*
X20147765Y-34873843D01*
X19900000Y-34824560D01*
X18200000Y-34824560D01*
X17952235Y-34873843D01*
X17742191Y-35014191D01*
X17601843Y-35224235D01*
X17552560Y-35472000D01*
X17552560Y-37172000D01*
X17601843Y-37419765D01*
X17742191Y-37629809D01*
X17952235Y-37770157D01*
X18200000Y-37819440D01*
X19900000Y-37819440D01*
X20147765Y-37770157D01*
X20357809Y-37629809D01*
X20363000Y-37622040D01*
X20363001Y-41542299D01*
X20274843Y-41674235D01*
X20225560Y-41922000D01*
X20225560Y-43422000D01*
X20274843Y-43669765D01*
X20415191Y-43879809D01*
X20625235Y-44020157D01*
X20873000Y-44069440D01*
X21873000Y-44069440D01*
X21983000Y-44058548D01*
X21983000Y-44384314D01*
X18421112Y-47946203D01*
X18305472Y-48023471D01*
X18228203Y-48139112D01*
X17999359Y-48481601D01*
X17891867Y-49022000D01*
X17919001Y-49158411D01*
X17919001Y-49461508D01*
X17919000Y-49461512D01*
X17919000Y-50199870D01*
X17905161Y-50220582D01*
X17789908Y-50800000D01*
X17905161Y-51379418D01*
X18233375Y-51870625D01*
X18724582Y-52198839D01*
X19157744Y-52285000D01*
X19450256Y-52285000D01*
X19883418Y-52198839D01*
X20374625Y-51870625D01*
X20574000Y-51572239D01*
X20773375Y-51870625D01*
X21264582Y-52198839D01*
X21697744Y-52285000D01*
X21990256Y-52285000D01*
X22423418Y-52198839D01*
X22914625Y-51870625D01*
X23114000Y-51572239D01*
X23313375Y-51870625D01*
X23804582Y-52198839D01*
X24237744Y-52285000D01*
X24530256Y-52285000D01*
X24963418Y-52198839D01*
X25454625Y-51870625D01*
X25782839Y-51379418D01*
X25898092Y-50800000D01*
X25782839Y-50220582D01*
X25454625Y-49729375D01*
X24963418Y-49401161D01*
X24530256Y-49315000D01*
X24237744Y-49315000D01*
X23804582Y-49401161D01*
X23313375Y-49729375D01*
X23114000Y-50027761D01*
X22914625Y-49729375D01*
X22423418Y-49401161D01*
X21990256Y-49315000D01*
X21697744Y-49315000D01*
X21264582Y-49401161D01*
X20773375Y-49729375D01*
X20689000Y-49855651D01*
X20689000Y-49595685D01*
X24250890Y-46033796D01*
X24366528Y-45956529D01*
X24443795Y-45840891D01*
X24443797Y-45840889D01*
X24672641Y-45498400D01*
X24780133Y-44958000D01*
X24753000Y-44821593D01*
X24753000Y-35950407D01*
X24780133Y-35814000D01*
X24672641Y-35273600D01*
X24499309Y-35014191D01*
X24366529Y-34815471D01*
X24250888Y-34738202D01*
X20689000Y-31176315D01*
X20689000Y-28956000D01*
X29219908Y-28956000D01*
X29335161Y-29535418D01*
X29663375Y-30026625D01*
X30154582Y-30354839D01*
X30587744Y-30441000D01*
X30880256Y-30441000D01*
X31313418Y-30354839D01*
X31804625Y-30026625D01*
X32004000Y-29728239D01*
X32203375Y-30026625D01*
X32501761Y-30226000D01*
X32203375Y-30425375D01*
X31875161Y-30916582D01*
X31759908Y-31496000D01*
X31875161Y-32075418D01*
X32203375Y-32566625D01*
X32694582Y-32894839D01*
X33127744Y-32981000D01*
X33420256Y-32981000D01*
X33853418Y-32894839D01*
X34344625Y-32566625D01*
X34672839Y-32075418D01*
X34788092Y-31496000D01*
X34672839Y-30916582D01*
X34344625Y-30425375D01*
X34046239Y-30226000D01*
X34344625Y-30026625D01*
X34672839Y-29535418D01*
X34788092Y-28956000D01*
X34672839Y-28376582D01*
X34344625Y-27885375D01*
X33853418Y-27557161D01*
X33420256Y-27471000D01*
X33127744Y-27471000D01*
X32694582Y-27557161D01*
X32203375Y-27885375D01*
X32004000Y-28183761D01*
X31804625Y-27885375D01*
X31313418Y-27557161D01*
X30880256Y-27471000D01*
X30587744Y-27471000D01*
X30154582Y-27557161D01*
X29663375Y-27885375D01*
X29335161Y-28376582D01*
X29219908Y-28956000D01*
X20689000Y-28956000D01*
X20689000Y-17454349D01*
X20773375Y-17580625D01*
X21264582Y-17908839D01*
X21697744Y-17995000D01*
X21990256Y-17995000D01*
X22423418Y-17908839D01*
X22914625Y-17580625D01*
X23114000Y-17282239D01*
X23313375Y-17580625D01*
X23804582Y-17908839D01*
X24237744Y-17995000D01*
X24530256Y-17995000D01*
X24963418Y-17908839D01*
X25454625Y-17580625D01*
X25782839Y-17089418D01*
X25898092Y-16510000D01*
X25782839Y-15930582D01*
X25602042Y-15660000D01*
X27458560Y-15660000D01*
X27458560Y-17360000D01*
X27507843Y-17607765D01*
X27648191Y-17817809D01*
X27821000Y-17933278D01*
X27821000Y-18297541D01*
X27748191Y-18346191D01*
X27607843Y-18556235D01*
X27558560Y-18804000D01*
X27558560Y-19804000D01*
X27571133Y-19930973D01*
X27668050Y-20164261D01*
X27846865Y-20342703D01*
X28596865Y-20842703D01*
X28829027Y-20938867D01*
X29081645Y-20939131D01*
X29315135Y-20842703D01*
X30065135Y-20342703D01*
X30163809Y-20261809D01*
X30304157Y-20051765D01*
X30353440Y-19804000D01*
X30353440Y-18804000D01*
X30304157Y-18556235D01*
X30163809Y-18346191D01*
X30091000Y-18297541D01*
X30091000Y-17933277D01*
X30123541Y-17911534D01*
X30191359Y-18252481D01*
X30497472Y-18710610D01*
X30613112Y-18787878D01*
X32706202Y-20880969D01*
X32783471Y-20996610D01*
X33241600Y-21302722D01*
X33645593Y-21383081D01*
X33781999Y-21410214D01*
X33918405Y-21383081D01*
X35426396Y-21383081D01*
X36969000Y-22925686D01*
X36969001Y-30922313D01*
X34677112Y-33214203D01*
X34561471Y-33291472D01*
X34484203Y-33407112D01*
X34255359Y-33749601D01*
X34147867Y-34290000D01*
X34175000Y-34426407D01*
X34175001Y-37455593D01*
X34175000Y-40268406D01*
X34175001Y-40268411D01*
X34175000Y-43622314D01*
X30613112Y-47184203D01*
X30497471Y-47261472D01*
X30420203Y-47377112D01*
X30191359Y-47719601D01*
X30083867Y-48260000D01*
X30111000Y-48396407D01*
X30111001Y-50199869D01*
X30097161Y-50220582D01*
X29981908Y-50800000D01*
X30097161Y-51379418D01*
X30425375Y-51870625D01*
X30916582Y-52198839D01*
X31349744Y-52285000D01*
X31642256Y-52285000D01*
X32075418Y-52198839D01*
X32566625Y-51870625D01*
X32766000Y-51572239D01*
X32965375Y-51870625D01*
X33456582Y-52198839D01*
X33889744Y-52285000D01*
X34182256Y-52285000D01*
X34615418Y-52198839D01*
X35106625Y-51870625D01*
X35306000Y-51572239D01*
X35505375Y-51870625D01*
X35996582Y-52198839D01*
X36429744Y-52285000D01*
X36722256Y-52285000D01*
X37155418Y-52198839D01*
X37646625Y-51870625D01*
X37974839Y-51379418D01*
X38090092Y-50800000D01*
X37974839Y-50220582D01*
X37646625Y-49729375D01*
X37155418Y-49401161D01*
X36722256Y-49315000D01*
X36429744Y-49315000D01*
X35996582Y-49401161D01*
X35505375Y-49729375D01*
X35306000Y-50027761D01*
X35106625Y-49729375D01*
X34615418Y-49401161D01*
X34182256Y-49315000D01*
X33889744Y-49315000D01*
X33456582Y-49401161D01*
X32965375Y-49729375D01*
X32881000Y-49855651D01*
X32881000Y-48833685D01*
X36442890Y-45271796D01*
X36558528Y-45194529D01*
X36635795Y-45078891D01*
X36635797Y-45078889D01*
X36864641Y-44736400D01*
X36972133Y-44196000D01*
X36945000Y-44059593D01*
X36945000Y-34863685D01*
X39236888Y-32571798D01*
X39352529Y-32494529D01*
X39658641Y-32036400D01*
X39739000Y-31632407D01*
X39766133Y-31496000D01*
X39739000Y-31359593D01*
X39739000Y-22488405D01*
X39766133Y-22351999D01*
X39739000Y-22215593D01*
X39658641Y-21811600D01*
X39574692Y-21685962D01*
X39429797Y-21469111D01*
X39429795Y-21469109D01*
X39352528Y-21353471D01*
X39236890Y-21276204D01*
X37075880Y-19115195D01*
X36998610Y-18999552D01*
X36540481Y-18693440D01*
X36136488Y-18613081D01*
X36000081Y-18585948D01*
X35863674Y-18613081D01*
X34355686Y-18613081D01*
X33699828Y-17957223D01*
X33889744Y-17995000D01*
X34182256Y-17995000D01*
X34615418Y-17908839D01*
X35106625Y-17580625D01*
X35306000Y-17282239D01*
X35505375Y-17580625D01*
X35996582Y-17908839D01*
X36429744Y-17995000D01*
X36722256Y-17995000D01*
X37155418Y-17908839D01*
X37646625Y-17580625D01*
X37974839Y-17089418D01*
X38090092Y-16510000D01*
X37974839Y-15930582D01*
X37794042Y-15660000D01*
X39650560Y-15660000D01*
X39650560Y-17360000D01*
X39699843Y-17607765D01*
X39840191Y-17817809D01*
X40013000Y-17933278D01*
X40013000Y-18334541D01*
X39940191Y-18383191D01*
X39799843Y-18593235D01*
X39750560Y-18841000D01*
X39750560Y-19841000D01*
X39763133Y-19967973D01*
X39860050Y-20201261D01*
X40038865Y-20379703D01*
X40788865Y-20879703D01*
X41021027Y-20975867D01*
X41273645Y-20976131D01*
X41507135Y-20879703D01*
X42257135Y-20379703D01*
X42303001Y-20342102D01*
X42303000Y-50199870D01*
X42289161Y-50220582D01*
X42173908Y-50800000D01*
X42289161Y-51379418D01*
X42617375Y-51870625D01*
X43108582Y-52198839D01*
X43541744Y-52285000D01*
X43834256Y-52285000D01*
X44267418Y-52198839D01*
X44758625Y-51870625D01*
X44958000Y-51572239D01*
X45157375Y-51870625D01*
X45648582Y-52198839D01*
X46081744Y-52285000D01*
X46374256Y-52285000D01*
X46807418Y-52198839D01*
X47298625Y-51870625D01*
X47498000Y-51572239D01*
X47697375Y-51870625D01*
X48188582Y-52198839D01*
X48621744Y-52285000D01*
X48914256Y-52285000D01*
X49347418Y-52198839D01*
X49838625Y-51870625D01*
X50166839Y-51379418D01*
X50282092Y-50800000D01*
X50166839Y-50220582D01*
X50043505Y-50036000D01*
X50096289Y-50036000D01*
X50213720Y-50153431D01*
X50594126Y-50311000D01*
X51005874Y-50311000D01*
X51386280Y-50153431D01*
X51677431Y-49862280D01*
X51835000Y-49481874D01*
X51835000Y-49070126D01*
X51677431Y-48689720D01*
X51386280Y-48398569D01*
X51005874Y-48241000D01*
X50594126Y-48241000D01*
X50213720Y-48398569D01*
X50096289Y-48516000D01*
X48320802Y-48516000D01*
X48004000Y-48199199D01*
X48004000Y-44597027D01*
X48308126Y-44723000D01*
X48719874Y-44723000D01*
X49100280Y-44565431D01*
X49391431Y-44274280D01*
X49541431Y-43912147D01*
X50348156Y-43105423D01*
X50422049Y-43056049D01*
X50617652Y-42763310D01*
X50669000Y-42505165D01*
X50669000Y-42505161D01*
X50686337Y-42418001D01*
X50669000Y-42330841D01*
X50669000Y-31290126D01*
X51797000Y-31290126D01*
X51797000Y-31701874D01*
X51954569Y-32082280D01*
X52072001Y-32199712D01*
X52072000Y-35618289D01*
X51954569Y-35735720D01*
X51797000Y-36116126D01*
X51797000Y-36527874D01*
X51954569Y-36908280D01*
X52072001Y-37025712D01*
X52072000Y-40565148D01*
X52072000Y-40698289D01*
X51954569Y-40815720D01*
X51797000Y-41196126D01*
X51797000Y-41607874D01*
X51954569Y-41988280D01*
X52072001Y-42105712D01*
X52072000Y-45778289D01*
X51954569Y-45895720D01*
X51797000Y-46276126D01*
X51797000Y-46687874D01*
X51954569Y-47068280D01*
X52245720Y-47359431D01*
X52626126Y-47517000D01*
X53037874Y-47517000D01*
X53418280Y-47359431D01*
X53709431Y-47068280D01*
X53867000Y-46687874D01*
X53867000Y-46276126D01*
X53709431Y-45895720D01*
X53592000Y-45778289D01*
X53592000Y-42105711D01*
X53709431Y-41988280D01*
X53867000Y-41607874D01*
X53867000Y-41196126D01*
X53709431Y-40815720D01*
X53592000Y-40698289D01*
X53592000Y-37025711D01*
X53709431Y-36908280D01*
X53867000Y-36527874D01*
X53867000Y-36116126D01*
X53709431Y-35735720D01*
X53592000Y-35618289D01*
X53592000Y-32199711D01*
X53709431Y-32082280D01*
X53867000Y-31701874D01*
X53867000Y-31290126D01*
X53709431Y-30909720D01*
X53418280Y-30618569D01*
X53037874Y-30461000D01*
X52626126Y-30461000D01*
X52245720Y-30618569D01*
X51954569Y-30909720D01*
X51797000Y-31290126D01*
X50669000Y-31290126D01*
X50669000Y-29316395D01*
X50819000Y-28954262D01*
X50819000Y-28542514D01*
X50661431Y-28162108D01*
X50370280Y-27870957D01*
X49989874Y-27713388D01*
X49578126Y-27713388D01*
X49197720Y-27870957D01*
X48906569Y-28162108D01*
X48749000Y-28542514D01*
X48749000Y-28954262D01*
X48899001Y-29316397D01*
X48899000Y-42051421D01*
X48289853Y-42660569D01*
X48004000Y-42778973D01*
X48004000Y-34096802D01*
X48236475Y-33864327D01*
X48299929Y-33821929D01*
X48342327Y-33758476D01*
X48342329Y-33758474D01*
X48467903Y-33570538D01*
X48467904Y-33570537D01*
X48512000Y-33348852D01*
X48512000Y-33348848D01*
X48526888Y-33274001D01*
X48512000Y-33199154D01*
X48512000Y-32707711D01*
X48629431Y-32590280D01*
X48787000Y-32209874D01*
X48787000Y-31798126D01*
X48629431Y-31417720D01*
X48338280Y-31126569D01*
X47957874Y-30969000D01*
X47546126Y-30969000D01*
X47165720Y-31126569D01*
X46874569Y-31417720D01*
X46744804Y-31731000D01*
X46530126Y-31731000D01*
X46149720Y-31888569D01*
X45858569Y-32179720D01*
X45701000Y-32560126D01*
X45701000Y-32712087D01*
X45680072Y-32726071D01*
X45637672Y-32789527D01*
X45637671Y-32789528D01*
X45567305Y-32894839D01*
X45512097Y-32977463D01*
X45499857Y-33039000D01*
X45453112Y-33274000D01*
X45468001Y-33348851D01*
X45468000Y-49521822D01*
X45157375Y-49729375D01*
X45073000Y-49855651D01*
X45073000Y-17454349D01*
X45157375Y-17580625D01*
X45648582Y-17908839D01*
X46081744Y-17995000D01*
X46374256Y-17995000D01*
X46807418Y-17908839D01*
X47298625Y-17580625D01*
X47498000Y-17282239D01*
X47697375Y-17580625D01*
X48188582Y-17908839D01*
X48621744Y-17995000D01*
X48914256Y-17995000D01*
X49347418Y-17908839D01*
X49838625Y-17580625D01*
X50166839Y-17089418D01*
X50282092Y-16510000D01*
X50166839Y-15930582D01*
X49986042Y-15660000D01*
X51842560Y-15660000D01*
X51842560Y-17360000D01*
X51891843Y-17607765D01*
X52032191Y-17817809D01*
X52205001Y-17933278D01*
X52205000Y-18371541D01*
X52132191Y-18420191D01*
X51991843Y-18630235D01*
X51942560Y-18878000D01*
X51942560Y-19878000D01*
X51955133Y-20004973D01*
X52052050Y-20238261D01*
X52230865Y-20416703D01*
X52980865Y-20916703D01*
X53213027Y-21012867D01*
X53465645Y-21013131D01*
X53699135Y-20916703D01*
X54449135Y-20416703D01*
X54495001Y-20379102D01*
X54495000Y-50199870D01*
X54481161Y-50220582D01*
X54365908Y-50800000D01*
X54481161Y-51379418D01*
X54809375Y-51870625D01*
X55300582Y-52198839D01*
X55733744Y-52285000D01*
X56026256Y-52285000D01*
X56459418Y-52198839D01*
X56950625Y-51870625D01*
X57150000Y-51572239D01*
X57349375Y-51870625D01*
X57840582Y-52198839D01*
X58273744Y-52285000D01*
X58566256Y-52285000D01*
X58999418Y-52198839D01*
X59490625Y-51870625D01*
X59690000Y-51572239D01*
X59889375Y-51870625D01*
X60380582Y-52198839D01*
X60813744Y-52285000D01*
X61106256Y-52285000D01*
X61539418Y-52198839D01*
X62030625Y-51870625D01*
X62358839Y-51379418D01*
X62474092Y-50800000D01*
X62358839Y-50220582D01*
X62030625Y-49729375D01*
X61539418Y-49401161D01*
X61106256Y-49315000D01*
X60813744Y-49315000D01*
X60380582Y-49401161D01*
X59889375Y-49729375D01*
X59690000Y-50027761D01*
X59490625Y-49729375D01*
X58999418Y-49401161D01*
X58566256Y-49315000D01*
X58273744Y-49315000D01*
X57840582Y-49401161D01*
X57349375Y-49729375D01*
X57265000Y-49855651D01*
X57265000Y-31290126D01*
X57893000Y-31290126D01*
X57893000Y-31701874D01*
X58050569Y-32082280D01*
X58168001Y-32199712D01*
X58168000Y-35618289D01*
X58050569Y-35735720D01*
X57893000Y-36116126D01*
X57893000Y-36527874D01*
X58050569Y-36908280D01*
X58168001Y-37025712D01*
X58168000Y-40698289D01*
X58050569Y-40815720D01*
X57893000Y-41196126D01*
X57893000Y-41607874D01*
X58050569Y-41988280D01*
X58168001Y-42105712D01*
X58168000Y-45540851D01*
X58168001Y-45540855D01*
X58168001Y-45778288D01*
X58050569Y-45895720D01*
X57893000Y-46276126D01*
X57893000Y-46687874D01*
X58050569Y-47068280D01*
X58341720Y-47359431D01*
X58722126Y-47517000D01*
X59133874Y-47517000D01*
X59514280Y-47359431D01*
X59805431Y-47068280D01*
X59963000Y-46687874D01*
X59963000Y-46276126D01*
X59805431Y-45895720D01*
X59688000Y-45778289D01*
X59688000Y-42105711D01*
X59805431Y-41988280D01*
X59963000Y-41607874D01*
X59963000Y-41196126D01*
X59805431Y-40815720D01*
X59688000Y-40698289D01*
X59688000Y-37025711D01*
X59805431Y-36908280D01*
X59963000Y-36527874D01*
X59963000Y-36116126D01*
X59805431Y-35735720D01*
X59688000Y-35618289D01*
X59688000Y-32199711D01*
X59805431Y-32082280D01*
X59963000Y-31701874D01*
X59963000Y-31290126D01*
X59805431Y-30909720D01*
X59514280Y-30618569D01*
X59133874Y-30461000D01*
X58722126Y-30461000D01*
X58341720Y-30618569D01*
X58050569Y-30909720D01*
X57893000Y-31290126D01*
X57265000Y-31290126D01*
X57265000Y-17454349D01*
X57349375Y-17580625D01*
X57840582Y-17908839D01*
X58273744Y-17995000D01*
X58566256Y-17995000D01*
X58999418Y-17908839D01*
X59490625Y-17580625D01*
X59690000Y-17282239D01*
X59889375Y-17580625D01*
X60380582Y-17908839D01*
X60813744Y-17995000D01*
X61106256Y-17995000D01*
X61539418Y-17908839D01*
X62030625Y-17580625D01*
X62358839Y-17089418D01*
X62474092Y-16510000D01*
X62358839Y-15930582D01*
X62030625Y-15439375D01*
X61539418Y-15111161D01*
X61106256Y-15025000D01*
X60813744Y-15025000D01*
X60380582Y-15111161D01*
X59889375Y-15439375D01*
X59690000Y-15737761D01*
X59490625Y-15439375D01*
X58999418Y-15111161D01*
X58566256Y-15025000D01*
X58273744Y-15025000D01*
X57840582Y-15111161D01*
X57349375Y-15439375D01*
X57150000Y-15737761D01*
X56950625Y-15439375D01*
X56459418Y-15111161D01*
X56026256Y-15025000D01*
X55733744Y-15025000D01*
X55300582Y-15111161D01*
X54809375Y-15439375D01*
X54797184Y-15457619D01*
X54788157Y-15412235D01*
X54647809Y-15202191D01*
X54437765Y-15061843D01*
X54190000Y-15012560D01*
X52490000Y-15012560D01*
X52242235Y-15061843D01*
X52032191Y-15202191D01*
X51891843Y-15412235D01*
X51842560Y-15660000D01*
X49986042Y-15660000D01*
X49838625Y-15439375D01*
X49347418Y-15111161D01*
X48914256Y-15025000D01*
X48621744Y-15025000D01*
X48188582Y-15111161D01*
X47697375Y-15439375D01*
X47498000Y-15737761D01*
X47298625Y-15439375D01*
X46807418Y-15111161D01*
X46374256Y-15025000D01*
X46081744Y-15025000D01*
X45648582Y-15111161D01*
X45157375Y-15439375D01*
X44958000Y-15737761D01*
X44758625Y-15439375D01*
X44267418Y-15111161D01*
X43834256Y-15025000D01*
X43541744Y-15025000D01*
X43108582Y-15111161D01*
X42617375Y-15439375D01*
X42605184Y-15457619D01*
X42596157Y-15412235D01*
X42455809Y-15202191D01*
X42245765Y-15061843D01*
X41998000Y-15012560D01*
X40298000Y-15012560D01*
X40050235Y-15061843D01*
X39840191Y-15202191D01*
X39699843Y-15412235D01*
X39650560Y-15660000D01*
X37794042Y-15660000D01*
X37646625Y-15439375D01*
X37155418Y-15111161D01*
X36722256Y-15025000D01*
X36429744Y-15025000D01*
X35996582Y-15111161D01*
X35505375Y-15439375D01*
X35306000Y-15737761D01*
X35106625Y-15439375D01*
X34615418Y-15111161D01*
X34182256Y-15025000D01*
X33889744Y-15025000D01*
X33456582Y-15111161D01*
X32965375Y-15439375D01*
X32766000Y-15737761D01*
X32566625Y-15439375D01*
X32075418Y-15111161D01*
X31642256Y-15025000D01*
X31349744Y-15025000D01*
X30916582Y-15111161D01*
X30425375Y-15439375D01*
X30413184Y-15457619D01*
X30404157Y-15412235D01*
X30263809Y-15202191D01*
X30053765Y-15061843D01*
X29806000Y-15012560D01*
X28106000Y-15012560D01*
X27858235Y-15061843D01*
X27648191Y-15202191D01*
X27507843Y-15412235D01*
X27458560Y-15660000D01*
X25602042Y-15660000D01*
X25454625Y-15439375D01*
X24963418Y-15111161D01*
X24530256Y-15025000D01*
X24237744Y-15025000D01*
X23804582Y-15111161D01*
X23313375Y-15439375D01*
X23114000Y-15737761D01*
X22914625Y-15439375D01*
X22423418Y-15111161D01*
X21990256Y-15025000D01*
X21697744Y-15025000D01*
X21264582Y-15111161D01*
X20773375Y-15439375D01*
X20574000Y-15737761D01*
X20374625Y-15439375D01*
X19883418Y-15111161D01*
X19450256Y-15025000D01*
X19157744Y-15025000D01*
X18724582Y-15111161D01*
X18233375Y-15439375D01*
X18221184Y-15457619D01*
X18212157Y-15412235D01*
X18071809Y-15202191D01*
X17861765Y-15061843D01*
X17614000Y-15012560D01*
X15914000Y-15012560D01*
X15666235Y-15061843D01*
X15456191Y-15202191D01*
X15315843Y-15412235D01*
X15266560Y-15660000D01*
X15213000Y-15660000D01*
X15213000Y-14959000D01*
X62511000Y-14959000D01*
X62511001Y-52351000D01*
G04 #@! TD*
M02*
