G04 #@! TF.GenerationSoftware,KiCad,Pcbnew,(5.0.0-dirty)*
G04 #@! TF.CreationDate,2019-11-15T19:25:29+09:00*
G04 #@! TF.ProjectId,fake-fan-mk2,66616B652D66616E2D6D6B322E6B6963,rev?*
G04 #@! TF.SameCoordinates,Original*
G04 #@! TF.FileFunction,Copper,L1,Top,Signal*
G04 #@! TF.FilePolarity,Positive*
%FSLAX46Y46*%
G04 Gerber Fmt 4.6, Leading zero omitted, Abs format (unit mm)*
G04 Created by KiCad (PCBNEW (5.0.0-dirty)) date 11/15/19 19:25:29*
%MOMM*%
%LPD*%
G01*
G04 APERTURE LIST*
G04 #@! TA.AperFunction,NonConductor*
%ADD10C,0.200000*%
G04 #@! TD*
G04 #@! TA.AperFunction,Conductor*
%ADD11C,0.100000*%
G04 #@! TD*
G04 #@! TA.AperFunction,SMDPad,CuDef*
%ADD12C,0.875000*%
G04 #@! TD*
G04 #@! TA.AperFunction,SMDPad,CuDef*
%ADD13R,2.000000X2.400000*%
G04 #@! TD*
G04 #@! TA.AperFunction,SMDPad,CuDef*
%ADD14R,1.800000X2.200000*%
G04 #@! TD*
G04 #@! TA.AperFunction,ComponentPad*
%ADD15R,1.700000X1.700000*%
G04 #@! TD*
G04 #@! TA.AperFunction,ComponentPad*
%ADD16O,1.700000X1.700000*%
G04 #@! TD*
G04 #@! TA.AperFunction,SMDPad,CuDef*
%ADD17R,1.600000X3.500000*%
G04 #@! TD*
G04 #@! TA.AperFunction,SMDPad,CuDef*
%ADD18R,0.900000X0.800000*%
G04 #@! TD*
G04 #@! TA.AperFunction,SMDPad,CuDef*
%ADD19R,1.000000X1.000000*%
G04 #@! TD*
G04 #@! TA.AperFunction,SMDPad,CuDef*
%ADD20R,1.000000X1.100000*%
G04 #@! TD*
G04 #@! TA.AperFunction,SMDPad,CuDef*
%ADD21R,1.060000X0.650000*%
G04 #@! TD*
G04 #@! TA.AperFunction,SMDPad,CuDef*
%ADD22R,0.600000X1.200000*%
G04 #@! TD*
G04 #@! TA.AperFunction,SMDPad,CuDef*
%ADD23R,1.200000X0.600000*%
G04 #@! TD*
G04 #@! TA.AperFunction,ViaPad*
%ADD24C,0.800000*%
G04 #@! TD*
G04 #@! TA.AperFunction,Conductor*
%ADD25C,1.500000*%
G04 #@! TD*
G04 #@! TA.AperFunction,Conductor*
%ADD26C,0.250000*%
G04 #@! TD*
G04 #@! TA.AperFunction,Conductor*
%ADD27C,0.500000*%
G04 #@! TD*
G04 #@! TA.AperFunction,Conductor*
%ADD28C,0.750000*%
G04 #@! TD*
G04 #@! TA.AperFunction,Conductor*
%ADD29C,1.000000*%
G04 #@! TD*
G04 #@! TA.AperFunction,Conductor*
%ADD30C,0.254000*%
G04 #@! TD*
G04 APERTURE END LIST*
D10*
X14478000Y-53086000D02*
X14478000Y-14224000D01*
X63246000Y-53086000D02*
X14478000Y-53086000D01*
X63246000Y-14224000D02*
X63246000Y-53086000D01*
X14478000Y-14224000D02*
X63246000Y-14224000D01*
D11*
G04 #@! TO.N,GND*
G04 #@! TO.C,C3*
G36*
X43203691Y-44547053D02*
X43224926Y-44550203D01*
X43245750Y-44555419D01*
X43265962Y-44562651D01*
X43285368Y-44571830D01*
X43303781Y-44582866D01*
X43321024Y-44595654D01*
X43336930Y-44610070D01*
X43351346Y-44625976D01*
X43364134Y-44643219D01*
X43375170Y-44661632D01*
X43384349Y-44681038D01*
X43391581Y-44701250D01*
X43396797Y-44722074D01*
X43399947Y-44743309D01*
X43401000Y-44764750D01*
X43401000Y-45202250D01*
X43399947Y-45223691D01*
X43396797Y-45244926D01*
X43391581Y-45265750D01*
X43384349Y-45285962D01*
X43375170Y-45305368D01*
X43364134Y-45323781D01*
X43351346Y-45341024D01*
X43336930Y-45356930D01*
X43321024Y-45371346D01*
X43303781Y-45384134D01*
X43285368Y-45395170D01*
X43265962Y-45404349D01*
X43245750Y-45411581D01*
X43224926Y-45416797D01*
X43203691Y-45419947D01*
X43182250Y-45421000D01*
X42669750Y-45421000D01*
X42648309Y-45419947D01*
X42627074Y-45416797D01*
X42606250Y-45411581D01*
X42586038Y-45404349D01*
X42566632Y-45395170D01*
X42548219Y-45384134D01*
X42530976Y-45371346D01*
X42515070Y-45356930D01*
X42500654Y-45341024D01*
X42487866Y-45323781D01*
X42476830Y-45305368D01*
X42467651Y-45285962D01*
X42460419Y-45265750D01*
X42455203Y-45244926D01*
X42452053Y-45223691D01*
X42451000Y-45202250D01*
X42451000Y-44764750D01*
X42452053Y-44743309D01*
X42455203Y-44722074D01*
X42460419Y-44701250D01*
X42467651Y-44681038D01*
X42476830Y-44661632D01*
X42487866Y-44643219D01*
X42500654Y-44625976D01*
X42515070Y-44610070D01*
X42530976Y-44595654D01*
X42548219Y-44582866D01*
X42566632Y-44571830D01*
X42586038Y-44562651D01*
X42606250Y-44555419D01*
X42627074Y-44550203D01*
X42648309Y-44547053D01*
X42669750Y-44546000D01*
X43182250Y-44546000D01*
X43203691Y-44547053D01*
X43203691Y-44547053D01*
G37*
D12*
G04 #@! TD*
G04 #@! TO.P,C3,2*
G04 #@! TO.N,GND*
X42926000Y-44983500D03*
D11*
G04 #@! TO.N,Net-(C3-Pad1)*
G04 #@! TO.C,C3*
G36*
X43203691Y-42972053D02*
X43224926Y-42975203D01*
X43245750Y-42980419D01*
X43265962Y-42987651D01*
X43285368Y-42996830D01*
X43303781Y-43007866D01*
X43321024Y-43020654D01*
X43336930Y-43035070D01*
X43351346Y-43050976D01*
X43364134Y-43068219D01*
X43375170Y-43086632D01*
X43384349Y-43106038D01*
X43391581Y-43126250D01*
X43396797Y-43147074D01*
X43399947Y-43168309D01*
X43401000Y-43189750D01*
X43401000Y-43627250D01*
X43399947Y-43648691D01*
X43396797Y-43669926D01*
X43391581Y-43690750D01*
X43384349Y-43710962D01*
X43375170Y-43730368D01*
X43364134Y-43748781D01*
X43351346Y-43766024D01*
X43336930Y-43781930D01*
X43321024Y-43796346D01*
X43303781Y-43809134D01*
X43285368Y-43820170D01*
X43265962Y-43829349D01*
X43245750Y-43836581D01*
X43224926Y-43841797D01*
X43203691Y-43844947D01*
X43182250Y-43846000D01*
X42669750Y-43846000D01*
X42648309Y-43844947D01*
X42627074Y-43841797D01*
X42606250Y-43836581D01*
X42586038Y-43829349D01*
X42566632Y-43820170D01*
X42548219Y-43809134D01*
X42530976Y-43796346D01*
X42515070Y-43781930D01*
X42500654Y-43766024D01*
X42487866Y-43748781D01*
X42476830Y-43730368D01*
X42467651Y-43710962D01*
X42460419Y-43690750D01*
X42455203Y-43669926D01*
X42452053Y-43648691D01*
X42451000Y-43627250D01*
X42451000Y-43189750D01*
X42452053Y-43168309D01*
X42455203Y-43147074D01*
X42460419Y-43126250D01*
X42467651Y-43106038D01*
X42476830Y-43086632D01*
X42487866Y-43068219D01*
X42500654Y-43050976D01*
X42515070Y-43035070D01*
X42530976Y-43020654D01*
X42548219Y-43007866D01*
X42566632Y-42996830D01*
X42586038Y-42987651D01*
X42606250Y-42980419D01*
X42627074Y-42975203D01*
X42648309Y-42972053D01*
X42669750Y-42971000D01*
X43182250Y-42971000D01*
X43203691Y-42972053D01*
X43203691Y-42972053D01*
G37*
D12*
G04 #@! TD*
G04 #@! TO.P,C3,1*
G04 #@! TO.N,Net-(C3-Pad1)*
X42926000Y-43408500D03*
D13*
G04 #@! TO.P,Y1,1*
G04 #@! TO.N,Net-(C3-Pad1)*
X40712000Y-43688000D03*
G04 #@! TO.P,Y1,2*
G04 #@! TO.N,Net-(C2-Pad1)*
X37012000Y-43688000D03*
G04 #@! TD*
D11*
G04 #@! TO.N,GND*
G04 #@! TO.C,C1*
G36*
X23137691Y-38451053D02*
X23158926Y-38454203D01*
X23179750Y-38459419D01*
X23199962Y-38466651D01*
X23219368Y-38475830D01*
X23237781Y-38486866D01*
X23255024Y-38499654D01*
X23270930Y-38514070D01*
X23285346Y-38529976D01*
X23298134Y-38547219D01*
X23309170Y-38565632D01*
X23318349Y-38585038D01*
X23325581Y-38605250D01*
X23330797Y-38626074D01*
X23333947Y-38647309D01*
X23335000Y-38668750D01*
X23335000Y-39106250D01*
X23333947Y-39127691D01*
X23330797Y-39148926D01*
X23325581Y-39169750D01*
X23318349Y-39189962D01*
X23309170Y-39209368D01*
X23298134Y-39227781D01*
X23285346Y-39245024D01*
X23270930Y-39260930D01*
X23255024Y-39275346D01*
X23237781Y-39288134D01*
X23219368Y-39299170D01*
X23199962Y-39308349D01*
X23179750Y-39315581D01*
X23158926Y-39320797D01*
X23137691Y-39323947D01*
X23116250Y-39325000D01*
X22603750Y-39325000D01*
X22582309Y-39323947D01*
X22561074Y-39320797D01*
X22540250Y-39315581D01*
X22520038Y-39308349D01*
X22500632Y-39299170D01*
X22482219Y-39288134D01*
X22464976Y-39275346D01*
X22449070Y-39260930D01*
X22434654Y-39245024D01*
X22421866Y-39227781D01*
X22410830Y-39209368D01*
X22401651Y-39189962D01*
X22394419Y-39169750D01*
X22389203Y-39148926D01*
X22386053Y-39127691D01*
X22385000Y-39106250D01*
X22385000Y-38668750D01*
X22386053Y-38647309D01*
X22389203Y-38626074D01*
X22394419Y-38605250D01*
X22401651Y-38585038D01*
X22410830Y-38565632D01*
X22421866Y-38547219D01*
X22434654Y-38529976D01*
X22449070Y-38514070D01*
X22464976Y-38499654D01*
X22482219Y-38486866D01*
X22500632Y-38475830D01*
X22520038Y-38466651D01*
X22540250Y-38459419D01*
X22561074Y-38454203D01*
X22582309Y-38451053D01*
X22603750Y-38450000D01*
X23116250Y-38450000D01*
X23137691Y-38451053D01*
X23137691Y-38451053D01*
G37*
D12*
G04 #@! TD*
G04 #@! TO.P,C1,2*
G04 #@! TO.N,GND*
X22860000Y-38887500D03*
D11*
G04 #@! TO.N,+12V*
G04 #@! TO.C,C1*
G36*
X23137691Y-36876053D02*
X23158926Y-36879203D01*
X23179750Y-36884419D01*
X23199962Y-36891651D01*
X23219368Y-36900830D01*
X23237781Y-36911866D01*
X23255024Y-36924654D01*
X23270930Y-36939070D01*
X23285346Y-36954976D01*
X23298134Y-36972219D01*
X23309170Y-36990632D01*
X23318349Y-37010038D01*
X23325581Y-37030250D01*
X23330797Y-37051074D01*
X23333947Y-37072309D01*
X23335000Y-37093750D01*
X23335000Y-37531250D01*
X23333947Y-37552691D01*
X23330797Y-37573926D01*
X23325581Y-37594750D01*
X23318349Y-37614962D01*
X23309170Y-37634368D01*
X23298134Y-37652781D01*
X23285346Y-37670024D01*
X23270930Y-37685930D01*
X23255024Y-37700346D01*
X23237781Y-37713134D01*
X23219368Y-37724170D01*
X23199962Y-37733349D01*
X23179750Y-37740581D01*
X23158926Y-37745797D01*
X23137691Y-37748947D01*
X23116250Y-37750000D01*
X22603750Y-37750000D01*
X22582309Y-37748947D01*
X22561074Y-37745797D01*
X22540250Y-37740581D01*
X22520038Y-37733349D01*
X22500632Y-37724170D01*
X22482219Y-37713134D01*
X22464976Y-37700346D01*
X22449070Y-37685930D01*
X22434654Y-37670024D01*
X22421866Y-37652781D01*
X22410830Y-37634368D01*
X22401651Y-37614962D01*
X22394419Y-37594750D01*
X22389203Y-37573926D01*
X22386053Y-37552691D01*
X22385000Y-37531250D01*
X22385000Y-37093750D01*
X22386053Y-37072309D01*
X22389203Y-37051074D01*
X22394419Y-37030250D01*
X22401651Y-37010038D01*
X22410830Y-36990632D01*
X22421866Y-36972219D01*
X22434654Y-36954976D01*
X22449070Y-36939070D01*
X22464976Y-36924654D01*
X22482219Y-36911866D01*
X22500632Y-36900830D01*
X22520038Y-36891651D01*
X22540250Y-36884419D01*
X22561074Y-36879203D01*
X22582309Y-36876053D01*
X22603750Y-36875000D01*
X23116250Y-36875000D01*
X23137691Y-36876053D01*
X23137691Y-36876053D01*
G37*
D12*
G04 #@! TD*
G04 #@! TO.P,C1,1*
G04 #@! TO.N,+12V*
X22860000Y-37312500D03*
D11*
G04 #@! TO.N,Net-(C2-Pad1)*
G04 #@! TO.C,C2*
G36*
X35075691Y-42972053D02*
X35096926Y-42975203D01*
X35117750Y-42980419D01*
X35137962Y-42987651D01*
X35157368Y-42996830D01*
X35175781Y-43007866D01*
X35193024Y-43020654D01*
X35208930Y-43035070D01*
X35223346Y-43050976D01*
X35236134Y-43068219D01*
X35247170Y-43086632D01*
X35256349Y-43106038D01*
X35263581Y-43126250D01*
X35268797Y-43147074D01*
X35271947Y-43168309D01*
X35273000Y-43189750D01*
X35273000Y-43627250D01*
X35271947Y-43648691D01*
X35268797Y-43669926D01*
X35263581Y-43690750D01*
X35256349Y-43710962D01*
X35247170Y-43730368D01*
X35236134Y-43748781D01*
X35223346Y-43766024D01*
X35208930Y-43781930D01*
X35193024Y-43796346D01*
X35175781Y-43809134D01*
X35157368Y-43820170D01*
X35137962Y-43829349D01*
X35117750Y-43836581D01*
X35096926Y-43841797D01*
X35075691Y-43844947D01*
X35054250Y-43846000D01*
X34541750Y-43846000D01*
X34520309Y-43844947D01*
X34499074Y-43841797D01*
X34478250Y-43836581D01*
X34458038Y-43829349D01*
X34438632Y-43820170D01*
X34420219Y-43809134D01*
X34402976Y-43796346D01*
X34387070Y-43781930D01*
X34372654Y-43766024D01*
X34359866Y-43748781D01*
X34348830Y-43730368D01*
X34339651Y-43710962D01*
X34332419Y-43690750D01*
X34327203Y-43669926D01*
X34324053Y-43648691D01*
X34323000Y-43627250D01*
X34323000Y-43189750D01*
X34324053Y-43168309D01*
X34327203Y-43147074D01*
X34332419Y-43126250D01*
X34339651Y-43106038D01*
X34348830Y-43086632D01*
X34359866Y-43068219D01*
X34372654Y-43050976D01*
X34387070Y-43035070D01*
X34402976Y-43020654D01*
X34420219Y-43007866D01*
X34438632Y-42996830D01*
X34458038Y-42987651D01*
X34478250Y-42980419D01*
X34499074Y-42975203D01*
X34520309Y-42972053D01*
X34541750Y-42971000D01*
X35054250Y-42971000D01*
X35075691Y-42972053D01*
X35075691Y-42972053D01*
G37*
D12*
G04 #@! TD*
G04 #@! TO.P,C2,1*
G04 #@! TO.N,Net-(C2-Pad1)*
X34798000Y-43408500D03*
D11*
G04 #@! TO.N,GND*
G04 #@! TO.C,C2*
G36*
X35075691Y-44547053D02*
X35096926Y-44550203D01*
X35117750Y-44555419D01*
X35137962Y-44562651D01*
X35157368Y-44571830D01*
X35175781Y-44582866D01*
X35193024Y-44595654D01*
X35208930Y-44610070D01*
X35223346Y-44625976D01*
X35236134Y-44643219D01*
X35247170Y-44661632D01*
X35256349Y-44681038D01*
X35263581Y-44701250D01*
X35268797Y-44722074D01*
X35271947Y-44743309D01*
X35273000Y-44764750D01*
X35273000Y-45202250D01*
X35271947Y-45223691D01*
X35268797Y-45244926D01*
X35263581Y-45265750D01*
X35256349Y-45285962D01*
X35247170Y-45305368D01*
X35236134Y-45323781D01*
X35223346Y-45341024D01*
X35208930Y-45356930D01*
X35193024Y-45371346D01*
X35175781Y-45384134D01*
X35157368Y-45395170D01*
X35137962Y-45404349D01*
X35117750Y-45411581D01*
X35096926Y-45416797D01*
X35075691Y-45419947D01*
X35054250Y-45421000D01*
X34541750Y-45421000D01*
X34520309Y-45419947D01*
X34499074Y-45416797D01*
X34478250Y-45411581D01*
X34458038Y-45404349D01*
X34438632Y-45395170D01*
X34420219Y-45384134D01*
X34402976Y-45371346D01*
X34387070Y-45356930D01*
X34372654Y-45341024D01*
X34359866Y-45323781D01*
X34348830Y-45305368D01*
X34339651Y-45285962D01*
X34332419Y-45265750D01*
X34327203Y-45244926D01*
X34324053Y-45223691D01*
X34323000Y-45202250D01*
X34323000Y-44764750D01*
X34324053Y-44743309D01*
X34327203Y-44722074D01*
X34332419Y-44701250D01*
X34339651Y-44681038D01*
X34348830Y-44661632D01*
X34359866Y-44643219D01*
X34372654Y-44625976D01*
X34387070Y-44610070D01*
X34402976Y-44595654D01*
X34420219Y-44582866D01*
X34438632Y-44571830D01*
X34458038Y-44562651D01*
X34478250Y-44555419D01*
X34499074Y-44550203D01*
X34520309Y-44547053D01*
X34541750Y-44546000D01*
X35054250Y-44546000D01*
X35075691Y-44547053D01*
X35075691Y-44547053D01*
G37*
D12*
G04 #@! TD*
G04 #@! TO.P,C2,2*
G04 #@! TO.N,GND*
X34798000Y-44983500D03*
D11*
G04 #@! TO.N,Net-(C4-Pad2)*
G04 #@! TO.C,C4*
G36*
X26681691Y-39404053D02*
X26702926Y-39407203D01*
X26723750Y-39412419D01*
X26743962Y-39419651D01*
X26763368Y-39428830D01*
X26781781Y-39439866D01*
X26799024Y-39452654D01*
X26814930Y-39467070D01*
X26829346Y-39482976D01*
X26842134Y-39500219D01*
X26853170Y-39518632D01*
X26862349Y-39538038D01*
X26869581Y-39558250D01*
X26874797Y-39579074D01*
X26877947Y-39600309D01*
X26879000Y-39621750D01*
X26879000Y-40134250D01*
X26877947Y-40155691D01*
X26874797Y-40176926D01*
X26869581Y-40197750D01*
X26862349Y-40217962D01*
X26853170Y-40237368D01*
X26842134Y-40255781D01*
X26829346Y-40273024D01*
X26814930Y-40288930D01*
X26799024Y-40303346D01*
X26781781Y-40316134D01*
X26763368Y-40327170D01*
X26743962Y-40336349D01*
X26723750Y-40343581D01*
X26702926Y-40348797D01*
X26681691Y-40351947D01*
X26660250Y-40353000D01*
X26222750Y-40353000D01*
X26201309Y-40351947D01*
X26180074Y-40348797D01*
X26159250Y-40343581D01*
X26139038Y-40336349D01*
X26119632Y-40327170D01*
X26101219Y-40316134D01*
X26083976Y-40303346D01*
X26068070Y-40288930D01*
X26053654Y-40273024D01*
X26040866Y-40255781D01*
X26029830Y-40237368D01*
X26020651Y-40217962D01*
X26013419Y-40197750D01*
X26008203Y-40176926D01*
X26005053Y-40155691D01*
X26004000Y-40134250D01*
X26004000Y-39621750D01*
X26005053Y-39600309D01*
X26008203Y-39579074D01*
X26013419Y-39558250D01*
X26020651Y-39538038D01*
X26029830Y-39518632D01*
X26040866Y-39500219D01*
X26053654Y-39482976D01*
X26068070Y-39467070D01*
X26083976Y-39452654D01*
X26101219Y-39439866D01*
X26119632Y-39428830D01*
X26139038Y-39419651D01*
X26159250Y-39412419D01*
X26180074Y-39407203D01*
X26201309Y-39404053D01*
X26222750Y-39403000D01*
X26660250Y-39403000D01*
X26681691Y-39404053D01*
X26681691Y-39404053D01*
G37*
D12*
G04 #@! TD*
G04 #@! TO.P,C4,2*
G04 #@! TO.N,Net-(C4-Pad2)*
X26441500Y-39878000D03*
D11*
G04 #@! TO.N,Net-(C4-Pad1)*
G04 #@! TO.C,C4*
G36*
X25106691Y-39404053D02*
X25127926Y-39407203D01*
X25148750Y-39412419D01*
X25168962Y-39419651D01*
X25188368Y-39428830D01*
X25206781Y-39439866D01*
X25224024Y-39452654D01*
X25239930Y-39467070D01*
X25254346Y-39482976D01*
X25267134Y-39500219D01*
X25278170Y-39518632D01*
X25287349Y-39538038D01*
X25294581Y-39558250D01*
X25299797Y-39579074D01*
X25302947Y-39600309D01*
X25304000Y-39621750D01*
X25304000Y-40134250D01*
X25302947Y-40155691D01*
X25299797Y-40176926D01*
X25294581Y-40197750D01*
X25287349Y-40217962D01*
X25278170Y-40237368D01*
X25267134Y-40255781D01*
X25254346Y-40273024D01*
X25239930Y-40288930D01*
X25224024Y-40303346D01*
X25206781Y-40316134D01*
X25188368Y-40327170D01*
X25168962Y-40336349D01*
X25148750Y-40343581D01*
X25127926Y-40348797D01*
X25106691Y-40351947D01*
X25085250Y-40353000D01*
X24647750Y-40353000D01*
X24626309Y-40351947D01*
X24605074Y-40348797D01*
X24584250Y-40343581D01*
X24564038Y-40336349D01*
X24544632Y-40327170D01*
X24526219Y-40316134D01*
X24508976Y-40303346D01*
X24493070Y-40288930D01*
X24478654Y-40273024D01*
X24465866Y-40255781D01*
X24454830Y-40237368D01*
X24445651Y-40217962D01*
X24438419Y-40197750D01*
X24433203Y-40176926D01*
X24430053Y-40155691D01*
X24429000Y-40134250D01*
X24429000Y-39621750D01*
X24430053Y-39600309D01*
X24433203Y-39579074D01*
X24438419Y-39558250D01*
X24445651Y-39538038D01*
X24454830Y-39518632D01*
X24465866Y-39500219D01*
X24478654Y-39482976D01*
X24493070Y-39467070D01*
X24508976Y-39452654D01*
X24526219Y-39439866D01*
X24544632Y-39428830D01*
X24564038Y-39419651D01*
X24584250Y-39412419D01*
X24605074Y-39407203D01*
X24626309Y-39404053D01*
X24647750Y-39403000D01*
X25085250Y-39403000D01*
X25106691Y-39404053D01*
X25106691Y-39404053D01*
G37*
D12*
G04 #@! TD*
G04 #@! TO.P,C4,1*
G04 #@! TO.N,Net-(C4-Pad1)*
X24866500Y-39878000D03*
D11*
G04 #@! TO.N,+3V3*
G04 #@! TO.C,C5*
G36*
X28662691Y-45754053D02*
X28683926Y-45757203D01*
X28704750Y-45762419D01*
X28724962Y-45769651D01*
X28744368Y-45778830D01*
X28762781Y-45789866D01*
X28780024Y-45802654D01*
X28795930Y-45817070D01*
X28810346Y-45832976D01*
X28823134Y-45850219D01*
X28834170Y-45868632D01*
X28843349Y-45888038D01*
X28850581Y-45908250D01*
X28855797Y-45929074D01*
X28858947Y-45950309D01*
X28860000Y-45971750D01*
X28860000Y-46484250D01*
X28858947Y-46505691D01*
X28855797Y-46526926D01*
X28850581Y-46547750D01*
X28843349Y-46567962D01*
X28834170Y-46587368D01*
X28823134Y-46605781D01*
X28810346Y-46623024D01*
X28795930Y-46638930D01*
X28780024Y-46653346D01*
X28762781Y-46666134D01*
X28744368Y-46677170D01*
X28724962Y-46686349D01*
X28704750Y-46693581D01*
X28683926Y-46698797D01*
X28662691Y-46701947D01*
X28641250Y-46703000D01*
X28203750Y-46703000D01*
X28182309Y-46701947D01*
X28161074Y-46698797D01*
X28140250Y-46693581D01*
X28120038Y-46686349D01*
X28100632Y-46677170D01*
X28082219Y-46666134D01*
X28064976Y-46653346D01*
X28049070Y-46638930D01*
X28034654Y-46623024D01*
X28021866Y-46605781D01*
X28010830Y-46587368D01*
X28001651Y-46567962D01*
X27994419Y-46547750D01*
X27989203Y-46526926D01*
X27986053Y-46505691D01*
X27985000Y-46484250D01*
X27985000Y-45971750D01*
X27986053Y-45950309D01*
X27989203Y-45929074D01*
X27994419Y-45908250D01*
X28001651Y-45888038D01*
X28010830Y-45868632D01*
X28021866Y-45850219D01*
X28034654Y-45832976D01*
X28049070Y-45817070D01*
X28064976Y-45802654D01*
X28082219Y-45789866D01*
X28100632Y-45778830D01*
X28120038Y-45769651D01*
X28140250Y-45762419D01*
X28161074Y-45757203D01*
X28182309Y-45754053D01*
X28203750Y-45753000D01*
X28641250Y-45753000D01*
X28662691Y-45754053D01*
X28662691Y-45754053D01*
G37*
D12*
G04 #@! TD*
G04 #@! TO.P,C5,1*
G04 #@! TO.N,+3V3*
X28422500Y-46228000D03*
D11*
G04 #@! TO.N,GND*
G04 #@! TO.C,C5*
G36*
X30237691Y-45754053D02*
X30258926Y-45757203D01*
X30279750Y-45762419D01*
X30299962Y-45769651D01*
X30319368Y-45778830D01*
X30337781Y-45789866D01*
X30355024Y-45802654D01*
X30370930Y-45817070D01*
X30385346Y-45832976D01*
X30398134Y-45850219D01*
X30409170Y-45868632D01*
X30418349Y-45888038D01*
X30425581Y-45908250D01*
X30430797Y-45929074D01*
X30433947Y-45950309D01*
X30435000Y-45971750D01*
X30435000Y-46484250D01*
X30433947Y-46505691D01*
X30430797Y-46526926D01*
X30425581Y-46547750D01*
X30418349Y-46567962D01*
X30409170Y-46587368D01*
X30398134Y-46605781D01*
X30385346Y-46623024D01*
X30370930Y-46638930D01*
X30355024Y-46653346D01*
X30337781Y-46666134D01*
X30319368Y-46677170D01*
X30299962Y-46686349D01*
X30279750Y-46693581D01*
X30258926Y-46698797D01*
X30237691Y-46701947D01*
X30216250Y-46703000D01*
X29778750Y-46703000D01*
X29757309Y-46701947D01*
X29736074Y-46698797D01*
X29715250Y-46693581D01*
X29695038Y-46686349D01*
X29675632Y-46677170D01*
X29657219Y-46666134D01*
X29639976Y-46653346D01*
X29624070Y-46638930D01*
X29609654Y-46623024D01*
X29596866Y-46605781D01*
X29585830Y-46587368D01*
X29576651Y-46567962D01*
X29569419Y-46547750D01*
X29564203Y-46526926D01*
X29561053Y-46505691D01*
X29560000Y-46484250D01*
X29560000Y-45971750D01*
X29561053Y-45950309D01*
X29564203Y-45929074D01*
X29569419Y-45908250D01*
X29576651Y-45888038D01*
X29585830Y-45868632D01*
X29596866Y-45850219D01*
X29609654Y-45832976D01*
X29624070Y-45817070D01*
X29639976Y-45802654D01*
X29657219Y-45789866D01*
X29675632Y-45778830D01*
X29695038Y-45769651D01*
X29715250Y-45762419D01*
X29736074Y-45757203D01*
X29757309Y-45754053D01*
X29778750Y-45753000D01*
X30216250Y-45753000D01*
X30237691Y-45754053D01*
X30237691Y-45754053D01*
G37*
D12*
G04 #@! TD*
G04 #@! TO.P,C5,2*
G04 #@! TO.N,GND*
X29997500Y-46228000D03*
D11*
G04 #@! TO.N,+3V3*
G04 #@! TO.C,C6*
G36*
X37578191Y-39912053D02*
X37599426Y-39915203D01*
X37620250Y-39920419D01*
X37640462Y-39927651D01*
X37659868Y-39936830D01*
X37678281Y-39947866D01*
X37695524Y-39960654D01*
X37711430Y-39975070D01*
X37725846Y-39990976D01*
X37738634Y-40008219D01*
X37749670Y-40026632D01*
X37758849Y-40046038D01*
X37766081Y-40066250D01*
X37771297Y-40087074D01*
X37774447Y-40108309D01*
X37775500Y-40129750D01*
X37775500Y-40642250D01*
X37774447Y-40663691D01*
X37771297Y-40684926D01*
X37766081Y-40705750D01*
X37758849Y-40725962D01*
X37749670Y-40745368D01*
X37738634Y-40763781D01*
X37725846Y-40781024D01*
X37711430Y-40796930D01*
X37695524Y-40811346D01*
X37678281Y-40824134D01*
X37659868Y-40835170D01*
X37640462Y-40844349D01*
X37620250Y-40851581D01*
X37599426Y-40856797D01*
X37578191Y-40859947D01*
X37556750Y-40861000D01*
X37119250Y-40861000D01*
X37097809Y-40859947D01*
X37076574Y-40856797D01*
X37055750Y-40851581D01*
X37035538Y-40844349D01*
X37016132Y-40835170D01*
X36997719Y-40824134D01*
X36980476Y-40811346D01*
X36964570Y-40796930D01*
X36950154Y-40781024D01*
X36937366Y-40763781D01*
X36926330Y-40745368D01*
X36917151Y-40725962D01*
X36909919Y-40705750D01*
X36904703Y-40684926D01*
X36901553Y-40663691D01*
X36900500Y-40642250D01*
X36900500Y-40129750D01*
X36901553Y-40108309D01*
X36904703Y-40087074D01*
X36909919Y-40066250D01*
X36917151Y-40046038D01*
X36926330Y-40026632D01*
X36937366Y-40008219D01*
X36950154Y-39990976D01*
X36964570Y-39975070D01*
X36980476Y-39960654D01*
X36997719Y-39947866D01*
X37016132Y-39936830D01*
X37035538Y-39927651D01*
X37055750Y-39920419D01*
X37076574Y-39915203D01*
X37097809Y-39912053D01*
X37119250Y-39911000D01*
X37556750Y-39911000D01*
X37578191Y-39912053D01*
X37578191Y-39912053D01*
G37*
D12*
G04 #@! TD*
G04 #@! TO.P,C6,2*
G04 #@! TO.N,+3V3*
X37338000Y-40386000D03*
D11*
G04 #@! TO.N,GND*
G04 #@! TO.C,C6*
G36*
X36003191Y-39912053D02*
X36024426Y-39915203D01*
X36045250Y-39920419D01*
X36065462Y-39927651D01*
X36084868Y-39936830D01*
X36103281Y-39947866D01*
X36120524Y-39960654D01*
X36136430Y-39975070D01*
X36150846Y-39990976D01*
X36163634Y-40008219D01*
X36174670Y-40026632D01*
X36183849Y-40046038D01*
X36191081Y-40066250D01*
X36196297Y-40087074D01*
X36199447Y-40108309D01*
X36200500Y-40129750D01*
X36200500Y-40642250D01*
X36199447Y-40663691D01*
X36196297Y-40684926D01*
X36191081Y-40705750D01*
X36183849Y-40725962D01*
X36174670Y-40745368D01*
X36163634Y-40763781D01*
X36150846Y-40781024D01*
X36136430Y-40796930D01*
X36120524Y-40811346D01*
X36103281Y-40824134D01*
X36084868Y-40835170D01*
X36065462Y-40844349D01*
X36045250Y-40851581D01*
X36024426Y-40856797D01*
X36003191Y-40859947D01*
X35981750Y-40861000D01*
X35544250Y-40861000D01*
X35522809Y-40859947D01*
X35501574Y-40856797D01*
X35480750Y-40851581D01*
X35460538Y-40844349D01*
X35441132Y-40835170D01*
X35422719Y-40824134D01*
X35405476Y-40811346D01*
X35389570Y-40796930D01*
X35375154Y-40781024D01*
X35362366Y-40763781D01*
X35351330Y-40745368D01*
X35342151Y-40725962D01*
X35334919Y-40705750D01*
X35329703Y-40684926D01*
X35326553Y-40663691D01*
X35325500Y-40642250D01*
X35325500Y-40129750D01*
X35326553Y-40108309D01*
X35329703Y-40087074D01*
X35334919Y-40066250D01*
X35342151Y-40046038D01*
X35351330Y-40026632D01*
X35362366Y-40008219D01*
X35375154Y-39990976D01*
X35389570Y-39975070D01*
X35405476Y-39960654D01*
X35422719Y-39947866D01*
X35441132Y-39936830D01*
X35460538Y-39927651D01*
X35480750Y-39920419D01*
X35501574Y-39915203D01*
X35522809Y-39912053D01*
X35544250Y-39911000D01*
X35981750Y-39911000D01*
X36003191Y-39912053D01*
X36003191Y-39912053D01*
G37*
D12*
G04 #@! TD*
G04 #@! TO.P,C6,1*
G04 #@! TO.N,GND*
X35763000Y-40386000D03*
D11*
G04 #@! TO.N,GND*
G04 #@! TO.C,C7*
G36*
X45997691Y-43023053D02*
X46018926Y-43026203D01*
X46039750Y-43031419D01*
X46059962Y-43038651D01*
X46079368Y-43047830D01*
X46097781Y-43058866D01*
X46115024Y-43071654D01*
X46130930Y-43086070D01*
X46145346Y-43101976D01*
X46158134Y-43119219D01*
X46169170Y-43137632D01*
X46178349Y-43157038D01*
X46185581Y-43177250D01*
X46190797Y-43198074D01*
X46193947Y-43219309D01*
X46195000Y-43240750D01*
X46195000Y-43678250D01*
X46193947Y-43699691D01*
X46190797Y-43720926D01*
X46185581Y-43741750D01*
X46178349Y-43761962D01*
X46169170Y-43781368D01*
X46158134Y-43799781D01*
X46145346Y-43817024D01*
X46130930Y-43832930D01*
X46115024Y-43847346D01*
X46097781Y-43860134D01*
X46079368Y-43871170D01*
X46059962Y-43880349D01*
X46039750Y-43887581D01*
X46018926Y-43892797D01*
X45997691Y-43895947D01*
X45976250Y-43897000D01*
X45463750Y-43897000D01*
X45442309Y-43895947D01*
X45421074Y-43892797D01*
X45400250Y-43887581D01*
X45380038Y-43880349D01*
X45360632Y-43871170D01*
X45342219Y-43860134D01*
X45324976Y-43847346D01*
X45309070Y-43832930D01*
X45294654Y-43817024D01*
X45281866Y-43799781D01*
X45270830Y-43781368D01*
X45261651Y-43761962D01*
X45254419Y-43741750D01*
X45249203Y-43720926D01*
X45246053Y-43699691D01*
X45245000Y-43678250D01*
X45245000Y-43240750D01*
X45246053Y-43219309D01*
X45249203Y-43198074D01*
X45254419Y-43177250D01*
X45261651Y-43157038D01*
X45270830Y-43137632D01*
X45281866Y-43119219D01*
X45294654Y-43101976D01*
X45309070Y-43086070D01*
X45324976Y-43071654D01*
X45342219Y-43058866D01*
X45360632Y-43047830D01*
X45380038Y-43038651D01*
X45400250Y-43031419D01*
X45421074Y-43026203D01*
X45442309Y-43023053D01*
X45463750Y-43022000D01*
X45976250Y-43022000D01*
X45997691Y-43023053D01*
X45997691Y-43023053D01*
G37*
D12*
G04 #@! TD*
G04 #@! TO.P,C7,1*
G04 #@! TO.N,GND*
X45720000Y-43459500D03*
D11*
G04 #@! TO.N,+3V3*
G04 #@! TO.C,C7*
G36*
X45997691Y-41448053D02*
X46018926Y-41451203D01*
X46039750Y-41456419D01*
X46059962Y-41463651D01*
X46079368Y-41472830D01*
X46097781Y-41483866D01*
X46115024Y-41496654D01*
X46130930Y-41511070D01*
X46145346Y-41526976D01*
X46158134Y-41544219D01*
X46169170Y-41562632D01*
X46178349Y-41582038D01*
X46185581Y-41602250D01*
X46190797Y-41623074D01*
X46193947Y-41644309D01*
X46195000Y-41665750D01*
X46195000Y-42103250D01*
X46193947Y-42124691D01*
X46190797Y-42145926D01*
X46185581Y-42166750D01*
X46178349Y-42186962D01*
X46169170Y-42206368D01*
X46158134Y-42224781D01*
X46145346Y-42242024D01*
X46130930Y-42257930D01*
X46115024Y-42272346D01*
X46097781Y-42285134D01*
X46079368Y-42296170D01*
X46059962Y-42305349D01*
X46039750Y-42312581D01*
X46018926Y-42317797D01*
X45997691Y-42320947D01*
X45976250Y-42322000D01*
X45463750Y-42322000D01*
X45442309Y-42320947D01*
X45421074Y-42317797D01*
X45400250Y-42312581D01*
X45380038Y-42305349D01*
X45360632Y-42296170D01*
X45342219Y-42285134D01*
X45324976Y-42272346D01*
X45309070Y-42257930D01*
X45294654Y-42242024D01*
X45281866Y-42224781D01*
X45270830Y-42206368D01*
X45261651Y-42186962D01*
X45254419Y-42166750D01*
X45249203Y-42145926D01*
X45246053Y-42124691D01*
X45245000Y-42103250D01*
X45245000Y-41665750D01*
X45246053Y-41644309D01*
X45249203Y-41623074D01*
X45254419Y-41602250D01*
X45261651Y-41582038D01*
X45270830Y-41562632D01*
X45281866Y-41544219D01*
X45294654Y-41526976D01*
X45309070Y-41511070D01*
X45324976Y-41496654D01*
X45342219Y-41483866D01*
X45360632Y-41472830D01*
X45380038Y-41463651D01*
X45400250Y-41456419D01*
X45421074Y-41451203D01*
X45442309Y-41448053D01*
X45463750Y-41447000D01*
X45976250Y-41447000D01*
X45997691Y-41448053D01*
X45997691Y-41448053D01*
G37*
D12*
G04 #@! TD*
G04 #@! TO.P,C7,2*
G04 #@! TO.N,+3V3*
X45720000Y-41884500D03*
D11*
G04 #@! TO.N,GND*
G04 #@! TO.C,C8*
G36*
X46759691Y-30348553D02*
X46780926Y-30351703D01*
X46801750Y-30356919D01*
X46821962Y-30364151D01*
X46841368Y-30373330D01*
X46859781Y-30384366D01*
X46877024Y-30397154D01*
X46892930Y-30411570D01*
X46907346Y-30427476D01*
X46920134Y-30444719D01*
X46931170Y-30463132D01*
X46940349Y-30482538D01*
X46947581Y-30502750D01*
X46952797Y-30523574D01*
X46955947Y-30544809D01*
X46957000Y-30566250D01*
X46957000Y-31003750D01*
X46955947Y-31025191D01*
X46952797Y-31046426D01*
X46947581Y-31067250D01*
X46940349Y-31087462D01*
X46931170Y-31106868D01*
X46920134Y-31125281D01*
X46907346Y-31142524D01*
X46892930Y-31158430D01*
X46877024Y-31172846D01*
X46859781Y-31185634D01*
X46841368Y-31196670D01*
X46821962Y-31205849D01*
X46801750Y-31213081D01*
X46780926Y-31218297D01*
X46759691Y-31221447D01*
X46738250Y-31222500D01*
X46225750Y-31222500D01*
X46204309Y-31221447D01*
X46183074Y-31218297D01*
X46162250Y-31213081D01*
X46142038Y-31205849D01*
X46122632Y-31196670D01*
X46104219Y-31185634D01*
X46086976Y-31172846D01*
X46071070Y-31158430D01*
X46056654Y-31142524D01*
X46043866Y-31125281D01*
X46032830Y-31106868D01*
X46023651Y-31087462D01*
X46016419Y-31067250D01*
X46011203Y-31046426D01*
X46008053Y-31025191D01*
X46007000Y-31003750D01*
X46007000Y-30566250D01*
X46008053Y-30544809D01*
X46011203Y-30523574D01*
X46016419Y-30502750D01*
X46023651Y-30482538D01*
X46032830Y-30463132D01*
X46043866Y-30444719D01*
X46056654Y-30427476D01*
X46071070Y-30411570D01*
X46086976Y-30397154D01*
X46104219Y-30384366D01*
X46122632Y-30373330D01*
X46142038Y-30364151D01*
X46162250Y-30356919D01*
X46183074Y-30351703D01*
X46204309Y-30348553D01*
X46225750Y-30347500D01*
X46738250Y-30347500D01*
X46759691Y-30348553D01*
X46759691Y-30348553D01*
G37*
D12*
G04 #@! TD*
G04 #@! TO.P,C8,1*
G04 #@! TO.N,GND*
X46482000Y-30785000D03*
D11*
G04 #@! TO.N,+3V3*
G04 #@! TO.C,C8*
G36*
X46759691Y-28773553D02*
X46780926Y-28776703D01*
X46801750Y-28781919D01*
X46821962Y-28789151D01*
X46841368Y-28798330D01*
X46859781Y-28809366D01*
X46877024Y-28822154D01*
X46892930Y-28836570D01*
X46907346Y-28852476D01*
X46920134Y-28869719D01*
X46931170Y-28888132D01*
X46940349Y-28907538D01*
X46947581Y-28927750D01*
X46952797Y-28948574D01*
X46955947Y-28969809D01*
X46957000Y-28991250D01*
X46957000Y-29428750D01*
X46955947Y-29450191D01*
X46952797Y-29471426D01*
X46947581Y-29492250D01*
X46940349Y-29512462D01*
X46931170Y-29531868D01*
X46920134Y-29550281D01*
X46907346Y-29567524D01*
X46892930Y-29583430D01*
X46877024Y-29597846D01*
X46859781Y-29610634D01*
X46841368Y-29621670D01*
X46821962Y-29630849D01*
X46801750Y-29638081D01*
X46780926Y-29643297D01*
X46759691Y-29646447D01*
X46738250Y-29647500D01*
X46225750Y-29647500D01*
X46204309Y-29646447D01*
X46183074Y-29643297D01*
X46162250Y-29638081D01*
X46142038Y-29630849D01*
X46122632Y-29621670D01*
X46104219Y-29610634D01*
X46086976Y-29597846D01*
X46071070Y-29583430D01*
X46056654Y-29567524D01*
X46043866Y-29550281D01*
X46032830Y-29531868D01*
X46023651Y-29512462D01*
X46016419Y-29492250D01*
X46011203Y-29471426D01*
X46008053Y-29450191D01*
X46007000Y-29428750D01*
X46007000Y-28991250D01*
X46008053Y-28969809D01*
X46011203Y-28948574D01*
X46016419Y-28927750D01*
X46023651Y-28907538D01*
X46032830Y-28888132D01*
X46043866Y-28869719D01*
X46056654Y-28852476D01*
X46071070Y-28836570D01*
X46086976Y-28822154D01*
X46104219Y-28809366D01*
X46122632Y-28798330D01*
X46142038Y-28789151D01*
X46162250Y-28781919D01*
X46183074Y-28776703D01*
X46204309Y-28773553D01*
X46225750Y-28772500D01*
X46738250Y-28772500D01*
X46759691Y-28773553D01*
X46759691Y-28773553D01*
G37*
D12*
G04 #@! TD*
G04 #@! TO.P,C8,2*
G04 #@! TO.N,+3V3*
X46482000Y-29210000D03*
D14*
G04 #@! TO.P,D1,2*
G04 #@! TO.N,GND*
X31210000Y-43180000D03*
G04 #@! TO.P,D1,1*
G04 #@! TO.N,Net-(C4-Pad1)*
X27210000Y-43180000D03*
G04 #@! TD*
D11*
G04 #@! TO.N,GND*
G04 #@! TO.C,D2*
G36*
X22795191Y-26958053D02*
X22816426Y-26961203D01*
X22837250Y-26966419D01*
X22857462Y-26973651D01*
X22876868Y-26982830D01*
X22895281Y-26993866D01*
X22912524Y-27006654D01*
X22928430Y-27021070D01*
X22942846Y-27036976D01*
X22955634Y-27054219D01*
X22966670Y-27072632D01*
X22975849Y-27092038D01*
X22983081Y-27112250D01*
X22988297Y-27133074D01*
X22991447Y-27154309D01*
X22992500Y-27175750D01*
X22992500Y-27688250D01*
X22991447Y-27709691D01*
X22988297Y-27730926D01*
X22983081Y-27751750D01*
X22975849Y-27771962D01*
X22966670Y-27791368D01*
X22955634Y-27809781D01*
X22942846Y-27827024D01*
X22928430Y-27842930D01*
X22912524Y-27857346D01*
X22895281Y-27870134D01*
X22876868Y-27881170D01*
X22857462Y-27890349D01*
X22837250Y-27897581D01*
X22816426Y-27902797D01*
X22795191Y-27905947D01*
X22773750Y-27907000D01*
X22336250Y-27907000D01*
X22314809Y-27905947D01*
X22293574Y-27902797D01*
X22272750Y-27897581D01*
X22252538Y-27890349D01*
X22233132Y-27881170D01*
X22214719Y-27870134D01*
X22197476Y-27857346D01*
X22181570Y-27842930D01*
X22167154Y-27827024D01*
X22154366Y-27809781D01*
X22143330Y-27791368D01*
X22134151Y-27771962D01*
X22126919Y-27751750D01*
X22121703Y-27730926D01*
X22118553Y-27709691D01*
X22117500Y-27688250D01*
X22117500Y-27175750D01*
X22118553Y-27154309D01*
X22121703Y-27133074D01*
X22126919Y-27112250D01*
X22134151Y-27092038D01*
X22143330Y-27072632D01*
X22154366Y-27054219D01*
X22167154Y-27036976D01*
X22181570Y-27021070D01*
X22197476Y-27006654D01*
X22214719Y-26993866D01*
X22233132Y-26982830D01*
X22252538Y-26973651D01*
X22272750Y-26966419D01*
X22293574Y-26961203D01*
X22314809Y-26958053D01*
X22336250Y-26957000D01*
X22773750Y-26957000D01*
X22795191Y-26958053D01*
X22795191Y-26958053D01*
G37*
D12*
G04 #@! TD*
G04 #@! TO.P,D2,1*
G04 #@! TO.N,GND*
X22555000Y-27432000D03*
D11*
G04 #@! TO.N,Net-(D2-Pad2)*
G04 #@! TO.C,D2*
G36*
X24370191Y-26958053D02*
X24391426Y-26961203D01*
X24412250Y-26966419D01*
X24432462Y-26973651D01*
X24451868Y-26982830D01*
X24470281Y-26993866D01*
X24487524Y-27006654D01*
X24503430Y-27021070D01*
X24517846Y-27036976D01*
X24530634Y-27054219D01*
X24541670Y-27072632D01*
X24550849Y-27092038D01*
X24558081Y-27112250D01*
X24563297Y-27133074D01*
X24566447Y-27154309D01*
X24567500Y-27175750D01*
X24567500Y-27688250D01*
X24566447Y-27709691D01*
X24563297Y-27730926D01*
X24558081Y-27751750D01*
X24550849Y-27771962D01*
X24541670Y-27791368D01*
X24530634Y-27809781D01*
X24517846Y-27827024D01*
X24503430Y-27842930D01*
X24487524Y-27857346D01*
X24470281Y-27870134D01*
X24451868Y-27881170D01*
X24432462Y-27890349D01*
X24412250Y-27897581D01*
X24391426Y-27902797D01*
X24370191Y-27905947D01*
X24348750Y-27907000D01*
X23911250Y-27907000D01*
X23889809Y-27905947D01*
X23868574Y-27902797D01*
X23847750Y-27897581D01*
X23827538Y-27890349D01*
X23808132Y-27881170D01*
X23789719Y-27870134D01*
X23772476Y-27857346D01*
X23756570Y-27842930D01*
X23742154Y-27827024D01*
X23729366Y-27809781D01*
X23718330Y-27791368D01*
X23709151Y-27771962D01*
X23701919Y-27751750D01*
X23696703Y-27730926D01*
X23693553Y-27709691D01*
X23692500Y-27688250D01*
X23692500Y-27175750D01*
X23693553Y-27154309D01*
X23696703Y-27133074D01*
X23701919Y-27112250D01*
X23709151Y-27092038D01*
X23718330Y-27072632D01*
X23729366Y-27054219D01*
X23742154Y-27036976D01*
X23756570Y-27021070D01*
X23772476Y-27006654D01*
X23789719Y-26993866D01*
X23808132Y-26982830D01*
X23827538Y-26973651D01*
X23847750Y-26966419D01*
X23868574Y-26961203D01*
X23889809Y-26958053D01*
X23911250Y-26957000D01*
X24348750Y-26957000D01*
X24370191Y-26958053D01*
X24370191Y-26958053D01*
G37*
D12*
G04 #@! TD*
G04 #@! TO.P,D2,2*
G04 #@! TO.N,Net-(D2-Pad2)*
X24130000Y-27432000D03*
D11*
G04 #@! TO.N,Net-(D3-Pad2)*
G04 #@! TO.C,D3*
G36*
X24370191Y-28736053D02*
X24391426Y-28739203D01*
X24412250Y-28744419D01*
X24432462Y-28751651D01*
X24451868Y-28760830D01*
X24470281Y-28771866D01*
X24487524Y-28784654D01*
X24503430Y-28799070D01*
X24517846Y-28814976D01*
X24530634Y-28832219D01*
X24541670Y-28850632D01*
X24550849Y-28870038D01*
X24558081Y-28890250D01*
X24563297Y-28911074D01*
X24566447Y-28932309D01*
X24567500Y-28953750D01*
X24567500Y-29466250D01*
X24566447Y-29487691D01*
X24563297Y-29508926D01*
X24558081Y-29529750D01*
X24550849Y-29549962D01*
X24541670Y-29569368D01*
X24530634Y-29587781D01*
X24517846Y-29605024D01*
X24503430Y-29620930D01*
X24487524Y-29635346D01*
X24470281Y-29648134D01*
X24451868Y-29659170D01*
X24432462Y-29668349D01*
X24412250Y-29675581D01*
X24391426Y-29680797D01*
X24370191Y-29683947D01*
X24348750Y-29685000D01*
X23911250Y-29685000D01*
X23889809Y-29683947D01*
X23868574Y-29680797D01*
X23847750Y-29675581D01*
X23827538Y-29668349D01*
X23808132Y-29659170D01*
X23789719Y-29648134D01*
X23772476Y-29635346D01*
X23756570Y-29620930D01*
X23742154Y-29605024D01*
X23729366Y-29587781D01*
X23718330Y-29569368D01*
X23709151Y-29549962D01*
X23701919Y-29529750D01*
X23696703Y-29508926D01*
X23693553Y-29487691D01*
X23692500Y-29466250D01*
X23692500Y-28953750D01*
X23693553Y-28932309D01*
X23696703Y-28911074D01*
X23701919Y-28890250D01*
X23709151Y-28870038D01*
X23718330Y-28850632D01*
X23729366Y-28832219D01*
X23742154Y-28814976D01*
X23756570Y-28799070D01*
X23772476Y-28784654D01*
X23789719Y-28771866D01*
X23808132Y-28760830D01*
X23827538Y-28751651D01*
X23847750Y-28744419D01*
X23868574Y-28739203D01*
X23889809Y-28736053D01*
X23911250Y-28735000D01*
X24348750Y-28735000D01*
X24370191Y-28736053D01*
X24370191Y-28736053D01*
G37*
D12*
G04 #@! TD*
G04 #@! TO.P,D3,2*
G04 #@! TO.N,Net-(D3-Pad2)*
X24130000Y-29210000D03*
D11*
G04 #@! TO.N,GND*
G04 #@! TO.C,D3*
G36*
X22795191Y-28736053D02*
X22816426Y-28739203D01*
X22837250Y-28744419D01*
X22857462Y-28751651D01*
X22876868Y-28760830D01*
X22895281Y-28771866D01*
X22912524Y-28784654D01*
X22928430Y-28799070D01*
X22942846Y-28814976D01*
X22955634Y-28832219D01*
X22966670Y-28850632D01*
X22975849Y-28870038D01*
X22983081Y-28890250D01*
X22988297Y-28911074D01*
X22991447Y-28932309D01*
X22992500Y-28953750D01*
X22992500Y-29466250D01*
X22991447Y-29487691D01*
X22988297Y-29508926D01*
X22983081Y-29529750D01*
X22975849Y-29549962D01*
X22966670Y-29569368D01*
X22955634Y-29587781D01*
X22942846Y-29605024D01*
X22928430Y-29620930D01*
X22912524Y-29635346D01*
X22895281Y-29648134D01*
X22876868Y-29659170D01*
X22857462Y-29668349D01*
X22837250Y-29675581D01*
X22816426Y-29680797D01*
X22795191Y-29683947D01*
X22773750Y-29685000D01*
X22336250Y-29685000D01*
X22314809Y-29683947D01*
X22293574Y-29680797D01*
X22272750Y-29675581D01*
X22252538Y-29668349D01*
X22233132Y-29659170D01*
X22214719Y-29648134D01*
X22197476Y-29635346D01*
X22181570Y-29620930D01*
X22167154Y-29605024D01*
X22154366Y-29587781D01*
X22143330Y-29569368D01*
X22134151Y-29549962D01*
X22126919Y-29529750D01*
X22121703Y-29508926D01*
X22118553Y-29487691D01*
X22117500Y-29466250D01*
X22117500Y-28953750D01*
X22118553Y-28932309D01*
X22121703Y-28911074D01*
X22126919Y-28890250D01*
X22134151Y-28870038D01*
X22143330Y-28850632D01*
X22154366Y-28832219D01*
X22167154Y-28814976D01*
X22181570Y-28799070D01*
X22197476Y-28784654D01*
X22214719Y-28771866D01*
X22233132Y-28760830D01*
X22252538Y-28751651D01*
X22272750Y-28744419D01*
X22293574Y-28739203D01*
X22314809Y-28736053D01*
X22336250Y-28735000D01*
X22773750Y-28735000D01*
X22795191Y-28736053D01*
X22795191Y-28736053D01*
G37*
D12*
G04 #@! TD*
G04 #@! TO.P,D3,1*
G04 #@! TO.N,GND*
X22555000Y-29210000D03*
D14*
G04 #@! TO.P,D4,2*
G04 #@! TO.N,Net-(D4-Pad2)*
X16288000Y-20828000D03*
G04 #@! TO.P,D4,1*
G04 #@! TO.N,Net-(D4-Pad1)*
X20288000Y-20828000D03*
G04 #@! TD*
G04 #@! TO.P,D5,2*
G04 #@! TO.N,Net-(D5-Pad2)*
X28226000Y-20828000D03*
G04 #@! TO.P,D5,1*
G04 #@! TO.N,Net-(D5-Pad1)*
X32226000Y-20828000D03*
G04 #@! TD*
G04 #@! TO.P,D6,1*
G04 #@! TO.N,Net-(D6-Pad1)*
X44418000Y-20828000D03*
G04 #@! TO.P,D6,2*
G04 #@! TO.N,Net-(D6-Pad2)*
X40418000Y-20828000D03*
G04 #@! TD*
G04 #@! TO.P,D7,1*
G04 #@! TO.N,Net-(D7-Pad1)*
X56610000Y-20828000D03*
G04 #@! TO.P,D7,2*
G04 #@! TO.N,Net-(D7-Pad2)*
X52610000Y-20828000D03*
G04 #@! TD*
D15*
G04 #@! TO.P,J2,1*
G04 #@! TO.N,+12V*
X19050000Y-36322000D03*
D16*
G04 #@! TO.P,J2,2*
G04 #@! TO.N,GND*
X19050000Y-38862000D03*
G04 #@! TD*
G04 #@! TO.P,J4,4*
G04 #@! TO.N,Net-(J4-Pad4)*
X24384000Y-50800000D03*
G04 #@! TO.P,J4,3*
G04 #@! TO.N,/FAKE1*
X21844000Y-50800000D03*
G04 #@! TO.P,J4,2*
G04 #@! TO.N,Net-(D4-Pad1)*
X19304000Y-50800000D03*
D15*
G04 #@! TO.P,J4,1*
G04 #@! TO.N,GND*
X16764000Y-50800000D03*
G04 #@! TD*
G04 #@! TO.P,J5,1*
G04 #@! TO.N,Net-(D4-Pad2)*
X16764000Y-16510000D03*
D16*
G04 #@! TO.P,J5,2*
G04 #@! TO.N,Net-(D4-Pad1)*
X19304000Y-16510000D03*
G04 #@! TO.P,J5,3*
G04 #@! TO.N,Net-(J5-Pad3)*
X21844000Y-16510000D03*
G04 #@! TO.P,J5,4*
G04 #@! TO.N,/FAN1*
X24384000Y-16510000D03*
G04 #@! TD*
G04 #@! TO.P,J6,4*
G04 #@! TO.N,Net-(J6-Pad4)*
X36576000Y-50800000D03*
G04 #@! TO.P,J6,3*
G04 #@! TO.N,/FAKE2*
X34036000Y-50800000D03*
G04 #@! TO.P,J6,2*
G04 #@! TO.N,Net-(D5-Pad1)*
X31496000Y-50800000D03*
D15*
G04 #@! TO.P,J6,1*
G04 #@! TO.N,GND*
X28956000Y-50800000D03*
G04 #@! TD*
G04 #@! TO.P,J7,1*
G04 #@! TO.N,Net-(D5-Pad2)*
X28956000Y-16510000D03*
D16*
G04 #@! TO.P,J7,2*
G04 #@! TO.N,Net-(D5-Pad1)*
X31496000Y-16510000D03*
G04 #@! TO.P,J7,3*
G04 #@! TO.N,Net-(J7-Pad3)*
X34036000Y-16510000D03*
G04 #@! TO.P,J7,4*
G04 #@! TO.N,/FAN2*
X36576000Y-16510000D03*
G04 #@! TD*
D15*
G04 #@! TO.P,J8,1*
G04 #@! TO.N,GND*
X41148000Y-50800000D03*
D16*
G04 #@! TO.P,J8,2*
G04 #@! TO.N,Net-(D6-Pad1)*
X43688000Y-50800000D03*
G04 #@! TO.P,J8,3*
G04 #@! TO.N,/FAKE3*
X46228000Y-50800000D03*
G04 #@! TO.P,J8,4*
G04 #@! TO.N,Net-(J8-Pad4)*
X48768000Y-50800000D03*
G04 #@! TD*
D15*
G04 #@! TO.P,J9,1*
G04 #@! TO.N,Net-(D6-Pad2)*
X41148000Y-16510000D03*
D16*
G04 #@! TO.P,J9,2*
G04 #@! TO.N,Net-(D6-Pad1)*
X43688000Y-16510000D03*
G04 #@! TO.P,J9,3*
G04 #@! TO.N,Net-(J9-Pad3)*
X46228000Y-16510000D03*
G04 #@! TO.P,J9,4*
G04 #@! TO.N,/FAN3*
X48768000Y-16510000D03*
G04 #@! TD*
G04 #@! TO.P,J10,4*
G04 #@! TO.N,Net-(J10-Pad4)*
X60960000Y-50800000D03*
G04 #@! TO.P,J10,3*
G04 #@! TO.N,/FAKE4*
X58420000Y-50800000D03*
G04 #@! TO.P,J10,2*
G04 #@! TO.N,Net-(D7-Pad1)*
X55880000Y-50800000D03*
D15*
G04 #@! TO.P,J10,1*
G04 #@! TO.N,GND*
X53340000Y-50800000D03*
G04 #@! TD*
D16*
G04 #@! TO.P,J11,4*
G04 #@! TO.N,/FAN4*
X60960000Y-16510000D03*
G04 #@! TO.P,J11,3*
G04 #@! TO.N,Net-(J11-Pad3)*
X58420000Y-16510000D03*
G04 #@! TO.P,J11,2*
G04 #@! TO.N,Net-(D7-Pad1)*
X55880000Y-16510000D03*
D15*
G04 #@! TO.P,J11,1*
G04 #@! TO.N,Net-(D7-Pad2)*
X53340000Y-16510000D03*
G04 #@! TD*
D17*
G04 #@! TO.P,L1,1*
G04 #@! TO.N,Net-(C4-Pad1)*
X24768000Y-43180000D03*
G04 #@! TO.P,L1,2*
G04 #@! TO.N,+3V3*
X21968000Y-43180000D03*
G04 #@! TD*
D18*
G04 #@! TO.P,Q1,3*
G04 #@! TO.N,Net-(D4-Pad2)*
X18558000Y-24892000D03*
G04 #@! TO.P,Q1,2*
G04 #@! TO.N,GND*
X20558000Y-23942000D03*
G04 #@! TO.P,Q1,1*
G04 #@! TO.N,Net-(Q1-Pad1)*
X20558000Y-25842000D03*
G04 #@! TD*
G04 #@! TO.P,Q2,1*
G04 #@! TO.N,Net-(Q2-Pad1)*
X32496000Y-25842000D03*
G04 #@! TO.P,Q2,2*
G04 #@! TO.N,GND*
X32496000Y-23942000D03*
G04 #@! TO.P,Q2,3*
G04 #@! TO.N,Net-(D5-Pad2)*
X30496000Y-24892000D03*
G04 #@! TD*
G04 #@! TO.P,Q3,3*
G04 #@! TO.N,Net-(D6-Pad2)*
X42688000Y-24892000D03*
G04 #@! TO.P,Q3,2*
G04 #@! TO.N,GND*
X44688000Y-23942000D03*
G04 #@! TO.P,Q3,1*
G04 #@! TO.N,Net-(Q3-Pad1)*
X44688000Y-25842000D03*
G04 #@! TD*
G04 #@! TO.P,Q4,1*
G04 #@! TO.N,Net-(Q4-Pad1)*
X56880000Y-25842000D03*
G04 #@! TO.P,Q4,2*
G04 #@! TO.N,GND*
X56880000Y-23942000D03*
G04 #@! TO.P,Q4,3*
G04 #@! TO.N,Net-(D7-Pad2)*
X54880000Y-24892000D03*
G04 #@! TD*
D11*
G04 #@! TO.N,Net-(R1-Pad2)*
G04 #@! TO.C,R1*
G36*
X23137691Y-33828053D02*
X23158926Y-33831203D01*
X23179750Y-33836419D01*
X23199962Y-33843651D01*
X23219368Y-33852830D01*
X23237781Y-33863866D01*
X23255024Y-33876654D01*
X23270930Y-33891070D01*
X23285346Y-33906976D01*
X23298134Y-33924219D01*
X23309170Y-33942632D01*
X23318349Y-33962038D01*
X23325581Y-33982250D01*
X23330797Y-34003074D01*
X23333947Y-34024309D01*
X23335000Y-34045750D01*
X23335000Y-34483250D01*
X23333947Y-34504691D01*
X23330797Y-34525926D01*
X23325581Y-34546750D01*
X23318349Y-34566962D01*
X23309170Y-34586368D01*
X23298134Y-34604781D01*
X23285346Y-34622024D01*
X23270930Y-34637930D01*
X23255024Y-34652346D01*
X23237781Y-34665134D01*
X23219368Y-34676170D01*
X23199962Y-34685349D01*
X23179750Y-34692581D01*
X23158926Y-34697797D01*
X23137691Y-34700947D01*
X23116250Y-34702000D01*
X22603750Y-34702000D01*
X22582309Y-34700947D01*
X22561074Y-34697797D01*
X22540250Y-34692581D01*
X22520038Y-34685349D01*
X22500632Y-34676170D01*
X22482219Y-34665134D01*
X22464976Y-34652346D01*
X22449070Y-34637930D01*
X22434654Y-34622024D01*
X22421866Y-34604781D01*
X22410830Y-34586368D01*
X22401651Y-34566962D01*
X22394419Y-34546750D01*
X22389203Y-34525926D01*
X22386053Y-34504691D01*
X22385000Y-34483250D01*
X22385000Y-34045750D01*
X22386053Y-34024309D01*
X22389203Y-34003074D01*
X22394419Y-33982250D01*
X22401651Y-33962038D01*
X22410830Y-33942632D01*
X22421866Y-33924219D01*
X22434654Y-33906976D01*
X22449070Y-33891070D01*
X22464976Y-33876654D01*
X22482219Y-33863866D01*
X22500632Y-33852830D01*
X22520038Y-33843651D01*
X22540250Y-33836419D01*
X22561074Y-33831203D01*
X22582309Y-33828053D01*
X22603750Y-33827000D01*
X23116250Y-33827000D01*
X23137691Y-33828053D01*
X23137691Y-33828053D01*
G37*
D12*
G04 #@! TD*
G04 #@! TO.P,R1,2*
G04 #@! TO.N,Net-(R1-Pad2)*
X22860000Y-34264500D03*
D11*
G04 #@! TO.N,+12V*
G04 #@! TO.C,R1*
G36*
X23137691Y-35403053D02*
X23158926Y-35406203D01*
X23179750Y-35411419D01*
X23199962Y-35418651D01*
X23219368Y-35427830D01*
X23237781Y-35438866D01*
X23255024Y-35451654D01*
X23270930Y-35466070D01*
X23285346Y-35481976D01*
X23298134Y-35499219D01*
X23309170Y-35517632D01*
X23318349Y-35537038D01*
X23325581Y-35557250D01*
X23330797Y-35578074D01*
X23333947Y-35599309D01*
X23335000Y-35620750D01*
X23335000Y-36058250D01*
X23333947Y-36079691D01*
X23330797Y-36100926D01*
X23325581Y-36121750D01*
X23318349Y-36141962D01*
X23309170Y-36161368D01*
X23298134Y-36179781D01*
X23285346Y-36197024D01*
X23270930Y-36212930D01*
X23255024Y-36227346D01*
X23237781Y-36240134D01*
X23219368Y-36251170D01*
X23199962Y-36260349D01*
X23179750Y-36267581D01*
X23158926Y-36272797D01*
X23137691Y-36275947D01*
X23116250Y-36277000D01*
X22603750Y-36277000D01*
X22582309Y-36275947D01*
X22561074Y-36272797D01*
X22540250Y-36267581D01*
X22520038Y-36260349D01*
X22500632Y-36251170D01*
X22482219Y-36240134D01*
X22464976Y-36227346D01*
X22449070Y-36212930D01*
X22434654Y-36197024D01*
X22421866Y-36179781D01*
X22410830Y-36161368D01*
X22401651Y-36141962D01*
X22394419Y-36121750D01*
X22389203Y-36100926D01*
X22386053Y-36079691D01*
X22385000Y-36058250D01*
X22385000Y-35620750D01*
X22386053Y-35599309D01*
X22389203Y-35578074D01*
X22394419Y-35557250D01*
X22401651Y-35537038D01*
X22410830Y-35517632D01*
X22421866Y-35499219D01*
X22434654Y-35481976D01*
X22449070Y-35466070D01*
X22464976Y-35451654D01*
X22482219Y-35438866D01*
X22500632Y-35427830D01*
X22520038Y-35418651D01*
X22540250Y-35411419D01*
X22561074Y-35406203D01*
X22582309Y-35403053D01*
X22603750Y-35402000D01*
X23116250Y-35402000D01*
X23137691Y-35403053D01*
X23137691Y-35403053D01*
G37*
D12*
G04 #@! TD*
G04 #@! TO.P,R1,1*
G04 #@! TO.N,+12V*
X22860000Y-35839500D03*
D11*
G04 #@! TO.N,Net-(R4-Pad1)*
G04 #@! TO.C,R4*
G36*
X34567691Y-37892053D02*
X34588926Y-37895203D01*
X34609750Y-37900419D01*
X34629962Y-37907651D01*
X34649368Y-37916830D01*
X34667781Y-37927866D01*
X34685024Y-37940654D01*
X34700930Y-37955070D01*
X34715346Y-37970976D01*
X34728134Y-37988219D01*
X34739170Y-38006632D01*
X34748349Y-38026038D01*
X34755581Y-38046250D01*
X34760797Y-38067074D01*
X34763947Y-38088309D01*
X34765000Y-38109750D01*
X34765000Y-38547250D01*
X34763947Y-38568691D01*
X34760797Y-38589926D01*
X34755581Y-38610750D01*
X34748349Y-38630962D01*
X34739170Y-38650368D01*
X34728134Y-38668781D01*
X34715346Y-38686024D01*
X34700930Y-38701930D01*
X34685024Y-38716346D01*
X34667781Y-38729134D01*
X34649368Y-38740170D01*
X34629962Y-38749349D01*
X34609750Y-38756581D01*
X34588926Y-38761797D01*
X34567691Y-38764947D01*
X34546250Y-38766000D01*
X34033750Y-38766000D01*
X34012309Y-38764947D01*
X33991074Y-38761797D01*
X33970250Y-38756581D01*
X33950038Y-38749349D01*
X33930632Y-38740170D01*
X33912219Y-38729134D01*
X33894976Y-38716346D01*
X33879070Y-38701930D01*
X33864654Y-38686024D01*
X33851866Y-38668781D01*
X33840830Y-38650368D01*
X33831651Y-38630962D01*
X33824419Y-38610750D01*
X33819203Y-38589926D01*
X33816053Y-38568691D01*
X33815000Y-38547250D01*
X33815000Y-38109750D01*
X33816053Y-38088309D01*
X33819203Y-38067074D01*
X33824419Y-38046250D01*
X33831651Y-38026038D01*
X33840830Y-38006632D01*
X33851866Y-37988219D01*
X33864654Y-37970976D01*
X33879070Y-37955070D01*
X33894976Y-37940654D01*
X33912219Y-37927866D01*
X33930632Y-37916830D01*
X33950038Y-37907651D01*
X33970250Y-37900419D01*
X33991074Y-37895203D01*
X34012309Y-37892053D01*
X34033750Y-37891000D01*
X34546250Y-37891000D01*
X34567691Y-37892053D01*
X34567691Y-37892053D01*
G37*
D12*
G04 #@! TD*
G04 #@! TO.P,R4,1*
G04 #@! TO.N,Net-(R4-Pad1)*
X34290000Y-38328500D03*
D11*
G04 #@! TO.N,GND*
G04 #@! TO.C,R4*
G36*
X34567691Y-39467053D02*
X34588926Y-39470203D01*
X34609750Y-39475419D01*
X34629962Y-39482651D01*
X34649368Y-39491830D01*
X34667781Y-39502866D01*
X34685024Y-39515654D01*
X34700930Y-39530070D01*
X34715346Y-39545976D01*
X34728134Y-39563219D01*
X34739170Y-39581632D01*
X34748349Y-39601038D01*
X34755581Y-39621250D01*
X34760797Y-39642074D01*
X34763947Y-39663309D01*
X34765000Y-39684750D01*
X34765000Y-40122250D01*
X34763947Y-40143691D01*
X34760797Y-40164926D01*
X34755581Y-40185750D01*
X34748349Y-40205962D01*
X34739170Y-40225368D01*
X34728134Y-40243781D01*
X34715346Y-40261024D01*
X34700930Y-40276930D01*
X34685024Y-40291346D01*
X34667781Y-40304134D01*
X34649368Y-40315170D01*
X34629962Y-40324349D01*
X34609750Y-40331581D01*
X34588926Y-40336797D01*
X34567691Y-40339947D01*
X34546250Y-40341000D01*
X34033750Y-40341000D01*
X34012309Y-40339947D01*
X33991074Y-40336797D01*
X33970250Y-40331581D01*
X33950038Y-40324349D01*
X33930632Y-40315170D01*
X33912219Y-40304134D01*
X33894976Y-40291346D01*
X33879070Y-40276930D01*
X33864654Y-40261024D01*
X33851866Y-40243781D01*
X33840830Y-40225368D01*
X33831651Y-40205962D01*
X33824419Y-40185750D01*
X33819203Y-40164926D01*
X33816053Y-40143691D01*
X33815000Y-40122250D01*
X33815000Y-39684750D01*
X33816053Y-39663309D01*
X33819203Y-39642074D01*
X33824419Y-39621250D01*
X33831651Y-39601038D01*
X33840830Y-39581632D01*
X33851866Y-39563219D01*
X33864654Y-39545976D01*
X33879070Y-39530070D01*
X33894976Y-39515654D01*
X33912219Y-39502866D01*
X33930632Y-39491830D01*
X33950038Y-39482651D01*
X33970250Y-39475419D01*
X33991074Y-39470203D01*
X34012309Y-39467053D01*
X34033750Y-39466000D01*
X34546250Y-39466000D01*
X34567691Y-39467053D01*
X34567691Y-39467053D01*
G37*
D12*
G04 #@! TD*
G04 #@! TO.P,R4,2*
G04 #@! TO.N,GND*
X34290000Y-39903500D03*
D11*
G04 #@! TO.N,+3V3*
G04 #@! TO.C,R5*
G36*
X31011691Y-38451053D02*
X31032926Y-38454203D01*
X31053750Y-38459419D01*
X31073962Y-38466651D01*
X31093368Y-38475830D01*
X31111781Y-38486866D01*
X31129024Y-38499654D01*
X31144930Y-38514070D01*
X31159346Y-38529976D01*
X31172134Y-38547219D01*
X31183170Y-38565632D01*
X31192349Y-38585038D01*
X31199581Y-38605250D01*
X31204797Y-38626074D01*
X31207947Y-38647309D01*
X31209000Y-38668750D01*
X31209000Y-39106250D01*
X31207947Y-39127691D01*
X31204797Y-39148926D01*
X31199581Y-39169750D01*
X31192349Y-39189962D01*
X31183170Y-39209368D01*
X31172134Y-39227781D01*
X31159346Y-39245024D01*
X31144930Y-39260930D01*
X31129024Y-39275346D01*
X31111781Y-39288134D01*
X31093368Y-39299170D01*
X31073962Y-39308349D01*
X31053750Y-39315581D01*
X31032926Y-39320797D01*
X31011691Y-39323947D01*
X30990250Y-39325000D01*
X30477750Y-39325000D01*
X30456309Y-39323947D01*
X30435074Y-39320797D01*
X30414250Y-39315581D01*
X30394038Y-39308349D01*
X30374632Y-39299170D01*
X30356219Y-39288134D01*
X30338976Y-39275346D01*
X30323070Y-39260930D01*
X30308654Y-39245024D01*
X30295866Y-39227781D01*
X30284830Y-39209368D01*
X30275651Y-39189962D01*
X30268419Y-39169750D01*
X30263203Y-39148926D01*
X30260053Y-39127691D01*
X30259000Y-39106250D01*
X30259000Y-38668750D01*
X30260053Y-38647309D01*
X30263203Y-38626074D01*
X30268419Y-38605250D01*
X30275651Y-38585038D01*
X30284830Y-38565632D01*
X30295866Y-38547219D01*
X30308654Y-38529976D01*
X30323070Y-38514070D01*
X30338976Y-38499654D01*
X30356219Y-38486866D01*
X30374632Y-38475830D01*
X30394038Y-38466651D01*
X30414250Y-38459419D01*
X30435074Y-38454203D01*
X30456309Y-38451053D01*
X30477750Y-38450000D01*
X30990250Y-38450000D01*
X31011691Y-38451053D01*
X31011691Y-38451053D01*
G37*
D12*
G04 #@! TD*
G04 #@! TO.P,R5,1*
G04 #@! TO.N,+3V3*
X30734000Y-38887500D03*
D11*
G04 #@! TO.N,Net-(R5-Pad2)*
G04 #@! TO.C,R5*
G36*
X31011691Y-36876053D02*
X31032926Y-36879203D01*
X31053750Y-36884419D01*
X31073962Y-36891651D01*
X31093368Y-36900830D01*
X31111781Y-36911866D01*
X31129024Y-36924654D01*
X31144930Y-36939070D01*
X31159346Y-36954976D01*
X31172134Y-36972219D01*
X31183170Y-36990632D01*
X31192349Y-37010038D01*
X31199581Y-37030250D01*
X31204797Y-37051074D01*
X31207947Y-37072309D01*
X31209000Y-37093750D01*
X31209000Y-37531250D01*
X31207947Y-37552691D01*
X31204797Y-37573926D01*
X31199581Y-37594750D01*
X31192349Y-37614962D01*
X31183170Y-37634368D01*
X31172134Y-37652781D01*
X31159346Y-37670024D01*
X31144930Y-37685930D01*
X31129024Y-37700346D01*
X31111781Y-37713134D01*
X31093368Y-37724170D01*
X31073962Y-37733349D01*
X31053750Y-37740581D01*
X31032926Y-37745797D01*
X31011691Y-37748947D01*
X30990250Y-37750000D01*
X30477750Y-37750000D01*
X30456309Y-37748947D01*
X30435074Y-37745797D01*
X30414250Y-37740581D01*
X30394038Y-37733349D01*
X30374632Y-37724170D01*
X30356219Y-37713134D01*
X30338976Y-37700346D01*
X30323070Y-37685930D01*
X30308654Y-37670024D01*
X30295866Y-37652781D01*
X30284830Y-37634368D01*
X30275651Y-37614962D01*
X30268419Y-37594750D01*
X30263203Y-37573926D01*
X30260053Y-37552691D01*
X30259000Y-37531250D01*
X30259000Y-37093750D01*
X30260053Y-37072309D01*
X30263203Y-37051074D01*
X30268419Y-37030250D01*
X30275651Y-37010038D01*
X30284830Y-36990632D01*
X30295866Y-36972219D01*
X30308654Y-36954976D01*
X30323070Y-36939070D01*
X30338976Y-36924654D01*
X30356219Y-36911866D01*
X30374632Y-36900830D01*
X30394038Y-36891651D01*
X30414250Y-36884419D01*
X30435074Y-36879203D01*
X30456309Y-36876053D01*
X30477750Y-36875000D01*
X30990250Y-36875000D01*
X31011691Y-36876053D01*
X31011691Y-36876053D01*
G37*
D12*
G04 #@! TD*
G04 #@! TO.P,R5,2*
G04 #@! TO.N,Net-(R5-Pad2)*
X30734000Y-37312500D03*
D11*
G04 #@! TO.N,GND*
G04 #@! TO.C,R6*
G36*
X29487691Y-38451053D02*
X29508926Y-38454203D01*
X29529750Y-38459419D01*
X29549962Y-38466651D01*
X29569368Y-38475830D01*
X29587781Y-38486866D01*
X29605024Y-38499654D01*
X29620930Y-38514070D01*
X29635346Y-38529976D01*
X29648134Y-38547219D01*
X29659170Y-38565632D01*
X29668349Y-38585038D01*
X29675581Y-38605250D01*
X29680797Y-38626074D01*
X29683947Y-38647309D01*
X29685000Y-38668750D01*
X29685000Y-39106250D01*
X29683947Y-39127691D01*
X29680797Y-39148926D01*
X29675581Y-39169750D01*
X29668349Y-39189962D01*
X29659170Y-39209368D01*
X29648134Y-39227781D01*
X29635346Y-39245024D01*
X29620930Y-39260930D01*
X29605024Y-39275346D01*
X29587781Y-39288134D01*
X29569368Y-39299170D01*
X29549962Y-39308349D01*
X29529750Y-39315581D01*
X29508926Y-39320797D01*
X29487691Y-39323947D01*
X29466250Y-39325000D01*
X28953750Y-39325000D01*
X28932309Y-39323947D01*
X28911074Y-39320797D01*
X28890250Y-39315581D01*
X28870038Y-39308349D01*
X28850632Y-39299170D01*
X28832219Y-39288134D01*
X28814976Y-39275346D01*
X28799070Y-39260930D01*
X28784654Y-39245024D01*
X28771866Y-39227781D01*
X28760830Y-39209368D01*
X28751651Y-39189962D01*
X28744419Y-39169750D01*
X28739203Y-39148926D01*
X28736053Y-39127691D01*
X28735000Y-39106250D01*
X28735000Y-38668750D01*
X28736053Y-38647309D01*
X28739203Y-38626074D01*
X28744419Y-38605250D01*
X28751651Y-38585038D01*
X28760830Y-38565632D01*
X28771866Y-38547219D01*
X28784654Y-38529976D01*
X28799070Y-38514070D01*
X28814976Y-38499654D01*
X28832219Y-38486866D01*
X28850632Y-38475830D01*
X28870038Y-38466651D01*
X28890250Y-38459419D01*
X28911074Y-38454203D01*
X28932309Y-38451053D01*
X28953750Y-38450000D01*
X29466250Y-38450000D01*
X29487691Y-38451053D01*
X29487691Y-38451053D01*
G37*
D12*
G04 #@! TD*
G04 #@! TO.P,R6,2*
G04 #@! TO.N,GND*
X29210000Y-38887500D03*
D11*
G04 #@! TO.N,Net-(R5-Pad2)*
G04 #@! TO.C,R6*
G36*
X29487691Y-36876053D02*
X29508926Y-36879203D01*
X29529750Y-36884419D01*
X29549962Y-36891651D01*
X29569368Y-36900830D01*
X29587781Y-36911866D01*
X29605024Y-36924654D01*
X29620930Y-36939070D01*
X29635346Y-36954976D01*
X29648134Y-36972219D01*
X29659170Y-36990632D01*
X29668349Y-37010038D01*
X29675581Y-37030250D01*
X29680797Y-37051074D01*
X29683947Y-37072309D01*
X29685000Y-37093750D01*
X29685000Y-37531250D01*
X29683947Y-37552691D01*
X29680797Y-37573926D01*
X29675581Y-37594750D01*
X29668349Y-37614962D01*
X29659170Y-37634368D01*
X29648134Y-37652781D01*
X29635346Y-37670024D01*
X29620930Y-37685930D01*
X29605024Y-37700346D01*
X29587781Y-37713134D01*
X29569368Y-37724170D01*
X29549962Y-37733349D01*
X29529750Y-37740581D01*
X29508926Y-37745797D01*
X29487691Y-37748947D01*
X29466250Y-37750000D01*
X28953750Y-37750000D01*
X28932309Y-37748947D01*
X28911074Y-37745797D01*
X28890250Y-37740581D01*
X28870038Y-37733349D01*
X28850632Y-37724170D01*
X28832219Y-37713134D01*
X28814976Y-37700346D01*
X28799070Y-37685930D01*
X28784654Y-37670024D01*
X28771866Y-37652781D01*
X28760830Y-37634368D01*
X28751651Y-37614962D01*
X28744419Y-37594750D01*
X28739203Y-37573926D01*
X28736053Y-37552691D01*
X28735000Y-37531250D01*
X28735000Y-37093750D01*
X28736053Y-37072309D01*
X28739203Y-37051074D01*
X28744419Y-37030250D01*
X28751651Y-37010038D01*
X28760830Y-36990632D01*
X28771866Y-36972219D01*
X28784654Y-36954976D01*
X28799070Y-36939070D01*
X28814976Y-36924654D01*
X28832219Y-36911866D01*
X28850632Y-36900830D01*
X28870038Y-36891651D01*
X28890250Y-36884419D01*
X28911074Y-36879203D01*
X28932309Y-36876053D01*
X28953750Y-36875000D01*
X29466250Y-36875000D01*
X29487691Y-36876053D01*
X29487691Y-36876053D01*
G37*
D12*
G04 #@! TD*
G04 #@! TO.P,R6,1*
G04 #@! TO.N,Net-(R5-Pad2)*
X29210000Y-37312500D03*
D11*
G04 #@! TO.N,Net-(D2-Pad2)*
G04 #@! TO.C,R7*
G36*
X25843191Y-26958053D02*
X25864426Y-26961203D01*
X25885250Y-26966419D01*
X25905462Y-26973651D01*
X25924868Y-26982830D01*
X25943281Y-26993866D01*
X25960524Y-27006654D01*
X25976430Y-27021070D01*
X25990846Y-27036976D01*
X26003634Y-27054219D01*
X26014670Y-27072632D01*
X26023849Y-27092038D01*
X26031081Y-27112250D01*
X26036297Y-27133074D01*
X26039447Y-27154309D01*
X26040500Y-27175750D01*
X26040500Y-27688250D01*
X26039447Y-27709691D01*
X26036297Y-27730926D01*
X26031081Y-27751750D01*
X26023849Y-27771962D01*
X26014670Y-27791368D01*
X26003634Y-27809781D01*
X25990846Y-27827024D01*
X25976430Y-27842930D01*
X25960524Y-27857346D01*
X25943281Y-27870134D01*
X25924868Y-27881170D01*
X25905462Y-27890349D01*
X25885250Y-27897581D01*
X25864426Y-27902797D01*
X25843191Y-27905947D01*
X25821750Y-27907000D01*
X25384250Y-27907000D01*
X25362809Y-27905947D01*
X25341574Y-27902797D01*
X25320750Y-27897581D01*
X25300538Y-27890349D01*
X25281132Y-27881170D01*
X25262719Y-27870134D01*
X25245476Y-27857346D01*
X25229570Y-27842930D01*
X25215154Y-27827024D01*
X25202366Y-27809781D01*
X25191330Y-27791368D01*
X25182151Y-27771962D01*
X25174919Y-27751750D01*
X25169703Y-27730926D01*
X25166553Y-27709691D01*
X25165500Y-27688250D01*
X25165500Y-27175750D01*
X25166553Y-27154309D01*
X25169703Y-27133074D01*
X25174919Y-27112250D01*
X25182151Y-27092038D01*
X25191330Y-27072632D01*
X25202366Y-27054219D01*
X25215154Y-27036976D01*
X25229570Y-27021070D01*
X25245476Y-27006654D01*
X25262719Y-26993866D01*
X25281132Y-26982830D01*
X25300538Y-26973651D01*
X25320750Y-26966419D01*
X25341574Y-26961203D01*
X25362809Y-26958053D01*
X25384250Y-26957000D01*
X25821750Y-26957000D01*
X25843191Y-26958053D01*
X25843191Y-26958053D01*
G37*
D12*
G04 #@! TD*
G04 #@! TO.P,R7,1*
G04 #@! TO.N,Net-(D2-Pad2)*
X25603000Y-27432000D03*
D11*
G04 #@! TO.N,/LED2*
G04 #@! TO.C,R7*
G36*
X27418191Y-26958053D02*
X27439426Y-26961203D01*
X27460250Y-26966419D01*
X27480462Y-26973651D01*
X27499868Y-26982830D01*
X27518281Y-26993866D01*
X27535524Y-27006654D01*
X27551430Y-27021070D01*
X27565846Y-27036976D01*
X27578634Y-27054219D01*
X27589670Y-27072632D01*
X27598849Y-27092038D01*
X27606081Y-27112250D01*
X27611297Y-27133074D01*
X27614447Y-27154309D01*
X27615500Y-27175750D01*
X27615500Y-27688250D01*
X27614447Y-27709691D01*
X27611297Y-27730926D01*
X27606081Y-27751750D01*
X27598849Y-27771962D01*
X27589670Y-27791368D01*
X27578634Y-27809781D01*
X27565846Y-27827024D01*
X27551430Y-27842930D01*
X27535524Y-27857346D01*
X27518281Y-27870134D01*
X27499868Y-27881170D01*
X27480462Y-27890349D01*
X27460250Y-27897581D01*
X27439426Y-27902797D01*
X27418191Y-27905947D01*
X27396750Y-27907000D01*
X26959250Y-27907000D01*
X26937809Y-27905947D01*
X26916574Y-27902797D01*
X26895750Y-27897581D01*
X26875538Y-27890349D01*
X26856132Y-27881170D01*
X26837719Y-27870134D01*
X26820476Y-27857346D01*
X26804570Y-27842930D01*
X26790154Y-27827024D01*
X26777366Y-27809781D01*
X26766330Y-27791368D01*
X26757151Y-27771962D01*
X26749919Y-27751750D01*
X26744703Y-27730926D01*
X26741553Y-27709691D01*
X26740500Y-27688250D01*
X26740500Y-27175750D01*
X26741553Y-27154309D01*
X26744703Y-27133074D01*
X26749919Y-27112250D01*
X26757151Y-27092038D01*
X26766330Y-27072632D01*
X26777366Y-27054219D01*
X26790154Y-27036976D01*
X26804570Y-27021070D01*
X26820476Y-27006654D01*
X26837719Y-26993866D01*
X26856132Y-26982830D01*
X26875538Y-26973651D01*
X26895750Y-26966419D01*
X26916574Y-26961203D01*
X26937809Y-26958053D01*
X26959250Y-26957000D01*
X27396750Y-26957000D01*
X27418191Y-26958053D01*
X27418191Y-26958053D01*
G37*
D12*
G04 #@! TD*
G04 #@! TO.P,R7,2*
G04 #@! TO.N,/LED2*
X27178000Y-27432000D03*
D11*
G04 #@! TO.N,/LED1*
G04 #@! TO.C,R8*
G36*
X27418191Y-28736053D02*
X27439426Y-28739203D01*
X27460250Y-28744419D01*
X27480462Y-28751651D01*
X27499868Y-28760830D01*
X27518281Y-28771866D01*
X27535524Y-28784654D01*
X27551430Y-28799070D01*
X27565846Y-28814976D01*
X27578634Y-28832219D01*
X27589670Y-28850632D01*
X27598849Y-28870038D01*
X27606081Y-28890250D01*
X27611297Y-28911074D01*
X27614447Y-28932309D01*
X27615500Y-28953750D01*
X27615500Y-29466250D01*
X27614447Y-29487691D01*
X27611297Y-29508926D01*
X27606081Y-29529750D01*
X27598849Y-29549962D01*
X27589670Y-29569368D01*
X27578634Y-29587781D01*
X27565846Y-29605024D01*
X27551430Y-29620930D01*
X27535524Y-29635346D01*
X27518281Y-29648134D01*
X27499868Y-29659170D01*
X27480462Y-29668349D01*
X27460250Y-29675581D01*
X27439426Y-29680797D01*
X27418191Y-29683947D01*
X27396750Y-29685000D01*
X26959250Y-29685000D01*
X26937809Y-29683947D01*
X26916574Y-29680797D01*
X26895750Y-29675581D01*
X26875538Y-29668349D01*
X26856132Y-29659170D01*
X26837719Y-29648134D01*
X26820476Y-29635346D01*
X26804570Y-29620930D01*
X26790154Y-29605024D01*
X26777366Y-29587781D01*
X26766330Y-29569368D01*
X26757151Y-29549962D01*
X26749919Y-29529750D01*
X26744703Y-29508926D01*
X26741553Y-29487691D01*
X26740500Y-29466250D01*
X26740500Y-28953750D01*
X26741553Y-28932309D01*
X26744703Y-28911074D01*
X26749919Y-28890250D01*
X26757151Y-28870038D01*
X26766330Y-28850632D01*
X26777366Y-28832219D01*
X26790154Y-28814976D01*
X26804570Y-28799070D01*
X26820476Y-28784654D01*
X26837719Y-28771866D01*
X26856132Y-28760830D01*
X26875538Y-28751651D01*
X26895750Y-28744419D01*
X26916574Y-28739203D01*
X26937809Y-28736053D01*
X26959250Y-28735000D01*
X27396750Y-28735000D01*
X27418191Y-28736053D01*
X27418191Y-28736053D01*
G37*
D12*
G04 #@! TD*
G04 #@! TO.P,R8,2*
G04 #@! TO.N,/LED1*
X27178000Y-29210000D03*
D11*
G04 #@! TO.N,Net-(D3-Pad2)*
G04 #@! TO.C,R8*
G36*
X25843191Y-28736053D02*
X25864426Y-28739203D01*
X25885250Y-28744419D01*
X25905462Y-28751651D01*
X25924868Y-28760830D01*
X25943281Y-28771866D01*
X25960524Y-28784654D01*
X25976430Y-28799070D01*
X25990846Y-28814976D01*
X26003634Y-28832219D01*
X26014670Y-28850632D01*
X26023849Y-28870038D01*
X26031081Y-28890250D01*
X26036297Y-28911074D01*
X26039447Y-28932309D01*
X26040500Y-28953750D01*
X26040500Y-29466250D01*
X26039447Y-29487691D01*
X26036297Y-29508926D01*
X26031081Y-29529750D01*
X26023849Y-29549962D01*
X26014670Y-29569368D01*
X26003634Y-29587781D01*
X25990846Y-29605024D01*
X25976430Y-29620930D01*
X25960524Y-29635346D01*
X25943281Y-29648134D01*
X25924868Y-29659170D01*
X25905462Y-29668349D01*
X25885250Y-29675581D01*
X25864426Y-29680797D01*
X25843191Y-29683947D01*
X25821750Y-29685000D01*
X25384250Y-29685000D01*
X25362809Y-29683947D01*
X25341574Y-29680797D01*
X25320750Y-29675581D01*
X25300538Y-29668349D01*
X25281132Y-29659170D01*
X25262719Y-29648134D01*
X25245476Y-29635346D01*
X25229570Y-29620930D01*
X25215154Y-29605024D01*
X25202366Y-29587781D01*
X25191330Y-29569368D01*
X25182151Y-29549962D01*
X25174919Y-29529750D01*
X25169703Y-29508926D01*
X25166553Y-29487691D01*
X25165500Y-29466250D01*
X25165500Y-28953750D01*
X25166553Y-28932309D01*
X25169703Y-28911074D01*
X25174919Y-28890250D01*
X25182151Y-28870038D01*
X25191330Y-28850632D01*
X25202366Y-28832219D01*
X25215154Y-28814976D01*
X25229570Y-28799070D01*
X25245476Y-28784654D01*
X25262719Y-28771866D01*
X25281132Y-28760830D01*
X25300538Y-28751651D01*
X25320750Y-28744419D01*
X25341574Y-28739203D01*
X25362809Y-28736053D01*
X25384250Y-28735000D01*
X25821750Y-28735000D01*
X25843191Y-28736053D01*
X25843191Y-28736053D01*
G37*
D12*
G04 #@! TD*
G04 #@! TO.P,R8,1*
G04 #@! TO.N,Net-(D3-Pad2)*
X25603000Y-29210000D03*
D11*
G04 #@! TO.N,/FAN1*
G04 #@! TO.C,R9*
G36*
X24661691Y-18842053D02*
X24682926Y-18845203D01*
X24703750Y-18850419D01*
X24723962Y-18857651D01*
X24743368Y-18866830D01*
X24761781Y-18877866D01*
X24779024Y-18890654D01*
X24794930Y-18905070D01*
X24809346Y-18920976D01*
X24822134Y-18938219D01*
X24833170Y-18956632D01*
X24842349Y-18976038D01*
X24849581Y-18996250D01*
X24854797Y-19017074D01*
X24857947Y-19038309D01*
X24859000Y-19059750D01*
X24859000Y-19497250D01*
X24857947Y-19518691D01*
X24854797Y-19539926D01*
X24849581Y-19560750D01*
X24842349Y-19580962D01*
X24833170Y-19600368D01*
X24822134Y-19618781D01*
X24809346Y-19636024D01*
X24794930Y-19651930D01*
X24779024Y-19666346D01*
X24761781Y-19679134D01*
X24743368Y-19690170D01*
X24723962Y-19699349D01*
X24703750Y-19706581D01*
X24682926Y-19711797D01*
X24661691Y-19714947D01*
X24640250Y-19716000D01*
X24127750Y-19716000D01*
X24106309Y-19714947D01*
X24085074Y-19711797D01*
X24064250Y-19706581D01*
X24044038Y-19699349D01*
X24024632Y-19690170D01*
X24006219Y-19679134D01*
X23988976Y-19666346D01*
X23973070Y-19651930D01*
X23958654Y-19636024D01*
X23945866Y-19618781D01*
X23934830Y-19600368D01*
X23925651Y-19580962D01*
X23918419Y-19560750D01*
X23913203Y-19539926D01*
X23910053Y-19518691D01*
X23909000Y-19497250D01*
X23909000Y-19059750D01*
X23910053Y-19038309D01*
X23913203Y-19017074D01*
X23918419Y-18996250D01*
X23925651Y-18976038D01*
X23934830Y-18956632D01*
X23945866Y-18938219D01*
X23958654Y-18920976D01*
X23973070Y-18905070D01*
X23988976Y-18890654D01*
X24006219Y-18877866D01*
X24024632Y-18866830D01*
X24044038Y-18857651D01*
X24064250Y-18850419D01*
X24085074Y-18845203D01*
X24106309Y-18842053D01*
X24127750Y-18841000D01*
X24640250Y-18841000D01*
X24661691Y-18842053D01*
X24661691Y-18842053D01*
G37*
D12*
G04 #@! TD*
G04 #@! TO.P,R9,1*
G04 #@! TO.N,/FAN1*
X24384000Y-19278500D03*
D11*
G04 #@! TO.N,Net-(Q1-Pad1)*
G04 #@! TO.C,R9*
G36*
X24661691Y-20417053D02*
X24682926Y-20420203D01*
X24703750Y-20425419D01*
X24723962Y-20432651D01*
X24743368Y-20441830D01*
X24761781Y-20452866D01*
X24779024Y-20465654D01*
X24794930Y-20480070D01*
X24809346Y-20495976D01*
X24822134Y-20513219D01*
X24833170Y-20531632D01*
X24842349Y-20551038D01*
X24849581Y-20571250D01*
X24854797Y-20592074D01*
X24857947Y-20613309D01*
X24859000Y-20634750D01*
X24859000Y-21072250D01*
X24857947Y-21093691D01*
X24854797Y-21114926D01*
X24849581Y-21135750D01*
X24842349Y-21155962D01*
X24833170Y-21175368D01*
X24822134Y-21193781D01*
X24809346Y-21211024D01*
X24794930Y-21226930D01*
X24779024Y-21241346D01*
X24761781Y-21254134D01*
X24743368Y-21265170D01*
X24723962Y-21274349D01*
X24703750Y-21281581D01*
X24682926Y-21286797D01*
X24661691Y-21289947D01*
X24640250Y-21291000D01*
X24127750Y-21291000D01*
X24106309Y-21289947D01*
X24085074Y-21286797D01*
X24064250Y-21281581D01*
X24044038Y-21274349D01*
X24024632Y-21265170D01*
X24006219Y-21254134D01*
X23988976Y-21241346D01*
X23973070Y-21226930D01*
X23958654Y-21211024D01*
X23945866Y-21193781D01*
X23934830Y-21175368D01*
X23925651Y-21155962D01*
X23918419Y-21135750D01*
X23913203Y-21114926D01*
X23910053Y-21093691D01*
X23909000Y-21072250D01*
X23909000Y-20634750D01*
X23910053Y-20613309D01*
X23913203Y-20592074D01*
X23918419Y-20571250D01*
X23925651Y-20551038D01*
X23934830Y-20531632D01*
X23945866Y-20513219D01*
X23958654Y-20495976D01*
X23973070Y-20480070D01*
X23988976Y-20465654D01*
X24006219Y-20452866D01*
X24024632Y-20441830D01*
X24044038Y-20432651D01*
X24064250Y-20425419D01*
X24085074Y-20420203D01*
X24106309Y-20417053D01*
X24127750Y-20416000D01*
X24640250Y-20416000D01*
X24661691Y-20417053D01*
X24661691Y-20417053D01*
G37*
D12*
G04 #@! TD*
G04 #@! TO.P,R9,2*
G04 #@! TO.N,Net-(Q1-Pad1)*
X24384000Y-20853500D03*
D11*
G04 #@! TO.N,Net-(Q2-Pad1)*
G04 #@! TO.C,R10*
G36*
X36853691Y-20417053D02*
X36874926Y-20420203D01*
X36895750Y-20425419D01*
X36915962Y-20432651D01*
X36935368Y-20441830D01*
X36953781Y-20452866D01*
X36971024Y-20465654D01*
X36986930Y-20480070D01*
X37001346Y-20495976D01*
X37014134Y-20513219D01*
X37025170Y-20531632D01*
X37034349Y-20551038D01*
X37041581Y-20571250D01*
X37046797Y-20592074D01*
X37049947Y-20613309D01*
X37051000Y-20634750D01*
X37051000Y-21072250D01*
X37049947Y-21093691D01*
X37046797Y-21114926D01*
X37041581Y-21135750D01*
X37034349Y-21155962D01*
X37025170Y-21175368D01*
X37014134Y-21193781D01*
X37001346Y-21211024D01*
X36986930Y-21226930D01*
X36971024Y-21241346D01*
X36953781Y-21254134D01*
X36935368Y-21265170D01*
X36915962Y-21274349D01*
X36895750Y-21281581D01*
X36874926Y-21286797D01*
X36853691Y-21289947D01*
X36832250Y-21291000D01*
X36319750Y-21291000D01*
X36298309Y-21289947D01*
X36277074Y-21286797D01*
X36256250Y-21281581D01*
X36236038Y-21274349D01*
X36216632Y-21265170D01*
X36198219Y-21254134D01*
X36180976Y-21241346D01*
X36165070Y-21226930D01*
X36150654Y-21211024D01*
X36137866Y-21193781D01*
X36126830Y-21175368D01*
X36117651Y-21155962D01*
X36110419Y-21135750D01*
X36105203Y-21114926D01*
X36102053Y-21093691D01*
X36101000Y-21072250D01*
X36101000Y-20634750D01*
X36102053Y-20613309D01*
X36105203Y-20592074D01*
X36110419Y-20571250D01*
X36117651Y-20551038D01*
X36126830Y-20531632D01*
X36137866Y-20513219D01*
X36150654Y-20495976D01*
X36165070Y-20480070D01*
X36180976Y-20465654D01*
X36198219Y-20452866D01*
X36216632Y-20441830D01*
X36236038Y-20432651D01*
X36256250Y-20425419D01*
X36277074Y-20420203D01*
X36298309Y-20417053D01*
X36319750Y-20416000D01*
X36832250Y-20416000D01*
X36853691Y-20417053D01*
X36853691Y-20417053D01*
G37*
D12*
G04 #@! TD*
G04 #@! TO.P,R10,2*
G04 #@! TO.N,Net-(Q2-Pad1)*
X36576000Y-20853500D03*
D11*
G04 #@! TO.N,/FAN2*
G04 #@! TO.C,R10*
G36*
X36853691Y-18842053D02*
X36874926Y-18845203D01*
X36895750Y-18850419D01*
X36915962Y-18857651D01*
X36935368Y-18866830D01*
X36953781Y-18877866D01*
X36971024Y-18890654D01*
X36986930Y-18905070D01*
X37001346Y-18920976D01*
X37014134Y-18938219D01*
X37025170Y-18956632D01*
X37034349Y-18976038D01*
X37041581Y-18996250D01*
X37046797Y-19017074D01*
X37049947Y-19038309D01*
X37051000Y-19059750D01*
X37051000Y-19497250D01*
X37049947Y-19518691D01*
X37046797Y-19539926D01*
X37041581Y-19560750D01*
X37034349Y-19580962D01*
X37025170Y-19600368D01*
X37014134Y-19618781D01*
X37001346Y-19636024D01*
X36986930Y-19651930D01*
X36971024Y-19666346D01*
X36953781Y-19679134D01*
X36935368Y-19690170D01*
X36915962Y-19699349D01*
X36895750Y-19706581D01*
X36874926Y-19711797D01*
X36853691Y-19714947D01*
X36832250Y-19716000D01*
X36319750Y-19716000D01*
X36298309Y-19714947D01*
X36277074Y-19711797D01*
X36256250Y-19706581D01*
X36236038Y-19699349D01*
X36216632Y-19690170D01*
X36198219Y-19679134D01*
X36180976Y-19666346D01*
X36165070Y-19651930D01*
X36150654Y-19636024D01*
X36137866Y-19618781D01*
X36126830Y-19600368D01*
X36117651Y-19580962D01*
X36110419Y-19560750D01*
X36105203Y-19539926D01*
X36102053Y-19518691D01*
X36101000Y-19497250D01*
X36101000Y-19059750D01*
X36102053Y-19038309D01*
X36105203Y-19017074D01*
X36110419Y-18996250D01*
X36117651Y-18976038D01*
X36126830Y-18956632D01*
X36137866Y-18938219D01*
X36150654Y-18920976D01*
X36165070Y-18905070D01*
X36180976Y-18890654D01*
X36198219Y-18877866D01*
X36216632Y-18866830D01*
X36236038Y-18857651D01*
X36256250Y-18850419D01*
X36277074Y-18845203D01*
X36298309Y-18842053D01*
X36319750Y-18841000D01*
X36832250Y-18841000D01*
X36853691Y-18842053D01*
X36853691Y-18842053D01*
G37*
D12*
G04 #@! TD*
G04 #@! TO.P,R10,1*
G04 #@! TO.N,/FAN2*
X36576000Y-19278500D03*
D11*
G04 #@! TO.N,/FAN3*
G04 #@! TO.C,R11*
G36*
X49045691Y-18842053D02*
X49066926Y-18845203D01*
X49087750Y-18850419D01*
X49107962Y-18857651D01*
X49127368Y-18866830D01*
X49145781Y-18877866D01*
X49163024Y-18890654D01*
X49178930Y-18905070D01*
X49193346Y-18920976D01*
X49206134Y-18938219D01*
X49217170Y-18956632D01*
X49226349Y-18976038D01*
X49233581Y-18996250D01*
X49238797Y-19017074D01*
X49241947Y-19038309D01*
X49243000Y-19059750D01*
X49243000Y-19497250D01*
X49241947Y-19518691D01*
X49238797Y-19539926D01*
X49233581Y-19560750D01*
X49226349Y-19580962D01*
X49217170Y-19600368D01*
X49206134Y-19618781D01*
X49193346Y-19636024D01*
X49178930Y-19651930D01*
X49163024Y-19666346D01*
X49145781Y-19679134D01*
X49127368Y-19690170D01*
X49107962Y-19699349D01*
X49087750Y-19706581D01*
X49066926Y-19711797D01*
X49045691Y-19714947D01*
X49024250Y-19716000D01*
X48511750Y-19716000D01*
X48490309Y-19714947D01*
X48469074Y-19711797D01*
X48448250Y-19706581D01*
X48428038Y-19699349D01*
X48408632Y-19690170D01*
X48390219Y-19679134D01*
X48372976Y-19666346D01*
X48357070Y-19651930D01*
X48342654Y-19636024D01*
X48329866Y-19618781D01*
X48318830Y-19600368D01*
X48309651Y-19580962D01*
X48302419Y-19560750D01*
X48297203Y-19539926D01*
X48294053Y-19518691D01*
X48293000Y-19497250D01*
X48293000Y-19059750D01*
X48294053Y-19038309D01*
X48297203Y-19017074D01*
X48302419Y-18996250D01*
X48309651Y-18976038D01*
X48318830Y-18956632D01*
X48329866Y-18938219D01*
X48342654Y-18920976D01*
X48357070Y-18905070D01*
X48372976Y-18890654D01*
X48390219Y-18877866D01*
X48408632Y-18866830D01*
X48428038Y-18857651D01*
X48448250Y-18850419D01*
X48469074Y-18845203D01*
X48490309Y-18842053D01*
X48511750Y-18841000D01*
X49024250Y-18841000D01*
X49045691Y-18842053D01*
X49045691Y-18842053D01*
G37*
D12*
G04 #@! TD*
G04 #@! TO.P,R11,1*
G04 #@! TO.N,/FAN3*
X48768000Y-19278500D03*
D11*
G04 #@! TO.N,Net-(Q3-Pad1)*
G04 #@! TO.C,R11*
G36*
X49045691Y-20417053D02*
X49066926Y-20420203D01*
X49087750Y-20425419D01*
X49107962Y-20432651D01*
X49127368Y-20441830D01*
X49145781Y-20452866D01*
X49163024Y-20465654D01*
X49178930Y-20480070D01*
X49193346Y-20495976D01*
X49206134Y-20513219D01*
X49217170Y-20531632D01*
X49226349Y-20551038D01*
X49233581Y-20571250D01*
X49238797Y-20592074D01*
X49241947Y-20613309D01*
X49243000Y-20634750D01*
X49243000Y-21072250D01*
X49241947Y-21093691D01*
X49238797Y-21114926D01*
X49233581Y-21135750D01*
X49226349Y-21155962D01*
X49217170Y-21175368D01*
X49206134Y-21193781D01*
X49193346Y-21211024D01*
X49178930Y-21226930D01*
X49163024Y-21241346D01*
X49145781Y-21254134D01*
X49127368Y-21265170D01*
X49107962Y-21274349D01*
X49087750Y-21281581D01*
X49066926Y-21286797D01*
X49045691Y-21289947D01*
X49024250Y-21291000D01*
X48511750Y-21291000D01*
X48490309Y-21289947D01*
X48469074Y-21286797D01*
X48448250Y-21281581D01*
X48428038Y-21274349D01*
X48408632Y-21265170D01*
X48390219Y-21254134D01*
X48372976Y-21241346D01*
X48357070Y-21226930D01*
X48342654Y-21211024D01*
X48329866Y-21193781D01*
X48318830Y-21175368D01*
X48309651Y-21155962D01*
X48302419Y-21135750D01*
X48297203Y-21114926D01*
X48294053Y-21093691D01*
X48293000Y-21072250D01*
X48293000Y-20634750D01*
X48294053Y-20613309D01*
X48297203Y-20592074D01*
X48302419Y-20571250D01*
X48309651Y-20551038D01*
X48318830Y-20531632D01*
X48329866Y-20513219D01*
X48342654Y-20495976D01*
X48357070Y-20480070D01*
X48372976Y-20465654D01*
X48390219Y-20452866D01*
X48408632Y-20441830D01*
X48428038Y-20432651D01*
X48448250Y-20425419D01*
X48469074Y-20420203D01*
X48490309Y-20417053D01*
X48511750Y-20416000D01*
X49024250Y-20416000D01*
X49045691Y-20417053D01*
X49045691Y-20417053D01*
G37*
D12*
G04 #@! TD*
G04 #@! TO.P,R11,2*
G04 #@! TO.N,Net-(Q3-Pad1)*
X48768000Y-20853500D03*
D11*
G04 #@! TO.N,Net-(Q4-Pad1)*
G04 #@! TO.C,R12*
G36*
X61237691Y-20442553D02*
X61258926Y-20445703D01*
X61279750Y-20450919D01*
X61299962Y-20458151D01*
X61319368Y-20467330D01*
X61337781Y-20478366D01*
X61355024Y-20491154D01*
X61370930Y-20505570D01*
X61385346Y-20521476D01*
X61398134Y-20538719D01*
X61409170Y-20557132D01*
X61418349Y-20576538D01*
X61425581Y-20596750D01*
X61430797Y-20617574D01*
X61433947Y-20638809D01*
X61435000Y-20660250D01*
X61435000Y-21097750D01*
X61433947Y-21119191D01*
X61430797Y-21140426D01*
X61425581Y-21161250D01*
X61418349Y-21181462D01*
X61409170Y-21200868D01*
X61398134Y-21219281D01*
X61385346Y-21236524D01*
X61370930Y-21252430D01*
X61355024Y-21266846D01*
X61337781Y-21279634D01*
X61319368Y-21290670D01*
X61299962Y-21299849D01*
X61279750Y-21307081D01*
X61258926Y-21312297D01*
X61237691Y-21315447D01*
X61216250Y-21316500D01*
X60703750Y-21316500D01*
X60682309Y-21315447D01*
X60661074Y-21312297D01*
X60640250Y-21307081D01*
X60620038Y-21299849D01*
X60600632Y-21290670D01*
X60582219Y-21279634D01*
X60564976Y-21266846D01*
X60549070Y-21252430D01*
X60534654Y-21236524D01*
X60521866Y-21219281D01*
X60510830Y-21200868D01*
X60501651Y-21181462D01*
X60494419Y-21161250D01*
X60489203Y-21140426D01*
X60486053Y-21119191D01*
X60485000Y-21097750D01*
X60485000Y-20660250D01*
X60486053Y-20638809D01*
X60489203Y-20617574D01*
X60494419Y-20596750D01*
X60501651Y-20576538D01*
X60510830Y-20557132D01*
X60521866Y-20538719D01*
X60534654Y-20521476D01*
X60549070Y-20505570D01*
X60564976Y-20491154D01*
X60582219Y-20478366D01*
X60600632Y-20467330D01*
X60620038Y-20458151D01*
X60640250Y-20450919D01*
X60661074Y-20445703D01*
X60682309Y-20442553D01*
X60703750Y-20441500D01*
X61216250Y-20441500D01*
X61237691Y-20442553D01*
X61237691Y-20442553D01*
G37*
D12*
G04 #@! TD*
G04 #@! TO.P,R12,2*
G04 #@! TO.N,Net-(Q4-Pad1)*
X60960000Y-20879000D03*
D11*
G04 #@! TO.N,/FAN4*
G04 #@! TO.C,R12*
G36*
X61237691Y-18867553D02*
X61258926Y-18870703D01*
X61279750Y-18875919D01*
X61299962Y-18883151D01*
X61319368Y-18892330D01*
X61337781Y-18903366D01*
X61355024Y-18916154D01*
X61370930Y-18930570D01*
X61385346Y-18946476D01*
X61398134Y-18963719D01*
X61409170Y-18982132D01*
X61418349Y-19001538D01*
X61425581Y-19021750D01*
X61430797Y-19042574D01*
X61433947Y-19063809D01*
X61435000Y-19085250D01*
X61435000Y-19522750D01*
X61433947Y-19544191D01*
X61430797Y-19565426D01*
X61425581Y-19586250D01*
X61418349Y-19606462D01*
X61409170Y-19625868D01*
X61398134Y-19644281D01*
X61385346Y-19661524D01*
X61370930Y-19677430D01*
X61355024Y-19691846D01*
X61337781Y-19704634D01*
X61319368Y-19715670D01*
X61299962Y-19724849D01*
X61279750Y-19732081D01*
X61258926Y-19737297D01*
X61237691Y-19740447D01*
X61216250Y-19741500D01*
X60703750Y-19741500D01*
X60682309Y-19740447D01*
X60661074Y-19737297D01*
X60640250Y-19732081D01*
X60620038Y-19724849D01*
X60600632Y-19715670D01*
X60582219Y-19704634D01*
X60564976Y-19691846D01*
X60549070Y-19677430D01*
X60534654Y-19661524D01*
X60521866Y-19644281D01*
X60510830Y-19625868D01*
X60501651Y-19606462D01*
X60494419Y-19586250D01*
X60489203Y-19565426D01*
X60486053Y-19544191D01*
X60485000Y-19522750D01*
X60485000Y-19085250D01*
X60486053Y-19063809D01*
X60489203Y-19042574D01*
X60494419Y-19021750D01*
X60501651Y-19001538D01*
X60510830Y-18982132D01*
X60521866Y-18963719D01*
X60534654Y-18946476D01*
X60549070Y-18930570D01*
X60564976Y-18916154D01*
X60582219Y-18903366D01*
X60600632Y-18892330D01*
X60620038Y-18883151D01*
X60640250Y-18875919D01*
X60661074Y-18870703D01*
X60682309Y-18867553D01*
X60703750Y-18866500D01*
X61216250Y-18866500D01*
X61237691Y-18867553D01*
X61237691Y-18867553D01*
G37*
D12*
G04 #@! TD*
G04 #@! TO.P,R12,1*
G04 #@! TO.N,/FAN4*
X60960000Y-19304000D03*
D19*
G04 #@! TO.P,RV1,3*
G04 #@! TO.N,GND*
X60428000Y-44870000D03*
G04 #@! TO.P,RV1,1*
G04 #@! TO.N,+3V3*
X60428000Y-46570000D03*
D20*
G04 #@! TO.P,RV1,2*
G04 #@! TO.N,/VR1*
X57428000Y-45720000D03*
G04 #@! TD*
G04 #@! TO.P,RV2,2*
G04 #@! TO.N,/VR3*
X57428000Y-40640000D03*
D19*
G04 #@! TO.P,RV2,1*
G04 #@! TO.N,+3V3*
X60428000Y-41490000D03*
G04 #@! TO.P,RV2,3*
G04 #@! TO.N,GND*
X60428000Y-39790000D03*
G04 #@! TD*
D20*
G04 #@! TO.P,RV3,2*
G04 #@! TO.N,/VR5*
X57428000Y-35560000D03*
D19*
G04 #@! TO.P,RV3,1*
G04 #@! TO.N,+3V3*
X60428000Y-36410000D03*
G04 #@! TO.P,RV3,3*
G04 #@! TO.N,GND*
X60428000Y-34710000D03*
G04 #@! TD*
G04 #@! TO.P,RV4,3*
G04 #@! TO.N,GND*
X60428000Y-29630000D03*
G04 #@! TO.P,RV4,1*
G04 #@! TO.N,+3V3*
X60428000Y-31330000D03*
D20*
G04 #@! TO.P,RV4,2*
G04 #@! TO.N,/VR7*
X57428000Y-30480000D03*
G04 #@! TD*
D19*
G04 #@! TO.P,RV5,3*
G04 #@! TO.N,GND*
X54332000Y-44870000D03*
G04 #@! TO.P,RV5,1*
G04 #@! TO.N,+3V3*
X54332000Y-46570000D03*
D20*
G04 #@! TO.P,RV5,2*
G04 #@! TO.N,/VR2*
X51332000Y-45720000D03*
G04 #@! TD*
G04 #@! TO.P,RV6,2*
G04 #@! TO.N,/VR4*
X51332000Y-40640000D03*
D19*
G04 #@! TO.P,RV6,1*
G04 #@! TO.N,+3V3*
X54332000Y-41490000D03*
G04 #@! TO.P,RV6,3*
G04 #@! TO.N,GND*
X54332000Y-39790000D03*
G04 #@! TD*
G04 #@! TO.P,RV7,3*
G04 #@! TO.N,GND*
X54332000Y-34710000D03*
G04 #@! TO.P,RV7,1*
G04 #@! TO.N,+3V3*
X54332000Y-36410000D03*
D20*
G04 #@! TO.P,RV7,2*
G04 #@! TO.N,/VR6*
X51332000Y-35560000D03*
G04 #@! TD*
G04 #@! TO.P,RV8,2*
G04 #@! TO.N,/VR8*
X51332000Y-30480000D03*
D19*
G04 #@! TO.P,RV8,1*
G04 #@! TO.N,+3V3*
X54332000Y-31330000D03*
G04 #@! TO.P,RV8,3*
G04 #@! TO.N,GND*
X54332000Y-29630000D03*
G04 #@! TD*
D21*
G04 #@! TO.P,U1,1*
G04 #@! TO.N,Net-(C4-Pad2)*
X26754000Y-38034000D03*
G04 #@! TO.P,U1,2*
G04 #@! TO.N,GND*
X26754000Y-37084000D03*
G04 #@! TO.P,U1,3*
G04 #@! TO.N,Net-(R5-Pad2)*
X26754000Y-36134000D03*
G04 #@! TO.P,U1,4*
G04 #@! TO.N,Net-(R1-Pad2)*
X24554000Y-36134000D03*
G04 #@! TO.P,U1,6*
G04 #@! TO.N,Net-(C4-Pad1)*
X24554000Y-38034000D03*
G04 #@! TO.P,U1,5*
G04 #@! TO.N,+12V*
X24554000Y-37084000D03*
G04 #@! TD*
D22*
G04 #@! TO.P,U2,1*
G04 #@! TO.N,+3V3*
X37586000Y-38540000D03*
G04 #@! TO.P,U2,2*
G04 #@! TO.N,Net-(C2-Pad1)*
X38386000Y-38540000D03*
G04 #@! TO.P,U2,3*
G04 #@! TO.N,Net-(C3-Pad1)*
X39186000Y-38540000D03*
G04 #@! TO.P,U2,4*
G04 #@! TO.N,/NRST*
X39986000Y-38540000D03*
G04 #@! TO.P,U2,5*
G04 #@! TO.N,+3V3*
X40786000Y-38540000D03*
G04 #@! TO.P,U2,6*
G04 #@! TO.N,/VR1*
X41586000Y-38540000D03*
G04 #@! TO.P,U2,7*
G04 #@! TO.N,/VR2*
X42386000Y-38540000D03*
G04 #@! TO.P,U2,8*
G04 #@! TO.N,/VR3*
X43186000Y-38540000D03*
D23*
G04 #@! TO.P,U2,9*
G04 #@! TO.N,/VR4*
X44636000Y-37090000D03*
G04 #@! TO.P,U2,10*
G04 #@! TO.N,/VR5*
X44636000Y-36290000D03*
G04 #@! TO.P,U2,11*
G04 #@! TO.N,/VR6*
X44636000Y-35490000D03*
G04 #@! TO.P,U2,12*
G04 #@! TO.N,/VR7*
X44636000Y-34690000D03*
G04 #@! TO.P,U2,13*
G04 #@! TO.N,/VR8*
X44636000Y-33890000D03*
G04 #@! TO.P,U2,14*
G04 #@! TO.N,/FAKE3*
X44636000Y-33090000D03*
G04 #@! TO.P,U2,15*
G04 #@! TO.N,/FAKE4*
X44636000Y-32290000D03*
G04 #@! TO.P,U2,16*
G04 #@! TO.N,GND*
X44636000Y-31490000D03*
D22*
G04 #@! TO.P,U2,17*
G04 #@! TO.N,+3V3*
X43186000Y-30040000D03*
G04 #@! TO.P,U2,18*
G04 #@! TO.N,/FAN4*
X42386000Y-30040000D03*
G04 #@! TO.P,U2,19*
G04 #@! TO.N,/FAN3*
X41586000Y-30040000D03*
G04 #@! TO.P,U2,20*
G04 #@! TO.N,/FAN2*
X40786000Y-30040000D03*
G04 #@! TO.P,U2,21*
G04 #@! TO.N,/FAN1*
X39986000Y-30040000D03*
G04 #@! TO.P,U2,22*
G04 #@! TO.N,/LED2*
X39186000Y-30040000D03*
G04 #@! TO.P,U2,23*
G04 #@! TO.N,/SWDIO*
X38386000Y-30040000D03*
G04 #@! TO.P,U2,24*
G04 #@! TO.N,/SYS_CLK*
X37586000Y-30040000D03*
D23*
G04 #@! TO.P,U2,25*
G04 #@! TO.N,Net-(U2-Pad25)*
X36136000Y-31490000D03*
G04 #@! TO.P,U2,26*
G04 #@! TO.N,/LED1*
X36136000Y-32290000D03*
G04 #@! TO.P,U2,27*
G04 #@! TO.N,/FAKE1*
X36136000Y-33090000D03*
G04 #@! TO.P,U2,28*
G04 #@! TO.N,/FAKE2*
X36136000Y-33890000D03*
G04 #@! TO.P,U2,29*
G04 #@! TO.N,Net-(U2-Pad29)*
X36136000Y-34690000D03*
G04 #@! TO.P,U2,30*
G04 #@! TO.N,Net-(U2-Pad30)*
X36136000Y-35490000D03*
G04 #@! TO.P,U2,31*
G04 #@! TO.N,Net-(R4-Pad1)*
X36136000Y-36290000D03*
G04 #@! TO.P,U2,32*
G04 #@! TO.N,GND*
X36136000Y-37090000D03*
G04 #@! TD*
D15*
G04 #@! TO.P,J1,1*
G04 #@! TO.N,GND*
X30734000Y-31496000D03*
D16*
G04 #@! TO.P,J1,2*
G04 #@! TO.N,/SYS_CLK*
X30734000Y-28956000D03*
G04 #@! TO.P,J1,3*
G04 #@! TO.N,/NRST*
X33274000Y-31496000D03*
G04 #@! TO.P,J1,4*
G04 #@! TO.N,/SWDIO*
X33274000Y-28956000D03*
G04 #@! TD*
D24*
G04 #@! TO.N,GND*
X28194000Y-39624000D03*
X22352000Y-23876000D03*
X34798000Y-23622000D03*
X46482000Y-23622000D03*
X58674000Y-23622000D03*
X48514000Y-29972000D03*
X21082000Y-28194000D03*
X50546000Y-25400000D03*
X50546000Y-25400000D03*
X33274000Y-43434000D03*
X32766000Y-39878000D03*
X38100000Y-36322000D03*
X41402000Y-33782000D03*
G04 #@! TO.N,+3V3*
X52832000Y-46482000D03*
X52832000Y-41402000D03*
X52832000Y-36322000D03*
X52832000Y-31496000D03*
X58928000Y-46482000D03*
X58928000Y-41402000D03*
X58928000Y-36322000D03*
X58928000Y-31496000D03*
X48514000Y-43688000D03*
X49784000Y-28748388D03*
G04 #@! TO.N,/FAKE3*
X46736000Y-32766000D03*
G04 #@! TO.N,/FAKE4*
X50800000Y-49276000D03*
X47752000Y-32004000D03*
G04 #@! TD*
D25*
G04 #@! TO.N,GND*
X20558000Y-23942000D02*
X22286000Y-23942000D01*
X22286000Y-23942000D02*
X22352000Y-23876000D01*
X32496000Y-23942000D02*
X34478000Y-23942000D01*
X34478000Y-23942000D02*
X34798000Y-23622000D01*
X44688000Y-23942000D02*
X46162000Y-23942000D01*
X46162000Y-23942000D02*
X46482000Y-23622000D01*
X56880000Y-23942000D02*
X58354000Y-23942000D01*
X58354000Y-23942000D02*
X58674000Y-23622000D01*
D26*
X45777000Y-31490000D02*
X46482000Y-30785000D01*
X44636000Y-31490000D02*
X45777000Y-31490000D01*
X60428000Y-28880000D02*
X60428000Y-29630000D01*
X60250000Y-28702000D02*
X60428000Y-28880000D01*
X56010000Y-28702000D02*
X60250000Y-28702000D01*
X55082000Y-29630000D02*
X56010000Y-28702000D01*
X54332000Y-29630000D02*
X55082000Y-29630000D01*
X46482000Y-30785000D02*
X47701000Y-30785000D01*
X47701000Y-30785000D02*
X48514000Y-29972000D01*
X28194000Y-39058315D02*
X28194000Y-39624000D01*
X28194000Y-37744000D02*
X28194000Y-39058315D01*
X27534000Y-37084000D02*
X28194000Y-37744000D01*
X26754000Y-37084000D02*
X27534000Y-37084000D01*
X28930500Y-38887500D02*
X28194000Y-39624000D01*
X29210000Y-38887500D02*
X28930500Y-38887500D01*
X35280500Y-39903500D02*
X35763000Y-40386000D01*
X34290000Y-39903500D02*
X35280500Y-39903500D01*
X35763000Y-40386000D02*
X35306000Y-40386000D01*
D27*
X22555000Y-27432000D02*
X22555000Y-29210000D01*
X22555000Y-27432000D02*
X21844000Y-27432000D01*
X21844000Y-27432000D02*
X21082000Y-28194000D01*
X31210000Y-43180000D02*
X33020000Y-43180000D01*
X33020000Y-43180000D02*
X33274000Y-43434000D01*
X34264500Y-39878000D02*
X34290000Y-39903500D01*
X32766000Y-39878000D02*
X34264500Y-39878000D01*
D26*
X36136000Y-37090000D02*
X37332000Y-37090000D01*
X37332000Y-37090000D02*
X38100000Y-36322000D01*
X43694000Y-31490000D02*
X44636000Y-31490000D01*
X41402000Y-33782000D02*
X43694000Y-31490000D01*
D28*
G04 #@! TO.N,+12V*
X23088500Y-37084000D02*
X22860000Y-37312500D01*
X24554000Y-37084000D02*
X23088500Y-37084000D01*
X22860000Y-35839500D02*
X22860000Y-37312500D01*
X22860000Y-37312500D02*
X22072500Y-37312500D01*
X21082000Y-36322000D02*
X22072500Y-37312500D01*
X19050000Y-36322000D02*
X21082000Y-36322000D01*
D26*
G04 #@! TO.N,Net-(C2-Pad1)*
X37030000Y-43434000D02*
X36830000Y-43434000D01*
X36271000Y-42875000D02*
X36830000Y-43434000D01*
X38354000Y-38508000D02*
X38386000Y-38540000D01*
X37012000Y-43688000D02*
X37338000Y-43688000D01*
X38386000Y-42640000D02*
X38386000Y-42418000D01*
X37338000Y-43688000D02*
X38386000Y-42640000D01*
X38386000Y-38540000D02*
X38386000Y-42418000D01*
X36550500Y-44149500D02*
X37012000Y-43688000D01*
X36732500Y-43408500D02*
X37012000Y-43688000D01*
X34798000Y-43408500D02*
X36732500Y-43408500D01*
G04 #@! TO.N,Net-(C3-Pad1)*
X39116000Y-38470000D02*
X39186000Y-38540000D01*
X40132000Y-43688000D02*
X40712000Y-43688000D01*
X39186000Y-38540000D02*
X39186000Y-42742000D01*
X39186000Y-42742000D02*
X40132000Y-43688000D01*
X41173500Y-44149500D02*
X40712000Y-43688000D01*
X40991500Y-43408500D02*
X40712000Y-43688000D01*
X42926000Y-43408500D02*
X40991500Y-43408500D01*
D28*
G04 #@! TO.N,Net-(C4-Pad2)*
X26754000Y-39565500D02*
X26441500Y-39878000D01*
X26754000Y-38034000D02*
X26754000Y-39565500D01*
G04 #@! TO.N,Net-(C4-Pad1)*
X24866500Y-43081500D02*
X24768000Y-43180000D01*
X24866500Y-39878000D02*
X24866500Y-43081500D01*
X24554000Y-39565500D02*
X24866500Y-39878000D01*
X24554000Y-38034000D02*
X24554000Y-39565500D01*
X24768000Y-43180000D02*
X27210000Y-43180000D01*
D27*
G04 #@! TO.N,+3V3*
X28422500Y-45237500D02*
X28422500Y-46228000D01*
X29210000Y-44450000D02*
X28422500Y-45237500D01*
D28*
X27885000Y-46228000D02*
X28422500Y-46228000D01*
X24066000Y-46228000D02*
X27885000Y-46228000D01*
X21968000Y-44130000D02*
X24066000Y-46228000D01*
X21968000Y-43180000D02*
X21968000Y-44130000D01*
D26*
X43186000Y-29190000D02*
X43420000Y-28956000D01*
X43186000Y-30040000D02*
X43186000Y-29190000D01*
X43420000Y-28956000D02*
X43942000Y-28956000D01*
X44196000Y-29210000D02*
X46482000Y-29210000D01*
X43942000Y-28956000D02*
X44196000Y-29210000D01*
X54332000Y-46570000D02*
X52920000Y-46570000D01*
X52920000Y-46570000D02*
X52832000Y-46482000D01*
X54244000Y-41402000D02*
X54332000Y-41490000D01*
X52832000Y-41402000D02*
X54244000Y-41402000D01*
X54244000Y-36322000D02*
X54332000Y-36410000D01*
X52832000Y-36322000D02*
X54244000Y-36322000D01*
X54166000Y-31496000D02*
X54332000Y-31330000D01*
X52832000Y-31496000D02*
X54166000Y-31496000D01*
X60428000Y-46570000D02*
X59016000Y-46570000D01*
X59016000Y-46570000D02*
X58928000Y-46482000D01*
X60340000Y-41402000D02*
X60428000Y-41490000D01*
X58928000Y-41402000D02*
X60340000Y-41402000D01*
X60340000Y-36322000D02*
X60428000Y-36410000D01*
X58928000Y-36322000D02*
X60340000Y-36322000D01*
X59094000Y-31330000D02*
X58928000Y-31496000D01*
X60428000Y-31330000D02*
X59094000Y-31330000D01*
X46482000Y-29210000D02*
X46943612Y-28748388D01*
X52832000Y-29718000D02*
X52832000Y-31496000D01*
X51862388Y-28748388D02*
X52832000Y-29718000D01*
X55082000Y-31330000D02*
X56134000Y-30278000D01*
X54332000Y-31330000D02*
X55082000Y-31330000D01*
X56134000Y-30278000D02*
X56134000Y-29718000D01*
X56134000Y-29718000D02*
X56642000Y-29210000D01*
X56642000Y-29210000D02*
X58420000Y-29210000D01*
X58928000Y-29718000D02*
X58928000Y-31496000D01*
X58420000Y-29210000D02*
X58928000Y-29718000D01*
X37586000Y-40138000D02*
X37338000Y-40386000D01*
X37586000Y-38540000D02*
X37586000Y-40138000D01*
D27*
X29210000Y-41402000D02*
X29210000Y-41910000D01*
X29210000Y-41910000D02*
X29210000Y-44450000D01*
X30734000Y-38887500D02*
X30734000Y-39624000D01*
X30734000Y-39624000D02*
X30734000Y-39878000D01*
X29718000Y-40894000D02*
X32512000Y-40894000D01*
X29718000Y-40894000D02*
X29210000Y-41402000D01*
X30734000Y-39878000D02*
X29718000Y-40894000D01*
X32512000Y-40894000D02*
X33274000Y-41656000D01*
X33274000Y-41656000D02*
X37084000Y-41656000D01*
X37338000Y-41402000D02*
X37338000Y-40386000D01*
X37084000Y-41656000D02*
X37338000Y-41402000D01*
D26*
X46943612Y-28748388D02*
X49784000Y-28748388D01*
X49784000Y-28748388D02*
X51862388Y-28748388D01*
D27*
X48514000Y-46990000D02*
X48514000Y-43688000D01*
X47244000Y-48260000D02*
X48514000Y-46990000D01*
X28702000Y-48260000D02*
X47244000Y-48260000D01*
X28422500Y-46228000D02*
X28422500Y-47980500D01*
X28422500Y-47980500D02*
X28702000Y-48260000D01*
X46710500Y-41884500D02*
X48514000Y-43688000D01*
X45720000Y-41884500D02*
X46710500Y-41884500D01*
D26*
X40786000Y-39390000D02*
X42672000Y-41276000D01*
X40786000Y-39390000D02*
X40786000Y-38540000D01*
X42740009Y-41344009D02*
X40786000Y-39390000D01*
X45179509Y-41344009D02*
X42740009Y-41344009D01*
X45720000Y-41884500D02*
X45179509Y-41344009D01*
G04 #@! TO.N,Net-(D2-Pad2)*
X24130000Y-27432000D02*
X25603000Y-27432000D01*
G04 #@! TO.N,Net-(D3-Pad2)*
X24130000Y-29210000D02*
X25603000Y-29210000D01*
G04 #@! TO.N,/SYS_CLK*
X37586000Y-29190000D02*
X37586000Y-30040000D01*
X37352000Y-28956000D02*
X37586000Y-29190000D01*
X31909001Y-30131001D02*
X33748589Y-30131001D01*
X36830000Y-28956000D02*
X37352000Y-28956000D01*
X35654999Y-30131001D02*
X36830000Y-28956000D01*
X31909001Y-30131001D02*
X35654999Y-30131001D01*
X30734000Y-28956000D02*
X31909001Y-30131001D01*
G04 #@! TO.N,/SWDIO*
X37644000Y-28448000D02*
X38386000Y-29190000D01*
X34123999Y-28106001D02*
X33274000Y-28956000D01*
X37302001Y-28106001D02*
X34123999Y-28106001D01*
X38386000Y-29190000D02*
X37302001Y-28106001D01*
X38386000Y-30040000D02*
X38386000Y-29190000D01*
G04 #@! TO.N,/NRST*
X39986000Y-33890000D02*
X39986000Y-38540000D01*
X36742001Y-30646001D02*
X37338000Y-31242000D01*
X34123999Y-30646001D02*
X36742001Y-30646001D01*
X33274000Y-31496000D02*
X34123999Y-30646001D01*
X37338000Y-31242000D02*
X39986000Y-33890000D01*
G04 #@! TO.N,/FAKE1*
X35286000Y-33090000D02*
X36136000Y-33090000D01*
X21844000Y-50800000D02*
X21844000Y-49597919D01*
X16696081Y-44450000D02*
X16510000Y-44263919D01*
X21844000Y-49597919D02*
X16696081Y-44450000D01*
X34728000Y-33090000D02*
X36136000Y-33090000D01*
X34347990Y-33470010D02*
X34728000Y-33090000D01*
X16313990Y-44067909D02*
X16313990Y-33216010D01*
X16313990Y-33216010D02*
X18288000Y-31242000D01*
X16696081Y-44450000D02*
X16313990Y-44067909D01*
X18288000Y-31242000D02*
X26670000Y-31242000D01*
X26670000Y-31242000D02*
X28898010Y-33470010D01*
X28898010Y-33470010D02*
X34347990Y-33470010D01*
D25*
G04 #@! TO.N,Net-(D4-Pad1)*
X19304000Y-19844000D02*
X20288000Y-20828000D01*
X19304000Y-16510000D02*
X19304000Y-19844000D01*
G04 #@! TO.N,Net-(D4-Pad2)*
X16764000Y-20352000D02*
X16288000Y-20828000D01*
X16764000Y-16510000D02*
X16764000Y-20352000D01*
X16288000Y-24072000D02*
X17108000Y-24892000D01*
X16288000Y-20828000D02*
X16288000Y-24072000D01*
X18558000Y-24892000D02*
X17108000Y-24892000D01*
D26*
G04 #@! TO.N,/FAN1*
X24384000Y-17712081D02*
X24384000Y-19278500D01*
X24384000Y-16510000D02*
X24384000Y-17712081D01*
X25120500Y-19278500D02*
X24384000Y-19278500D01*
X25400000Y-19558000D02*
X25120500Y-19278500D01*
X25400000Y-25400000D02*
X25400000Y-19558000D01*
X39986000Y-30040000D02*
X39986000Y-29190000D01*
X39986000Y-29190000D02*
X37466000Y-26670000D01*
X37466000Y-26670000D02*
X28194000Y-26670000D01*
X27940000Y-26416000D02*
X26416000Y-26416000D01*
X28194000Y-26670000D02*
X27940000Y-26416000D01*
X26416000Y-26416000D02*
X25400000Y-25400000D01*
G04 #@! TO.N,/FAKE2*
X35286000Y-33890000D02*
X36136000Y-33890000D01*
X28586020Y-33920020D02*
X35255980Y-33920020D01*
X26358010Y-31692010D02*
X28586020Y-33920020D01*
X34036000Y-50800000D02*
X32512000Y-49276000D01*
X35255980Y-33920020D02*
X35286000Y-33890000D01*
X32512000Y-49276000D02*
X22158491Y-49276000D01*
X22158491Y-49276000D02*
X16764000Y-43881509D01*
X16764000Y-43881509D02*
X16764000Y-33402410D01*
X16764000Y-33402410D02*
X18474400Y-31692010D01*
X18474400Y-31692010D02*
X26358010Y-31692010D01*
D25*
G04 #@! TO.N,Net-(D5-Pad1)*
X31496000Y-20098000D02*
X32226000Y-20828000D01*
X31496000Y-16510000D02*
X31496000Y-20098000D01*
G04 #@! TO.N,Net-(D5-Pad2)*
X28956000Y-20098000D02*
X28226000Y-20828000D01*
X28956000Y-16510000D02*
X28956000Y-20098000D01*
X28226000Y-22098000D02*
X28226000Y-24162000D01*
D29*
X28226000Y-20828000D02*
X28226000Y-22098000D01*
D25*
X28226000Y-24162000D02*
X28956000Y-24892000D01*
X30496000Y-24892000D02*
X28956000Y-24892000D01*
D26*
G04 #@! TO.N,/FAN2*
X36576000Y-19278500D02*
X36576000Y-16510000D01*
X37312500Y-19278500D02*
X36576000Y-19278500D01*
X37592000Y-19558000D02*
X37312500Y-19278500D01*
X37592000Y-25996000D02*
X37592000Y-19558000D01*
X40786000Y-29190000D02*
X37592000Y-25996000D01*
X40786000Y-30040000D02*
X40786000Y-29190000D01*
D25*
G04 #@! TO.N,Net-(D6-Pad1)*
X43688000Y-20098000D02*
X44418000Y-20828000D01*
X43688000Y-16510000D02*
X43688000Y-20098000D01*
D26*
G04 #@! TO.N,/FAKE3*
X46412000Y-33090000D02*
X44636000Y-33090000D01*
X46736000Y-32766000D02*
X46412000Y-33090000D01*
D25*
G04 #@! TO.N,Net-(D6-Pad2)*
X41148000Y-20098000D02*
X40418000Y-20828000D01*
X41148000Y-16510000D02*
X41148000Y-20098000D01*
D29*
X40418000Y-20828000D02*
X40418000Y-24162000D01*
X41148000Y-24892000D02*
X42688000Y-24892000D01*
X40418000Y-24162000D02*
X41148000Y-24892000D01*
D26*
G04 #@! TO.N,/FAN3*
X49784000Y-20294500D02*
X48768000Y-19278500D01*
X49784000Y-23876000D02*
X49784000Y-20294500D01*
X46228000Y-27432000D02*
X49784000Y-23876000D01*
X43344000Y-27432000D02*
X46228000Y-27432000D01*
X41586000Y-29190000D02*
X43344000Y-27432000D01*
X41586000Y-30040000D02*
X41586000Y-29190000D01*
X48768000Y-19278500D02*
X48768000Y-16510000D01*
G04 #@! TO.N,/FAKE4*
X45486000Y-32290000D02*
X44636000Y-32290000D01*
X46138998Y-32290000D02*
X45486000Y-32290000D01*
X46424998Y-32004000D02*
X46138998Y-32290000D01*
X47752000Y-32004000D02*
X46424998Y-32004000D01*
X56896000Y-49276000D02*
X58420000Y-50800000D01*
X50800000Y-49276000D02*
X56896000Y-49276000D01*
D25*
G04 #@! TO.N,Net-(D7-Pad1)*
X55880000Y-20098000D02*
X56610000Y-20828000D01*
X55880000Y-16510000D02*
X55880000Y-20098000D01*
D26*
G04 #@! TO.N,/FAN4*
X61722000Y-19304000D02*
X60960000Y-19304000D01*
X42386000Y-29190000D02*
X43636000Y-27940000D01*
X42386000Y-30040000D02*
X42386000Y-29190000D01*
X43636000Y-27940000D02*
X58166000Y-27940000D01*
X58166000Y-27940000D02*
X61976000Y-24130000D01*
X61976000Y-24130000D02*
X61976000Y-19558000D01*
X61976000Y-19558000D02*
X61722000Y-19304000D01*
X60960000Y-19304000D02*
X60960000Y-16510000D01*
D25*
G04 #@! TO.N,Net-(D7-Pad2)*
X53340000Y-20098000D02*
X52610000Y-20828000D01*
X53340000Y-16510000D02*
X53340000Y-20098000D01*
D29*
X52610000Y-20828000D02*
X52610000Y-24162000D01*
X53340000Y-24892000D02*
X54880000Y-24892000D01*
X52610000Y-24162000D02*
X53340000Y-24892000D01*
D26*
G04 #@! TO.N,Net-(Q1-Pad1)*
X24384000Y-20853500D02*
X24384000Y-24892000D01*
X23434000Y-25842000D02*
X20558000Y-25842000D01*
X24384000Y-24892000D02*
X23434000Y-25842000D01*
G04 #@! TO.N,Net-(Q2-Pad1)*
X35880000Y-25842000D02*
X32496000Y-25842000D01*
X36576000Y-20853500D02*
X36576000Y-25146000D01*
X36576000Y-25146000D02*
X35880000Y-25842000D01*
G04 #@! TO.N,Net-(Q3-Pad1)*
X48768000Y-20853500D02*
X48768000Y-23622000D01*
X46548000Y-25842000D02*
X44688000Y-25842000D01*
X48768000Y-23622000D02*
X46548000Y-25842000D01*
G04 #@! TO.N,Net-(Q4-Pad1)*
X60960000Y-20879000D02*
X60960000Y-23876000D01*
X58994000Y-25842000D02*
X56880000Y-25842000D01*
X60960000Y-23876000D02*
X58994000Y-25842000D01*
G04 #@! TO.N,Net-(R1-Pad2)*
X22860000Y-34264500D02*
X24104500Y-34264500D01*
X24554000Y-34714000D02*
X24554000Y-36134000D01*
X24104500Y-34264500D02*
X24554000Y-34714000D01*
G04 #@! TO.N,Net-(R4-Pad1)*
X34290000Y-37791000D02*
X34290000Y-38328500D01*
X34290000Y-37286000D02*
X34290000Y-37791000D01*
X35286000Y-36290000D02*
X34290000Y-37286000D01*
X36136000Y-36290000D02*
X35286000Y-36290000D01*
G04 #@! TO.N,Net-(R5-Pad2)*
X28031500Y-36134000D02*
X29210000Y-37312500D01*
X26754000Y-36134000D02*
X28031500Y-36134000D01*
X30734000Y-37312500D02*
X29210000Y-37312500D01*
G04 #@! TO.N,/LED2*
X27715500Y-27432000D02*
X27178000Y-27432000D01*
X37264410Y-27432000D02*
X27715500Y-27432000D01*
X39186000Y-29353590D02*
X37264410Y-27432000D01*
X39186000Y-30040000D02*
X39186000Y-29353590D01*
G04 #@! TO.N,/LED1*
X27178000Y-29210000D02*
X27178000Y-30734000D01*
X27178000Y-30734000D02*
X29464000Y-33020000D01*
X34068000Y-33020000D02*
X34798000Y-32290000D01*
X29464000Y-33020000D02*
X34068000Y-33020000D01*
X36136000Y-32290000D02*
X34798000Y-32290000D01*
G04 #@! TO.N,/VR1*
X57428000Y-47728000D02*
X57428000Y-45720000D01*
X56896000Y-48260000D02*
X57428000Y-47728000D01*
X50456000Y-48260000D02*
X56896000Y-48260000D01*
X41586000Y-38540000D02*
X41586000Y-39390000D01*
X41586000Y-39390000D02*
X43090000Y-40894000D01*
X43090000Y-40894000D02*
X47244000Y-40894000D01*
X49948000Y-43598000D02*
X49948000Y-47752000D01*
X47244000Y-40894000D02*
X49948000Y-43598000D01*
X49948000Y-47752000D02*
X50456000Y-48260000D01*
G04 #@! TO.N,/VR5*
X57428000Y-37568000D02*
X57428000Y-35560000D01*
X56896000Y-38100000D02*
X57428000Y-37568000D01*
X51054000Y-38100000D02*
X56896000Y-38100000D01*
X49244000Y-36290000D02*
X51054000Y-38100000D01*
X44636000Y-36290000D02*
X49244000Y-36290000D01*
G04 #@! TO.N,/VR2*
X42386000Y-38540000D02*
X42386000Y-39390000D01*
X43382000Y-40386000D02*
X47752000Y-40386000D01*
X42386000Y-39390000D02*
X43382000Y-40386000D01*
X51332000Y-43966000D02*
X51332000Y-45720000D01*
X47752000Y-40386000D02*
X51332000Y-43966000D01*
G04 #@! TO.N,/VR6*
X51262000Y-35490000D02*
X51332000Y-35560000D01*
X44636000Y-35490000D02*
X51262000Y-35490000D01*
G04 #@! TO.N,/VR3*
X43186000Y-39390000D02*
X43186000Y-38540000D01*
X57428000Y-40640000D02*
X57428000Y-41886000D01*
X57428000Y-41886000D02*
X56134000Y-43180000D01*
X56134000Y-43180000D02*
X51562000Y-43180000D01*
X51562000Y-43180000D02*
X48260000Y-39878000D01*
X48260000Y-39878000D02*
X43674000Y-39878000D01*
X43674000Y-39878000D02*
X43186000Y-39390000D01*
G04 #@! TO.N,/VR7*
X57428000Y-32234000D02*
X57428000Y-30480000D01*
X56642000Y-33020000D02*
X57428000Y-32234000D01*
X49276000Y-33020000D02*
X56642000Y-33020000D01*
X47606000Y-34690000D02*
X49276000Y-33020000D01*
X44636000Y-34690000D02*
X47606000Y-34690000D01*
G04 #@! TO.N,/VR4*
X46108410Y-37090000D02*
X49658410Y-40640000D01*
X44636000Y-37090000D02*
X46108410Y-37090000D01*
X49658410Y-40640000D02*
X51332000Y-40640000D01*
G04 #@! TO.N,/VR8*
X45486000Y-33890000D02*
X44636000Y-33890000D01*
X47172000Y-33890000D02*
X45486000Y-33890000D01*
X50582000Y-30480000D02*
X47172000Y-33890000D01*
X51332000Y-30480000D02*
X50582000Y-30480000D01*
G04 #@! TD*
D30*
G04 #@! TO.N,GND*
G36*
X62511001Y-52351000D02*
X15213000Y-52351000D01*
X15213000Y-24956081D01*
X15289472Y-25070529D01*
X15405113Y-25147798D01*
X16032200Y-25774885D01*
X16109471Y-25890529D01*
X16567600Y-26196641D01*
X16971593Y-26277000D01*
X17107999Y-26304133D01*
X17244405Y-26277000D01*
X18694407Y-26277000D01*
X19098400Y-26196641D01*
X19460560Y-25954653D01*
X19460560Y-26242000D01*
X19509843Y-26489765D01*
X19650191Y-26699809D01*
X19860235Y-26840157D01*
X20108000Y-26889440D01*
X21008000Y-26889440D01*
X21255765Y-26840157D01*
X21465809Y-26699809D01*
X21531163Y-26602000D01*
X23272876Y-26602000D01*
X23110995Y-26844273D01*
X23045060Y-27175750D01*
X23045060Y-27688250D01*
X23110995Y-28019727D01*
X23298761Y-28300739D01*
X23329084Y-28321000D01*
X23298761Y-28341261D01*
X23110995Y-28622273D01*
X23045060Y-28953750D01*
X23045060Y-29466250D01*
X23110995Y-29797727D01*
X23298761Y-30078739D01*
X23579773Y-30266505D01*
X23911250Y-30332440D01*
X24348750Y-30332440D01*
X24680227Y-30266505D01*
X24866500Y-30142042D01*
X25052773Y-30266505D01*
X25384250Y-30332440D01*
X25821750Y-30332440D01*
X26153227Y-30266505D01*
X26390500Y-30107964D01*
X26418001Y-30126340D01*
X26418001Y-30482000D01*
X18362848Y-30482000D01*
X18288000Y-30467112D01*
X18213152Y-30482000D01*
X18213148Y-30482000D01*
X18039605Y-30516520D01*
X17991462Y-30526096D01*
X17820994Y-30640000D01*
X17740071Y-30694071D01*
X17697671Y-30757527D01*
X15829518Y-32625681D01*
X15766062Y-32668081D01*
X15723662Y-32731537D01*
X15723661Y-32731538D01*
X15652573Y-32837929D01*
X15598087Y-32919473D01*
X15572124Y-33050000D01*
X15539102Y-33216010D01*
X15553991Y-33290862D01*
X15553990Y-43993062D01*
X15539102Y-44067909D01*
X15553990Y-44142756D01*
X15553990Y-44142760D01*
X15598086Y-44364445D01*
X15766061Y-44615838D01*
X15829520Y-44658240D01*
X16105752Y-44934472D01*
X20849673Y-49678394D01*
X20773375Y-49729375D01*
X20574000Y-50027761D01*
X20374625Y-49729375D01*
X19883418Y-49401161D01*
X19450256Y-49315000D01*
X19157744Y-49315000D01*
X18724582Y-49401161D01*
X18233375Y-49729375D01*
X17905161Y-50220582D01*
X17789908Y-50800000D01*
X17905161Y-51379418D01*
X18233375Y-51870625D01*
X18724582Y-52198839D01*
X19157744Y-52285000D01*
X19450256Y-52285000D01*
X19883418Y-52198839D01*
X20374625Y-51870625D01*
X20574000Y-51572239D01*
X20773375Y-51870625D01*
X21264582Y-52198839D01*
X21697744Y-52285000D01*
X21990256Y-52285000D01*
X22423418Y-52198839D01*
X22914625Y-51870625D01*
X23114000Y-51572239D01*
X23313375Y-51870625D01*
X23804582Y-52198839D01*
X24237744Y-52285000D01*
X24530256Y-52285000D01*
X24963418Y-52198839D01*
X25454625Y-51870625D01*
X25782839Y-51379418D01*
X25898092Y-50800000D01*
X25782839Y-50220582D01*
X25659505Y-50036000D01*
X30220495Y-50036000D01*
X30097161Y-50220582D01*
X29981908Y-50800000D01*
X30097161Y-51379418D01*
X30425375Y-51870625D01*
X30916582Y-52198839D01*
X31349744Y-52285000D01*
X31642256Y-52285000D01*
X32075418Y-52198839D01*
X32566625Y-51870625D01*
X32766000Y-51572239D01*
X32965375Y-51870625D01*
X33456582Y-52198839D01*
X33889744Y-52285000D01*
X34182256Y-52285000D01*
X34615418Y-52198839D01*
X35106625Y-51870625D01*
X35306000Y-51572239D01*
X35505375Y-51870625D01*
X35996582Y-52198839D01*
X36429744Y-52285000D01*
X36722256Y-52285000D01*
X37155418Y-52198839D01*
X37646625Y-51870625D01*
X37974839Y-51379418D01*
X38090092Y-50800000D01*
X37974839Y-50220582D01*
X37646625Y-49729375D01*
X37155418Y-49401161D01*
X36722256Y-49315000D01*
X36429744Y-49315000D01*
X35996582Y-49401161D01*
X35505375Y-49729375D01*
X35306000Y-50027761D01*
X35106625Y-49729375D01*
X34615418Y-49401161D01*
X34182256Y-49315000D01*
X33889744Y-49315000D01*
X33669593Y-49358791D01*
X33455802Y-49145000D01*
X47156839Y-49145000D01*
X47244000Y-49162337D01*
X47331161Y-49145000D01*
X47331165Y-49145000D01*
X47589310Y-49093652D01*
X47882049Y-48898049D01*
X47931425Y-48824153D01*
X49078156Y-47677423D01*
X49152049Y-47628049D01*
X49188001Y-47574243D01*
X49188001Y-47677148D01*
X49173112Y-47752000D01*
X49232097Y-48048537D01*
X49341636Y-48212473D01*
X49400072Y-48299929D01*
X49463527Y-48342328D01*
X49865672Y-48744475D01*
X49886795Y-48776087D01*
X49765000Y-49070126D01*
X49765000Y-49481874D01*
X49914642Y-49843142D01*
X49838625Y-49729375D01*
X49347418Y-49401161D01*
X48914256Y-49315000D01*
X48621744Y-49315000D01*
X48188582Y-49401161D01*
X47697375Y-49729375D01*
X47498000Y-50027761D01*
X47298625Y-49729375D01*
X46807418Y-49401161D01*
X46374256Y-49315000D01*
X46081744Y-49315000D01*
X45648582Y-49401161D01*
X45157375Y-49729375D01*
X44958000Y-50027761D01*
X44758625Y-49729375D01*
X44267418Y-49401161D01*
X43834256Y-49315000D01*
X43541744Y-49315000D01*
X43108582Y-49401161D01*
X42617375Y-49729375D01*
X42289161Y-50220582D01*
X42173908Y-50800000D01*
X42289161Y-51379418D01*
X42617375Y-51870625D01*
X43108582Y-52198839D01*
X43541744Y-52285000D01*
X43834256Y-52285000D01*
X44267418Y-52198839D01*
X44758625Y-51870625D01*
X44958000Y-51572239D01*
X45157375Y-51870625D01*
X45648582Y-52198839D01*
X46081744Y-52285000D01*
X46374256Y-52285000D01*
X46807418Y-52198839D01*
X47298625Y-51870625D01*
X47498000Y-51572239D01*
X47697375Y-51870625D01*
X48188582Y-52198839D01*
X48621744Y-52285000D01*
X48914256Y-52285000D01*
X49347418Y-52198839D01*
X49838625Y-51870625D01*
X50166839Y-51379418D01*
X50282092Y-50800000D01*
X50166839Y-50220582D01*
X49937216Y-49876927D01*
X50213720Y-50153431D01*
X50594126Y-50311000D01*
X51005874Y-50311000D01*
X51386280Y-50153431D01*
X51503711Y-50036000D01*
X54604495Y-50036000D01*
X54481161Y-50220582D01*
X54365908Y-50800000D01*
X54481161Y-51379418D01*
X54809375Y-51870625D01*
X55300582Y-52198839D01*
X55733744Y-52285000D01*
X56026256Y-52285000D01*
X56459418Y-52198839D01*
X56950625Y-51870625D01*
X57150000Y-51572239D01*
X57349375Y-51870625D01*
X57840582Y-52198839D01*
X58273744Y-52285000D01*
X58566256Y-52285000D01*
X58999418Y-52198839D01*
X59490625Y-51870625D01*
X59690000Y-51572239D01*
X59889375Y-51870625D01*
X60380582Y-52198839D01*
X60813744Y-52285000D01*
X61106256Y-52285000D01*
X61539418Y-52198839D01*
X62030625Y-51870625D01*
X62358839Y-51379418D01*
X62474092Y-50800000D01*
X62358839Y-50220582D01*
X62030625Y-49729375D01*
X61539418Y-49401161D01*
X61106256Y-49315000D01*
X60813744Y-49315000D01*
X60380582Y-49401161D01*
X59889375Y-49729375D01*
X59690000Y-50027761D01*
X59490625Y-49729375D01*
X58999418Y-49401161D01*
X58566256Y-49315000D01*
X58273744Y-49315000D01*
X58053593Y-49358791D01*
X57486331Y-48791530D01*
X57470609Y-48768000D01*
X57486331Y-48744470D01*
X57912473Y-48318329D01*
X57975929Y-48275929D01*
X58143904Y-48024537D01*
X58188000Y-47802852D01*
X58188000Y-47802848D01*
X58202888Y-47728000D01*
X58188000Y-47653152D01*
X58188000Y-47205711D01*
X58341720Y-47359431D01*
X58722126Y-47517000D01*
X59133874Y-47517000D01*
X59391630Y-47410234D01*
X59470191Y-47527809D01*
X59680235Y-47668157D01*
X59928000Y-47717440D01*
X60928000Y-47717440D01*
X61175765Y-47668157D01*
X61385809Y-47527809D01*
X61526157Y-47317765D01*
X61575440Y-47070000D01*
X61575440Y-46070000D01*
X61526157Y-45822235D01*
X61385809Y-45612191D01*
X61175765Y-45471843D01*
X60928000Y-45422560D01*
X59928000Y-45422560D01*
X59680235Y-45471843D01*
X59494105Y-45596212D01*
X59133874Y-45447000D01*
X58722126Y-45447000D01*
X58575440Y-45507759D01*
X58575440Y-45170000D01*
X58526157Y-44922235D01*
X58385809Y-44712191D01*
X58175765Y-44571843D01*
X57928000Y-44522560D01*
X56928000Y-44522560D01*
X56680235Y-44571843D01*
X56470191Y-44712191D01*
X56329843Y-44922235D01*
X56280560Y-45170000D01*
X56280560Y-46270000D01*
X56329843Y-46517765D01*
X56470191Y-46727809D01*
X56668000Y-46859982D01*
X56668000Y-47413198D01*
X56581199Y-47500000D01*
X55308391Y-47500000D01*
X55430157Y-47317765D01*
X55479440Y-47070000D01*
X55479440Y-46070000D01*
X55430157Y-45822235D01*
X55289809Y-45612191D01*
X55079765Y-45471843D01*
X54832000Y-45422560D01*
X53832000Y-45422560D01*
X53584235Y-45471843D01*
X53398105Y-45596212D01*
X53037874Y-45447000D01*
X52626126Y-45447000D01*
X52479440Y-45507759D01*
X52479440Y-45170000D01*
X52430157Y-44922235D01*
X52289809Y-44712191D01*
X52092000Y-44580018D01*
X52092000Y-44040848D01*
X52106888Y-43966000D01*
X52101716Y-43940000D01*
X56059153Y-43940000D01*
X56134000Y-43954888D01*
X56208847Y-43940000D01*
X56208852Y-43940000D01*
X56430537Y-43895904D01*
X56681929Y-43727929D01*
X56724331Y-43664470D01*
X57912476Y-42476327D01*
X57975929Y-42433929D01*
X58018327Y-42370476D01*
X58018329Y-42370474D01*
X58113125Y-42228601D01*
X58143904Y-42182537D01*
X58160648Y-42098359D01*
X58341720Y-42279431D01*
X58722126Y-42437000D01*
X59133874Y-42437000D01*
X59391630Y-42330234D01*
X59470191Y-42447809D01*
X59680235Y-42588157D01*
X59928000Y-42637440D01*
X60928000Y-42637440D01*
X61175765Y-42588157D01*
X61385809Y-42447809D01*
X61526157Y-42237765D01*
X61575440Y-41990000D01*
X61575440Y-40990000D01*
X61526157Y-40742235D01*
X61385809Y-40532191D01*
X61175765Y-40391843D01*
X60928000Y-40342560D01*
X59928000Y-40342560D01*
X59680235Y-40391843D01*
X59494105Y-40516212D01*
X59133874Y-40367000D01*
X58722126Y-40367000D01*
X58575440Y-40427759D01*
X58575440Y-40090000D01*
X58526157Y-39842235D01*
X58385809Y-39632191D01*
X58175765Y-39491843D01*
X57928000Y-39442560D01*
X56928000Y-39442560D01*
X56680235Y-39491843D01*
X56470191Y-39632191D01*
X56329843Y-39842235D01*
X56280560Y-40090000D01*
X56280560Y-41190000D01*
X56329843Y-41437765D01*
X56470191Y-41647809D01*
X56542843Y-41696354D01*
X55819199Y-42420000D01*
X55308391Y-42420000D01*
X55430157Y-42237765D01*
X55479440Y-41990000D01*
X55479440Y-40990000D01*
X55430157Y-40742235D01*
X55289809Y-40532191D01*
X55079765Y-40391843D01*
X54832000Y-40342560D01*
X53832000Y-40342560D01*
X53584235Y-40391843D01*
X53398105Y-40516212D01*
X53037874Y-40367000D01*
X52626126Y-40367000D01*
X52479440Y-40427759D01*
X52479440Y-40090000D01*
X52430157Y-39842235D01*
X52289809Y-39632191D01*
X52079765Y-39491843D01*
X51832000Y-39442560D01*
X50832000Y-39442560D01*
X50584235Y-39491843D01*
X50374191Y-39632191D01*
X50233843Y-39842235D01*
X50226331Y-39880000D01*
X49973212Y-39880000D01*
X47143211Y-37050000D01*
X48929199Y-37050000D01*
X50463671Y-38584473D01*
X50506071Y-38647929D01*
X50757463Y-38815904D01*
X50979148Y-38860000D01*
X50979152Y-38860000D01*
X51054000Y-38874888D01*
X51128848Y-38860000D01*
X56821153Y-38860000D01*
X56896000Y-38874888D01*
X56970847Y-38860000D01*
X56970852Y-38860000D01*
X57192537Y-38815904D01*
X57443929Y-38647929D01*
X57486331Y-38584470D01*
X57912473Y-38158329D01*
X57975929Y-38115929D01*
X58143904Y-37864537D01*
X58188000Y-37642852D01*
X58188000Y-37642848D01*
X58202888Y-37568000D01*
X58188000Y-37493152D01*
X58188000Y-37045711D01*
X58341720Y-37199431D01*
X58722126Y-37357000D01*
X59133874Y-37357000D01*
X59391630Y-37250234D01*
X59470191Y-37367809D01*
X59680235Y-37508157D01*
X59928000Y-37557440D01*
X60928000Y-37557440D01*
X61175765Y-37508157D01*
X61385809Y-37367809D01*
X61526157Y-37157765D01*
X61575440Y-36910000D01*
X61575440Y-35910000D01*
X61526157Y-35662235D01*
X61385809Y-35452191D01*
X61175765Y-35311843D01*
X60928000Y-35262560D01*
X59928000Y-35262560D01*
X59680235Y-35311843D01*
X59494105Y-35436212D01*
X59133874Y-35287000D01*
X58722126Y-35287000D01*
X58575440Y-35347759D01*
X58575440Y-35010000D01*
X58526157Y-34762235D01*
X58385809Y-34552191D01*
X58175765Y-34411843D01*
X57928000Y-34362560D01*
X56928000Y-34362560D01*
X56680235Y-34411843D01*
X56470191Y-34552191D01*
X56329843Y-34762235D01*
X56280560Y-35010000D01*
X56280560Y-36110000D01*
X56329843Y-36357765D01*
X56470191Y-36567809D01*
X56668000Y-36699982D01*
X56668000Y-37253198D01*
X56581199Y-37340000D01*
X55308391Y-37340000D01*
X55430157Y-37157765D01*
X55479440Y-36910000D01*
X55479440Y-35910000D01*
X55430157Y-35662235D01*
X55289809Y-35452191D01*
X55079765Y-35311843D01*
X54832000Y-35262560D01*
X53832000Y-35262560D01*
X53584235Y-35311843D01*
X53398105Y-35436212D01*
X53037874Y-35287000D01*
X52626126Y-35287000D01*
X52479440Y-35347759D01*
X52479440Y-35010000D01*
X52430157Y-34762235D01*
X52289809Y-34552191D01*
X52079765Y-34411843D01*
X51832000Y-34362560D01*
X50832000Y-34362560D01*
X50584235Y-34411843D01*
X50374191Y-34552191D01*
X50255382Y-34730000D01*
X48640801Y-34730000D01*
X49590802Y-33780000D01*
X56567153Y-33780000D01*
X56642000Y-33794888D01*
X56716847Y-33780000D01*
X56716852Y-33780000D01*
X56938537Y-33735904D01*
X57189929Y-33567929D01*
X57232331Y-33504470D01*
X57912473Y-32824329D01*
X57975929Y-32781929D01*
X58143904Y-32530537D01*
X58188000Y-32308852D01*
X58188000Y-32308847D01*
X58202789Y-32234500D01*
X58341720Y-32373431D01*
X58722126Y-32531000D01*
X59133874Y-32531000D01*
X59514280Y-32373431D01*
X59547947Y-32339764D01*
X59680235Y-32428157D01*
X59928000Y-32477440D01*
X60928000Y-32477440D01*
X61175765Y-32428157D01*
X61385809Y-32287809D01*
X61526157Y-32077765D01*
X61575440Y-31830000D01*
X61575440Y-30830000D01*
X61526157Y-30582235D01*
X61385809Y-30372191D01*
X61175765Y-30231843D01*
X60928000Y-30182560D01*
X59928000Y-30182560D01*
X59688000Y-30230298D01*
X59688000Y-29792846D01*
X59702888Y-29717999D01*
X59688000Y-29643152D01*
X59688000Y-29643148D01*
X59643904Y-29421463D01*
X59531032Y-29252538D01*
X59518329Y-29233526D01*
X59518327Y-29233524D01*
X59475929Y-29170071D01*
X59412475Y-29127673D01*
X59010330Y-28725529D01*
X58967929Y-28662071D01*
X58716537Y-28494096D01*
X58707415Y-28492282D01*
X58713929Y-28487929D01*
X58756331Y-28424470D01*
X62460473Y-24720329D01*
X62511000Y-24686568D01*
X62511001Y-52351000D01*
X62511001Y-52351000D01*
G37*
X62511001Y-52351000D02*
X15213000Y-52351000D01*
X15213000Y-24956081D01*
X15289472Y-25070529D01*
X15405113Y-25147798D01*
X16032200Y-25774885D01*
X16109471Y-25890529D01*
X16567600Y-26196641D01*
X16971593Y-26277000D01*
X17107999Y-26304133D01*
X17244405Y-26277000D01*
X18694407Y-26277000D01*
X19098400Y-26196641D01*
X19460560Y-25954653D01*
X19460560Y-26242000D01*
X19509843Y-26489765D01*
X19650191Y-26699809D01*
X19860235Y-26840157D01*
X20108000Y-26889440D01*
X21008000Y-26889440D01*
X21255765Y-26840157D01*
X21465809Y-26699809D01*
X21531163Y-26602000D01*
X23272876Y-26602000D01*
X23110995Y-26844273D01*
X23045060Y-27175750D01*
X23045060Y-27688250D01*
X23110995Y-28019727D01*
X23298761Y-28300739D01*
X23329084Y-28321000D01*
X23298761Y-28341261D01*
X23110995Y-28622273D01*
X23045060Y-28953750D01*
X23045060Y-29466250D01*
X23110995Y-29797727D01*
X23298761Y-30078739D01*
X23579773Y-30266505D01*
X23911250Y-30332440D01*
X24348750Y-30332440D01*
X24680227Y-30266505D01*
X24866500Y-30142042D01*
X25052773Y-30266505D01*
X25384250Y-30332440D01*
X25821750Y-30332440D01*
X26153227Y-30266505D01*
X26390500Y-30107964D01*
X26418001Y-30126340D01*
X26418001Y-30482000D01*
X18362848Y-30482000D01*
X18288000Y-30467112D01*
X18213152Y-30482000D01*
X18213148Y-30482000D01*
X18039605Y-30516520D01*
X17991462Y-30526096D01*
X17820994Y-30640000D01*
X17740071Y-30694071D01*
X17697671Y-30757527D01*
X15829518Y-32625681D01*
X15766062Y-32668081D01*
X15723662Y-32731537D01*
X15723661Y-32731538D01*
X15652573Y-32837929D01*
X15598087Y-32919473D01*
X15572124Y-33050000D01*
X15539102Y-33216010D01*
X15553991Y-33290862D01*
X15553990Y-43993062D01*
X15539102Y-44067909D01*
X15553990Y-44142756D01*
X15553990Y-44142760D01*
X15598086Y-44364445D01*
X15766061Y-44615838D01*
X15829520Y-44658240D01*
X16105752Y-44934472D01*
X20849673Y-49678394D01*
X20773375Y-49729375D01*
X20574000Y-50027761D01*
X20374625Y-49729375D01*
X19883418Y-49401161D01*
X19450256Y-49315000D01*
X19157744Y-49315000D01*
X18724582Y-49401161D01*
X18233375Y-49729375D01*
X17905161Y-50220582D01*
X17789908Y-50800000D01*
X17905161Y-51379418D01*
X18233375Y-51870625D01*
X18724582Y-52198839D01*
X19157744Y-52285000D01*
X19450256Y-52285000D01*
X19883418Y-52198839D01*
X20374625Y-51870625D01*
X20574000Y-51572239D01*
X20773375Y-51870625D01*
X21264582Y-52198839D01*
X21697744Y-52285000D01*
X21990256Y-52285000D01*
X22423418Y-52198839D01*
X22914625Y-51870625D01*
X23114000Y-51572239D01*
X23313375Y-51870625D01*
X23804582Y-52198839D01*
X24237744Y-52285000D01*
X24530256Y-52285000D01*
X24963418Y-52198839D01*
X25454625Y-51870625D01*
X25782839Y-51379418D01*
X25898092Y-50800000D01*
X25782839Y-50220582D01*
X25659505Y-50036000D01*
X30220495Y-50036000D01*
X30097161Y-50220582D01*
X29981908Y-50800000D01*
X30097161Y-51379418D01*
X30425375Y-51870625D01*
X30916582Y-52198839D01*
X31349744Y-52285000D01*
X31642256Y-52285000D01*
X32075418Y-52198839D01*
X32566625Y-51870625D01*
X32766000Y-51572239D01*
X32965375Y-51870625D01*
X33456582Y-52198839D01*
X33889744Y-52285000D01*
X34182256Y-52285000D01*
X34615418Y-52198839D01*
X35106625Y-51870625D01*
X35306000Y-51572239D01*
X35505375Y-51870625D01*
X35996582Y-52198839D01*
X36429744Y-52285000D01*
X36722256Y-52285000D01*
X37155418Y-52198839D01*
X37646625Y-51870625D01*
X37974839Y-51379418D01*
X38090092Y-50800000D01*
X37974839Y-50220582D01*
X37646625Y-49729375D01*
X37155418Y-49401161D01*
X36722256Y-49315000D01*
X36429744Y-49315000D01*
X35996582Y-49401161D01*
X35505375Y-49729375D01*
X35306000Y-50027761D01*
X35106625Y-49729375D01*
X34615418Y-49401161D01*
X34182256Y-49315000D01*
X33889744Y-49315000D01*
X33669593Y-49358791D01*
X33455802Y-49145000D01*
X47156839Y-49145000D01*
X47244000Y-49162337D01*
X47331161Y-49145000D01*
X47331165Y-49145000D01*
X47589310Y-49093652D01*
X47882049Y-48898049D01*
X47931425Y-48824153D01*
X49078156Y-47677423D01*
X49152049Y-47628049D01*
X49188001Y-47574243D01*
X49188001Y-47677148D01*
X49173112Y-47752000D01*
X49232097Y-48048537D01*
X49341636Y-48212473D01*
X49400072Y-48299929D01*
X49463527Y-48342328D01*
X49865672Y-48744475D01*
X49886795Y-48776087D01*
X49765000Y-49070126D01*
X49765000Y-49481874D01*
X49914642Y-49843142D01*
X49838625Y-49729375D01*
X49347418Y-49401161D01*
X48914256Y-49315000D01*
X48621744Y-49315000D01*
X48188582Y-49401161D01*
X47697375Y-49729375D01*
X47498000Y-50027761D01*
X47298625Y-49729375D01*
X46807418Y-49401161D01*
X46374256Y-49315000D01*
X46081744Y-49315000D01*
X45648582Y-49401161D01*
X45157375Y-49729375D01*
X44958000Y-50027761D01*
X44758625Y-49729375D01*
X44267418Y-49401161D01*
X43834256Y-49315000D01*
X43541744Y-49315000D01*
X43108582Y-49401161D01*
X42617375Y-49729375D01*
X42289161Y-50220582D01*
X42173908Y-50800000D01*
X42289161Y-51379418D01*
X42617375Y-51870625D01*
X43108582Y-52198839D01*
X43541744Y-52285000D01*
X43834256Y-52285000D01*
X44267418Y-52198839D01*
X44758625Y-51870625D01*
X44958000Y-51572239D01*
X45157375Y-51870625D01*
X45648582Y-52198839D01*
X46081744Y-52285000D01*
X46374256Y-52285000D01*
X46807418Y-52198839D01*
X47298625Y-51870625D01*
X47498000Y-51572239D01*
X47697375Y-51870625D01*
X48188582Y-52198839D01*
X48621744Y-52285000D01*
X48914256Y-52285000D01*
X49347418Y-52198839D01*
X49838625Y-51870625D01*
X50166839Y-51379418D01*
X50282092Y-50800000D01*
X50166839Y-50220582D01*
X49937216Y-49876927D01*
X50213720Y-50153431D01*
X50594126Y-50311000D01*
X51005874Y-50311000D01*
X51386280Y-50153431D01*
X51503711Y-50036000D01*
X54604495Y-50036000D01*
X54481161Y-50220582D01*
X54365908Y-50800000D01*
X54481161Y-51379418D01*
X54809375Y-51870625D01*
X55300582Y-52198839D01*
X55733744Y-52285000D01*
X56026256Y-52285000D01*
X56459418Y-52198839D01*
X56950625Y-51870625D01*
X57150000Y-51572239D01*
X57349375Y-51870625D01*
X57840582Y-52198839D01*
X58273744Y-52285000D01*
X58566256Y-52285000D01*
X58999418Y-52198839D01*
X59490625Y-51870625D01*
X59690000Y-51572239D01*
X59889375Y-51870625D01*
X60380582Y-52198839D01*
X60813744Y-52285000D01*
X61106256Y-52285000D01*
X61539418Y-52198839D01*
X62030625Y-51870625D01*
X62358839Y-51379418D01*
X62474092Y-50800000D01*
X62358839Y-50220582D01*
X62030625Y-49729375D01*
X61539418Y-49401161D01*
X61106256Y-49315000D01*
X60813744Y-49315000D01*
X60380582Y-49401161D01*
X59889375Y-49729375D01*
X59690000Y-50027761D01*
X59490625Y-49729375D01*
X58999418Y-49401161D01*
X58566256Y-49315000D01*
X58273744Y-49315000D01*
X58053593Y-49358791D01*
X57486331Y-48791530D01*
X57470609Y-48768000D01*
X57486331Y-48744470D01*
X57912473Y-48318329D01*
X57975929Y-48275929D01*
X58143904Y-48024537D01*
X58188000Y-47802852D01*
X58188000Y-47802848D01*
X58202888Y-47728000D01*
X58188000Y-47653152D01*
X58188000Y-47205711D01*
X58341720Y-47359431D01*
X58722126Y-47517000D01*
X59133874Y-47517000D01*
X59391630Y-47410234D01*
X59470191Y-47527809D01*
X59680235Y-47668157D01*
X59928000Y-47717440D01*
X60928000Y-47717440D01*
X61175765Y-47668157D01*
X61385809Y-47527809D01*
X61526157Y-47317765D01*
X61575440Y-47070000D01*
X61575440Y-46070000D01*
X61526157Y-45822235D01*
X61385809Y-45612191D01*
X61175765Y-45471843D01*
X60928000Y-45422560D01*
X59928000Y-45422560D01*
X59680235Y-45471843D01*
X59494105Y-45596212D01*
X59133874Y-45447000D01*
X58722126Y-45447000D01*
X58575440Y-45507759D01*
X58575440Y-45170000D01*
X58526157Y-44922235D01*
X58385809Y-44712191D01*
X58175765Y-44571843D01*
X57928000Y-44522560D01*
X56928000Y-44522560D01*
X56680235Y-44571843D01*
X56470191Y-44712191D01*
X56329843Y-44922235D01*
X56280560Y-45170000D01*
X56280560Y-46270000D01*
X56329843Y-46517765D01*
X56470191Y-46727809D01*
X56668000Y-46859982D01*
X56668000Y-47413198D01*
X56581199Y-47500000D01*
X55308391Y-47500000D01*
X55430157Y-47317765D01*
X55479440Y-47070000D01*
X55479440Y-46070000D01*
X55430157Y-45822235D01*
X55289809Y-45612191D01*
X55079765Y-45471843D01*
X54832000Y-45422560D01*
X53832000Y-45422560D01*
X53584235Y-45471843D01*
X53398105Y-45596212D01*
X53037874Y-45447000D01*
X52626126Y-45447000D01*
X52479440Y-45507759D01*
X52479440Y-45170000D01*
X52430157Y-44922235D01*
X52289809Y-44712191D01*
X52092000Y-44580018D01*
X52092000Y-44040848D01*
X52106888Y-43966000D01*
X52101716Y-43940000D01*
X56059153Y-43940000D01*
X56134000Y-43954888D01*
X56208847Y-43940000D01*
X56208852Y-43940000D01*
X56430537Y-43895904D01*
X56681929Y-43727929D01*
X56724331Y-43664470D01*
X57912476Y-42476327D01*
X57975929Y-42433929D01*
X58018327Y-42370476D01*
X58018329Y-42370474D01*
X58113125Y-42228601D01*
X58143904Y-42182537D01*
X58160648Y-42098359D01*
X58341720Y-42279431D01*
X58722126Y-42437000D01*
X59133874Y-42437000D01*
X59391630Y-42330234D01*
X59470191Y-42447809D01*
X59680235Y-42588157D01*
X59928000Y-42637440D01*
X60928000Y-42637440D01*
X61175765Y-42588157D01*
X61385809Y-42447809D01*
X61526157Y-42237765D01*
X61575440Y-41990000D01*
X61575440Y-40990000D01*
X61526157Y-40742235D01*
X61385809Y-40532191D01*
X61175765Y-40391843D01*
X60928000Y-40342560D01*
X59928000Y-40342560D01*
X59680235Y-40391843D01*
X59494105Y-40516212D01*
X59133874Y-40367000D01*
X58722126Y-40367000D01*
X58575440Y-40427759D01*
X58575440Y-40090000D01*
X58526157Y-39842235D01*
X58385809Y-39632191D01*
X58175765Y-39491843D01*
X57928000Y-39442560D01*
X56928000Y-39442560D01*
X56680235Y-39491843D01*
X56470191Y-39632191D01*
X56329843Y-39842235D01*
X56280560Y-40090000D01*
X56280560Y-41190000D01*
X56329843Y-41437765D01*
X56470191Y-41647809D01*
X56542843Y-41696354D01*
X55819199Y-42420000D01*
X55308391Y-42420000D01*
X55430157Y-42237765D01*
X55479440Y-41990000D01*
X55479440Y-40990000D01*
X55430157Y-40742235D01*
X55289809Y-40532191D01*
X55079765Y-40391843D01*
X54832000Y-40342560D01*
X53832000Y-40342560D01*
X53584235Y-40391843D01*
X53398105Y-40516212D01*
X53037874Y-40367000D01*
X52626126Y-40367000D01*
X52479440Y-40427759D01*
X52479440Y-40090000D01*
X52430157Y-39842235D01*
X52289809Y-39632191D01*
X52079765Y-39491843D01*
X51832000Y-39442560D01*
X50832000Y-39442560D01*
X50584235Y-39491843D01*
X50374191Y-39632191D01*
X50233843Y-39842235D01*
X50226331Y-39880000D01*
X49973212Y-39880000D01*
X47143211Y-37050000D01*
X48929199Y-37050000D01*
X50463671Y-38584473D01*
X50506071Y-38647929D01*
X50757463Y-38815904D01*
X50979148Y-38860000D01*
X50979152Y-38860000D01*
X51054000Y-38874888D01*
X51128848Y-38860000D01*
X56821153Y-38860000D01*
X56896000Y-38874888D01*
X56970847Y-38860000D01*
X56970852Y-38860000D01*
X57192537Y-38815904D01*
X57443929Y-38647929D01*
X57486331Y-38584470D01*
X57912473Y-38158329D01*
X57975929Y-38115929D01*
X58143904Y-37864537D01*
X58188000Y-37642852D01*
X58188000Y-37642848D01*
X58202888Y-37568000D01*
X58188000Y-37493152D01*
X58188000Y-37045711D01*
X58341720Y-37199431D01*
X58722126Y-37357000D01*
X59133874Y-37357000D01*
X59391630Y-37250234D01*
X59470191Y-37367809D01*
X59680235Y-37508157D01*
X59928000Y-37557440D01*
X60928000Y-37557440D01*
X61175765Y-37508157D01*
X61385809Y-37367809D01*
X61526157Y-37157765D01*
X61575440Y-36910000D01*
X61575440Y-35910000D01*
X61526157Y-35662235D01*
X61385809Y-35452191D01*
X61175765Y-35311843D01*
X60928000Y-35262560D01*
X59928000Y-35262560D01*
X59680235Y-35311843D01*
X59494105Y-35436212D01*
X59133874Y-35287000D01*
X58722126Y-35287000D01*
X58575440Y-35347759D01*
X58575440Y-35010000D01*
X58526157Y-34762235D01*
X58385809Y-34552191D01*
X58175765Y-34411843D01*
X57928000Y-34362560D01*
X56928000Y-34362560D01*
X56680235Y-34411843D01*
X56470191Y-34552191D01*
X56329843Y-34762235D01*
X56280560Y-35010000D01*
X56280560Y-36110000D01*
X56329843Y-36357765D01*
X56470191Y-36567809D01*
X56668000Y-36699982D01*
X56668000Y-37253198D01*
X56581199Y-37340000D01*
X55308391Y-37340000D01*
X55430157Y-37157765D01*
X55479440Y-36910000D01*
X55479440Y-35910000D01*
X55430157Y-35662235D01*
X55289809Y-35452191D01*
X55079765Y-35311843D01*
X54832000Y-35262560D01*
X53832000Y-35262560D01*
X53584235Y-35311843D01*
X53398105Y-35436212D01*
X53037874Y-35287000D01*
X52626126Y-35287000D01*
X52479440Y-35347759D01*
X52479440Y-35010000D01*
X52430157Y-34762235D01*
X52289809Y-34552191D01*
X52079765Y-34411843D01*
X51832000Y-34362560D01*
X50832000Y-34362560D01*
X50584235Y-34411843D01*
X50374191Y-34552191D01*
X50255382Y-34730000D01*
X48640801Y-34730000D01*
X49590802Y-33780000D01*
X56567153Y-33780000D01*
X56642000Y-33794888D01*
X56716847Y-33780000D01*
X56716852Y-33780000D01*
X56938537Y-33735904D01*
X57189929Y-33567929D01*
X57232331Y-33504470D01*
X57912473Y-32824329D01*
X57975929Y-32781929D01*
X58143904Y-32530537D01*
X58188000Y-32308852D01*
X58188000Y-32308847D01*
X58202789Y-32234500D01*
X58341720Y-32373431D01*
X58722126Y-32531000D01*
X59133874Y-32531000D01*
X59514280Y-32373431D01*
X59547947Y-32339764D01*
X59680235Y-32428157D01*
X59928000Y-32477440D01*
X60928000Y-32477440D01*
X61175765Y-32428157D01*
X61385809Y-32287809D01*
X61526157Y-32077765D01*
X61575440Y-31830000D01*
X61575440Y-30830000D01*
X61526157Y-30582235D01*
X61385809Y-30372191D01*
X61175765Y-30231843D01*
X60928000Y-30182560D01*
X59928000Y-30182560D01*
X59688000Y-30230298D01*
X59688000Y-29792846D01*
X59702888Y-29717999D01*
X59688000Y-29643152D01*
X59688000Y-29643148D01*
X59643904Y-29421463D01*
X59531032Y-29252538D01*
X59518329Y-29233526D01*
X59518327Y-29233524D01*
X59475929Y-29170071D01*
X59412475Y-29127673D01*
X59010330Y-28725529D01*
X58967929Y-28662071D01*
X58716537Y-28494096D01*
X58707415Y-28492282D01*
X58713929Y-28487929D01*
X58756331Y-28424470D01*
X62460473Y-24720329D01*
X62511000Y-24686568D01*
X62511001Y-52351000D01*
G36*
X39226000Y-34204802D02*
X39226001Y-37292560D01*
X38886000Y-37292560D01*
X38786000Y-37312451D01*
X38686000Y-37292560D01*
X38086000Y-37292560D01*
X37986000Y-37312451D01*
X37886000Y-37292560D01*
X37286000Y-37292560D01*
X37038235Y-37341843D01*
X36828191Y-37482191D01*
X36687843Y-37692235D01*
X36638560Y-37940000D01*
X36638560Y-39140000D01*
X36687843Y-39387765D01*
X36691770Y-39393642D01*
X36506761Y-39517261D01*
X36318995Y-39798273D01*
X36253060Y-40129750D01*
X36253060Y-40642250D01*
X36278670Y-40771000D01*
X33640579Y-40771000D01*
X33199424Y-40329846D01*
X33150049Y-40255951D01*
X32857310Y-40060348D01*
X32599165Y-40009000D01*
X32599161Y-40009000D01*
X32512000Y-39991663D01*
X32424839Y-40009000D01*
X31610281Y-40009000D01*
X31619000Y-39965164D01*
X31619000Y-39965161D01*
X31636337Y-39878000D01*
X31619000Y-39790839D01*
X31619000Y-39694403D01*
X31790505Y-39437727D01*
X31856440Y-39106250D01*
X31856440Y-38668750D01*
X31790505Y-38337273D01*
X31631964Y-38100000D01*
X31790505Y-37862727D01*
X31856440Y-37531250D01*
X31856440Y-37093750D01*
X31790505Y-36762273D01*
X31602739Y-36481261D01*
X31321727Y-36293495D01*
X30990250Y-36227560D01*
X30477750Y-36227560D01*
X30146273Y-36293495D01*
X29972000Y-36409940D01*
X29797727Y-36293495D01*
X29466250Y-36227560D01*
X29199862Y-36227560D01*
X28621831Y-35649530D01*
X28579429Y-35586071D01*
X28328037Y-35418096D01*
X28106352Y-35374000D01*
X28106347Y-35374000D01*
X28031500Y-35359112D01*
X27956653Y-35374000D01*
X27757050Y-35374000D01*
X27741809Y-35351191D01*
X27531765Y-35210843D01*
X27284000Y-35161560D01*
X26224000Y-35161560D01*
X25976235Y-35210843D01*
X25766191Y-35351191D01*
X25654000Y-35519095D01*
X25541809Y-35351191D01*
X25331765Y-35210843D01*
X25314000Y-35207309D01*
X25314000Y-34788847D01*
X25328888Y-34714000D01*
X25314000Y-34639153D01*
X25314000Y-34639148D01*
X25269904Y-34417463D01*
X25101929Y-34166071D01*
X25038470Y-34123669D01*
X24694831Y-33780030D01*
X24652429Y-33716571D01*
X24401037Y-33548596D01*
X24179352Y-33504500D01*
X24179347Y-33504500D01*
X24104500Y-33489612D01*
X24029653Y-33504500D01*
X23776339Y-33504500D01*
X23728739Y-33433261D01*
X23447727Y-33245495D01*
X23116250Y-33179560D01*
X22603750Y-33179560D01*
X22272273Y-33245495D01*
X21991261Y-33433261D01*
X21803495Y-33714273D01*
X21737560Y-34045750D01*
X21737560Y-34483250D01*
X21803495Y-34814727D01*
X21962036Y-35052000D01*
X21803495Y-35289273D01*
X21750805Y-35554165D01*
X21476082Y-35370601D01*
X21181476Y-35312000D01*
X21181471Y-35312000D01*
X21082000Y-35292214D01*
X20982529Y-35312000D01*
X20515614Y-35312000D01*
X20498157Y-35224235D01*
X20357809Y-35014191D01*
X20147765Y-34873843D01*
X19900000Y-34824560D01*
X18200000Y-34824560D01*
X17952235Y-34873843D01*
X17742191Y-35014191D01*
X17601843Y-35224235D01*
X17552560Y-35472000D01*
X17552560Y-37172000D01*
X17601843Y-37419765D01*
X17742191Y-37629809D01*
X17952235Y-37770157D01*
X18200000Y-37819440D01*
X19900000Y-37819440D01*
X20147765Y-37770157D01*
X20357809Y-37629809D01*
X20498157Y-37419765D01*
X20515614Y-37332000D01*
X20663645Y-37332000D01*
X21287984Y-37956340D01*
X21344331Y-38040669D01*
X21428660Y-38097016D01*
X21428662Y-38097018D01*
X21678417Y-38263899D01*
X21739615Y-38276072D01*
X21973024Y-38322500D01*
X21973028Y-38322500D01*
X22072500Y-38342286D01*
X22171972Y-38322500D01*
X22258796Y-38322500D01*
X22272273Y-38331505D01*
X22603750Y-38397440D01*
X23116250Y-38397440D01*
X23376560Y-38345661D01*
X23376560Y-38359000D01*
X23425843Y-38606765D01*
X23544000Y-38783599D01*
X23544001Y-39466025D01*
X23524214Y-39565500D01*
X23602602Y-39959582D01*
X23769482Y-40209337D01*
X23769485Y-40209340D01*
X23807946Y-40266901D01*
X23847495Y-40465727D01*
X23856500Y-40479204D01*
X23856500Y-40804738D01*
X23720235Y-40831843D01*
X23510191Y-40972191D01*
X23369843Y-41182235D01*
X23368000Y-41191500D01*
X23366157Y-41182235D01*
X23225809Y-40972191D01*
X23015765Y-40831843D01*
X22768000Y-40782560D01*
X21168000Y-40782560D01*
X20920235Y-40831843D01*
X20710191Y-40972191D01*
X20569843Y-41182235D01*
X20520560Y-41430000D01*
X20520560Y-44930000D01*
X20569843Y-45177765D01*
X20710191Y-45387809D01*
X20920235Y-45528157D01*
X21168000Y-45577440D01*
X21987085Y-45577440D01*
X23281482Y-46871837D01*
X23337831Y-46956169D01*
X23671918Y-47179399D01*
X23966524Y-47238000D01*
X23966528Y-47238000D01*
X24065999Y-47257786D01*
X24165470Y-47238000D01*
X27537501Y-47238000D01*
X27537501Y-47893335D01*
X27520163Y-47980500D01*
X27588848Y-48325809D01*
X27715930Y-48516000D01*
X22473294Y-48516000D01*
X17524000Y-43566708D01*
X17524000Y-33717211D01*
X18789202Y-32452010D01*
X26043209Y-32452010D01*
X27995691Y-34404493D01*
X28038091Y-34467949D01*
X28289483Y-34635924D01*
X28511168Y-34680020D01*
X28511173Y-34680020D01*
X28586020Y-34694908D01*
X28660867Y-34680020D01*
X34888560Y-34680020D01*
X34888560Y-34990000D01*
X34908451Y-35090000D01*
X34888560Y-35190000D01*
X34888560Y-35641517D01*
X34738071Y-35742071D01*
X34695671Y-35805527D01*
X33805530Y-36695669D01*
X33742071Y-36738071D01*
X33574096Y-36989464D01*
X33530000Y-37211149D01*
X33530000Y-37211153D01*
X33515112Y-37286000D01*
X33530000Y-37360847D01*
X33530000Y-37424604D01*
X33421261Y-37497261D01*
X33233495Y-37778273D01*
X33167560Y-38109750D01*
X33167560Y-38547250D01*
X33233495Y-38878727D01*
X33421261Y-39159739D01*
X33702273Y-39347505D01*
X34033750Y-39413440D01*
X34546250Y-39413440D01*
X34877727Y-39347505D01*
X35158739Y-39159739D01*
X35346505Y-38878727D01*
X35412440Y-38547250D01*
X35412440Y-38109750D01*
X35346505Y-37778273D01*
X35158739Y-37497261D01*
X35155623Y-37495179D01*
X35433708Y-37217093D01*
X35536000Y-37237440D01*
X36736000Y-37237440D01*
X36983765Y-37188157D01*
X37193809Y-37047809D01*
X37334157Y-36837765D01*
X37383440Y-36590000D01*
X37383440Y-35990000D01*
X37363549Y-35890000D01*
X37383440Y-35790000D01*
X37383440Y-35190000D01*
X37363549Y-35090000D01*
X37383440Y-34990000D01*
X37383440Y-34390000D01*
X37363549Y-34290000D01*
X37383440Y-34190000D01*
X37383440Y-33590000D01*
X37363549Y-33490000D01*
X37383440Y-33390000D01*
X37383440Y-32790000D01*
X37363549Y-32690000D01*
X37383440Y-32590000D01*
X37383440Y-32362241D01*
X39226000Y-34204802D01*
X39226000Y-34204802D01*
G37*
X39226000Y-34204802D02*
X39226001Y-37292560D01*
X38886000Y-37292560D01*
X38786000Y-37312451D01*
X38686000Y-37292560D01*
X38086000Y-37292560D01*
X37986000Y-37312451D01*
X37886000Y-37292560D01*
X37286000Y-37292560D01*
X37038235Y-37341843D01*
X36828191Y-37482191D01*
X36687843Y-37692235D01*
X36638560Y-37940000D01*
X36638560Y-39140000D01*
X36687843Y-39387765D01*
X36691770Y-39393642D01*
X36506761Y-39517261D01*
X36318995Y-39798273D01*
X36253060Y-40129750D01*
X36253060Y-40642250D01*
X36278670Y-40771000D01*
X33640579Y-40771000D01*
X33199424Y-40329846D01*
X33150049Y-40255951D01*
X32857310Y-40060348D01*
X32599165Y-40009000D01*
X32599161Y-40009000D01*
X32512000Y-39991663D01*
X32424839Y-40009000D01*
X31610281Y-40009000D01*
X31619000Y-39965164D01*
X31619000Y-39965161D01*
X31636337Y-39878000D01*
X31619000Y-39790839D01*
X31619000Y-39694403D01*
X31790505Y-39437727D01*
X31856440Y-39106250D01*
X31856440Y-38668750D01*
X31790505Y-38337273D01*
X31631964Y-38100000D01*
X31790505Y-37862727D01*
X31856440Y-37531250D01*
X31856440Y-37093750D01*
X31790505Y-36762273D01*
X31602739Y-36481261D01*
X31321727Y-36293495D01*
X30990250Y-36227560D01*
X30477750Y-36227560D01*
X30146273Y-36293495D01*
X29972000Y-36409940D01*
X29797727Y-36293495D01*
X29466250Y-36227560D01*
X29199862Y-36227560D01*
X28621831Y-35649530D01*
X28579429Y-35586071D01*
X28328037Y-35418096D01*
X28106352Y-35374000D01*
X28106347Y-35374000D01*
X28031500Y-35359112D01*
X27956653Y-35374000D01*
X27757050Y-35374000D01*
X27741809Y-35351191D01*
X27531765Y-35210843D01*
X27284000Y-35161560D01*
X26224000Y-35161560D01*
X25976235Y-35210843D01*
X25766191Y-35351191D01*
X25654000Y-35519095D01*
X25541809Y-35351191D01*
X25331765Y-35210843D01*
X25314000Y-35207309D01*
X25314000Y-34788847D01*
X25328888Y-34714000D01*
X25314000Y-34639153D01*
X25314000Y-34639148D01*
X25269904Y-34417463D01*
X25101929Y-34166071D01*
X25038470Y-34123669D01*
X24694831Y-33780030D01*
X24652429Y-33716571D01*
X24401037Y-33548596D01*
X24179352Y-33504500D01*
X24179347Y-33504500D01*
X24104500Y-33489612D01*
X24029653Y-33504500D01*
X23776339Y-33504500D01*
X23728739Y-33433261D01*
X23447727Y-33245495D01*
X23116250Y-33179560D01*
X22603750Y-33179560D01*
X22272273Y-33245495D01*
X21991261Y-33433261D01*
X21803495Y-33714273D01*
X21737560Y-34045750D01*
X21737560Y-34483250D01*
X21803495Y-34814727D01*
X21962036Y-35052000D01*
X21803495Y-35289273D01*
X21750805Y-35554165D01*
X21476082Y-35370601D01*
X21181476Y-35312000D01*
X21181471Y-35312000D01*
X21082000Y-35292214D01*
X20982529Y-35312000D01*
X20515614Y-35312000D01*
X20498157Y-35224235D01*
X20357809Y-35014191D01*
X20147765Y-34873843D01*
X19900000Y-34824560D01*
X18200000Y-34824560D01*
X17952235Y-34873843D01*
X17742191Y-35014191D01*
X17601843Y-35224235D01*
X17552560Y-35472000D01*
X17552560Y-37172000D01*
X17601843Y-37419765D01*
X17742191Y-37629809D01*
X17952235Y-37770157D01*
X18200000Y-37819440D01*
X19900000Y-37819440D01*
X20147765Y-37770157D01*
X20357809Y-37629809D01*
X20498157Y-37419765D01*
X20515614Y-37332000D01*
X20663645Y-37332000D01*
X21287984Y-37956340D01*
X21344331Y-38040669D01*
X21428660Y-38097016D01*
X21428662Y-38097018D01*
X21678417Y-38263899D01*
X21739615Y-38276072D01*
X21973024Y-38322500D01*
X21973028Y-38322500D01*
X22072500Y-38342286D01*
X22171972Y-38322500D01*
X22258796Y-38322500D01*
X22272273Y-38331505D01*
X22603750Y-38397440D01*
X23116250Y-38397440D01*
X23376560Y-38345661D01*
X23376560Y-38359000D01*
X23425843Y-38606765D01*
X23544000Y-38783599D01*
X23544001Y-39466025D01*
X23524214Y-39565500D01*
X23602602Y-39959582D01*
X23769482Y-40209337D01*
X23769485Y-40209340D01*
X23807946Y-40266901D01*
X23847495Y-40465727D01*
X23856500Y-40479204D01*
X23856500Y-40804738D01*
X23720235Y-40831843D01*
X23510191Y-40972191D01*
X23369843Y-41182235D01*
X23368000Y-41191500D01*
X23366157Y-41182235D01*
X23225809Y-40972191D01*
X23015765Y-40831843D01*
X22768000Y-40782560D01*
X21168000Y-40782560D01*
X20920235Y-40831843D01*
X20710191Y-40972191D01*
X20569843Y-41182235D01*
X20520560Y-41430000D01*
X20520560Y-44930000D01*
X20569843Y-45177765D01*
X20710191Y-45387809D01*
X20920235Y-45528157D01*
X21168000Y-45577440D01*
X21987085Y-45577440D01*
X23281482Y-46871837D01*
X23337831Y-46956169D01*
X23671918Y-47179399D01*
X23966524Y-47238000D01*
X23966528Y-47238000D01*
X24065999Y-47257786D01*
X24165470Y-47238000D01*
X27537501Y-47238000D01*
X27537501Y-47893335D01*
X27520163Y-47980500D01*
X27588848Y-48325809D01*
X27715930Y-48516000D01*
X22473294Y-48516000D01*
X17524000Y-43566708D01*
X17524000Y-33717211D01*
X18789202Y-32452010D01*
X26043209Y-32452010D01*
X27995691Y-34404493D01*
X28038091Y-34467949D01*
X28289483Y-34635924D01*
X28511168Y-34680020D01*
X28511173Y-34680020D01*
X28586020Y-34694908D01*
X28660867Y-34680020D01*
X34888560Y-34680020D01*
X34888560Y-34990000D01*
X34908451Y-35090000D01*
X34888560Y-35190000D01*
X34888560Y-35641517D01*
X34738071Y-35742071D01*
X34695671Y-35805527D01*
X33805530Y-36695669D01*
X33742071Y-36738071D01*
X33574096Y-36989464D01*
X33530000Y-37211149D01*
X33530000Y-37211153D01*
X33515112Y-37286000D01*
X33530000Y-37360847D01*
X33530000Y-37424604D01*
X33421261Y-37497261D01*
X33233495Y-37778273D01*
X33167560Y-38109750D01*
X33167560Y-38547250D01*
X33233495Y-38878727D01*
X33421261Y-39159739D01*
X33702273Y-39347505D01*
X34033750Y-39413440D01*
X34546250Y-39413440D01*
X34877727Y-39347505D01*
X35158739Y-39159739D01*
X35346505Y-38878727D01*
X35412440Y-38547250D01*
X35412440Y-38109750D01*
X35346505Y-37778273D01*
X35158739Y-37497261D01*
X35155623Y-37495179D01*
X35433708Y-37217093D01*
X35536000Y-37237440D01*
X36736000Y-37237440D01*
X36983765Y-37188157D01*
X37193809Y-37047809D01*
X37334157Y-36837765D01*
X37383440Y-36590000D01*
X37383440Y-35990000D01*
X37363549Y-35890000D01*
X37383440Y-35790000D01*
X37383440Y-35190000D01*
X37363549Y-35090000D01*
X37383440Y-34990000D01*
X37383440Y-34390000D01*
X37363549Y-34290000D01*
X37383440Y-34190000D01*
X37383440Y-33590000D01*
X37363549Y-33490000D01*
X37383440Y-33390000D01*
X37383440Y-32790000D01*
X37363549Y-32690000D01*
X37383440Y-32590000D01*
X37383440Y-32362241D01*
X39226000Y-34204802D01*
G36*
X40238071Y-39937929D02*
X40301530Y-39980331D01*
X41215200Y-40894001D01*
X42149679Y-41828481D01*
X42192080Y-41891938D01*
X42443472Y-42059913D01*
X42665157Y-42104009D01*
X42665161Y-42104009D01*
X42740008Y-42118897D01*
X42814855Y-42104009D01*
X44597711Y-42104009D01*
X44663495Y-42434727D01*
X44851261Y-42715739D01*
X45132273Y-42903505D01*
X45463750Y-42969440D01*
X45976250Y-42969440D01*
X46307727Y-42903505D01*
X46409754Y-42835333D01*
X47486569Y-43912148D01*
X47629001Y-44256009D01*
X47629000Y-46623421D01*
X46877422Y-47375000D01*
X29307500Y-47375000D01*
X29307500Y-47016280D01*
X29441505Y-46815727D01*
X29507440Y-46484250D01*
X29507440Y-45971750D01*
X29441505Y-45640273D01*
X29373333Y-45538246D01*
X29774156Y-45137423D01*
X29848049Y-45088049D01*
X29950667Y-44934472D01*
X29978918Y-44892191D01*
X30043652Y-44795310D01*
X30095000Y-44537165D01*
X30095000Y-44537161D01*
X30112337Y-44450001D01*
X30095000Y-44362841D01*
X30095000Y-41779000D01*
X32145422Y-41779000D01*
X32586577Y-42220156D01*
X32635951Y-42294049D01*
X32709844Y-42343423D01*
X32709845Y-42343424D01*
X32724672Y-42353331D01*
X32928690Y-42489652D01*
X33186835Y-42541000D01*
X33186839Y-42541000D01*
X33274000Y-42558337D01*
X33361161Y-42541000D01*
X33983529Y-42541000D01*
X33929261Y-42577261D01*
X33741495Y-42858273D01*
X33675560Y-43189750D01*
X33675560Y-43627250D01*
X33741495Y-43958727D01*
X33929261Y-44239739D01*
X34210273Y-44427505D01*
X34541750Y-44493440D01*
X35054250Y-44493440D01*
X35364560Y-44431715D01*
X35364560Y-44888000D01*
X35413843Y-45135765D01*
X35554191Y-45345809D01*
X35764235Y-45486157D01*
X36012000Y-45535440D01*
X38012000Y-45535440D01*
X38259765Y-45486157D01*
X38469809Y-45345809D01*
X38610157Y-45135765D01*
X38659440Y-44888000D01*
X38659440Y-43441362D01*
X38735000Y-43365801D01*
X39064560Y-43695361D01*
X39064560Y-44888000D01*
X39113843Y-45135765D01*
X39254191Y-45345809D01*
X39464235Y-45486157D01*
X39712000Y-45535440D01*
X41712000Y-45535440D01*
X41959765Y-45486157D01*
X42169809Y-45345809D01*
X42310157Y-45135765D01*
X42359440Y-44888000D01*
X42359440Y-44431715D01*
X42669750Y-44493440D01*
X43182250Y-44493440D01*
X43513727Y-44427505D01*
X43794739Y-44239739D01*
X43982505Y-43958727D01*
X44048440Y-43627250D01*
X44048440Y-43189750D01*
X43982505Y-42858273D01*
X43794739Y-42577261D01*
X43513727Y-42389495D01*
X43182250Y-42323560D01*
X42669750Y-42323560D01*
X42339786Y-42389194D01*
X42310157Y-42240235D01*
X42169809Y-42030191D01*
X41959765Y-41889843D01*
X41712000Y-41840560D01*
X39946000Y-41840560D01*
X39946000Y-39787440D01*
X40137518Y-39787440D01*
X40238071Y-39937929D01*
X40238071Y-39937929D01*
G37*
X40238071Y-39937929D02*
X40301530Y-39980331D01*
X41215200Y-40894001D01*
X42149679Y-41828481D01*
X42192080Y-41891938D01*
X42443472Y-42059913D01*
X42665157Y-42104009D01*
X42665161Y-42104009D01*
X42740008Y-42118897D01*
X42814855Y-42104009D01*
X44597711Y-42104009D01*
X44663495Y-42434727D01*
X44851261Y-42715739D01*
X45132273Y-42903505D01*
X45463750Y-42969440D01*
X45976250Y-42969440D01*
X46307727Y-42903505D01*
X46409754Y-42835333D01*
X47486569Y-43912148D01*
X47629001Y-44256009D01*
X47629000Y-46623421D01*
X46877422Y-47375000D01*
X29307500Y-47375000D01*
X29307500Y-47016280D01*
X29441505Y-46815727D01*
X29507440Y-46484250D01*
X29507440Y-45971750D01*
X29441505Y-45640273D01*
X29373333Y-45538246D01*
X29774156Y-45137423D01*
X29848049Y-45088049D01*
X29950667Y-44934472D01*
X29978918Y-44892191D01*
X30043652Y-44795310D01*
X30095000Y-44537165D01*
X30095000Y-44537161D01*
X30112337Y-44450001D01*
X30095000Y-44362841D01*
X30095000Y-41779000D01*
X32145422Y-41779000D01*
X32586577Y-42220156D01*
X32635951Y-42294049D01*
X32709844Y-42343423D01*
X32709845Y-42343424D01*
X32724672Y-42353331D01*
X32928690Y-42489652D01*
X33186835Y-42541000D01*
X33186839Y-42541000D01*
X33274000Y-42558337D01*
X33361161Y-42541000D01*
X33983529Y-42541000D01*
X33929261Y-42577261D01*
X33741495Y-42858273D01*
X33675560Y-43189750D01*
X33675560Y-43627250D01*
X33741495Y-43958727D01*
X33929261Y-44239739D01*
X34210273Y-44427505D01*
X34541750Y-44493440D01*
X35054250Y-44493440D01*
X35364560Y-44431715D01*
X35364560Y-44888000D01*
X35413843Y-45135765D01*
X35554191Y-45345809D01*
X35764235Y-45486157D01*
X36012000Y-45535440D01*
X38012000Y-45535440D01*
X38259765Y-45486157D01*
X38469809Y-45345809D01*
X38610157Y-45135765D01*
X38659440Y-44888000D01*
X38659440Y-43441362D01*
X38735000Y-43365801D01*
X39064560Y-43695361D01*
X39064560Y-44888000D01*
X39113843Y-45135765D01*
X39254191Y-45345809D01*
X39464235Y-45486157D01*
X39712000Y-45535440D01*
X41712000Y-45535440D01*
X41959765Y-45486157D01*
X42169809Y-45345809D01*
X42310157Y-45135765D01*
X42359440Y-44888000D01*
X42359440Y-44431715D01*
X42669750Y-44493440D01*
X43182250Y-44493440D01*
X43513727Y-44427505D01*
X43794739Y-44239739D01*
X43982505Y-43958727D01*
X44048440Y-43627250D01*
X44048440Y-43189750D01*
X43982505Y-42858273D01*
X43794739Y-42577261D01*
X43513727Y-42389495D01*
X43182250Y-42323560D01*
X42669750Y-42323560D01*
X42339786Y-42389194D01*
X42310157Y-42240235D01*
X42169809Y-42030191D01*
X41959765Y-41889843D01*
X41712000Y-41840560D01*
X39946000Y-41840560D01*
X39946000Y-39787440D01*
X40137518Y-39787440D01*
X40238071Y-39937929D01*
G36*
X28087560Y-37264862D02*
X28087560Y-37531250D01*
X28153495Y-37862727D01*
X28341261Y-38143739D01*
X28622273Y-38331505D01*
X28953750Y-38397440D01*
X29466250Y-38397440D01*
X29673736Y-38356168D01*
X29611560Y-38668750D01*
X29611560Y-39106250D01*
X29677495Y-39437727D01*
X29775708Y-39584713D01*
X29153847Y-40206575D01*
X29079951Y-40255951D01*
X29030576Y-40329846D01*
X28645847Y-40714575D01*
X28571951Y-40763951D01*
X28376348Y-41056691D01*
X28325000Y-41314836D01*
X28325000Y-41314839D01*
X28307663Y-41402000D01*
X28322135Y-41474756D01*
X28110000Y-41432560D01*
X26310000Y-41432560D01*
X26215440Y-41451369D01*
X26215440Y-41430000D01*
X26166157Y-41182235D01*
X26025809Y-40972191D01*
X26002528Y-40956635D01*
X26222750Y-41000440D01*
X26660250Y-41000440D01*
X26991727Y-40934505D01*
X27272739Y-40746739D01*
X27460505Y-40465727D01*
X27500054Y-40266903D01*
X27705399Y-39959582D01*
X27764000Y-39664976D01*
X27764000Y-39664971D01*
X27783786Y-39565500D01*
X27764000Y-39466029D01*
X27764000Y-38783598D01*
X27882157Y-38606765D01*
X27931440Y-38359000D01*
X27931440Y-37709000D01*
X27882157Y-37461235D01*
X27741809Y-37251191D01*
X27531765Y-37110843D01*
X27396815Y-37084000D01*
X27531765Y-37057157D01*
X27740430Y-36917731D01*
X28087560Y-37264862D01*
X28087560Y-37264862D01*
G37*
X28087560Y-37264862D02*
X28087560Y-37531250D01*
X28153495Y-37862727D01*
X28341261Y-38143739D01*
X28622273Y-38331505D01*
X28953750Y-38397440D01*
X29466250Y-38397440D01*
X29673736Y-38356168D01*
X29611560Y-38668750D01*
X29611560Y-39106250D01*
X29677495Y-39437727D01*
X29775708Y-39584713D01*
X29153847Y-40206575D01*
X29079951Y-40255951D01*
X29030576Y-40329846D01*
X28645847Y-40714575D01*
X28571951Y-40763951D01*
X28376348Y-41056691D01*
X28325000Y-41314836D01*
X28325000Y-41314839D01*
X28307663Y-41402000D01*
X28322135Y-41474756D01*
X28110000Y-41432560D01*
X26310000Y-41432560D01*
X26215440Y-41451369D01*
X26215440Y-41430000D01*
X26166157Y-41182235D01*
X26025809Y-40972191D01*
X26002528Y-40956635D01*
X26222750Y-41000440D01*
X26660250Y-41000440D01*
X26991727Y-40934505D01*
X27272739Y-40746739D01*
X27460505Y-40465727D01*
X27500054Y-40266903D01*
X27705399Y-39959582D01*
X27764000Y-39664976D01*
X27764000Y-39664971D01*
X27783786Y-39565500D01*
X27764000Y-39466029D01*
X27764000Y-38783598D01*
X27882157Y-38606765D01*
X27931440Y-38359000D01*
X27931440Y-37709000D01*
X27882157Y-37461235D01*
X27741809Y-37251191D01*
X27531765Y-37110843D01*
X27396815Y-37084000D01*
X27531765Y-37057157D01*
X27740430Y-36917731D01*
X28087560Y-37264862D01*
G36*
X49197720Y-29625819D02*
X49578126Y-29783388D01*
X49989874Y-29783388D01*
X50233822Y-29682342D01*
X50207152Y-29816422D01*
X50034071Y-29932071D01*
X49991671Y-29995527D01*
X48599455Y-31387744D01*
X48338280Y-31126569D01*
X47957874Y-30969000D01*
X47546126Y-30969000D01*
X47165720Y-31126569D01*
X47048289Y-31244000D01*
X46499844Y-31244000D01*
X46424997Y-31229112D01*
X46350150Y-31244000D01*
X46350146Y-31244000D01*
X46128461Y-31288096D01*
X45877069Y-31456071D01*
X45834667Y-31519530D01*
X45824197Y-31530000D01*
X45690530Y-31530000D01*
X45483765Y-31391843D01*
X45236000Y-31342560D01*
X44036000Y-31342560D01*
X43788235Y-31391843D01*
X43578191Y-31532191D01*
X43437843Y-31742235D01*
X43388560Y-31990000D01*
X43388560Y-32590000D01*
X43408451Y-32690000D01*
X43388560Y-32790000D01*
X43388560Y-33390000D01*
X43408451Y-33490000D01*
X43388560Y-33590000D01*
X43388560Y-34190000D01*
X43408451Y-34290000D01*
X43388560Y-34390000D01*
X43388560Y-34990000D01*
X43408451Y-35090000D01*
X43388560Y-35190000D01*
X43388560Y-35790000D01*
X43408451Y-35890000D01*
X43388560Y-35990000D01*
X43388560Y-36590000D01*
X43408451Y-36690000D01*
X43388560Y-36790000D01*
X43388560Y-37292560D01*
X42886000Y-37292560D01*
X42786000Y-37312451D01*
X42686000Y-37292560D01*
X42086000Y-37292560D01*
X41986000Y-37312451D01*
X41886000Y-37292560D01*
X41286000Y-37292560D01*
X41186000Y-37312451D01*
X41086000Y-37292560D01*
X40746000Y-37292560D01*
X40746000Y-33964848D01*
X40760888Y-33890000D01*
X40746000Y-33815152D01*
X40746000Y-33815148D01*
X40701904Y-33593463D01*
X40533929Y-33342071D01*
X40470473Y-33299671D01*
X38458241Y-31287440D01*
X38686000Y-31287440D01*
X38786000Y-31267549D01*
X38886000Y-31287440D01*
X39486000Y-31287440D01*
X39586000Y-31267549D01*
X39686000Y-31287440D01*
X40286000Y-31287440D01*
X40386000Y-31267549D01*
X40486000Y-31287440D01*
X41086000Y-31287440D01*
X41186000Y-31267549D01*
X41286000Y-31287440D01*
X41886000Y-31287440D01*
X41986000Y-31267549D01*
X42086000Y-31287440D01*
X42686000Y-31287440D01*
X42786000Y-31267549D01*
X42886000Y-31287440D01*
X43486000Y-31287440D01*
X43733765Y-31238157D01*
X43943809Y-31097809D01*
X44084157Y-30887765D01*
X44133440Y-30640000D01*
X44133440Y-29972444D01*
X44195999Y-29984888D01*
X44270846Y-29970000D01*
X45565661Y-29970000D01*
X45613261Y-30041239D01*
X45894273Y-30229005D01*
X46225750Y-30294940D01*
X46738250Y-30294940D01*
X47069727Y-30229005D01*
X47350739Y-30041239D01*
X47538505Y-29760227D01*
X47588599Y-29508388D01*
X49080289Y-29508388D01*
X49197720Y-29625819D01*
X49197720Y-29625819D01*
G37*
X49197720Y-29625819D02*
X49578126Y-29783388D01*
X49989874Y-29783388D01*
X50233822Y-29682342D01*
X50207152Y-29816422D01*
X50034071Y-29932071D01*
X49991671Y-29995527D01*
X48599455Y-31387744D01*
X48338280Y-31126569D01*
X47957874Y-30969000D01*
X47546126Y-30969000D01*
X47165720Y-31126569D01*
X47048289Y-31244000D01*
X46499844Y-31244000D01*
X46424997Y-31229112D01*
X46350150Y-31244000D01*
X46350146Y-31244000D01*
X46128461Y-31288096D01*
X45877069Y-31456071D01*
X45834667Y-31519530D01*
X45824197Y-31530000D01*
X45690530Y-31530000D01*
X45483765Y-31391843D01*
X45236000Y-31342560D01*
X44036000Y-31342560D01*
X43788235Y-31391843D01*
X43578191Y-31532191D01*
X43437843Y-31742235D01*
X43388560Y-31990000D01*
X43388560Y-32590000D01*
X43408451Y-32690000D01*
X43388560Y-32790000D01*
X43388560Y-33390000D01*
X43408451Y-33490000D01*
X43388560Y-33590000D01*
X43388560Y-34190000D01*
X43408451Y-34290000D01*
X43388560Y-34390000D01*
X43388560Y-34990000D01*
X43408451Y-35090000D01*
X43388560Y-35190000D01*
X43388560Y-35790000D01*
X43408451Y-35890000D01*
X43388560Y-35990000D01*
X43388560Y-36590000D01*
X43408451Y-36690000D01*
X43388560Y-36790000D01*
X43388560Y-37292560D01*
X42886000Y-37292560D01*
X42786000Y-37312451D01*
X42686000Y-37292560D01*
X42086000Y-37292560D01*
X41986000Y-37312451D01*
X41886000Y-37292560D01*
X41286000Y-37292560D01*
X41186000Y-37312451D01*
X41086000Y-37292560D01*
X40746000Y-37292560D01*
X40746000Y-33964848D01*
X40760888Y-33890000D01*
X40746000Y-33815152D01*
X40746000Y-33815148D01*
X40701904Y-33593463D01*
X40533929Y-33342071D01*
X40470473Y-33299671D01*
X38458241Y-31287440D01*
X38686000Y-31287440D01*
X38786000Y-31267549D01*
X38886000Y-31287440D01*
X39486000Y-31287440D01*
X39586000Y-31267549D01*
X39686000Y-31287440D01*
X40286000Y-31287440D01*
X40386000Y-31267549D01*
X40486000Y-31287440D01*
X41086000Y-31287440D01*
X41186000Y-31267549D01*
X41286000Y-31287440D01*
X41886000Y-31287440D01*
X41986000Y-31267549D01*
X42086000Y-31287440D01*
X42686000Y-31287440D01*
X42786000Y-31267549D01*
X42886000Y-31287440D01*
X43486000Y-31287440D01*
X43733765Y-31238157D01*
X43943809Y-31097809D01*
X44084157Y-30887765D01*
X44133440Y-30640000D01*
X44133440Y-29972444D01*
X44195999Y-29984888D01*
X44270846Y-29970000D01*
X45565661Y-29970000D01*
X45613261Y-30041239D01*
X45894273Y-30229005D01*
X46225750Y-30294940D01*
X46738250Y-30294940D01*
X47069727Y-30229005D01*
X47350739Y-30041239D01*
X47538505Y-29760227D01*
X47588599Y-29508388D01*
X49080289Y-29508388D01*
X49197720Y-29625819D01*
G36*
X29335161Y-28376582D02*
X29219908Y-28956000D01*
X29335161Y-29535418D01*
X29663375Y-30026625D01*
X30154582Y-30354839D01*
X30587744Y-30441000D01*
X30880256Y-30441000D01*
X31100407Y-30397209D01*
X31318674Y-30615477D01*
X31361072Y-30678930D01*
X31424525Y-30721328D01*
X31424527Y-30721330D01*
X31549903Y-30805103D01*
X31612464Y-30846905D01*
X31834149Y-30891001D01*
X31834153Y-30891001D01*
X31885438Y-30901202D01*
X31875161Y-30916582D01*
X31759908Y-31496000D01*
X31875161Y-32075418D01*
X31998495Y-32260000D01*
X29778802Y-32260000D01*
X27938000Y-30419199D01*
X27938000Y-30126339D01*
X28009239Y-30078739D01*
X28197005Y-29797727D01*
X28262940Y-29466250D01*
X28262940Y-28953750D01*
X28197005Y-28622273D01*
X28009239Y-28341261D01*
X27978916Y-28321000D01*
X28009239Y-28300739D01*
X28081896Y-28192000D01*
X29458495Y-28192000D01*
X29335161Y-28376582D01*
X29335161Y-28376582D01*
G37*
X29335161Y-28376582D02*
X29219908Y-28956000D01*
X29335161Y-29535418D01*
X29663375Y-30026625D01*
X30154582Y-30354839D01*
X30587744Y-30441000D01*
X30880256Y-30441000D01*
X31100407Y-30397209D01*
X31318674Y-30615477D01*
X31361072Y-30678930D01*
X31424525Y-30721328D01*
X31424527Y-30721330D01*
X31549903Y-30805103D01*
X31612464Y-30846905D01*
X31834149Y-30891001D01*
X31834153Y-30891001D01*
X31885438Y-30901202D01*
X31875161Y-30916582D01*
X31759908Y-31496000D01*
X31875161Y-32075418D01*
X31998495Y-32260000D01*
X29778802Y-32260000D01*
X27938000Y-30419199D01*
X27938000Y-30126339D01*
X28009239Y-30078739D01*
X28197005Y-29797727D01*
X28262940Y-29466250D01*
X28262940Y-28953750D01*
X28197005Y-28622273D01*
X28009239Y-28341261D01*
X27978916Y-28321000D01*
X28009239Y-28300739D01*
X28081896Y-28192000D01*
X29458495Y-28192000D01*
X29335161Y-28376582D01*
G36*
X56051672Y-28725525D02*
X55649527Y-29127672D01*
X55586072Y-29170071D01*
X55418096Y-29421463D01*
X55374000Y-29643148D01*
X55374000Y-29643153D01*
X55359112Y-29718000D01*
X55374000Y-29792847D01*
X55374000Y-29963198D01*
X55095105Y-30242093D01*
X55079765Y-30231843D01*
X54832000Y-30182560D01*
X53832000Y-30182560D01*
X53592000Y-30230298D01*
X53592000Y-29792846D01*
X53606888Y-29717999D01*
X53592000Y-29643152D01*
X53592000Y-29643148D01*
X53547904Y-29421463D01*
X53435032Y-29252538D01*
X53422329Y-29233526D01*
X53422327Y-29233524D01*
X53379929Y-29170071D01*
X53316476Y-29127673D01*
X52888802Y-28700000D01*
X56068728Y-28700000D01*
X56051672Y-28725525D01*
X56051672Y-28725525D01*
G37*
X56051672Y-28725525D02*
X55649527Y-29127672D01*
X55586072Y-29170071D01*
X55418096Y-29421463D01*
X55374000Y-29643148D01*
X55374000Y-29643153D01*
X55359112Y-29718000D01*
X55374000Y-29792847D01*
X55374000Y-29963198D01*
X55095105Y-30242093D01*
X55079765Y-30231843D01*
X54832000Y-30182560D01*
X53832000Y-30182560D01*
X53592000Y-30230298D01*
X53592000Y-29792846D01*
X53606888Y-29717999D01*
X53592000Y-29643152D01*
X53592000Y-29643148D01*
X53547904Y-29421463D01*
X53435032Y-29252538D01*
X53422329Y-29233526D01*
X53422327Y-29233524D01*
X53379929Y-29170071D01*
X53316476Y-29127673D01*
X52888802Y-28700000D01*
X56068728Y-28700000D01*
X56051672Y-28725525D01*
G36*
X62511000Y-19001432D02*
X62460470Y-18967669D01*
X62312331Y-18819530D01*
X62269929Y-18756071D01*
X62018537Y-18588096D01*
X61888523Y-18562235D01*
X61828739Y-18472761D01*
X61720000Y-18400104D01*
X61720000Y-17788178D01*
X62030625Y-17580625D01*
X62358839Y-17089418D01*
X62474092Y-16510000D01*
X62358839Y-15930582D01*
X62030625Y-15439375D01*
X61539418Y-15111161D01*
X61106256Y-15025000D01*
X60813744Y-15025000D01*
X60380582Y-15111161D01*
X59889375Y-15439375D01*
X59690000Y-15737761D01*
X59490625Y-15439375D01*
X58999418Y-15111161D01*
X58566256Y-15025000D01*
X58273744Y-15025000D01*
X57840582Y-15111161D01*
X57349375Y-15439375D01*
X57150000Y-15737761D01*
X56950625Y-15439375D01*
X56459418Y-15111161D01*
X56026256Y-15025000D01*
X55733744Y-15025000D01*
X55300582Y-15111161D01*
X54809375Y-15439375D01*
X54797184Y-15457619D01*
X54788157Y-15412235D01*
X54647809Y-15202191D01*
X54437765Y-15061843D01*
X54190000Y-15012560D01*
X52490000Y-15012560D01*
X52242235Y-15061843D01*
X52032191Y-15202191D01*
X51891843Y-15412235D01*
X51842560Y-15660000D01*
X51842560Y-17360000D01*
X51891843Y-17607765D01*
X51955000Y-17702286D01*
X51955001Y-19080560D01*
X51710000Y-19080560D01*
X51462235Y-19129843D01*
X51252191Y-19270191D01*
X51111843Y-19480235D01*
X51062560Y-19728000D01*
X51062560Y-21928000D01*
X51111843Y-22175765D01*
X51252191Y-22385809D01*
X51462235Y-22526157D01*
X51475001Y-22528696D01*
X51475001Y-24050212D01*
X51452765Y-24162000D01*
X51540854Y-24604854D01*
X51554390Y-24625112D01*
X51791712Y-24980289D01*
X51886479Y-25043611D01*
X52458389Y-25615521D01*
X52521711Y-25710289D01*
X52820600Y-25910000D01*
X52897145Y-25961146D01*
X53340000Y-26049235D01*
X53451783Y-26027000D01*
X54991783Y-26027000D01*
X55322855Y-25961146D01*
X55366081Y-25932263D01*
X55577765Y-25890157D01*
X55782560Y-25753316D01*
X55782560Y-26242000D01*
X55831843Y-26489765D01*
X55972191Y-26699809D01*
X56182235Y-26840157D01*
X56430000Y-26889440D01*
X57330000Y-26889440D01*
X57577765Y-26840157D01*
X57787809Y-26699809D01*
X57853163Y-26602000D01*
X58429199Y-26602000D01*
X57851199Y-27180000D01*
X47554801Y-27180000D01*
X50268476Y-24466327D01*
X50331929Y-24423929D01*
X50374327Y-24360476D01*
X50374329Y-24360474D01*
X50499903Y-24172538D01*
X50499904Y-24172537D01*
X50544000Y-23950852D01*
X50544000Y-23950848D01*
X50558888Y-23876001D01*
X50544000Y-23801154D01*
X50544000Y-20369347D01*
X50558888Y-20294500D01*
X50544000Y-20219653D01*
X50544000Y-20219648D01*
X50499904Y-19997963D01*
X50331929Y-19746571D01*
X50268473Y-19704171D01*
X49890440Y-19326138D01*
X49890440Y-19059750D01*
X49824505Y-18728273D01*
X49636739Y-18447261D01*
X49528000Y-18374604D01*
X49528000Y-17788178D01*
X49838625Y-17580625D01*
X50166839Y-17089418D01*
X50282092Y-16510000D01*
X50166839Y-15930582D01*
X49838625Y-15439375D01*
X49347418Y-15111161D01*
X48914256Y-15025000D01*
X48621744Y-15025000D01*
X48188582Y-15111161D01*
X47697375Y-15439375D01*
X47498000Y-15737761D01*
X47298625Y-15439375D01*
X46807418Y-15111161D01*
X46374256Y-15025000D01*
X46081744Y-15025000D01*
X45648582Y-15111161D01*
X45157375Y-15439375D01*
X44958000Y-15737761D01*
X44758625Y-15439375D01*
X44267418Y-15111161D01*
X43834256Y-15025000D01*
X43541744Y-15025000D01*
X43108582Y-15111161D01*
X42617375Y-15439375D01*
X42605184Y-15457619D01*
X42596157Y-15412235D01*
X42455809Y-15202191D01*
X42245765Y-15061843D01*
X41998000Y-15012560D01*
X40298000Y-15012560D01*
X40050235Y-15061843D01*
X39840191Y-15202191D01*
X39699843Y-15412235D01*
X39650560Y-15660000D01*
X39650560Y-17360000D01*
X39699843Y-17607765D01*
X39763000Y-17702286D01*
X39763001Y-19080560D01*
X39518000Y-19080560D01*
X39270235Y-19129843D01*
X39060191Y-19270191D01*
X38919843Y-19480235D01*
X38870560Y-19728000D01*
X38870560Y-21928000D01*
X38919843Y-22175765D01*
X39060191Y-22385809D01*
X39270235Y-22526157D01*
X39283001Y-22528696D01*
X39283001Y-24050212D01*
X39260765Y-24162000D01*
X39348854Y-24604854D01*
X39362390Y-24625112D01*
X39599712Y-24980289D01*
X39694479Y-25043611D01*
X40266389Y-25615521D01*
X40329711Y-25710289D01*
X40628600Y-25910000D01*
X40705145Y-25961146D01*
X41148000Y-26049235D01*
X41259783Y-26027000D01*
X42799783Y-26027000D01*
X43130855Y-25961146D01*
X43174081Y-25932263D01*
X43385765Y-25890157D01*
X43590560Y-25753316D01*
X43590560Y-26242000D01*
X43639843Y-26489765D01*
X43761609Y-26672000D01*
X43418846Y-26672000D01*
X43343999Y-26657112D01*
X43269152Y-26672000D01*
X43269148Y-26672000D01*
X43047463Y-26716096D01*
X43047461Y-26716097D01*
X43047462Y-26716097D01*
X42859526Y-26841671D01*
X42859524Y-26841673D01*
X42796071Y-26884071D01*
X42753673Y-26947524D01*
X41186000Y-28515198D01*
X38352000Y-25681199D01*
X38352000Y-19632848D01*
X38366888Y-19558000D01*
X38352000Y-19483152D01*
X38352000Y-19483148D01*
X38307904Y-19261463D01*
X38139929Y-19010071D01*
X38076470Y-18967669D01*
X37902831Y-18794030D01*
X37860429Y-18730571D01*
X37609037Y-18562596D01*
X37508432Y-18542584D01*
X37444739Y-18447261D01*
X37336000Y-18374604D01*
X37336000Y-17788178D01*
X37646625Y-17580625D01*
X37974839Y-17089418D01*
X38090092Y-16510000D01*
X37974839Y-15930582D01*
X37646625Y-15439375D01*
X37155418Y-15111161D01*
X36722256Y-15025000D01*
X36429744Y-15025000D01*
X35996582Y-15111161D01*
X35505375Y-15439375D01*
X35306000Y-15737761D01*
X35106625Y-15439375D01*
X34615418Y-15111161D01*
X34182256Y-15025000D01*
X33889744Y-15025000D01*
X33456582Y-15111161D01*
X32965375Y-15439375D01*
X32766000Y-15737761D01*
X32566625Y-15439375D01*
X32075418Y-15111161D01*
X31642256Y-15025000D01*
X31349744Y-15025000D01*
X30916582Y-15111161D01*
X30425375Y-15439375D01*
X30413184Y-15457619D01*
X30404157Y-15412235D01*
X30263809Y-15202191D01*
X30053765Y-15061843D01*
X29806000Y-15012560D01*
X28106000Y-15012560D01*
X27858235Y-15061843D01*
X27648191Y-15202191D01*
X27507843Y-15412235D01*
X27458560Y-15660000D01*
X27458560Y-17360000D01*
X27507843Y-17607765D01*
X27571000Y-17702286D01*
X27571001Y-19080560D01*
X27326000Y-19080560D01*
X27078235Y-19129843D01*
X26868191Y-19270191D01*
X26727843Y-19480235D01*
X26678560Y-19728000D01*
X26678560Y-21928000D01*
X26727843Y-22175765D01*
X26841000Y-22345115D01*
X26841001Y-24025589D01*
X26813867Y-24162000D01*
X26921359Y-24702399D01*
X27056659Y-24904889D01*
X27227472Y-25160529D01*
X27343113Y-25237798D01*
X27761315Y-25656000D01*
X26730802Y-25656000D01*
X26160000Y-25085199D01*
X26160000Y-19632848D01*
X26174888Y-19558000D01*
X26160000Y-19483152D01*
X26160000Y-19483148D01*
X26115904Y-19261463D01*
X25947929Y-19010071D01*
X25884470Y-18967669D01*
X25710831Y-18794030D01*
X25668429Y-18730571D01*
X25417037Y-18562596D01*
X25316432Y-18542584D01*
X25252739Y-18447261D01*
X25144000Y-18374604D01*
X25144000Y-17788178D01*
X25454625Y-17580625D01*
X25782839Y-17089418D01*
X25898092Y-16510000D01*
X25782839Y-15930582D01*
X25454625Y-15439375D01*
X24963418Y-15111161D01*
X24530256Y-15025000D01*
X24237744Y-15025000D01*
X23804582Y-15111161D01*
X23313375Y-15439375D01*
X23114000Y-15737761D01*
X22914625Y-15439375D01*
X22423418Y-15111161D01*
X21990256Y-15025000D01*
X21697744Y-15025000D01*
X21264582Y-15111161D01*
X20773375Y-15439375D01*
X20574000Y-15737761D01*
X20374625Y-15439375D01*
X19883418Y-15111161D01*
X19450256Y-15025000D01*
X19157744Y-15025000D01*
X18724582Y-15111161D01*
X18233375Y-15439375D01*
X18221184Y-15457619D01*
X18212157Y-15412235D01*
X18071809Y-15202191D01*
X17861765Y-15061843D01*
X17614000Y-15012560D01*
X15914000Y-15012560D01*
X15666235Y-15061843D01*
X15456191Y-15202191D01*
X15315843Y-15412235D01*
X15266560Y-15660000D01*
X15266560Y-17360000D01*
X15315843Y-17607765D01*
X15379000Y-17702286D01*
X15379001Y-19082350D01*
X15213000Y-19115369D01*
X15213000Y-14959000D01*
X62511000Y-14959000D01*
X62511000Y-19001432D01*
X62511000Y-19001432D01*
G37*
X62511000Y-19001432D02*
X62460470Y-18967669D01*
X62312331Y-18819530D01*
X62269929Y-18756071D01*
X62018537Y-18588096D01*
X61888523Y-18562235D01*
X61828739Y-18472761D01*
X61720000Y-18400104D01*
X61720000Y-17788178D01*
X62030625Y-17580625D01*
X62358839Y-17089418D01*
X62474092Y-16510000D01*
X62358839Y-15930582D01*
X62030625Y-15439375D01*
X61539418Y-15111161D01*
X61106256Y-15025000D01*
X60813744Y-15025000D01*
X60380582Y-15111161D01*
X59889375Y-15439375D01*
X59690000Y-15737761D01*
X59490625Y-15439375D01*
X58999418Y-15111161D01*
X58566256Y-15025000D01*
X58273744Y-15025000D01*
X57840582Y-15111161D01*
X57349375Y-15439375D01*
X57150000Y-15737761D01*
X56950625Y-15439375D01*
X56459418Y-15111161D01*
X56026256Y-15025000D01*
X55733744Y-15025000D01*
X55300582Y-15111161D01*
X54809375Y-15439375D01*
X54797184Y-15457619D01*
X54788157Y-15412235D01*
X54647809Y-15202191D01*
X54437765Y-15061843D01*
X54190000Y-15012560D01*
X52490000Y-15012560D01*
X52242235Y-15061843D01*
X52032191Y-15202191D01*
X51891843Y-15412235D01*
X51842560Y-15660000D01*
X51842560Y-17360000D01*
X51891843Y-17607765D01*
X51955000Y-17702286D01*
X51955001Y-19080560D01*
X51710000Y-19080560D01*
X51462235Y-19129843D01*
X51252191Y-19270191D01*
X51111843Y-19480235D01*
X51062560Y-19728000D01*
X51062560Y-21928000D01*
X51111843Y-22175765D01*
X51252191Y-22385809D01*
X51462235Y-22526157D01*
X51475001Y-22528696D01*
X51475001Y-24050212D01*
X51452765Y-24162000D01*
X51540854Y-24604854D01*
X51554390Y-24625112D01*
X51791712Y-24980289D01*
X51886479Y-25043611D01*
X52458389Y-25615521D01*
X52521711Y-25710289D01*
X52820600Y-25910000D01*
X52897145Y-25961146D01*
X53340000Y-26049235D01*
X53451783Y-26027000D01*
X54991783Y-26027000D01*
X55322855Y-25961146D01*
X55366081Y-25932263D01*
X55577765Y-25890157D01*
X55782560Y-25753316D01*
X55782560Y-26242000D01*
X55831843Y-26489765D01*
X55972191Y-26699809D01*
X56182235Y-26840157D01*
X56430000Y-26889440D01*
X57330000Y-26889440D01*
X57577765Y-26840157D01*
X57787809Y-26699809D01*
X57853163Y-26602000D01*
X58429199Y-26602000D01*
X57851199Y-27180000D01*
X47554801Y-27180000D01*
X50268476Y-24466327D01*
X50331929Y-24423929D01*
X50374327Y-24360476D01*
X50374329Y-24360474D01*
X50499903Y-24172538D01*
X50499904Y-24172537D01*
X50544000Y-23950852D01*
X50544000Y-23950848D01*
X50558888Y-23876001D01*
X50544000Y-23801154D01*
X50544000Y-20369347D01*
X50558888Y-20294500D01*
X50544000Y-20219653D01*
X50544000Y-20219648D01*
X50499904Y-19997963D01*
X50331929Y-19746571D01*
X50268473Y-19704171D01*
X49890440Y-19326138D01*
X49890440Y-19059750D01*
X49824505Y-18728273D01*
X49636739Y-18447261D01*
X49528000Y-18374604D01*
X49528000Y-17788178D01*
X49838625Y-17580625D01*
X50166839Y-17089418D01*
X50282092Y-16510000D01*
X50166839Y-15930582D01*
X49838625Y-15439375D01*
X49347418Y-15111161D01*
X48914256Y-15025000D01*
X48621744Y-15025000D01*
X48188582Y-15111161D01*
X47697375Y-15439375D01*
X47498000Y-15737761D01*
X47298625Y-15439375D01*
X46807418Y-15111161D01*
X46374256Y-15025000D01*
X46081744Y-15025000D01*
X45648582Y-15111161D01*
X45157375Y-15439375D01*
X44958000Y-15737761D01*
X44758625Y-15439375D01*
X44267418Y-15111161D01*
X43834256Y-15025000D01*
X43541744Y-15025000D01*
X43108582Y-15111161D01*
X42617375Y-15439375D01*
X42605184Y-15457619D01*
X42596157Y-15412235D01*
X42455809Y-15202191D01*
X42245765Y-15061843D01*
X41998000Y-15012560D01*
X40298000Y-15012560D01*
X40050235Y-15061843D01*
X39840191Y-15202191D01*
X39699843Y-15412235D01*
X39650560Y-15660000D01*
X39650560Y-17360000D01*
X39699843Y-17607765D01*
X39763000Y-17702286D01*
X39763001Y-19080560D01*
X39518000Y-19080560D01*
X39270235Y-19129843D01*
X39060191Y-19270191D01*
X38919843Y-19480235D01*
X38870560Y-19728000D01*
X38870560Y-21928000D01*
X38919843Y-22175765D01*
X39060191Y-22385809D01*
X39270235Y-22526157D01*
X39283001Y-22528696D01*
X39283001Y-24050212D01*
X39260765Y-24162000D01*
X39348854Y-24604854D01*
X39362390Y-24625112D01*
X39599712Y-24980289D01*
X39694479Y-25043611D01*
X40266389Y-25615521D01*
X40329711Y-25710289D01*
X40628600Y-25910000D01*
X40705145Y-25961146D01*
X41148000Y-26049235D01*
X41259783Y-26027000D01*
X42799783Y-26027000D01*
X43130855Y-25961146D01*
X43174081Y-25932263D01*
X43385765Y-25890157D01*
X43590560Y-25753316D01*
X43590560Y-26242000D01*
X43639843Y-26489765D01*
X43761609Y-26672000D01*
X43418846Y-26672000D01*
X43343999Y-26657112D01*
X43269152Y-26672000D01*
X43269148Y-26672000D01*
X43047463Y-26716096D01*
X43047461Y-26716097D01*
X43047462Y-26716097D01*
X42859526Y-26841671D01*
X42859524Y-26841673D01*
X42796071Y-26884071D01*
X42753673Y-26947524D01*
X41186000Y-28515198D01*
X38352000Y-25681199D01*
X38352000Y-19632848D01*
X38366888Y-19558000D01*
X38352000Y-19483152D01*
X38352000Y-19483148D01*
X38307904Y-19261463D01*
X38139929Y-19010071D01*
X38076470Y-18967669D01*
X37902831Y-18794030D01*
X37860429Y-18730571D01*
X37609037Y-18562596D01*
X37508432Y-18542584D01*
X37444739Y-18447261D01*
X37336000Y-18374604D01*
X37336000Y-17788178D01*
X37646625Y-17580625D01*
X37974839Y-17089418D01*
X38090092Y-16510000D01*
X37974839Y-15930582D01*
X37646625Y-15439375D01*
X37155418Y-15111161D01*
X36722256Y-15025000D01*
X36429744Y-15025000D01*
X35996582Y-15111161D01*
X35505375Y-15439375D01*
X35306000Y-15737761D01*
X35106625Y-15439375D01*
X34615418Y-15111161D01*
X34182256Y-15025000D01*
X33889744Y-15025000D01*
X33456582Y-15111161D01*
X32965375Y-15439375D01*
X32766000Y-15737761D01*
X32566625Y-15439375D01*
X32075418Y-15111161D01*
X31642256Y-15025000D01*
X31349744Y-15025000D01*
X30916582Y-15111161D01*
X30425375Y-15439375D01*
X30413184Y-15457619D01*
X30404157Y-15412235D01*
X30263809Y-15202191D01*
X30053765Y-15061843D01*
X29806000Y-15012560D01*
X28106000Y-15012560D01*
X27858235Y-15061843D01*
X27648191Y-15202191D01*
X27507843Y-15412235D01*
X27458560Y-15660000D01*
X27458560Y-17360000D01*
X27507843Y-17607765D01*
X27571000Y-17702286D01*
X27571001Y-19080560D01*
X27326000Y-19080560D01*
X27078235Y-19129843D01*
X26868191Y-19270191D01*
X26727843Y-19480235D01*
X26678560Y-19728000D01*
X26678560Y-21928000D01*
X26727843Y-22175765D01*
X26841000Y-22345115D01*
X26841001Y-24025589D01*
X26813867Y-24162000D01*
X26921359Y-24702399D01*
X27056659Y-24904889D01*
X27227472Y-25160529D01*
X27343113Y-25237798D01*
X27761315Y-25656000D01*
X26730802Y-25656000D01*
X26160000Y-25085199D01*
X26160000Y-19632848D01*
X26174888Y-19558000D01*
X26160000Y-19483152D01*
X26160000Y-19483148D01*
X26115904Y-19261463D01*
X25947929Y-19010071D01*
X25884470Y-18967669D01*
X25710831Y-18794030D01*
X25668429Y-18730571D01*
X25417037Y-18562596D01*
X25316432Y-18542584D01*
X25252739Y-18447261D01*
X25144000Y-18374604D01*
X25144000Y-17788178D01*
X25454625Y-17580625D01*
X25782839Y-17089418D01*
X25898092Y-16510000D01*
X25782839Y-15930582D01*
X25454625Y-15439375D01*
X24963418Y-15111161D01*
X24530256Y-15025000D01*
X24237744Y-15025000D01*
X23804582Y-15111161D01*
X23313375Y-15439375D01*
X23114000Y-15737761D01*
X22914625Y-15439375D01*
X22423418Y-15111161D01*
X21990256Y-15025000D01*
X21697744Y-15025000D01*
X21264582Y-15111161D01*
X20773375Y-15439375D01*
X20574000Y-15737761D01*
X20374625Y-15439375D01*
X19883418Y-15111161D01*
X19450256Y-15025000D01*
X19157744Y-15025000D01*
X18724582Y-15111161D01*
X18233375Y-15439375D01*
X18221184Y-15457619D01*
X18212157Y-15412235D01*
X18071809Y-15202191D01*
X17861765Y-15061843D01*
X17614000Y-15012560D01*
X15914000Y-15012560D01*
X15666235Y-15061843D01*
X15456191Y-15202191D01*
X15315843Y-15412235D01*
X15266560Y-15660000D01*
X15266560Y-17360000D01*
X15315843Y-17607765D01*
X15379000Y-17702286D01*
X15379001Y-19082350D01*
X15213000Y-19115369D01*
X15213000Y-14959000D01*
X62511000Y-14959000D01*
X62511000Y-19001432D01*
G36*
X35505375Y-17580625D02*
X35816001Y-17788178D01*
X35816000Y-18374604D01*
X35707261Y-18447261D01*
X35519495Y-18728273D01*
X35453560Y-19059750D01*
X35453560Y-19497250D01*
X35519495Y-19828727D01*
X35678036Y-20066000D01*
X35519495Y-20303273D01*
X35453560Y-20634750D01*
X35453560Y-21072250D01*
X35519495Y-21403727D01*
X35707261Y-21684739D01*
X35816000Y-21757396D01*
X35816001Y-24831197D01*
X35565199Y-25082000D01*
X33469163Y-25082000D01*
X33403809Y-24984191D01*
X33193765Y-24843843D01*
X32946000Y-24794560D01*
X32046000Y-24794560D01*
X31894736Y-24824648D01*
X31800641Y-24351600D01*
X31494529Y-23893471D01*
X31036400Y-23587359D01*
X30632407Y-23507000D01*
X29611000Y-23507000D01*
X29611000Y-22345115D01*
X29724157Y-22175765D01*
X29773440Y-21928000D01*
X29773440Y-21239245D01*
X29838885Y-21173800D01*
X29954529Y-21096529D01*
X30226000Y-20690243D01*
X30361077Y-20892400D01*
X30497472Y-21096529D01*
X30613113Y-21173798D01*
X30678560Y-21239245D01*
X30678560Y-21928000D01*
X30727843Y-22175765D01*
X30868191Y-22385809D01*
X31078235Y-22526157D01*
X31326000Y-22575440D01*
X33126000Y-22575440D01*
X33373765Y-22526157D01*
X33583809Y-22385809D01*
X33724157Y-22175765D01*
X33773440Y-21928000D01*
X33773440Y-19728000D01*
X33724157Y-19480235D01*
X33583809Y-19270191D01*
X33373765Y-19129843D01*
X33126000Y-19080560D01*
X32881000Y-19080560D01*
X32881000Y-17454349D01*
X32965375Y-17580625D01*
X33456582Y-17908839D01*
X33889744Y-17995000D01*
X34182256Y-17995000D01*
X34615418Y-17908839D01*
X35106625Y-17580625D01*
X35306000Y-17282239D01*
X35505375Y-17580625D01*
X35505375Y-17580625D01*
G37*
X35505375Y-17580625D02*
X35816001Y-17788178D01*
X35816000Y-18374604D01*
X35707261Y-18447261D01*
X35519495Y-18728273D01*
X35453560Y-19059750D01*
X35453560Y-19497250D01*
X35519495Y-19828727D01*
X35678036Y-20066000D01*
X35519495Y-20303273D01*
X35453560Y-20634750D01*
X35453560Y-21072250D01*
X35519495Y-21403727D01*
X35707261Y-21684739D01*
X35816000Y-21757396D01*
X35816001Y-24831197D01*
X35565199Y-25082000D01*
X33469163Y-25082000D01*
X33403809Y-24984191D01*
X33193765Y-24843843D01*
X32946000Y-24794560D01*
X32046000Y-24794560D01*
X31894736Y-24824648D01*
X31800641Y-24351600D01*
X31494529Y-23893471D01*
X31036400Y-23587359D01*
X30632407Y-23507000D01*
X29611000Y-23507000D01*
X29611000Y-22345115D01*
X29724157Y-22175765D01*
X29773440Y-21928000D01*
X29773440Y-21239245D01*
X29838885Y-21173800D01*
X29954529Y-21096529D01*
X30226000Y-20690243D01*
X30361077Y-20892400D01*
X30497472Y-21096529D01*
X30613113Y-21173798D01*
X30678560Y-21239245D01*
X30678560Y-21928000D01*
X30727843Y-22175765D01*
X30868191Y-22385809D01*
X31078235Y-22526157D01*
X31326000Y-22575440D01*
X33126000Y-22575440D01*
X33373765Y-22526157D01*
X33583809Y-22385809D01*
X33724157Y-22175765D01*
X33773440Y-21928000D01*
X33773440Y-19728000D01*
X33724157Y-19480235D01*
X33583809Y-19270191D01*
X33373765Y-19129843D01*
X33126000Y-19080560D01*
X32881000Y-19080560D01*
X32881000Y-17454349D01*
X32965375Y-17580625D01*
X33456582Y-17908839D01*
X33889744Y-17995000D01*
X34182256Y-17995000D01*
X34615418Y-17908839D01*
X35106625Y-17580625D01*
X35306000Y-17282239D01*
X35505375Y-17580625D01*
G36*
X47697375Y-17580625D02*
X48008001Y-17788178D01*
X48008000Y-18374604D01*
X47899261Y-18447261D01*
X47711495Y-18728273D01*
X47645560Y-19059750D01*
X47645560Y-19497250D01*
X47711495Y-19828727D01*
X47870036Y-20066000D01*
X47711495Y-20303273D01*
X47645560Y-20634750D01*
X47645560Y-21072250D01*
X47711495Y-21403727D01*
X47899261Y-21684739D01*
X48008000Y-21757396D01*
X48008001Y-23307197D01*
X46233199Y-25082000D01*
X45661163Y-25082000D01*
X45595809Y-24984191D01*
X45385765Y-24843843D01*
X45138000Y-24794560D01*
X44238000Y-24794560D01*
X43990235Y-24843843D01*
X43834056Y-24948199D01*
X43845235Y-24892000D01*
X43785440Y-24591389D01*
X43785440Y-24492000D01*
X43736157Y-24244235D01*
X43595809Y-24034191D01*
X43385765Y-23893843D01*
X43174081Y-23851737D01*
X43130855Y-23822854D01*
X42799783Y-23757000D01*
X41618132Y-23757000D01*
X41553000Y-23691869D01*
X41553000Y-22528696D01*
X41565765Y-22526157D01*
X41775809Y-22385809D01*
X41916157Y-22175765D01*
X41965440Y-21928000D01*
X41965440Y-21239245D01*
X42030885Y-21173800D01*
X42146529Y-21096529D01*
X42418000Y-20690243D01*
X42553077Y-20892400D01*
X42689472Y-21096529D01*
X42805113Y-21173798D01*
X42870560Y-21239245D01*
X42870560Y-21928000D01*
X42919843Y-22175765D01*
X43060191Y-22385809D01*
X43270235Y-22526157D01*
X43518000Y-22575440D01*
X45318000Y-22575440D01*
X45565765Y-22526157D01*
X45775809Y-22385809D01*
X45916157Y-22175765D01*
X45965440Y-21928000D01*
X45965440Y-19728000D01*
X45916157Y-19480235D01*
X45775809Y-19270191D01*
X45565765Y-19129843D01*
X45318000Y-19080560D01*
X45073000Y-19080560D01*
X45073000Y-17454349D01*
X45157375Y-17580625D01*
X45648582Y-17908839D01*
X46081744Y-17995000D01*
X46374256Y-17995000D01*
X46807418Y-17908839D01*
X47298625Y-17580625D01*
X47498000Y-17282239D01*
X47697375Y-17580625D01*
X47697375Y-17580625D01*
G37*
X47697375Y-17580625D02*
X48008001Y-17788178D01*
X48008000Y-18374604D01*
X47899261Y-18447261D01*
X47711495Y-18728273D01*
X47645560Y-19059750D01*
X47645560Y-19497250D01*
X47711495Y-19828727D01*
X47870036Y-20066000D01*
X47711495Y-20303273D01*
X47645560Y-20634750D01*
X47645560Y-21072250D01*
X47711495Y-21403727D01*
X47899261Y-21684739D01*
X48008000Y-21757396D01*
X48008001Y-23307197D01*
X46233199Y-25082000D01*
X45661163Y-25082000D01*
X45595809Y-24984191D01*
X45385765Y-24843843D01*
X45138000Y-24794560D01*
X44238000Y-24794560D01*
X43990235Y-24843843D01*
X43834056Y-24948199D01*
X43845235Y-24892000D01*
X43785440Y-24591389D01*
X43785440Y-24492000D01*
X43736157Y-24244235D01*
X43595809Y-24034191D01*
X43385765Y-23893843D01*
X43174081Y-23851737D01*
X43130855Y-23822854D01*
X42799783Y-23757000D01*
X41618132Y-23757000D01*
X41553000Y-23691869D01*
X41553000Y-22528696D01*
X41565765Y-22526157D01*
X41775809Y-22385809D01*
X41916157Y-22175765D01*
X41965440Y-21928000D01*
X41965440Y-21239245D01*
X42030885Y-21173800D01*
X42146529Y-21096529D01*
X42418000Y-20690243D01*
X42553077Y-20892400D01*
X42689472Y-21096529D01*
X42805113Y-21173798D01*
X42870560Y-21239245D01*
X42870560Y-21928000D01*
X42919843Y-22175765D01*
X43060191Y-22385809D01*
X43270235Y-22526157D01*
X43518000Y-22575440D01*
X45318000Y-22575440D01*
X45565765Y-22526157D01*
X45775809Y-22385809D01*
X45916157Y-22175765D01*
X45965440Y-21928000D01*
X45965440Y-19728000D01*
X45916157Y-19480235D01*
X45775809Y-19270191D01*
X45565765Y-19129843D01*
X45318000Y-19080560D01*
X45073000Y-19080560D01*
X45073000Y-17454349D01*
X45157375Y-17580625D01*
X45648582Y-17908839D01*
X46081744Y-17995000D01*
X46374256Y-17995000D01*
X46807418Y-17908839D01*
X47298625Y-17580625D01*
X47498000Y-17282239D01*
X47697375Y-17580625D01*
G36*
X23313375Y-17580625D02*
X23624000Y-17788178D01*
X23624000Y-18374604D01*
X23515261Y-18447261D01*
X23327495Y-18728273D01*
X23261560Y-19059750D01*
X23261560Y-19497250D01*
X23327495Y-19828727D01*
X23486036Y-20066000D01*
X23327495Y-20303273D01*
X23261560Y-20634750D01*
X23261560Y-21072250D01*
X23327495Y-21403727D01*
X23515261Y-21684739D01*
X23624000Y-21757396D01*
X23624001Y-24577197D01*
X23119199Y-25082000D01*
X21531163Y-25082000D01*
X21465809Y-24984191D01*
X21255765Y-24843843D01*
X21008000Y-24794560D01*
X20108000Y-24794560D01*
X19956736Y-24824648D01*
X19862641Y-24351600D01*
X19556529Y-23893471D01*
X19098400Y-23587359D01*
X18694407Y-23507000D01*
X17681685Y-23507000D01*
X17673000Y-23498315D01*
X17673000Y-22345115D01*
X17786157Y-22175765D01*
X17835440Y-21928000D01*
X17835440Y-21241410D01*
X18068641Y-20892400D01*
X18130615Y-20580837D01*
X18169077Y-20638400D01*
X18305472Y-20842529D01*
X18421112Y-20919797D01*
X18740560Y-21239245D01*
X18740560Y-21928000D01*
X18789843Y-22175765D01*
X18930191Y-22385809D01*
X19140235Y-22526157D01*
X19388000Y-22575440D01*
X21188000Y-22575440D01*
X21435765Y-22526157D01*
X21645809Y-22385809D01*
X21786157Y-22175765D01*
X21835440Y-21928000D01*
X21835440Y-19728000D01*
X21786157Y-19480235D01*
X21645809Y-19270191D01*
X21435765Y-19129843D01*
X21188000Y-19080560D01*
X20689000Y-19080560D01*
X20689000Y-17454349D01*
X20773375Y-17580625D01*
X21264582Y-17908839D01*
X21697744Y-17995000D01*
X21990256Y-17995000D01*
X22423418Y-17908839D01*
X22914625Y-17580625D01*
X23114000Y-17282239D01*
X23313375Y-17580625D01*
X23313375Y-17580625D01*
G37*
X23313375Y-17580625D02*
X23624000Y-17788178D01*
X23624000Y-18374604D01*
X23515261Y-18447261D01*
X23327495Y-18728273D01*
X23261560Y-19059750D01*
X23261560Y-19497250D01*
X23327495Y-19828727D01*
X23486036Y-20066000D01*
X23327495Y-20303273D01*
X23261560Y-20634750D01*
X23261560Y-21072250D01*
X23327495Y-21403727D01*
X23515261Y-21684739D01*
X23624000Y-21757396D01*
X23624001Y-24577197D01*
X23119199Y-25082000D01*
X21531163Y-25082000D01*
X21465809Y-24984191D01*
X21255765Y-24843843D01*
X21008000Y-24794560D01*
X20108000Y-24794560D01*
X19956736Y-24824648D01*
X19862641Y-24351600D01*
X19556529Y-23893471D01*
X19098400Y-23587359D01*
X18694407Y-23507000D01*
X17681685Y-23507000D01*
X17673000Y-23498315D01*
X17673000Y-22345115D01*
X17786157Y-22175765D01*
X17835440Y-21928000D01*
X17835440Y-21241410D01*
X18068641Y-20892400D01*
X18130615Y-20580837D01*
X18169077Y-20638400D01*
X18305472Y-20842529D01*
X18421112Y-20919797D01*
X18740560Y-21239245D01*
X18740560Y-21928000D01*
X18789843Y-22175765D01*
X18930191Y-22385809D01*
X19140235Y-22526157D01*
X19388000Y-22575440D01*
X21188000Y-22575440D01*
X21435765Y-22526157D01*
X21645809Y-22385809D01*
X21786157Y-22175765D01*
X21835440Y-21928000D01*
X21835440Y-19728000D01*
X21786157Y-19480235D01*
X21645809Y-19270191D01*
X21435765Y-19129843D01*
X21188000Y-19080560D01*
X20689000Y-19080560D01*
X20689000Y-17454349D01*
X20773375Y-17580625D01*
X21264582Y-17908839D01*
X21697744Y-17995000D01*
X21990256Y-17995000D01*
X22423418Y-17908839D01*
X22914625Y-17580625D01*
X23114000Y-17282239D01*
X23313375Y-17580625D01*
G36*
X59889375Y-17580625D02*
X60200001Y-17788178D01*
X60200000Y-18400104D01*
X60091261Y-18472761D01*
X59903495Y-18753773D01*
X59837560Y-19085250D01*
X59837560Y-19522750D01*
X59903495Y-19854227D01*
X60062036Y-20091500D01*
X59903495Y-20328773D01*
X59837560Y-20660250D01*
X59837560Y-21097750D01*
X59903495Y-21429227D01*
X60091261Y-21710239D01*
X60200000Y-21782896D01*
X60200001Y-23561197D01*
X58679199Y-25082000D01*
X57853163Y-25082000D01*
X57787809Y-24984191D01*
X57577765Y-24843843D01*
X57330000Y-24794560D01*
X56430000Y-24794560D01*
X56182235Y-24843843D01*
X56026056Y-24948199D01*
X56037235Y-24892000D01*
X55977440Y-24591389D01*
X55977440Y-24492000D01*
X55928157Y-24244235D01*
X55787809Y-24034191D01*
X55577765Y-23893843D01*
X55366081Y-23851737D01*
X55322855Y-23822854D01*
X54991783Y-23757000D01*
X53810132Y-23757000D01*
X53745000Y-23691869D01*
X53745000Y-22528696D01*
X53757765Y-22526157D01*
X53967809Y-22385809D01*
X54108157Y-22175765D01*
X54157440Y-21928000D01*
X54157440Y-21239245D01*
X54222885Y-21173800D01*
X54338529Y-21096529D01*
X54610000Y-20690243D01*
X54745077Y-20892400D01*
X54881472Y-21096529D01*
X54997113Y-21173798D01*
X55062560Y-21239245D01*
X55062560Y-21928000D01*
X55111843Y-22175765D01*
X55252191Y-22385809D01*
X55462235Y-22526157D01*
X55710000Y-22575440D01*
X57510000Y-22575440D01*
X57757765Y-22526157D01*
X57967809Y-22385809D01*
X58108157Y-22175765D01*
X58157440Y-21928000D01*
X58157440Y-19728000D01*
X58108157Y-19480235D01*
X57967809Y-19270191D01*
X57757765Y-19129843D01*
X57510000Y-19080560D01*
X57265000Y-19080560D01*
X57265000Y-17454349D01*
X57349375Y-17580625D01*
X57840582Y-17908839D01*
X58273744Y-17995000D01*
X58566256Y-17995000D01*
X58999418Y-17908839D01*
X59490625Y-17580625D01*
X59690000Y-17282239D01*
X59889375Y-17580625D01*
X59889375Y-17580625D01*
G37*
X59889375Y-17580625D02*
X60200001Y-17788178D01*
X60200000Y-18400104D01*
X60091261Y-18472761D01*
X59903495Y-18753773D01*
X59837560Y-19085250D01*
X59837560Y-19522750D01*
X59903495Y-19854227D01*
X60062036Y-20091500D01*
X59903495Y-20328773D01*
X59837560Y-20660250D01*
X59837560Y-21097750D01*
X59903495Y-21429227D01*
X60091261Y-21710239D01*
X60200000Y-21782896D01*
X60200001Y-23561197D01*
X58679199Y-25082000D01*
X57853163Y-25082000D01*
X57787809Y-24984191D01*
X57577765Y-24843843D01*
X57330000Y-24794560D01*
X56430000Y-24794560D01*
X56182235Y-24843843D01*
X56026056Y-24948199D01*
X56037235Y-24892000D01*
X55977440Y-24591389D01*
X55977440Y-24492000D01*
X55928157Y-24244235D01*
X55787809Y-24034191D01*
X55577765Y-23893843D01*
X55366081Y-23851737D01*
X55322855Y-23822854D01*
X54991783Y-23757000D01*
X53810132Y-23757000D01*
X53745000Y-23691869D01*
X53745000Y-22528696D01*
X53757765Y-22526157D01*
X53967809Y-22385809D01*
X54108157Y-22175765D01*
X54157440Y-21928000D01*
X54157440Y-21239245D01*
X54222885Y-21173800D01*
X54338529Y-21096529D01*
X54610000Y-20690243D01*
X54745077Y-20892400D01*
X54881472Y-21096529D01*
X54997113Y-21173798D01*
X55062560Y-21239245D01*
X55062560Y-21928000D01*
X55111843Y-22175765D01*
X55252191Y-22385809D01*
X55462235Y-22526157D01*
X55710000Y-22575440D01*
X57510000Y-22575440D01*
X57757765Y-22526157D01*
X57967809Y-22385809D01*
X58108157Y-22175765D01*
X58157440Y-21928000D01*
X58157440Y-19728000D01*
X58108157Y-19480235D01*
X57967809Y-19270191D01*
X57757765Y-19129843D01*
X57510000Y-19080560D01*
X57265000Y-19080560D01*
X57265000Y-17454349D01*
X57349375Y-17580625D01*
X57840582Y-17908839D01*
X58273744Y-17995000D01*
X58566256Y-17995000D01*
X58999418Y-17908839D01*
X59490625Y-17580625D01*
X59690000Y-17282239D01*
X59889375Y-17580625D01*
G04 #@! TD*
M02*
