G04 #@! TF.GenerationSoftware,KiCad,Pcbnew,(5.0.0-dirty)*
G04 #@! TF.CreationDate,2019-11-15T19:25:29+09:00*
G04 #@! TF.ProjectId,fake-fan-mk2,66616B652D66616E2D6D6B322E6B6963,rev?*
G04 #@! TF.SameCoordinates,Original*
G04 #@! TF.FileFunction,Soldermask,Bot*
G04 #@! TF.FilePolarity,Negative*
%FSLAX46Y46*%
G04 Gerber Fmt 4.6, Leading zero omitted, Abs format (unit mm)*
G04 Created by KiCad (PCBNEW (5.0.0-dirty)) date 11/15/19 19:25:29*
%MOMM*%
%LPD*%
G01*
G04 APERTURE LIST*
%ADD10C,0.200000*%
%ADD11R,2.100000X2.100000*%
%ADD12O,2.100000X2.100000*%
%ADD13C,0.300000*%
%ADD14C,0.100000*%
G04 APERTURE END LIST*
D10*
X14478000Y-53086000D02*
X14478000Y-14224000D01*
X63246000Y-53086000D02*
X14478000Y-53086000D01*
X63246000Y-14224000D02*
X63246000Y-53086000D01*
X14478000Y-14224000D02*
X63246000Y-14224000D01*
D11*
G04 #@! TO.C,J2*
X19050000Y-36322000D03*
D12*
X19050000Y-38862000D03*
G04 #@! TD*
G04 #@! TO.C,J4*
X24384000Y-50800000D03*
X21844000Y-50800000D03*
X19304000Y-50800000D03*
D11*
X16764000Y-50800000D03*
G04 #@! TD*
G04 #@! TO.C,J5*
X16764000Y-16510000D03*
D12*
X19304000Y-16510000D03*
X21844000Y-16510000D03*
X24384000Y-16510000D03*
G04 #@! TD*
G04 #@! TO.C,J6*
X36576000Y-50800000D03*
X34036000Y-50800000D03*
X31496000Y-50800000D03*
D11*
X28956000Y-50800000D03*
G04 #@! TD*
G04 #@! TO.C,J7*
X28956000Y-16510000D03*
D12*
X31496000Y-16510000D03*
X34036000Y-16510000D03*
X36576000Y-16510000D03*
G04 #@! TD*
D11*
G04 #@! TO.C,J8*
X41148000Y-50800000D03*
D12*
X43688000Y-50800000D03*
X46228000Y-50800000D03*
X48768000Y-50800000D03*
G04 #@! TD*
D11*
G04 #@! TO.C,J9*
X41148000Y-16510000D03*
D12*
X43688000Y-16510000D03*
X46228000Y-16510000D03*
X48768000Y-16510000D03*
G04 #@! TD*
G04 #@! TO.C,J10*
X60960000Y-50800000D03*
X58420000Y-50800000D03*
X55880000Y-50800000D03*
D11*
X53340000Y-50800000D03*
G04 #@! TD*
D12*
G04 #@! TO.C,J11*
X60960000Y-16510000D03*
X58420000Y-16510000D03*
X55880000Y-16510000D03*
D11*
X53340000Y-16510000D03*
G04 #@! TD*
D13*
G04 #@! TO.C,JP1*
X21373000Y-42672000D03*
D14*
G36*
X21912018Y-41725843D02*
X21949537Y-41737224D01*
X21984114Y-41755706D01*
X22014421Y-41780579D01*
X22039410Y-41811060D01*
X22539410Y-42561060D01*
X22557856Y-42595657D01*
X22569198Y-42633187D01*
X22573000Y-42672209D01*
X22569116Y-42711223D01*
X22557696Y-42748730D01*
X22539410Y-42782940D01*
X22039410Y-43532940D01*
X22014569Y-43563273D01*
X21984288Y-43588178D01*
X21949730Y-43606696D01*
X21912223Y-43618116D01*
X21873000Y-43622000D01*
X20873000Y-43622000D01*
X20833982Y-43618157D01*
X20796463Y-43606776D01*
X20761886Y-43588294D01*
X20731579Y-43563421D01*
X20706706Y-43533114D01*
X20688224Y-43498537D01*
X20676843Y-43461018D01*
X20673000Y-43422000D01*
X20673000Y-41922000D01*
X20676843Y-41882982D01*
X20688224Y-41845463D01*
X20706706Y-41810886D01*
X20731579Y-41780579D01*
X20761886Y-41755706D01*
X20796463Y-41737224D01*
X20833982Y-41725843D01*
X20873000Y-41722000D01*
X21873000Y-41722000D01*
X21912018Y-41725843D01*
X21912018Y-41725843D01*
G37*
D13*
X22823000Y-42672000D03*
D14*
G36*
X23362018Y-41725843D02*
X23399537Y-41737224D01*
X23434114Y-41755706D01*
X23464421Y-41780579D01*
X23489294Y-41810886D01*
X23507776Y-41845463D01*
X23519157Y-41882982D01*
X23523000Y-41922000D01*
X23523000Y-43422000D01*
X23519157Y-43461018D01*
X23507776Y-43498537D01*
X23489294Y-43533114D01*
X23464421Y-43563421D01*
X23434114Y-43588294D01*
X23399537Y-43606776D01*
X23362018Y-43618157D01*
X23323000Y-43622000D01*
X22173000Y-43622000D01*
X22133982Y-43618157D01*
X22096463Y-43606776D01*
X22061886Y-43588294D01*
X22031579Y-43563421D01*
X22006706Y-43533114D01*
X21988224Y-43498537D01*
X21976843Y-43461018D01*
X21973000Y-43422000D01*
X21976843Y-43382982D01*
X21988224Y-43345463D01*
X22006590Y-43311060D01*
X22432630Y-42672000D01*
X22006590Y-42032940D01*
X21988144Y-41998343D01*
X21976802Y-41960813D01*
X21973000Y-41921791D01*
X21976884Y-41882777D01*
X21988304Y-41845270D01*
X22006822Y-41810712D01*
X22031727Y-41780431D01*
X22062060Y-41755590D01*
X22096657Y-41737144D01*
X22134187Y-41725802D01*
X22173000Y-41722000D01*
X23323000Y-41722000D01*
X23362018Y-41725843D01*
X23362018Y-41725843D01*
G37*
G04 #@! TD*
D13*
G04 #@! TO.C,JP2*
X16764000Y-20754000D03*
D14*
G36*
X17710157Y-21293018D02*
X17698776Y-21330537D01*
X17680294Y-21365114D01*
X17655421Y-21395421D01*
X17625114Y-21420294D01*
X17590537Y-21438776D01*
X17553018Y-21450157D01*
X17514000Y-21454000D01*
X16014000Y-21454000D01*
X15974982Y-21450157D01*
X15937463Y-21438776D01*
X15902886Y-21420294D01*
X15872579Y-21395421D01*
X15847706Y-21365114D01*
X15829224Y-21330537D01*
X15817843Y-21293018D01*
X15814000Y-21254000D01*
X15814000Y-20104000D01*
X15817843Y-20064982D01*
X15829224Y-20027463D01*
X15847706Y-19992886D01*
X15872579Y-19962579D01*
X15902886Y-19937706D01*
X15937463Y-19919224D01*
X15974982Y-19907843D01*
X16014000Y-19904000D01*
X16053018Y-19907843D01*
X16090537Y-19919224D01*
X16124940Y-19937590D01*
X16764000Y-20363630D01*
X17403060Y-19937590D01*
X17437657Y-19919144D01*
X17475187Y-19907802D01*
X17514209Y-19904000D01*
X17553223Y-19907884D01*
X17590730Y-19919304D01*
X17625288Y-19937822D01*
X17655569Y-19962727D01*
X17680410Y-19993060D01*
X17698856Y-20027657D01*
X17710198Y-20065187D01*
X17714000Y-20104000D01*
X17714000Y-21254000D01*
X17710157Y-21293018D01*
X17710157Y-21293018D01*
G37*
D13*
X16764000Y-19304000D03*
D14*
G36*
X17710157Y-19843018D02*
X17698776Y-19880537D01*
X17680294Y-19915114D01*
X17655421Y-19945421D01*
X17624940Y-19970410D01*
X16874940Y-20470410D01*
X16840343Y-20488856D01*
X16802813Y-20500198D01*
X16763791Y-20504000D01*
X16724777Y-20500116D01*
X16687270Y-20488696D01*
X16653060Y-20470410D01*
X15903060Y-19970410D01*
X15872727Y-19945569D01*
X15847822Y-19915288D01*
X15829304Y-19880730D01*
X15817884Y-19843223D01*
X15814000Y-19804000D01*
X15814000Y-18804000D01*
X15817843Y-18764982D01*
X15829224Y-18727463D01*
X15847706Y-18692886D01*
X15872579Y-18662579D01*
X15902886Y-18637706D01*
X15937463Y-18619224D01*
X15974982Y-18607843D01*
X16014000Y-18604000D01*
X17514000Y-18604000D01*
X17553018Y-18607843D01*
X17590537Y-18619224D01*
X17625114Y-18637706D01*
X17655421Y-18662579D01*
X17680294Y-18692886D01*
X17698776Y-18727463D01*
X17710157Y-18764982D01*
X17714000Y-18804000D01*
X17714000Y-19804000D01*
X17710157Y-19843018D01*
X17710157Y-19843018D01*
G37*
G04 #@! TD*
D13*
G04 #@! TO.C,JP3*
X28956000Y-19304000D03*
D14*
G36*
X29902157Y-19843018D02*
X29890776Y-19880537D01*
X29872294Y-19915114D01*
X29847421Y-19945421D01*
X29816940Y-19970410D01*
X29066940Y-20470410D01*
X29032343Y-20488856D01*
X28994813Y-20500198D01*
X28955791Y-20504000D01*
X28916777Y-20500116D01*
X28879270Y-20488696D01*
X28845060Y-20470410D01*
X28095060Y-19970410D01*
X28064727Y-19945569D01*
X28039822Y-19915288D01*
X28021304Y-19880730D01*
X28009884Y-19843223D01*
X28006000Y-19804000D01*
X28006000Y-18804000D01*
X28009843Y-18764982D01*
X28021224Y-18727463D01*
X28039706Y-18692886D01*
X28064579Y-18662579D01*
X28094886Y-18637706D01*
X28129463Y-18619224D01*
X28166982Y-18607843D01*
X28206000Y-18604000D01*
X29706000Y-18604000D01*
X29745018Y-18607843D01*
X29782537Y-18619224D01*
X29817114Y-18637706D01*
X29847421Y-18662579D01*
X29872294Y-18692886D01*
X29890776Y-18727463D01*
X29902157Y-18764982D01*
X29906000Y-18804000D01*
X29906000Y-19804000D01*
X29902157Y-19843018D01*
X29902157Y-19843018D01*
G37*
D13*
X28956000Y-20754000D03*
D14*
G36*
X29902157Y-21293018D02*
X29890776Y-21330537D01*
X29872294Y-21365114D01*
X29847421Y-21395421D01*
X29817114Y-21420294D01*
X29782537Y-21438776D01*
X29745018Y-21450157D01*
X29706000Y-21454000D01*
X28206000Y-21454000D01*
X28166982Y-21450157D01*
X28129463Y-21438776D01*
X28094886Y-21420294D01*
X28064579Y-21395421D01*
X28039706Y-21365114D01*
X28021224Y-21330537D01*
X28009843Y-21293018D01*
X28006000Y-21254000D01*
X28006000Y-20104000D01*
X28009843Y-20064982D01*
X28021224Y-20027463D01*
X28039706Y-19992886D01*
X28064579Y-19962579D01*
X28094886Y-19937706D01*
X28129463Y-19919224D01*
X28166982Y-19907843D01*
X28206000Y-19904000D01*
X28245018Y-19907843D01*
X28282537Y-19919224D01*
X28316940Y-19937590D01*
X28956000Y-20363630D01*
X29595060Y-19937590D01*
X29629657Y-19919144D01*
X29667187Y-19907802D01*
X29706209Y-19904000D01*
X29745223Y-19907884D01*
X29782730Y-19919304D01*
X29817288Y-19937822D01*
X29847569Y-19962727D01*
X29872410Y-19993060D01*
X29890856Y-20027657D01*
X29902198Y-20065187D01*
X29906000Y-20104000D01*
X29906000Y-21254000D01*
X29902157Y-21293018D01*
X29902157Y-21293018D01*
G37*
G04 #@! TD*
D13*
G04 #@! TO.C,JP4*
X41148000Y-20791000D03*
D14*
G36*
X42094157Y-21330018D02*
X42082776Y-21367537D01*
X42064294Y-21402114D01*
X42039421Y-21432421D01*
X42009114Y-21457294D01*
X41974537Y-21475776D01*
X41937018Y-21487157D01*
X41898000Y-21491000D01*
X40398000Y-21491000D01*
X40358982Y-21487157D01*
X40321463Y-21475776D01*
X40286886Y-21457294D01*
X40256579Y-21432421D01*
X40231706Y-21402114D01*
X40213224Y-21367537D01*
X40201843Y-21330018D01*
X40198000Y-21291000D01*
X40198000Y-20141000D01*
X40201843Y-20101982D01*
X40213224Y-20064463D01*
X40231706Y-20029886D01*
X40256579Y-19999579D01*
X40286886Y-19974706D01*
X40321463Y-19956224D01*
X40358982Y-19944843D01*
X40398000Y-19941000D01*
X40437018Y-19944843D01*
X40474537Y-19956224D01*
X40508940Y-19974590D01*
X41148000Y-20400630D01*
X41787060Y-19974590D01*
X41821657Y-19956144D01*
X41859187Y-19944802D01*
X41898209Y-19941000D01*
X41937223Y-19944884D01*
X41974730Y-19956304D01*
X42009288Y-19974822D01*
X42039569Y-19999727D01*
X42064410Y-20030060D01*
X42082856Y-20064657D01*
X42094198Y-20102187D01*
X42098000Y-20141000D01*
X42098000Y-21291000D01*
X42094157Y-21330018D01*
X42094157Y-21330018D01*
G37*
D13*
X41148000Y-19341000D03*
D14*
G36*
X42094157Y-19880018D02*
X42082776Y-19917537D01*
X42064294Y-19952114D01*
X42039421Y-19982421D01*
X42008940Y-20007410D01*
X41258940Y-20507410D01*
X41224343Y-20525856D01*
X41186813Y-20537198D01*
X41147791Y-20541000D01*
X41108777Y-20537116D01*
X41071270Y-20525696D01*
X41037060Y-20507410D01*
X40287060Y-20007410D01*
X40256727Y-19982569D01*
X40231822Y-19952288D01*
X40213304Y-19917730D01*
X40201884Y-19880223D01*
X40198000Y-19841000D01*
X40198000Y-18841000D01*
X40201843Y-18801982D01*
X40213224Y-18764463D01*
X40231706Y-18729886D01*
X40256579Y-18699579D01*
X40286886Y-18674706D01*
X40321463Y-18656224D01*
X40358982Y-18644843D01*
X40398000Y-18641000D01*
X41898000Y-18641000D01*
X41937018Y-18644843D01*
X41974537Y-18656224D01*
X42009114Y-18674706D01*
X42039421Y-18699579D01*
X42064294Y-18729886D01*
X42082776Y-18764463D01*
X42094157Y-18801982D01*
X42098000Y-18841000D01*
X42098000Y-19841000D01*
X42094157Y-19880018D01*
X42094157Y-19880018D01*
G37*
G04 #@! TD*
D13*
G04 #@! TO.C,JP5*
X53340000Y-20828000D03*
D14*
G36*
X54286157Y-21367018D02*
X54274776Y-21404537D01*
X54256294Y-21439114D01*
X54231421Y-21469421D01*
X54201114Y-21494294D01*
X54166537Y-21512776D01*
X54129018Y-21524157D01*
X54090000Y-21528000D01*
X52590000Y-21528000D01*
X52550982Y-21524157D01*
X52513463Y-21512776D01*
X52478886Y-21494294D01*
X52448579Y-21469421D01*
X52423706Y-21439114D01*
X52405224Y-21404537D01*
X52393843Y-21367018D01*
X52390000Y-21328000D01*
X52390000Y-20178000D01*
X52393843Y-20138982D01*
X52405224Y-20101463D01*
X52423706Y-20066886D01*
X52448579Y-20036579D01*
X52478886Y-20011706D01*
X52513463Y-19993224D01*
X52550982Y-19981843D01*
X52590000Y-19978000D01*
X52629018Y-19981843D01*
X52666537Y-19993224D01*
X52700940Y-20011590D01*
X53340000Y-20437630D01*
X53979060Y-20011590D01*
X54013657Y-19993144D01*
X54051187Y-19981802D01*
X54090209Y-19978000D01*
X54129223Y-19981884D01*
X54166730Y-19993304D01*
X54201288Y-20011822D01*
X54231569Y-20036727D01*
X54256410Y-20067060D01*
X54274856Y-20101657D01*
X54286198Y-20139187D01*
X54290000Y-20178000D01*
X54290000Y-21328000D01*
X54286157Y-21367018D01*
X54286157Y-21367018D01*
G37*
D13*
X53340000Y-19378000D03*
D14*
G36*
X54286157Y-19917018D02*
X54274776Y-19954537D01*
X54256294Y-19989114D01*
X54231421Y-20019421D01*
X54200940Y-20044410D01*
X53450940Y-20544410D01*
X53416343Y-20562856D01*
X53378813Y-20574198D01*
X53339791Y-20578000D01*
X53300777Y-20574116D01*
X53263270Y-20562696D01*
X53229060Y-20544410D01*
X52479060Y-20044410D01*
X52448727Y-20019569D01*
X52423822Y-19989288D01*
X52405304Y-19954730D01*
X52393884Y-19917223D01*
X52390000Y-19878000D01*
X52390000Y-18878000D01*
X52393843Y-18838982D01*
X52405224Y-18801463D01*
X52423706Y-18766886D01*
X52448579Y-18736579D01*
X52478886Y-18711706D01*
X52513463Y-18693224D01*
X52550982Y-18681843D01*
X52590000Y-18678000D01*
X54090000Y-18678000D01*
X54129018Y-18681843D01*
X54166537Y-18693224D01*
X54201114Y-18711706D01*
X54231421Y-18736579D01*
X54256294Y-18766886D01*
X54274776Y-18801463D01*
X54286157Y-18838982D01*
X54290000Y-18878000D01*
X54290000Y-19878000D01*
X54286157Y-19917018D01*
X54286157Y-19917018D01*
G37*
G04 #@! TD*
D11*
G04 #@! TO.C,J1*
X30734000Y-31496000D03*
D12*
X30734000Y-28956000D03*
X33274000Y-31496000D03*
X33274000Y-28956000D03*
G04 #@! TD*
M02*
