G04 #@! TF.GenerationSoftware,KiCad,Pcbnew,(5.0.0-dirty)*
G04 #@! TF.CreationDate,2019-11-15T19:25:29+09:00*
G04 #@! TF.ProjectId,fake-fan-mk2,66616B652D66616E2D6D6B322E6B6963,rev?*
G04 #@! TF.SameCoordinates,Original*
G04 #@! TF.FileFunction,Legend,Top*
G04 #@! TF.FilePolarity,Positive*
%FSLAX46Y46*%
G04 Gerber Fmt 4.6, Leading zero omitted, Abs format (unit mm)*
G04 Created by KiCad (PCBNEW (5.0.0-dirty)) date 11/15/19 19:25:29*
%MOMM*%
%LPD*%
G01*
G04 APERTURE LIST*
%ADD10C,0.300000*%
%ADD11C,0.200000*%
%ADD12C,0.120000*%
%ADD13C,0.150000*%
G04 APERTURE END LIST*
D10*
X15916285Y-45753714D02*
X15916285Y-46153714D01*
X16544857Y-46153714D02*
X15344857Y-46153714D01*
X15344857Y-45582285D01*
X16544857Y-44610857D02*
X15916285Y-44610857D01*
X15802000Y-44668000D01*
X15744857Y-44782285D01*
X15744857Y-45010857D01*
X15802000Y-45125142D01*
X16487714Y-44610857D02*
X16544857Y-44725142D01*
X16544857Y-45010857D01*
X16487714Y-45125142D01*
X16373428Y-45182285D01*
X16259142Y-45182285D01*
X16144857Y-45125142D01*
X16087714Y-45010857D01*
X16087714Y-44725142D01*
X16030571Y-44610857D01*
X16544857Y-44039428D02*
X15344857Y-44039428D01*
X16087714Y-43925142D02*
X16544857Y-43582285D01*
X15744857Y-43582285D02*
X16202000Y-44039428D01*
X16487714Y-42610857D02*
X16544857Y-42725142D01*
X16544857Y-42953714D01*
X16487714Y-43068000D01*
X16373428Y-43125142D01*
X15916285Y-43125142D01*
X15802000Y-43068000D01*
X15744857Y-42953714D01*
X15744857Y-42725142D01*
X15802000Y-42610857D01*
X15916285Y-42553714D01*
X16030571Y-42553714D01*
X16144857Y-43125142D01*
X15916285Y-41639428D02*
X15916285Y-42039428D01*
X16544857Y-42039428D02*
X15344857Y-42039428D01*
X15344857Y-41468000D01*
X16544857Y-40496571D02*
X15916285Y-40496571D01*
X15802000Y-40553714D01*
X15744857Y-40668000D01*
X15744857Y-40896571D01*
X15802000Y-41010857D01*
X16487714Y-40496571D02*
X16544857Y-40610857D01*
X16544857Y-40896571D01*
X16487714Y-41010857D01*
X16373428Y-41068000D01*
X16259142Y-41068000D01*
X16144857Y-41010857D01*
X16087714Y-40896571D01*
X16087714Y-40610857D01*
X16030571Y-40496571D01*
X15744857Y-39925142D02*
X16544857Y-39925142D01*
X15859142Y-39925142D02*
X15802000Y-39868000D01*
X15744857Y-39753714D01*
X15744857Y-39582285D01*
X15802000Y-39468000D01*
X15916285Y-39410857D01*
X16544857Y-39410857D01*
X15459142Y-38896571D02*
X15402000Y-38839428D01*
X15344857Y-38725142D01*
X15344857Y-38439428D01*
X15402000Y-38325142D01*
X15459142Y-38268000D01*
X15573428Y-38210857D01*
X15687714Y-38210857D01*
X15859142Y-38268000D01*
X16544857Y-38953714D01*
X16544857Y-38210857D01*
X15973428Y-36039428D02*
X15916285Y-36096571D01*
X15859142Y-36210857D01*
X15859142Y-36325142D01*
X15916285Y-36439428D01*
X15973428Y-36496571D01*
X16087714Y-36553714D01*
X16202000Y-36553714D01*
X16316285Y-36496571D01*
X16373428Y-36439428D01*
X16430571Y-36325142D01*
X16430571Y-36210857D01*
X16373428Y-36096571D01*
X16316285Y-36039428D01*
X15859142Y-36039428D02*
X16316285Y-36039428D01*
X16373428Y-35982285D01*
X16373428Y-35925142D01*
X16316285Y-35810857D01*
X16202000Y-35753714D01*
X15916285Y-35753714D01*
X15744857Y-35868000D01*
X15630571Y-36039428D01*
X15573428Y-36268000D01*
X15630571Y-36496571D01*
X15744857Y-36668000D01*
X15916285Y-36782285D01*
X16144857Y-36839428D01*
X16373428Y-36782285D01*
X16544857Y-36668000D01*
X16659142Y-36496571D01*
X16716285Y-36268000D01*
X16659142Y-36039428D01*
X16544857Y-35868000D01*
X16544857Y-35239428D02*
X15344857Y-35239428D01*
X15916285Y-35239428D02*
X15916285Y-34553714D01*
X16544857Y-34553714D02*
X15344857Y-34553714D01*
X15744857Y-34096571D02*
X16544857Y-33810857D01*
X15744857Y-33525142D02*
X16544857Y-33810857D01*
X16830571Y-33925142D01*
X16887714Y-33982285D01*
X16944857Y-34096571D01*
X15744857Y-33068000D02*
X16944857Y-33068000D01*
X15802000Y-33068000D02*
X15744857Y-32953714D01*
X15744857Y-32725142D01*
X15802000Y-32610857D01*
X15859142Y-32553714D01*
X15973428Y-32496571D01*
X16316285Y-32496571D01*
X16430571Y-32553714D01*
X16487714Y-32610857D01*
X16544857Y-32725142D01*
X16544857Y-32953714D01*
X16487714Y-33068000D01*
X16487714Y-31525142D02*
X16544857Y-31639428D01*
X16544857Y-31868000D01*
X16487714Y-31982285D01*
X16373428Y-32039428D01*
X15916285Y-32039428D01*
X15802000Y-31982285D01*
X15744857Y-31868000D01*
X15744857Y-31639428D01*
X15802000Y-31525142D01*
X15916285Y-31468000D01*
X16030571Y-31468000D01*
X16144857Y-32039428D01*
X16544857Y-30953714D02*
X15744857Y-30953714D01*
X15973428Y-30953714D02*
X15859142Y-30896571D01*
X15802000Y-30839428D01*
X15744857Y-30725142D01*
X15744857Y-30610857D01*
X16659142Y-30496571D02*
X16659142Y-29582285D01*
X16544857Y-29296571D02*
X15344857Y-29296571D01*
X15802000Y-29296571D02*
X15744857Y-29182285D01*
X15744857Y-28953714D01*
X15802000Y-28839428D01*
X15859142Y-28782285D01*
X15973428Y-28725142D01*
X16316285Y-28725142D01*
X16430571Y-28782285D01*
X16487714Y-28839428D01*
X16544857Y-28953714D01*
X16544857Y-29182285D01*
X16487714Y-29296571D01*
X16487714Y-27753714D02*
X16544857Y-27868000D01*
X16544857Y-28096571D01*
X16487714Y-28210857D01*
X16373428Y-28268000D01*
X15916285Y-28268000D01*
X15802000Y-28210857D01*
X15744857Y-28096571D01*
X15744857Y-27868000D01*
X15802000Y-27753714D01*
X15916285Y-27696571D01*
X16030571Y-27696571D01*
X16144857Y-28268000D01*
X15744857Y-27353714D02*
X15744857Y-26896571D01*
X15344857Y-27182285D02*
X16373428Y-27182285D01*
X16487714Y-27125142D01*
X16544857Y-27010857D01*
X16544857Y-26896571D01*
X16544857Y-25982285D02*
X15916285Y-25982285D01*
X15802000Y-26039428D01*
X15744857Y-26153714D01*
X15744857Y-26382285D01*
X15802000Y-26496571D01*
X16487714Y-25982285D02*
X16544857Y-26096571D01*
X16544857Y-26382285D01*
X16487714Y-26496571D01*
X16373428Y-26553714D01*
X16259142Y-26553714D01*
X16144857Y-26496571D01*
X16087714Y-26382285D01*
X16087714Y-26096571D01*
X16030571Y-25982285D01*
D11*
X14478000Y-53086000D02*
X14478000Y-14224000D01*
X63246000Y-53086000D02*
X14478000Y-53086000D01*
X63246000Y-14224000D02*
X63246000Y-53086000D01*
X14478000Y-14224000D02*
X63246000Y-14224000D01*
D12*
G04 #@! TO.C,C3*
X42416000Y-44033221D02*
X42416000Y-44358779D01*
X43436000Y-44033221D02*
X43436000Y-44358779D01*
G04 #@! TO.C,Y1*
X36162000Y-45488000D02*
X41912000Y-45488000D01*
X41912000Y-45488000D02*
X41912000Y-41888000D01*
X41912000Y-41888000D02*
X36162000Y-41888000D01*
G04 #@! TO.C,C1*
X22350000Y-37937221D02*
X22350000Y-38262779D01*
X23370000Y-37937221D02*
X23370000Y-38262779D01*
G04 #@! TO.C,C2*
X35308000Y-44033221D02*
X35308000Y-44358779D01*
X34288000Y-44033221D02*
X34288000Y-44358779D01*
G04 #@! TO.C,C4*
X25491221Y-40388000D02*
X25816779Y-40388000D01*
X25491221Y-39368000D02*
X25816779Y-39368000D01*
G04 #@! TO.C,C5*
X29047221Y-45718000D02*
X29372779Y-45718000D01*
X29047221Y-46738000D02*
X29372779Y-46738000D01*
G04 #@! TO.C,C6*
X36387721Y-40896000D02*
X36713279Y-40896000D01*
X36387721Y-39876000D02*
X36713279Y-39876000D01*
G04 #@! TO.C,C7*
X45210000Y-42834779D02*
X45210000Y-42509221D01*
X46230000Y-42834779D02*
X46230000Y-42509221D01*
G04 #@! TO.C,C8*
X45972000Y-30160279D02*
X45972000Y-29834721D01*
X46992000Y-30160279D02*
X46992000Y-29834721D01*
D13*
G04 #@! TO.C,D1*
X25960000Y-41180000D02*
X25960000Y-45180000D01*
D12*
G04 #@! TO.C,D2*
X24142500Y-26697000D02*
X21857500Y-26697000D01*
X21857500Y-26697000D02*
X21857500Y-28167000D01*
X21857500Y-28167000D02*
X24142500Y-28167000D01*
G04 #@! TO.C,D3*
X21857500Y-29945000D02*
X24142500Y-29945000D01*
X21857500Y-28475000D02*
X21857500Y-29945000D01*
X24142500Y-28475000D02*
X21857500Y-28475000D01*
D13*
G04 #@! TO.C,D4*
X21538000Y-22828000D02*
X21538000Y-18828000D01*
G04 #@! TO.C,D5*
X33476000Y-22828000D02*
X33476000Y-18828000D01*
G04 #@! TO.C,D6*
X45668000Y-22828000D02*
X45668000Y-18828000D01*
G04 #@! TO.C,D7*
X57860000Y-22828000D02*
X57860000Y-18828000D01*
D12*
G04 #@! TO.C,J2*
X17720000Y-40192000D02*
X20380000Y-40192000D01*
X17720000Y-37592000D02*
X17720000Y-40192000D01*
X20380000Y-37592000D02*
X20380000Y-40192000D01*
X17720000Y-37592000D02*
X20380000Y-37592000D01*
X17720000Y-36322000D02*
X17720000Y-34992000D01*
X17720000Y-34992000D02*
X19050000Y-34992000D01*
G04 #@! TO.C,J4*
X15434000Y-52130000D02*
X15434000Y-50800000D01*
X16764000Y-52130000D02*
X15434000Y-52130000D01*
X18034000Y-52130000D02*
X18034000Y-49470000D01*
X18034000Y-49470000D02*
X25714000Y-49470000D01*
X18034000Y-52130000D02*
X25714000Y-52130000D01*
X25714000Y-52130000D02*
X25714000Y-49470000D01*
G04 #@! TO.C,J5*
X25714000Y-17840000D02*
X25714000Y-15180000D01*
X18034000Y-17840000D02*
X25714000Y-17840000D01*
X18034000Y-15180000D02*
X25714000Y-15180000D01*
X18034000Y-17840000D02*
X18034000Y-15180000D01*
X16764000Y-17840000D02*
X15434000Y-17840000D01*
X15434000Y-17840000D02*
X15434000Y-16510000D01*
G04 #@! TO.C,J6*
X27626000Y-52130000D02*
X27626000Y-50800000D01*
X28956000Y-52130000D02*
X27626000Y-52130000D01*
X30226000Y-52130000D02*
X30226000Y-49470000D01*
X30226000Y-49470000D02*
X37906000Y-49470000D01*
X30226000Y-52130000D02*
X37906000Y-52130000D01*
X37906000Y-52130000D02*
X37906000Y-49470000D01*
G04 #@! TO.C,J7*
X37906000Y-17840000D02*
X37906000Y-15180000D01*
X30226000Y-17840000D02*
X37906000Y-17840000D01*
X30226000Y-15180000D02*
X37906000Y-15180000D01*
X30226000Y-17840000D02*
X30226000Y-15180000D01*
X28956000Y-17840000D02*
X27626000Y-17840000D01*
X27626000Y-17840000D02*
X27626000Y-16510000D01*
G04 #@! TO.C,J8*
X50098000Y-52130000D02*
X50098000Y-49470000D01*
X42418000Y-52130000D02*
X50098000Y-52130000D01*
X42418000Y-49470000D02*
X50098000Y-49470000D01*
X42418000Y-52130000D02*
X42418000Y-49470000D01*
X41148000Y-52130000D02*
X39818000Y-52130000D01*
X39818000Y-52130000D02*
X39818000Y-50800000D01*
G04 #@! TO.C,J9*
X50098000Y-17840000D02*
X50098000Y-15180000D01*
X42418000Y-17840000D02*
X50098000Y-17840000D01*
X42418000Y-15180000D02*
X50098000Y-15180000D01*
X42418000Y-17840000D02*
X42418000Y-15180000D01*
X41148000Y-17840000D02*
X39818000Y-17840000D01*
X39818000Y-17840000D02*
X39818000Y-16510000D01*
G04 #@! TO.C,J10*
X52010000Y-52130000D02*
X52010000Y-50800000D01*
X53340000Y-52130000D02*
X52010000Y-52130000D01*
X54610000Y-52130000D02*
X54610000Y-49470000D01*
X54610000Y-49470000D02*
X62290000Y-49470000D01*
X54610000Y-52130000D02*
X62290000Y-52130000D01*
X62290000Y-52130000D02*
X62290000Y-49470000D01*
G04 #@! TO.C,J11*
X52010000Y-17840000D02*
X52010000Y-16510000D01*
X53340000Y-17840000D02*
X52010000Y-17840000D01*
X54610000Y-17840000D02*
X54610000Y-15180000D01*
X54610000Y-15180000D02*
X62290000Y-15180000D01*
X54610000Y-17840000D02*
X62290000Y-17840000D01*
X62290000Y-17840000D02*
X62290000Y-15180000D01*
D13*
G04 #@! TO.C,L1*
X25468000Y-45080000D02*
X21268000Y-45080000D01*
X21268000Y-41280000D02*
X25468000Y-41280000D01*
D12*
G04 #@! TO.C,Q1*
X18798000Y-23312000D02*
X20258000Y-23312000D01*
X18798000Y-26472000D02*
X20958000Y-26472000D01*
X18798000Y-26472000D02*
X18798000Y-25542000D01*
X18798000Y-23312000D02*
X18798000Y-24242000D01*
G04 #@! TO.C,Q2*
X30736000Y-23312000D02*
X30736000Y-24242000D01*
X30736000Y-26472000D02*
X30736000Y-25542000D01*
X30736000Y-26472000D02*
X32896000Y-26472000D01*
X30736000Y-23312000D02*
X32196000Y-23312000D01*
G04 #@! TO.C,Q3*
X42928000Y-23312000D02*
X44388000Y-23312000D01*
X42928000Y-26472000D02*
X45088000Y-26472000D01*
X42928000Y-26472000D02*
X42928000Y-25542000D01*
X42928000Y-23312000D02*
X42928000Y-24242000D01*
G04 #@! TO.C,Q4*
X55120000Y-23312000D02*
X55120000Y-24242000D01*
X55120000Y-26472000D02*
X55120000Y-25542000D01*
X55120000Y-26472000D02*
X57280000Y-26472000D01*
X55120000Y-23312000D02*
X56580000Y-23312000D01*
G04 #@! TO.C,R1*
X23370000Y-35214779D02*
X23370000Y-34889221D01*
X22350000Y-35214779D02*
X22350000Y-34889221D01*
G04 #@! TO.C,R4*
X34800000Y-38953221D02*
X34800000Y-39278779D01*
X33780000Y-38953221D02*
X33780000Y-39278779D01*
G04 #@! TO.C,R5*
X30224000Y-38262779D02*
X30224000Y-37937221D01*
X31244000Y-38262779D02*
X31244000Y-37937221D01*
G04 #@! TO.C,R6*
X28700000Y-37937221D02*
X28700000Y-38262779D01*
X29720000Y-37937221D02*
X29720000Y-38262779D01*
G04 #@! TO.C,R7*
X26227721Y-26922000D02*
X26553279Y-26922000D01*
X26227721Y-27942000D02*
X26553279Y-27942000D01*
G04 #@! TO.C,R8*
X26227721Y-29720000D02*
X26553279Y-29720000D01*
X26227721Y-28700000D02*
X26553279Y-28700000D01*
G04 #@! TO.C,R9*
X24894000Y-19903221D02*
X24894000Y-20228779D01*
X23874000Y-19903221D02*
X23874000Y-20228779D01*
G04 #@! TO.C,R10*
X36066000Y-19903221D02*
X36066000Y-20228779D01*
X37086000Y-19903221D02*
X37086000Y-20228779D01*
G04 #@! TO.C,R11*
X49278000Y-19903221D02*
X49278000Y-20228779D01*
X48258000Y-19903221D02*
X48258000Y-20228779D01*
G04 #@! TO.C,R12*
X60450000Y-19928721D02*
X60450000Y-20254279D01*
X61470000Y-19928721D02*
X61470000Y-20254279D01*
D13*
G04 #@! TO.C,RV1*
X60928000Y-43720000D02*
X60928000Y-44220000D01*
X56928000Y-43720000D02*
X60928000Y-43720000D01*
X56928000Y-45020000D02*
X56928000Y-43720000D01*
X60928000Y-47720000D02*
X60928000Y-47220000D01*
X56928000Y-47720000D02*
X60928000Y-47720000D01*
X56928000Y-46420000D02*
X56928000Y-47720000D01*
G04 #@! TO.C,RV2*
X56928000Y-41340000D02*
X56928000Y-42640000D01*
X56928000Y-42640000D02*
X60928000Y-42640000D01*
X60928000Y-42640000D02*
X60928000Y-42140000D01*
X56928000Y-39940000D02*
X56928000Y-38640000D01*
X56928000Y-38640000D02*
X60928000Y-38640000D01*
X60928000Y-38640000D02*
X60928000Y-39140000D01*
G04 #@! TO.C,RV3*
X56928000Y-36260000D02*
X56928000Y-37560000D01*
X56928000Y-37560000D02*
X60928000Y-37560000D01*
X60928000Y-37560000D02*
X60928000Y-37060000D01*
X56928000Y-34860000D02*
X56928000Y-33560000D01*
X56928000Y-33560000D02*
X60928000Y-33560000D01*
X60928000Y-33560000D02*
X60928000Y-34060000D01*
G04 #@! TO.C,RV4*
X60928000Y-28480000D02*
X60928000Y-28980000D01*
X56928000Y-28480000D02*
X60928000Y-28480000D01*
X56928000Y-29780000D02*
X56928000Y-28480000D01*
X60928000Y-32480000D02*
X60928000Y-31980000D01*
X56928000Y-32480000D02*
X60928000Y-32480000D01*
X56928000Y-31180000D02*
X56928000Y-32480000D01*
G04 #@! TO.C,RV5*
X54832000Y-43720000D02*
X54832000Y-44220000D01*
X50832000Y-43720000D02*
X54832000Y-43720000D01*
X50832000Y-45020000D02*
X50832000Y-43720000D01*
X54832000Y-47720000D02*
X54832000Y-47220000D01*
X50832000Y-47720000D02*
X54832000Y-47720000D01*
X50832000Y-46420000D02*
X50832000Y-47720000D01*
G04 #@! TO.C,RV6*
X50832000Y-41340000D02*
X50832000Y-42640000D01*
X50832000Y-42640000D02*
X54832000Y-42640000D01*
X54832000Y-42640000D02*
X54832000Y-42140000D01*
X50832000Y-39940000D02*
X50832000Y-38640000D01*
X50832000Y-38640000D02*
X54832000Y-38640000D01*
X54832000Y-38640000D02*
X54832000Y-39140000D01*
G04 #@! TO.C,RV7*
X54832000Y-33560000D02*
X54832000Y-34060000D01*
X50832000Y-33560000D02*
X54832000Y-33560000D01*
X50832000Y-34860000D02*
X50832000Y-33560000D01*
X54832000Y-37560000D02*
X54832000Y-37060000D01*
X50832000Y-37560000D02*
X54832000Y-37560000D01*
X50832000Y-36260000D02*
X50832000Y-37560000D01*
G04 #@! TO.C,RV8*
X50832000Y-31180000D02*
X50832000Y-32480000D01*
X50832000Y-32480000D02*
X54832000Y-32480000D01*
X54832000Y-32480000D02*
X54832000Y-31980000D01*
X50832000Y-29780000D02*
X50832000Y-28480000D01*
X50832000Y-28480000D02*
X54832000Y-28480000D01*
X54832000Y-28480000D02*
X54832000Y-28980000D01*
D12*
G04 #@! TO.C,U1*
X26554000Y-35474000D02*
X24754000Y-35474000D01*
X24754000Y-38694000D02*
X27204000Y-38694000D01*
D13*
G04 #@! TO.C,U2*
X36761000Y-37915000D02*
X36986000Y-37915000D01*
X36761000Y-30665000D02*
X37061000Y-30665000D01*
X44011000Y-30665000D02*
X43711000Y-30665000D01*
X44011000Y-37915000D02*
X43711000Y-37915000D01*
X36761000Y-37915000D02*
X36761000Y-37615000D01*
X44011000Y-37915000D02*
X44011000Y-37615000D01*
X44011000Y-30665000D02*
X44011000Y-30965000D01*
X36761000Y-30665000D02*
X36761000Y-30965000D01*
X36986000Y-37915000D02*
X36986000Y-39140000D01*
D12*
G04 #@! TO.C,J1*
X34604000Y-32826000D02*
X34604000Y-27626000D01*
X32004000Y-32826000D02*
X34604000Y-32826000D01*
X29404000Y-27626000D02*
X34604000Y-27626000D01*
X32004000Y-32826000D02*
X32004000Y-30226000D01*
X32004000Y-30226000D02*
X29404000Y-30226000D01*
X29404000Y-30226000D02*
X29404000Y-27626000D01*
X30734000Y-32826000D02*
X29404000Y-32826000D01*
X29404000Y-32826000D02*
X29404000Y-31496000D01*
G04 #@! TD*
G04 #@! TO.C,C3*
D13*
X43537142Y-47156666D02*
X43584761Y-47204285D01*
X43632380Y-47347142D01*
X43632380Y-47442380D01*
X43584761Y-47585238D01*
X43489523Y-47680476D01*
X43394285Y-47728095D01*
X43203809Y-47775714D01*
X43060952Y-47775714D01*
X42870476Y-47728095D01*
X42775238Y-47680476D01*
X42680000Y-47585238D01*
X42632380Y-47442380D01*
X42632380Y-47347142D01*
X42680000Y-47204285D01*
X42727619Y-47156666D01*
X42632380Y-46823333D02*
X42632380Y-46204285D01*
X43013333Y-46537619D01*
X43013333Y-46394761D01*
X43060952Y-46299523D01*
X43108571Y-46251904D01*
X43203809Y-46204285D01*
X43441904Y-46204285D01*
X43537142Y-46251904D01*
X43584761Y-46299523D01*
X43632380Y-46394761D01*
X43632380Y-46680476D01*
X43584761Y-46775714D01*
X43537142Y-46823333D01*
G04 #@! TO.C,Y1*
X38385809Y-46464190D02*
X38385809Y-46940380D01*
X38052476Y-45940380D02*
X38385809Y-46464190D01*
X38719142Y-45940380D01*
X39576285Y-46940380D02*
X39004857Y-46940380D01*
X39290571Y-46940380D02*
X39290571Y-45940380D01*
X39195333Y-46083238D01*
X39100095Y-46178476D01*
X39004857Y-46226095D01*
G04 #@! TO.C,C1*
X21947142Y-38266666D02*
X21994761Y-38314285D01*
X22042380Y-38457142D01*
X22042380Y-38552380D01*
X21994761Y-38695238D01*
X21899523Y-38790476D01*
X21804285Y-38838095D01*
X21613809Y-38885714D01*
X21470952Y-38885714D01*
X21280476Y-38838095D01*
X21185238Y-38790476D01*
X21090000Y-38695238D01*
X21042380Y-38552380D01*
X21042380Y-38457142D01*
X21090000Y-38314285D01*
X21137619Y-38266666D01*
X22042380Y-37314285D02*
X22042380Y-37885714D01*
X22042380Y-37600000D02*
X21042380Y-37600000D01*
X21185238Y-37695238D01*
X21280476Y-37790476D01*
X21328095Y-37885714D01*
G04 #@! TO.C,C2*
X35282142Y-47156666D02*
X35329761Y-47204285D01*
X35377380Y-47347142D01*
X35377380Y-47442380D01*
X35329761Y-47585238D01*
X35234523Y-47680476D01*
X35139285Y-47728095D01*
X34948809Y-47775714D01*
X34805952Y-47775714D01*
X34615476Y-47728095D01*
X34520238Y-47680476D01*
X34425000Y-47585238D01*
X34377380Y-47442380D01*
X34377380Y-47347142D01*
X34425000Y-47204285D01*
X34472619Y-47156666D01*
X34472619Y-46775714D02*
X34425000Y-46728095D01*
X34377380Y-46632857D01*
X34377380Y-46394761D01*
X34425000Y-46299523D01*
X34472619Y-46251904D01*
X34567857Y-46204285D01*
X34663095Y-46204285D01*
X34805952Y-46251904D01*
X35377380Y-46823333D01*
X35377380Y-46204285D01*
G04 #@! TO.C,C4*
X22693333Y-40997142D02*
X22645714Y-41044761D01*
X22502857Y-41092380D01*
X22407619Y-41092380D01*
X22264761Y-41044761D01*
X22169523Y-40949523D01*
X22121904Y-40854285D01*
X22074285Y-40663809D01*
X22074285Y-40520952D01*
X22121904Y-40330476D01*
X22169523Y-40235238D01*
X22264761Y-40140000D01*
X22407619Y-40092380D01*
X22502857Y-40092380D01*
X22645714Y-40140000D01*
X22693333Y-40187619D01*
X23550476Y-40425714D02*
X23550476Y-41092380D01*
X23312380Y-40044761D02*
X23074285Y-40759047D01*
X23693333Y-40759047D01*
G04 #@! TO.C,C5*
X29043333Y-47982142D02*
X28995714Y-48029761D01*
X28852857Y-48077380D01*
X28757619Y-48077380D01*
X28614761Y-48029761D01*
X28519523Y-47934523D01*
X28471904Y-47839285D01*
X28424285Y-47648809D01*
X28424285Y-47505952D01*
X28471904Y-47315476D01*
X28519523Y-47220238D01*
X28614761Y-47125000D01*
X28757619Y-47077380D01*
X28852857Y-47077380D01*
X28995714Y-47125000D01*
X29043333Y-47172619D01*
X29948095Y-47077380D02*
X29471904Y-47077380D01*
X29424285Y-47553571D01*
X29471904Y-47505952D01*
X29567142Y-47458333D01*
X29805238Y-47458333D01*
X29900476Y-47505952D01*
X29948095Y-47553571D01*
X29995714Y-47648809D01*
X29995714Y-47886904D01*
X29948095Y-47982142D01*
X29900476Y-48029761D01*
X29805238Y-48077380D01*
X29567142Y-48077380D01*
X29471904Y-48029761D01*
X29424285Y-47982142D01*
G04 #@! TO.C,C6*
X39203333Y-40997142D02*
X39155714Y-41044761D01*
X39012857Y-41092380D01*
X38917619Y-41092380D01*
X38774761Y-41044761D01*
X38679523Y-40949523D01*
X38631904Y-40854285D01*
X38584285Y-40663809D01*
X38584285Y-40520952D01*
X38631904Y-40330476D01*
X38679523Y-40235238D01*
X38774761Y-40140000D01*
X38917619Y-40092380D01*
X39012857Y-40092380D01*
X39155714Y-40140000D01*
X39203333Y-40187619D01*
X40060476Y-40092380D02*
X39870000Y-40092380D01*
X39774761Y-40140000D01*
X39727142Y-40187619D01*
X39631904Y-40330476D01*
X39584285Y-40520952D01*
X39584285Y-40901904D01*
X39631904Y-40997142D01*
X39679523Y-41044761D01*
X39774761Y-41092380D01*
X39965238Y-41092380D01*
X40060476Y-41044761D01*
X40108095Y-40997142D01*
X40155714Y-40901904D01*
X40155714Y-40663809D01*
X40108095Y-40568571D01*
X40060476Y-40520952D01*
X39965238Y-40473333D01*
X39774761Y-40473333D01*
X39679523Y-40520952D01*
X39631904Y-40568571D01*
X39584285Y-40663809D01*
G04 #@! TO.C,C7*
X46077142Y-45251666D02*
X46124761Y-45299285D01*
X46172380Y-45442142D01*
X46172380Y-45537380D01*
X46124761Y-45680238D01*
X46029523Y-45775476D01*
X45934285Y-45823095D01*
X45743809Y-45870714D01*
X45600952Y-45870714D01*
X45410476Y-45823095D01*
X45315238Y-45775476D01*
X45220000Y-45680238D01*
X45172380Y-45537380D01*
X45172380Y-45442142D01*
X45220000Y-45299285D01*
X45267619Y-45251666D01*
X45172380Y-44918333D02*
X45172380Y-44251666D01*
X46172380Y-44680238D01*
G04 #@! TO.C,C8*
X47347142Y-27471666D02*
X47394761Y-27519285D01*
X47442380Y-27662142D01*
X47442380Y-27757380D01*
X47394761Y-27900238D01*
X47299523Y-27995476D01*
X47204285Y-28043095D01*
X47013809Y-28090714D01*
X46870952Y-28090714D01*
X46680476Y-28043095D01*
X46585238Y-27995476D01*
X46490000Y-27900238D01*
X46442380Y-27757380D01*
X46442380Y-27662142D01*
X46490000Y-27519285D01*
X46537619Y-27471666D01*
X46870952Y-26900238D02*
X46823333Y-26995476D01*
X46775714Y-27043095D01*
X46680476Y-27090714D01*
X46632857Y-27090714D01*
X46537619Y-27043095D01*
X46490000Y-26995476D01*
X46442380Y-26900238D01*
X46442380Y-26709761D01*
X46490000Y-26614523D01*
X46537619Y-26566904D01*
X46632857Y-26519285D01*
X46680476Y-26519285D01*
X46775714Y-26566904D01*
X46823333Y-26614523D01*
X46870952Y-26709761D01*
X46870952Y-26900238D01*
X46918571Y-26995476D01*
X46966190Y-27043095D01*
X47061428Y-27090714D01*
X47251904Y-27090714D01*
X47347142Y-27043095D01*
X47394761Y-26995476D01*
X47442380Y-26900238D01*
X47442380Y-26709761D01*
X47394761Y-26614523D01*
X47347142Y-26566904D01*
X47251904Y-26519285D01*
X47061428Y-26519285D01*
X46966190Y-26566904D01*
X46918571Y-26614523D01*
X46870952Y-26709761D01*
G04 #@! TO.C,D1*
X31011904Y-40632380D02*
X31011904Y-39632380D01*
X31250000Y-39632380D01*
X31392857Y-39680000D01*
X31488095Y-39775238D01*
X31535714Y-39870476D01*
X31583333Y-40060952D01*
X31583333Y-40203809D01*
X31535714Y-40394285D01*
X31488095Y-40489523D01*
X31392857Y-40584761D01*
X31250000Y-40632380D01*
X31011904Y-40632380D01*
X32535714Y-40632380D02*
X31964285Y-40632380D01*
X32250000Y-40632380D02*
X32250000Y-39632380D01*
X32154761Y-39775238D01*
X32059523Y-39870476D01*
X31964285Y-39918095D01*
G04 #@! TO.C,D2*
X22604404Y-26454380D02*
X22604404Y-25454380D01*
X22842500Y-25454380D01*
X22985357Y-25502000D01*
X23080595Y-25597238D01*
X23128214Y-25692476D01*
X23175833Y-25882952D01*
X23175833Y-26025809D01*
X23128214Y-26216285D01*
X23080595Y-26311523D01*
X22985357Y-26406761D01*
X22842500Y-26454380D01*
X22604404Y-26454380D01*
X23556785Y-25549619D02*
X23604404Y-25502000D01*
X23699642Y-25454380D01*
X23937738Y-25454380D01*
X24032976Y-25502000D01*
X24080595Y-25549619D01*
X24128214Y-25644857D01*
X24128214Y-25740095D01*
X24080595Y-25882952D01*
X23509166Y-26454380D01*
X24128214Y-26454380D01*
G04 #@! TO.C,D3*
X22604404Y-31567380D02*
X22604404Y-30567380D01*
X22842500Y-30567380D01*
X22985357Y-30615000D01*
X23080595Y-30710238D01*
X23128214Y-30805476D01*
X23175833Y-30995952D01*
X23175833Y-31138809D01*
X23128214Y-31329285D01*
X23080595Y-31424523D01*
X22985357Y-31519761D01*
X22842500Y-31567380D01*
X22604404Y-31567380D01*
X23509166Y-30567380D02*
X24128214Y-30567380D01*
X23794880Y-30948333D01*
X23937738Y-30948333D01*
X24032976Y-30995952D01*
X24080595Y-31043571D01*
X24128214Y-31138809D01*
X24128214Y-31376904D01*
X24080595Y-31472142D01*
X24032976Y-31519761D01*
X23937738Y-31567380D01*
X23652023Y-31567380D01*
X23556785Y-31519761D01*
X23509166Y-31472142D01*
G04 #@! TO.C,D4*
X15136904Y-24280380D02*
X15136904Y-23280380D01*
X15375000Y-23280380D01*
X15517857Y-23328000D01*
X15613095Y-23423238D01*
X15660714Y-23518476D01*
X15708333Y-23708952D01*
X15708333Y-23851809D01*
X15660714Y-24042285D01*
X15613095Y-24137523D01*
X15517857Y-24232761D01*
X15375000Y-24280380D01*
X15136904Y-24280380D01*
X16565476Y-23613714D02*
X16565476Y-24280380D01*
X16327380Y-23232761D02*
X16089285Y-23947047D01*
X16708333Y-23947047D01*
G04 #@! TO.C,D5*
X27201904Y-24280380D02*
X27201904Y-23280380D01*
X27440000Y-23280380D01*
X27582857Y-23328000D01*
X27678095Y-23423238D01*
X27725714Y-23518476D01*
X27773333Y-23708952D01*
X27773333Y-23851809D01*
X27725714Y-24042285D01*
X27678095Y-24137523D01*
X27582857Y-24232761D01*
X27440000Y-24280380D01*
X27201904Y-24280380D01*
X28678095Y-23280380D02*
X28201904Y-23280380D01*
X28154285Y-23756571D01*
X28201904Y-23708952D01*
X28297142Y-23661333D01*
X28535238Y-23661333D01*
X28630476Y-23708952D01*
X28678095Y-23756571D01*
X28725714Y-23851809D01*
X28725714Y-24089904D01*
X28678095Y-24185142D01*
X28630476Y-24232761D01*
X28535238Y-24280380D01*
X28297142Y-24280380D01*
X28201904Y-24232761D01*
X28154285Y-24185142D01*
G04 #@! TO.C,D6*
X39266904Y-24280380D02*
X39266904Y-23280380D01*
X39505000Y-23280380D01*
X39647857Y-23328000D01*
X39743095Y-23423238D01*
X39790714Y-23518476D01*
X39838333Y-23708952D01*
X39838333Y-23851809D01*
X39790714Y-24042285D01*
X39743095Y-24137523D01*
X39647857Y-24232761D01*
X39505000Y-24280380D01*
X39266904Y-24280380D01*
X40695476Y-23280380D02*
X40505000Y-23280380D01*
X40409761Y-23328000D01*
X40362142Y-23375619D01*
X40266904Y-23518476D01*
X40219285Y-23708952D01*
X40219285Y-24089904D01*
X40266904Y-24185142D01*
X40314523Y-24232761D01*
X40409761Y-24280380D01*
X40600238Y-24280380D01*
X40695476Y-24232761D01*
X40743095Y-24185142D01*
X40790714Y-24089904D01*
X40790714Y-23851809D01*
X40743095Y-23756571D01*
X40695476Y-23708952D01*
X40600238Y-23661333D01*
X40409761Y-23661333D01*
X40314523Y-23708952D01*
X40266904Y-23756571D01*
X40219285Y-23851809D01*
G04 #@! TO.C,D7*
X51966904Y-24280380D02*
X51966904Y-23280380D01*
X52205000Y-23280380D01*
X52347857Y-23328000D01*
X52443095Y-23423238D01*
X52490714Y-23518476D01*
X52538333Y-23708952D01*
X52538333Y-23851809D01*
X52490714Y-24042285D01*
X52443095Y-24137523D01*
X52347857Y-24232761D01*
X52205000Y-24280380D01*
X51966904Y-24280380D01*
X52871666Y-23280380D02*
X53538333Y-23280380D01*
X53109761Y-24280380D01*
G04 #@! TO.C,J2*
X18716666Y-33444380D02*
X18716666Y-34158666D01*
X18669047Y-34301523D01*
X18573809Y-34396761D01*
X18430952Y-34444380D01*
X18335714Y-34444380D01*
X19145238Y-33539619D02*
X19192857Y-33492000D01*
X19288095Y-33444380D01*
X19526190Y-33444380D01*
X19621428Y-33492000D01*
X19669047Y-33539619D01*
X19716666Y-33634857D01*
X19716666Y-33730095D01*
X19669047Y-33872952D01*
X19097619Y-34444380D01*
X19716666Y-34444380D01*
G04 #@! TO.C,J4*
X18716666Y-47712380D02*
X18716666Y-48426666D01*
X18669047Y-48569523D01*
X18573809Y-48664761D01*
X18430952Y-48712380D01*
X18335714Y-48712380D01*
X19621428Y-48045714D02*
X19621428Y-48712380D01*
X19383333Y-47664761D02*
X19145238Y-48379047D01*
X19764285Y-48379047D01*
G04 #@! TO.C,J5*
X22526666Y-18502380D02*
X22526666Y-19216666D01*
X22479047Y-19359523D01*
X22383809Y-19454761D01*
X22240952Y-19502380D01*
X22145714Y-19502380D01*
X23479047Y-18502380D02*
X23002857Y-18502380D01*
X22955238Y-18978571D01*
X23002857Y-18930952D01*
X23098095Y-18883333D01*
X23336190Y-18883333D01*
X23431428Y-18930952D01*
X23479047Y-18978571D01*
X23526666Y-19073809D01*
X23526666Y-19311904D01*
X23479047Y-19407142D01*
X23431428Y-19454761D01*
X23336190Y-19502380D01*
X23098095Y-19502380D01*
X23002857Y-19454761D01*
X22955238Y-19407142D01*
G04 #@! TO.C,J6*
X31416666Y-47712380D02*
X31416666Y-48426666D01*
X31369047Y-48569523D01*
X31273809Y-48664761D01*
X31130952Y-48712380D01*
X31035714Y-48712380D01*
X32321428Y-47712380D02*
X32130952Y-47712380D01*
X32035714Y-47760000D01*
X31988095Y-47807619D01*
X31892857Y-47950476D01*
X31845238Y-48140952D01*
X31845238Y-48521904D01*
X31892857Y-48617142D01*
X31940476Y-48664761D01*
X32035714Y-48712380D01*
X32226190Y-48712380D01*
X32321428Y-48664761D01*
X32369047Y-48617142D01*
X32416666Y-48521904D01*
X32416666Y-48283809D01*
X32369047Y-48188571D01*
X32321428Y-48140952D01*
X32226190Y-48093333D01*
X32035714Y-48093333D01*
X31940476Y-48140952D01*
X31892857Y-48188571D01*
X31845238Y-48283809D01*
G04 #@! TO.C,J7*
X34591666Y-18502380D02*
X34591666Y-19216666D01*
X34544047Y-19359523D01*
X34448809Y-19454761D01*
X34305952Y-19502380D01*
X34210714Y-19502380D01*
X34972619Y-18502380D02*
X35639285Y-18502380D01*
X35210714Y-19502380D01*
G04 #@! TO.C,J8*
X40306666Y-47712380D02*
X40306666Y-48426666D01*
X40259047Y-48569523D01*
X40163809Y-48664761D01*
X40020952Y-48712380D01*
X39925714Y-48712380D01*
X40925714Y-48140952D02*
X40830476Y-48093333D01*
X40782857Y-48045714D01*
X40735238Y-47950476D01*
X40735238Y-47902857D01*
X40782857Y-47807619D01*
X40830476Y-47760000D01*
X40925714Y-47712380D01*
X41116190Y-47712380D01*
X41211428Y-47760000D01*
X41259047Y-47807619D01*
X41306666Y-47902857D01*
X41306666Y-47950476D01*
X41259047Y-48045714D01*
X41211428Y-48093333D01*
X41116190Y-48140952D01*
X40925714Y-48140952D01*
X40830476Y-48188571D01*
X40782857Y-48236190D01*
X40735238Y-48331428D01*
X40735238Y-48521904D01*
X40782857Y-48617142D01*
X40830476Y-48664761D01*
X40925714Y-48712380D01*
X41116190Y-48712380D01*
X41211428Y-48664761D01*
X41259047Y-48617142D01*
X41306666Y-48521904D01*
X41306666Y-48331428D01*
X41259047Y-48236190D01*
X41211428Y-48188571D01*
X41116190Y-48140952D01*
G04 #@! TO.C,J9*
X46656666Y-18502380D02*
X46656666Y-19216666D01*
X46609047Y-19359523D01*
X46513809Y-19454761D01*
X46370952Y-19502380D01*
X46275714Y-19502380D01*
X47180476Y-19502380D02*
X47370952Y-19502380D01*
X47466190Y-19454761D01*
X47513809Y-19407142D01*
X47609047Y-19264285D01*
X47656666Y-19073809D01*
X47656666Y-18692857D01*
X47609047Y-18597619D01*
X47561428Y-18550000D01*
X47466190Y-18502380D01*
X47275714Y-18502380D01*
X47180476Y-18550000D01*
X47132857Y-18597619D01*
X47085238Y-18692857D01*
X47085238Y-18930952D01*
X47132857Y-19026190D01*
X47180476Y-19073809D01*
X47275714Y-19121428D01*
X47466190Y-19121428D01*
X47561428Y-19073809D01*
X47609047Y-19026190D01*
X47656666Y-18930952D01*
G04 #@! TO.C,J10*
X55070476Y-47712380D02*
X55070476Y-48426666D01*
X55022857Y-48569523D01*
X54927619Y-48664761D01*
X54784761Y-48712380D01*
X54689523Y-48712380D01*
X56070476Y-48712380D02*
X55499047Y-48712380D01*
X55784761Y-48712380D02*
X55784761Y-47712380D01*
X55689523Y-47855238D01*
X55594285Y-47950476D01*
X55499047Y-47998095D01*
X56689523Y-47712380D02*
X56784761Y-47712380D01*
X56880000Y-47760000D01*
X56927619Y-47807619D01*
X56975238Y-47902857D01*
X57022857Y-48093333D01*
X57022857Y-48331428D01*
X56975238Y-48521904D01*
X56927619Y-48617142D01*
X56880000Y-48664761D01*
X56784761Y-48712380D01*
X56689523Y-48712380D01*
X56594285Y-48664761D01*
X56546666Y-48617142D01*
X56499047Y-48521904D01*
X56451428Y-48331428D01*
X56451428Y-48093333D01*
X56499047Y-47902857D01*
X56546666Y-47807619D01*
X56594285Y-47760000D01*
X56689523Y-47712380D01*
G04 #@! TO.C,J11*
X58245476Y-18502380D02*
X58245476Y-19216666D01*
X58197857Y-19359523D01*
X58102619Y-19454761D01*
X57959761Y-19502380D01*
X57864523Y-19502380D01*
X59245476Y-19502380D02*
X58674047Y-19502380D01*
X58959761Y-19502380D02*
X58959761Y-18502380D01*
X58864523Y-18645238D01*
X58769285Y-18740476D01*
X58674047Y-18788095D01*
X60197857Y-19502380D02*
X59626428Y-19502380D01*
X59912142Y-19502380D02*
X59912142Y-18502380D01*
X59816904Y-18645238D01*
X59721666Y-18740476D01*
X59626428Y-18788095D01*
G04 #@! TO.C,L1*
X23328333Y-46807380D02*
X22852142Y-46807380D01*
X22852142Y-45807380D01*
X24185476Y-46807380D02*
X23614047Y-46807380D01*
X23899761Y-46807380D02*
X23899761Y-45807380D01*
X23804523Y-45950238D01*
X23709285Y-46045476D01*
X23614047Y-46093095D01*
G04 #@! TO.C,Q1*
X19462761Y-27939619D02*
X19367523Y-27892000D01*
X19272285Y-27796761D01*
X19129428Y-27653904D01*
X19034190Y-27606285D01*
X18938952Y-27606285D01*
X18986571Y-27844380D02*
X18891333Y-27796761D01*
X18796095Y-27701523D01*
X18748476Y-27511047D01*
X18748476Y-27177714D01*
X18796095Y-26987238D01*
X18891333Y-26892000D01*
X18986571Y-26844380D01*
X19177047Y-26844380D01*
X19272285Y-26892000D01*
X19367523Y-26987238D01*
X19415142Y-27177714D01*
X19415142Y-27511047D01*
X19367523Y-27701523D01*
X19272285Y-27796761D01*
X19177047Y-27844380D01*
X18986571Y-27844380D01*
X20367523Y-27844380D02*
X19796095Y-27844380D01*
X20081809Y-27844380D02*
X20081809Y-26844380D01*
X19986571Y-26987238D01*
X19891333Y-27082476D01*
X19796095Y-27130095D01*
G04 #@! TO.C,Q2*
X34837619Y-24860238D02*
X34790000Y-24955476D01*
X34694761Y-25050714D01*
X34551904Y-25193571D01*
X34504285Y-25288809D01*
X34504285Y-25384047D01*
X34742380Y-25336428D02*
X34694761Y-25431666D01*
X34599523Y-25526904D01*
X34409047Y-25574523D01*
X34075714Y-25574523D01*
X33885238Y-25526904D01*
X33790000Y-25431666D01*
X33742380Y-25336428D01*
X33742380Y-25145952D01*
X33790000Y-25050714D01*
X33885238Y-24955476D01*
X34075714Y-24907857D01*
X34409047Y-24907857D01*
X34599523Y-24955476D01*
X34694761Y-25050714D01*
X34742380Y-25145952D01*
X34742380Y-25336428D01*
X33837619Y-24526904D02*
X33790000Y-24479285D01*
X33742380Y-24384047D01*
X33742380Y-24145952D01*
X33790000Y-24050714D01*
X33837619Y-24003095D01*
X33932857Y-23955476D01*
X34028095Y-23955476D01*
X34170952Y-24003095D01*
X34742380Y-24574523D01*
X34742380Y-23955476D01*
G04 #@! TO.C,Q3*
X46902619Y-24860238D02*
X46855000Y-24955476D01*
X46759761Y-25050714D01*
X46616904Y-25193571D01*
X46569285Y-25288809D01*
X46569285Y-25384047D01*
X46807380Y-25336428D02*
X46759761Y-25431666D01*
X46664523Y-25526904D01*
X46474047Y-25574523D01*
X46140714Y-25574523D01*
X45950238Y-25526904D01*
X45855000Y-25431666D01*
X45807380Y-25336428D01*
X45807380Y-25145952D01*
X45855000Y-25050714D01*
X45950238Y-24955476D01*
X46140714Y-24907857D01*
X46474047Y-24907857D01*
X46664523Y-24955476D01*
X46759761Y-25050714D01*
X46807380Y-25145952D01*
X46807380Y-25336428D01*
X45807380Y-24574523D02*
X45807380Y-23955476D01*
X46188333Y-24288809D01*
X46188333Y-24145952D01*
X46235952Y-24050714D01*
X46283571Y-24003095D01*
X46378809Y-23955476D01*
X46616904Y-23955476D01*
X46712142Y-24003095D01*
X46759761Y-24050714D01*
X46807380Y-24145952D01*
X46807380Y-24431666D01*
X46759761Y-24526904D01*
X46712142Y-24574523D01*
G04 #@! TO.C,Q4*
X58967619Y-24860238D02*
X58920000Y-24955476D01*
X58824761Y-25050714D01*
X58681904Y-25193571D01*
X58634285Y-25288809D01*
X58634285Y-25384047D01*
X58872380Y-25336428D02*
X58824761Y-25431666D01*
X58729523Y-25526904D01*
X58539047Y-25574523D01*
X58205714Y-25574523D01*
X58015238Y-25526904D01*
X57920000Y-25431666D01*
X57872380Y-25336428D01*
X57872380Y-25145952D01*
X57920000Y-25050714D01*
X58015238Y-24955476D01*
X58205714Y-24907857D01*
X58539047Y-24907857D01*
X58729523Y-24955476D01*
X58824761Y-25050714D01*
X58872380Y-25145952D01*
X58872380Y-25336428D01*
X58205714Y-24050714D02*
X58872380Y-24050714D01*
X57824761Y-24288809D02*
X58539047Y-24526904D01*
X58539047Y-23907857D01*
G04 #@! TO.C,R1*
X21882380Y-35091666D02*
X21406190Y-35425000D01*
X21882380Y-35663095D02*
X20882380Y-35663095D01*
X20882380Y-35282142D01*
X20930000Y-35186904D01*
X20977619Y-35139285D01*
X21072857Y-35091666D01*
X21215714Y-35091666D01*
X21310952Y-35139285D01*
X21358571Y-35186904D01*
X21406190Y-35282142D01*
X21406190Y-35663095D01*
X21882380Y-34139285D02*
X21882380Y-34710714D01*
X21882380Y-34425000D02*
X20882380Y-34425000D01*
X21025238Y-34520238D01*
X21120476Y-34615476D01*
X21168095Y-34710714D01*
G04 #@! TO.C,R4*
X34742380Y-36361666D02*
X34266190Y-36695000D01*
X34742380Y-36933095D02*
X33742380Y-36933095D01*
X33742380Y-36552142D01*
X33790000Y-36456904D01*
X33837619Y-36409285D01*
X33932857Y-36361666D01*
X34075714Y-36361666D01*
X34170952Y-36409285D01*
X34218571Y-36456904D01*
X34266190Y-36552142D01*
X34266190Y-36933095D01*
X34075714Y-35504523D02*
X34742380Y-35504523D01*
X33694761Y-35742619D02*
X34409047Y-35980714D01*
X34409047Y-35361666D01*
G04 #@! TO.C,R5*
X31567380Y-35726666D02*
X31091190Y-36060000D01*
X31567380Y-36298095D02*
X30567380Y-36298095D01*
X30567380Y-35917142D01*
X30615000Y-35821904D01*
X30662619Y-35774285D01*
X30757857Y-35726666D01*
X30900714Y-35726666D01*
X30995952Y-35774285D01*
X31043571Y-35821904D01*
X31091190Y-35917142D01*
X31091190Y-36298095D01*
X30567380Y-34821904D02*
X30567380Y-35298095D01*
X31043571Y-35345714D01*
X30995952Y-35298095D01*
X30948333Y-35202857D01*
X30948333Y-34964761D01*
X30995952Y-34869523D01*
X31043571Y-34821904D01*
X31138809Y-34774285D01*
X31376904Y-34774285D01*
X31472142Y-34821904D01*
X31519761Y-34869523D01*
X31567380Y-34964761D01*
X31567380Y-35202857D01*
X31519761Y-35298095D01*
X31472142Y-35345714D01*
G04 #@! TO.C,R6*
X29662380Y-35726666D02*
X29186190Y-36060000D01*
X29662380Y-36298095D02*
X28662380Y-36298095D01*
X28662380Y-35917142D01*
X28710000Y-35821904D01*
X28757619Y-35774285D01*
X28852857Y-35726666D01*
X28995714Y-35726666D01*
X29090952Y-35774285D01*
X29138571Y-35821904D01*
X29186190Y-35917142D01*
X29186190Y-36298095D01*
X28662380Y-34869523D02*
X28662380Y-35060000D01*
X28710000Y-35155238D01*
X28757619Y-35202857D01*
X28900476Y-35298095D01*
X29090952Y-35345714D01*
X29471904Y-35345714D01*
X29567142Y-35298095D01*
X29614761Y-35250476D01*
X29662380Y-35155238D01*
X29662380Y-34964761D01*
X29614761Y-34869523D01*
X29567142Y-34821904D01*
X29471904Y-34774285D01*
X29233809Y-34774285D01*
X29138571Y-34821904D01*
X29090952Y-34869523D01*
X29043333Y-34964761D01*
X29043333Y-35155238D01*
X29090952Y-35250476D01*
X29138571Y-35298095D01*
X29233809Y-35345714D01*
G04 #@! TO.C,R7*
X26223833Y-26454380D02*
X25890500Y-25978190D01*
X25652404Y-26454380D02*
X25652404Y-25454380D01*
X26033357Y-25454380D01*
X26128595Y-25502000D01*
X26176214Y-25549619D01*
X26223833Y-25644857D01*
X26223833Y-25787714D01*
X26176214Y-25882952D01*
X26128595Y-25930571D01*
X26033357Y-25978190D01*
X25652404Y-25978190D01*
X26557166Y-25454380D02*
X27223833Y-25454380D01*
X26795261Y-26454380D01*
G04 #@! TO.C,R8*
X26223833Y-31567380D02*
X25890500Y-31091190D01*
X25652404Y-31567380D02*
X25652404Y-30567380D01*
X26033357Y-30567380D01*
X26128595Y-30615000D01*
X26176214Y-30662619D01*
X26223833Y-30757857D01*
X26223833Y-30900714D01*
X26176214Y-30995952D01*
X26128595Y-31043571D01*
X26033357Y-31091190D01*
X25652404Y-31091190D01*
X26795261Y-30995952D02*
X26700023Y-30948333D01*
X26652404Y-30900714D01*
X26604785Y-30805476D01*
X26604785Y-30757857D01*
X26652404Y-30662619D01*
X26700023Y-30615000D01*
X26795261Y-30567380D01*
X26985738Y-30567380D01*
X27080976Y-30615000D01*
X27128595Y-30662619D01*
X27176214Y-30757857D01*
X27176214Y-30805476D01*
X27128595Y-30900714D01*
X27080976Y-30948333D01*
X26985738Y-30995952D01*
X26795261Y-30995952D01*
X26700023Y-31043571D01*
X26652404Y-31091190D01*
X26604785Y-31186428D01*
X26604785Y-31376904D01*
X26652404Y-31472142D01*
X26700023Y-31519761D01*
X26795261Y-31567380D01*
X26985738Y-31567380D01*
X27080976Y-31519761D01*
X27128595Y-31472142D01*
X27176214Y-31376904D01*
X27176214Y-31186428D01*
X27128595Y-31091190D01*
X27080976Y-31043571D01*
X26985738Y-30995952D01*
G04 #@! TO.C,R9*
X26266380Y-20232666D02*
X25790190Y-20566000D01*
X26266380Y-20804095D02*
X25266380Y-20804095D01*
X25266380Y-20423142D01*
X25314000Y-20327904D01*
X25361619Y-20280285D01*
X25456857Y-20232666D01*
X25599714Y-20232666D01*
X25694952Y-20280285D01*
X25742571Y-20327904D01*
X25790190Y-20423142D01*
X25790190Y-20804095D01*
X26266380Y-19756476D02*
X26266380Y-19566000D01*
X26218761Y-19470761D01*
X26171142Y-19423142D01*
X26028285Y-19327904D01*
X25837809Y-19280285D01*
X25456857Y-19280285D01*
X25361619Y-19327904D01*
X25314000Y-19375523D01*
X25266380Y-19470761D01*
X25266380Y-19661238D01*
X25314000Y-19756476D01*
X25361619Y-19804095D01*
X25456857Y-19851714D01*
X25694952Y-19851714D01*
X25790190Y-19804095D01*
X25837809Y-19756476D01*
X25885428Y-19661238D01*
X25885428Y-19470761D01*
X25837809Y-19375523D01*
X25790190Y-19327904D01*
X25694952Y-19280285D01*
G04 #@! TO.C,R10*
X38458380Y-20708857D02*
X37982190Y-21042190D01*
X38458380Y-21280285D02*
X37458380Y-21280285D01*
X37458380Y-20899333D01*
X37506000Y-20804095D01*
X37553619Y-20756476D01*
X37648857Y-20708857D01*
X37791714Y-20708857D01*
X37886952Y-20756476D01*
X37934571Y-20804095D01*
X37982190Y-20899333D01*
X37982190Y-21280285D01*
X38458380Y-19756476D02*
X38458380Y-20327904D01*
X38458380Y-20042190D02*
X37458380Y-20042190D01*
X37601238Y-20137428D01*
X37696476Y-20232666D01*
X37744095Y-20327904D01*
X37458380Y-19137428D02*
X37458380Y-19042190D01*
X37506000Y-18946952D01*
X37553619Y-18899333D01*
X37648857Y-18851714D01*
X37839333Y-18804095D01*
X38077428Y-18804095D01*
X38267904Y-18851714D01*
X38363142Y-18899333D01*
X38410761Y-18946952D01*
X38458380Y-19042190D01*
X38458380Y-19137428D01*
X38410761Y-19232666D01*
X38363142Y-19280285D01*
X38267904Y-19327904D01*
X38077428Y-19375523D01*
X37839333Y-19375523D01*
X37648857Y-19327904D01*
X37553619Y-19280285D01*
X37506000Y-19232666D01*
X37458380Y-19137428D01*
G04 #@! TO.C,R11*
X50650380Y-20708857D02*
X50174190Y-21042190D01*
X50650380Y-21280285D02*
X49650380Y-21280285D01*
X49650380Y-20899333D01*
X49698000Y-20804095D01*
X49745619Y-20756476D01*
X49840857Y-20708857D01*
X49983714Y-20708857D01*
X50078952Y-20756476D01*
X50126571Y-20804095D01*
X50174190Y-20899333D01*
X50174190Y-21280285D01*
X50650380Y-19756476D02*
X50650380Y-20327904D01*
X50650380Y-20042190D02*
X49650380Y-20042190D01*
X49793238Y-20137428D01*
X49888476Y-20232666D01*
X49936095Y-20327904D01*
X50650380Y-18804095D02*
X50650380Y-19375523D01*
X50650380Y-19089809D02*
X49650380Y-19089809D01*
X49793238Y-19185047D01*
X49888476Y-19280285D01*
X49936095Y-19375523D01*
G04 #@! TO.C,R12*
X62842380Y-20734357D02*
X62366190Y-21067690D01*
X62842380Y-21305785D02*
X61842380Y-21305785D01*
X61842380Y-20924833D01*
X61890000Y-20829595D01*
X61937619Y-20781976D01*
X62032857Y-20734357D01*
X62175714Y-20734357D01*
X62270952Y-20781976D01*
X62318571Y-20829595D01*
X62366190Y-20924833D01*
X62366190Y-21305785D01*
X62842380Y-19781976D02*
X62842380Y-20353404D01*
X62842380Y-20067690D02*
X61842380Y-20067690D01*
X61985238Y-20162928D01*
X62080476Y-20258166D01*
X62128095Y-20353404D01*
X61937619Y-19401023D02*
X61890000Y-19353404D01*
X61842380Y-19258166D01*
X61842380Y-19020071D01*
X61890000Y-18924833D01*
X61937619Y-18877214D01*
X62032857Y-18829595D01*
X62128095Y-18829595D01*
X62270952Y-18877214D01*
X62842380Y-19448642D01*
X62842380Y-18829595D01*
G04 #@! TO.C,RV1*
X62682380Y-46315238D02*
X62206190Y-46648571D01*
X62682380Y-46886666D02*
X61682380Y-46886666D01*
X61682380Y-46505714D01*
X61730000Y-46410476D01*
X61777619Y-46362857D01*
X61872857Y-46315238D01*
X62015714Y-46315238D01*
X62110952Y-46362857D01*
X62158571Y-46410476D01*
X62206190Y-46505714D01*
X62206190Y-46886666D01*
X61682380Y-46029523D02*
X62682380Y-45696190D01*
X61682380Y-45362857D01*
X62682380Y-44505714D02*
X62682380Y-45077142D01*
X62682380Y-44791428D02*
X61682380Y-44791428D01*
X61825238Y-44886666D01*
X61920476Y-44981904D01*
X61968095Y-45077142D01*
G04 #@! TO.C,RV2*
X62682380Y-41235238D02*
X62206190Y-41568571D01*
X62682380Y-41806666D02*
X61682380Y-41806666D01*
X61682380Y-41425714D01*
X61730000Y-41330476D01*
X61777619Y-41282857D01*
X61872857Y-41235238D01*
X62015714Y-41235238D01*
X62110952Y-41282857D01*
X62158571Y-41330476D01*
X62206190Y-41425714D01*
X62206190Y-41806666D01*
X61682380Y-40949523D02*
X62682380Y-40616190D01*
X61682380Y-40282857D01*
X61777619Y-39997142D02*
X61730000Y-39949523D01*
X61682380Y-39854285D01*
X61682380Y-39616190D01*
X61730000Y-39520952D01*
X61777619Y-39473333D01*
X61872857Y-39425714D01*
X61968095Y-39425714D01*
X62110952Y-39473333D01*
X62682380Y-40044761D01*
X62682380Y-39425714D01*
G04 #@! TO.C,RV3*
X62682380Y-36663238D02*
X62206190Y-36996571D01*
X62682380Y-37234666D02*
X61682380Y-37234666D01*
X61682380Y-36853714D01*
X61730000Y-36758476D01*
X61777619Y-36710857D01*
X61872857Y-36663238D01*
X62015714Y-36663238D01*
X62110952Y-36710857D01*
X62158571Y-36758476D01*
X62206190Y-36853714D01*
X62206190Y-37234666D01*
X61682380Y-36377523D02*
X62682380Y-36044190D01*
X61682380Y-35710857D01*
X61682380Y-35472761D02*
X61682380Y-34853714D01*
X62063333Y-35187047D01*
X62063333Y-35044190D01*
X62110952Y-34948952D01*
X62158571Y-34901333D01*
X62253809Y-34853714D01*
X62491904Y-34853714D01*
X62587142Y-34901333D01*
X62634761Y-34948952D01*
X62682380Y-35044190D01*
X62682380Y-35329904D01*
X62634761Y-35425142D01*
X62587142Y-35472761D01*
G04 #@! TO.C,RV4*
X62682380Y-31075238D02*
X62206190Y-31408571D01*
X62682380Y-31646666D02*
X61682380Y-31646666D01*
X61682380Y-31265714D01*
X61730000Y-31170476D01*
X61777619Y-31122857D01*
X61872857Y-31075238D01*
X62015714Y-31075238D01*
X62110952Y-31122857D01*
X62158571Y-31170476D01*
X62206190Y-31265714D01*
X62206190Y-31646666D01*
X61682380Y-30789523D02*
X62682380Y-30456190D01*
X61682380Y-30122857D01*
X62015714Y-29360952D02*
X62682380Y-29360952D01*
X61634761Y-29599047D02*
X62349047Y-29837142D01*
X62349047Y-29218095D01*
G04 #@! TO.C,RV5*
X49982380Y-46315238D02*
X49506190Y-46648571D01*
X49982380Y-46886666D02*
X48982380Y-46886666D01*
X48982380Y-46505714D01*
X49030000Y-46410476D01*
X49077619Y-46362857D01*
X49172857Y-46315238D01*
X49315714Y-46315238D01*
X49410952Y-46362857D01*
X49458571Y-46410476D01*
X49506190Y-46505714D01*
X49506190Y-46886666D01*
X48982380Y-46029523D02*
X49982380Y-45696190D01*
X48982380Y-45362857D01*
X48982380Y-44553333D02*
X48982380Y-45029523D01*
X49458571Y-45077142D01*
X49410952Y-45029523D01*
X49363333Y-44934285D01*
X49363333Y-44696190D01*
X49410952Y-44600952D01*
X49458571Y-44553333D01*
X49553809Y-44505714D01*
X49791904Y-44505714D01*
X49887142Y-44553333D01*
X49934761Y-44600952D01*
X49982380Y-44696190D01*
X49982380Y-44934285D01*
X49934761Y-45029523D01*
X49887142Y-45077142D01*
G04 #@! TO.C,RV6*
X49982380Y-41235238D02*
X49506190Y-41568571D01*
X49982380Y-41806666D02*
X48982380Y-41806666D01*
X48982380Y-41425714D01*
X49030000Y-41330476D01*
X49077619Y-41282857D01*
X49172857Y-41235238D01*
X49315714Y-41235238D01*
X49410952Y-41282857D01*
X49458571Y-41330476D01*
X49506190Y-41425714D01*
X49506190Y-41806666D01*
X48982380Y-40949523D02*
X49982380Y-40616190D01*
X48982380Y-40282857D01*
X48982380Y-39520952D02*
X48982380Y-39711428D01*
X49030000Y-39806666D01*
X49077619Y-39854285D01*
X49220476Y-39949523D01*
X49410952Y-39997142D01*
X49791904Y-39997142D01*
X49887142Y-39949523D01*
X49934761Y-39901904D01*
X49982380Y-39806666D01*
X49982380Y-39616190D01*
X49934761Y-39520952D01*
X49887142Y-39473333D01*
X49791904Y-39425714D01*
X49553809Y-39425714D01*
X49458571Y-39473333D01*
X49410952Y-39520952D01*
X49363333Y-39616190D01*
X49363333Y-39806666D01*
X49410952Y-39901904D01*
X49458571Y-39949523D01*
X49553809Y-39997142D01*
G04 #@! TO.C,RV7*
X49982380Y-36155238D02*
X49506190Y-36488571D01*
X49982380Y-36726666D02*
X48982380Y-36726666D01*
X48982380Y-36345714D01*
X49030000Y-36250476D01*
X49077619Y-36202857D01*
X49172857Y-36155238D01*
X49315714Y-36155238D01*
X49410952Y-36202857D01*
X49458571Y-36250476D01*
X49506190Y-36345714D01*
X49506190Y-36726666D01*
X48982380Y-35869523D02*
X49982380Y-35536190D01*
X48982380Y-35202857D01*
X48982380Y-34964761D02*
X48982380Y-34298095D01*
X49982380Y-34726666D01*
G04 #@! TO.C,RV8*
X49982380Y-31075238D02*
X49506190Y-31408571D01*
X49982380Y-31646666D02*
X48982380Y-31646666D01*
X48982380Y-31265714D01*
X49030000Y-31170476D01*
X49077619Y-31122857D01*
X49172857Y-31075238D01*
X49315714Y-31075238D01*
X49410952Y-31122857D01*
X49458571Y-31170476D01*
X49506190Y-31265714D01*
X49506190Y-31646666D01*
X48982380Y-30789523D02*
X49982380Y-30456190D01*
X48982380Y-30122857D01*
X49410952Y-29646666D02*
X49363333Y-29741904D01*
X49315714Y-29789523D01*
X49220476Y-29837142D01*
X49172857Y-29837142D01*
X49077619Y-29789523D01*
X49030000Y-29741904D01*
X48982380Y-29646666D01*
X48982380Y-29456190D01*
X49030000Y-29360952D01*
X49077619Y-29313333D01*
X49172857Y-29265714D01*
X49220476Y-29265714D01*
X49315714Y-29313333D01*
X49363333Y-29360952D01*
X49410952Y-29456190D01*
X49410952Y-29646666D01*
X49458571Y-29741904D01*
X49506190Y-29789523D01*
X49601428Y-29837142D01*
X49791904Y-29837142D01*
X49887142Y-29789523D01*
X49934761Y-29741904D01*
X49982380Y-29646666D01*
X49982380Y-29456190D01*
X49934761Y-29360952D01*
X49887142Y-29313333D01*
X49791904Y-29265714D01*
X49601428Y-29265714D01*
X49506190Y-29313333D01*
X49458571Y-29360952D01*
X49410952Y-29456190D01*
G04 #@! TO.C,U1*
X24892095Y-33742380D02*
X24892095Y-34551904D01*
X24939714Y-34647142D01*
X24987333Y-34694761D01*
X25082571Y-34742380D01*
X25273047Y-34742380D01*
X25368285Y-34694761D01*
X25415904Y-34647142D01*
X25463523Y-34551904D01*
X25463523Y-33742380D01*
X26463523Y-34742380D02*
X25892095Y-34742380D01*
X26177809Y-34742380D02*
X26177809Y-33742380D01*
X26082571Y-33885238D01*
X25987333Y-33980476D01*
X25892095Y-34028095D01*
G04 #@! TO.C,U2*
X36068095Y-28027380D02*
X36068095Y-28836904D01*
X36115714Y-28932142D01*
X36163333Y-28979761D01*
X36258571Y-29027380D01*
X36449047Y-29027380D01*
X36544285Y-28979761D01*
X36591904Y-28932142D01*
X36639523Y-28836904D01*
X36639523Y-28027380D01*
X37068095Y-28122619D02*
X37115714Y-28075000D01*
X37210952Y-28027380D01*
X37449047Y-28027380D01*
X37544285Y-28075000D01*
X37591904Y-28122619D01*
X37639523Y-28217857D01*
X37639523Y-28313095D01*
X37591904Y-28455952D01*
X37020476Y-29027380D01*
X37639523Y-29027380D01*
G04 #@! TO.C,J1*
X27856380Y-32718333D02*
X28570666Y-32718333D01*
X28713523Y-32765952D01*
X28808761Y-32861190D01*
X28856380Y-33004047D01*
X28856380Y-33099285D01*
X28856380Y-31718333D02*
X28856380Y-32289761D01*
X28856380Y-32004047D02*
X27856380Y-32004047D01*
X27999238Y-32099285D01*
X28094476Y-32194523D01*
X28142095Y-32289761D01*
G04 #@! TD*
M02*
