G04 #@! TF.GenerationSoftware,KiCad,Pcbnew,(5.0.0-dirty)*
G04 #@! TF.CreationDate,2020-09-03T12:08:13+09:00*
G04 #@! TF.ProjectId,fake-fan-mk2,66616B652D66616E2D6D6B322E6B6963,rev?*
G04 #@! TF.SameCoordinates,Original*
G04 #@! TF.FileFunction,Copper,L1,Top,Signal*
G04 #@! TF.FilePolarity,Positive*
%FSLAX46Y46*%
G04 Gerber Fmt 4.6, Leading zero omitted, Abs format (unit mm)*
G04 Created by KiCad (PCBNEW (5.0.0-dirty)) date 09/03/20 12:08:13*
%MOMM*%
%LPD*%
G01*
G04 APERTURE LIST*
G04 #@! TA.AperFunction,NonConductor*
%ADD10C,0.200000*%
G04 #@! TD*
G04 #@! TA.AperFunction,Conductor*
%ADD11C,0.100000*%
G04 #@! TD*
G04 #@! TA.AperFunction,SMDPad,CuDef*
%ADD12C,0.875000*%
G04 #@! TD*
G04 #@! TA.AperFunction,SMDPad,CuDef*
%ADD13R,1.000000X1.000000*%
G04 #@! TD*
G04 #@! TA.AperFunction,SMDPad,CuDef*
%ADD14R,1.100000X1.000000*%
G04 #@! TD*
G04 #@! TA.AperFunction,SMDPad,CuDef*
%ADD15R,0.600000X1.200000*%
G04 #@! TD*
G04 #@! TA.AperFunction,SMDPad,CuDef*
%ADD16R,1.200000X0.600000*%
G04 #@! TD*
G04 #@! TA.AperFunction,ComponentPad*
%ADD17O,1.700000X1.700000*%
G04 #@! TD*
G04 #@! TA.AperFunction,ComponentPad*
%ADD18R,1.700000X1.700000*%
G04 #@! TD*
G04 #@! TA.AperFunction,SMDPad,CuDef*
%ADD19R,1.060000X0.650000*%
G04 #@! TD*
G04 #@! TA.AperFunction,ViaPad*
%ADD20C,0.800000*%
G04 #@! TD*
G04 #@! TA.AperFunction,Conductor*
%ADD21C,0.250000*%
G04 #@! TD*
G04 #@! TA.AperFunction,Conductor*
%ADD22C,0.750000*%
G04 #@! TD*
G04 #@! TA.AperFunction,Conductor*
%ADD23C,0.254000*%
G04 #@! TD*
G04 APERTURE END LIST*
D10*
X14000000Y-30000000D02*
X14000000Y-14000000D01*
X46000000Y-30000000D02*
X14000000Y-30000000D01*
X46000000Y-14000000D02*
X46000000Y-30000000D01*
X14000000Y-14000000D02*
X46000000Y-14000000D01*
D11*
G04 #@! TO.N,+3V3*
G04 #@! TO.C,C3*
G36*
X25277691Y-26026053D02*
X25298926Y-26029203D01*
X25319750Y-26034419D01*
X25339962Y-26041651D01*
X25359368Y-26050830D01*
X25377781Y-26061866D01*
X25395024Y-26074654D01*
X25410930Y-26089070D01*
X25425346Y-26104976D01*
X25438134Y-26122219D01*
X25449170Y-26140632D01*
X25458349Y-26160038D01*
X25465581Y-26180250D01*
X25470797Y-26201074D01*
X25473947Y-26222309D01*
X25475000Y-26243750D01*
X25475000Y-26681250D01*
X25473947Y-26702691D01*
X25470797Y-26723926D01*
X25465581Y-26744750D01*
X25458349Y-26764962D01*
X25449170Y-26784368D01*
X25438134Y-26802781D01*
X25425346Y-26820024D01*
X25410930Y-26835930D01*
X25395024Y-26850346D01*
X25377781Y-26863134D01*
X25359368Y-26874170D01*
X25339962Y-26883349D01*
X25319750Y-26890581D01*
X25298926Y-26895797D01*
X25277691Y-26898947D01*
X25256250Y-26900000D01*
X24743750Y-26900000D01*
X24722309Y-26898947D01*
X24701074Y-26895797D01*
X24680250Y-26890581D01*
X24660038Y-26883349D01*
X24640632Y-26874170D01*
X24622219Y-26863134D01*
X24604976Y-26850346D01*
X24589070Y-26835930D01*
X24574654Y-26820024D01*
X24561866Y-26802781D01*
X24550830Y-26784368D01*
X24541651Y-26764962D01*
X24534419Y-26744750D01*
X24529203Y-26723926D01*
X24526053Y-26702691D01*
X24525000Y-26681250D01*
X24525000Y-26243750D01*
X24526053Y-26222309D01*
X24529203Y-26201074D01*
X24534419Y-26180250D01*
X24541651Y-26160038D01*
X24550830Y-26140632D01*
X24561866Y-26122219D01*
X24574654Y-26104976D01*
X24589070Y-26089070D01*
X24604976Y-26074654D01*
X24622219Y-26061866D01*
X24640632Y-26050830D01*
X24660038Y-26041651D01*
X24680250Y-26034419D01*
X24701074Y-26029203D01*
X24722309Y-26026053D01*
X24743750Y-26025000D01*
X25256250Y-26025000D01*
X25277691Y-26026053D01*
X25277691Y-26026053D01*
G37*
D12*
G04 #@! TD*
G04 #@! TO.P,C3,2*
G04 #@! TO.N,+3V3*
X25000000Y-26462500D03*
D11*
G04 #@! TO.N,GND*
G04 #@! TO.C,C3*
G36*
X25277691Y-27601053D02*
X25298926Y-27604203D01*
X25319750Y-27609419D01*
X25339962Y-27616651D01*
X25359368Y-27625830D01*
X25377781Y-27636866D01*
X25395024Y-27649654D01*
X25410930Y-27664070D01*
X25425346Y-27679976D01*
X25438134Y-27697219D01*
X25449170Y-27715632D01*
X25458349Y-27735038D01*
X25465581Y-27755250D01*
X25470797Y-27776074D01*
X25473947Y-27797309D01*
X25475000Y-27818750D01*
X25475000Y-28256250D01*
X25473947Y-28277691D01*
X25470797Y-28298926D01*
X25465581Y-28319750D01*
X25458349Y-28339962D01*
X25449170Y-28359368D01*
X25438134Y-28377781D01*
X25425346Y-28395024D01*
X25410930Y-28410930D01*
X25395024Y-28425346D01*
X25377781Y-28438134D01*
X25359368Y-28449170D01*
X25339962Y-28458349D01*
X25319750Y-28465581D01*
X25298926Y-28470797D01*
X25277691Y-28473947D01*
X25256250Y-28475000D01*
X24743750Y-28475000D01*
X24722309Y-28473947D01*
X24701074Y-28470797D01*
X24680250Y-28465581D01*
X24660038Y-28458349D01*
X24640632Y-28449170D01*
X24622219Y-28438134D01*
X24604976Y-28425346D01*
X24589070Y-28410930D01*
X24574654Y-28395024D01*
X24561866Y-28377781D01*
X24550830Y-28359368D01*
X24541651Y-28339962D01*
X24534419Y-28319750D01*
X24529203Y-28298926D01*
X24526053Y-28277691D01*
X24525000Y-28256250D01*
X24525000Y-27818750D01*
X24526053Y-27797309D01*
X24529203Y-27776074D01*
X24534419Y-27755250D01*
X24541651Y-27735038D01*
X24550830Y-27715632D01*
X24561866Y-27697219D01*
X24574654Y-27679976D01*
X24589070Y-27664070D01*
X24604976Y-27649654D01*
X24622219Y-27636866D01*
X24640632Y-27625830D01*
X24660038Y-27616651D01*
X24680250Y-27609419D01*
X24701074Y-27604203D01*
X24722309Y-27601053D01*
X24743750Y-27600000D01*
X25256250Y-27600000D01*
X25277691Y-27601053D01*
X25277691Y-27601053D01*
G37*
D12*
G04 #@! TD*
G04 #@! TO.P,C3,1*
G04 #@! TO.N,GND*
X25000000Y-28037500D03*
D11*
G04 #@! TO.N,+3V3*
G04 #@! TO.C,C1*
G36*
X29277691Y-27026053D02*
X29298926Y-27029203D01*
X29319750Y-27034419D01*
X29339962Y-27041651D01*
X29359368Y-27050830D01*
X29377781Y-27061866D01*
X29395024Y-27074654D01*
X29410930Y-27089070D01*
X29425346Y-27104976D01*
X29438134Y-27122219D01*
X29449170Y-27140632D01*
X29458349Y-27160038D01*
X29465581Y-27180250D01*
X29470797Y-27201074D01*
X29473947Y-27222309D01*
X29475000Y-27243750D01*
X29475000Y-27756250D01*
X29473947Y-27777691D01*
X29470797Y-27798926D01*
X29465581Y-27819750D01*
X29458349Y-27839962D01*
X29449170Y-27859368D01*
X29438134Y-27877781D01*
X29425346Y-27895024D01*
X29410930Y-27910930D01*
X29395024Y-27925346D01*
X29377781Y-27938134D01*
X29359368Y-27949170D01*
X29339962Y-27958349D01*
X29319750Y-27965581D01*
X29298926Y-27970797D01*
X29277691Y-27973947D01*
X29256250Y-27975000D01*
X28818750Y-27975000D01*
X28797309Y-27973947D01*
X28776074Y-27970797D01*
X28755250Y-27965581D01*
X28735038Y-27958349D01*
X28715632Y-27949170D01*
X28697219Y-27938134D01*
X28679976Y-27925346D01*
X28664070Y-27910930D01*
X28649654Y-27895024D01*
X28636866Y-27877781D01*
X28625830Y-27859368D01*
X28616651Y-27839962D01*
X28609419Y-27819750D01*
X28604203Y-27798926D01*
X28601053Y-27777691D01*
X28600000Y-27756250D01*
X28600000Y-27243750D01*
X28601053Y-27222309D01*
X28604203Y-27201074D01*
X28609419Y-27180250D01*
X28616651Y-27160038D01*
X28625830Y-27140632D01*
X28636866Y-27122219D01*
X28649654Y-27104976D01*
X28664070Y-27089070D01*
X28679976Y-27074654D01*
X28697219Y-27061866D01*
X28715632Y-27050830D01*
X28735038Y-27041651D01*
X28755250Y-27034419D01*
X28776074Y-27029203D01*
X28797309Y-27026053D01*
X28818750Y-27025000D01*
X29256250Y-27025000D01*
X29277691Y-27026053D01*
X29277691Y-27026053D01*
G37*
D12*
G04 #@! TD*
G04 #@! TO.P,C1,2*
G04 #@! TO.N,+3V3*
X29037500Y-27500000D03*
D11*
G04 #@! TO.N,GND*
G04 #@! TO.C,C1*
G36*
X27702691Y-27026053D02*
X27723926Y-27029203D01*
X27744750Y-27034419D01*
X27764962Y-27041651D01*
X27784368Y-27050830D01*
X27802781Y-27061866D01*
X27820024Y-27074654D01*
X27835930Y-27089070D01*
X27850346Y-27104976D01*
X27863134Y-27122219D01*
X27874170Y-27140632D01*
X27883349Y-27160038D01*
X27890581Y-27180250D01*
X27895797Y-27201074D01*
X27898947Y-27222309D01*
X27900000Y-27243750D01*
X27900000Y-27756250D01*
X27898947Y-27777691D01*
X27895797Y-27798926D01*
X27890581Y-27819750D01*
X27883349Y-27839962D01*
X27874170Y-27859368D01*
X27863134Y-27877781D01*
X27850346Y-27895024D01*
X27835930Y-27910930D01*
X27820024Y-27925346D01*
X27802781Y-27938134D01*
X27784368Y-27949170D01*
X27764962Y-27958349D01*
X27744750Y-27965581D01*
X27723926Y-27970797D01*
X27702691Y-27973947D01*
X27681250Y-27975000D01*
X27243750Y-27975000D01*
X27222309Y-27973947D01*
X27201074Y-27970797D01*
X27180250Y-27965581D01*
X27160038Y-27958349D01*
X27140632Y-27949170D01*
X27122219Y-27938134D01*
X27104976Y-27925346D01*
X27089070Y-27910930D01*
X27074654Y-27895024D01*
X27061866Y-27877781D01*
X27050830Y-27859368D01*
X27041651Y-27839962D01*
X27034419Y-27819750D01*
X27029203Y-27798926D01*
X27026053Y-27777691D01*
X27025000Y-27756250D01*
X27025000Y-27243750D01*
X27026053Y-27222309D01*
X27029203Y-27201074D01*
X27034419Y-27180250D01*
X27041651Y-27160038D01*
X27050830Y-27140632D01*
X27061866Y-27122219D01*
X27074654Y-27104976D01*
X27089070Y-27089070D01*
X27104976Y-27074654D01*
X27122219Y-27061866D01*
X27140632Y-27050830D01*
X27160038Y-27041651D01*
X27180250Y-27034419D01*
X27201074Y-27029203D01*
X27222309Y-27026053D01*
X27243750Y-27025000D01*
X27681250Y-27025000D01*
X27702691Y-27026053D01*
X27702691Y-27026053D01*
G37*
D12*
G04 #@! TD*
G04 #@! TO.P,C1,1*
G04 #@! TO.N,GND*
X27462500Y-27500000D03*
D11*
G04 #@! TO.N,GND*
G04 #@! TO.C,C2*
G36*
X33527691Y-27026053D02*
X33548926Y-27029203D01*
X33569750Y-27034419D01*
X33589962Y-27041651D01*
X33609368Y-27050830D01*
X33627781Y-27061866D01*
X33645024Y-27074654D01*
X33660930Y-27089070D01*
X33675346Y-27104976D01*
X33688134Y-27122219D01*
X33699170Y-27140632D01*
X33708349Y-27160038D01*
X33715581Y-27180250D01*
X33720797Y-27201074D01*
X33723947Y-27222309D01*
X33725000Y-27243750D01*
X33725000Y-27756250D01*
X33723947Y-27777691D01*
X33720797Y-27798926D01*
X33715581Y-27819750D01*
X33708349Y-27839962D01*
X33699170Y-27859368D01*
X33688134Y-27877781D01*
X33675346Y-27895024D01*
X33660930Y-27910930D01*
X33645024Y-27925346D01*
X33627781Y-27938134D01*
X33609368Y-27949170D01*
X33589962Y-27958349D01*
X33569750Y-27965581D01*
X33548926Y-27970797D01*
X33527691Y-27973947D01*
X33506250Y-27975000D01*
X33068750Y-27975000D01*
X33047309Y-27973947D01*
X33026074Y-27970797D01*
X33005250Y-27965581D01*
X32985038Y-27958349D01*
X32965632Y-27949170D01*
X32947219Y-27938134D01*
X32929976Y-27925346D01*
X32914070Y-27910930D01*
X32899654Y-27895024D01*
X32886866Y-27877781D01*
X32875830Y-27859368D01*
X32866651Y-27839962D01*
X32859419Y-27819750D01*
X32854203Y-27798926D01*
X32851053Y-27777691D01*
X32850000Y-27756250D01*
X32850000Y-27243750D01*
X32851053Y-27222309D01*
X32854203Y-27201074D01*
X32859419Y-27180250D01*
X32866651Y-27160038D01*
X32875830Y-27140632D01*
X32886866Y-27122219D01*
X32899654Y-27104976D01*
X32914070Y-27089070D01*
X32929976Y-27074654D01*
X32947219Y-27061866D01*
X32965632Y-27050830D01*
X32985038Y-27041651D01*
X33005250Y-27034419D01*
X33026074Y-27029203D01*
X33047309Y-27026053D01*
X33068750Y-27025000D01*
X33506250Y-27025000D01*
X33527691Y-27026053D01*
X33527691Y-27026053D01*
G37*
D12*
G04 #@! TD*
G04 #@! TO.P,C2,1*
G04 #@! TO.N,GND*
X33287500Y-27500000D03*
D11*
G04 #@! TO.N,+3V3*
G04 #@! TO.C,C2*
G36*
X31952691Y-27026053D02*
X31973926Y-27029203D01*
X31994750Y-27034419D01*
X32014962Y-27041651D01*
X32034368Y-27050830D01*
X32052781Y-27061866D01*
X32070024Y-27074654D01*
X32085930Y-27089070D01*
X32100346Y-27104976D01*
X32113134Y-27122219D01*
X32124170Y-27140632D01*
X32133349Y-27160038D01*
X32140581Y-27180250D01*
X32145797Y-27201074D01*
X32148947Y-27222309D01*
X32150000Y-27243750D01*
X32150000Y-27756250D01*
X32148947Y-27777691D01*
X32145797Y-27798926D01*
X32140581Y-27819750D01*
X32133349Y-27839962D01*
X32124170Y-27859368D01*
X32113134Y-27877781D01*
X32100346Y-27895024D01*
X32085930Y-27910930D01*
X32070024Y-27925346D01*
X32052781Y-27938134D01*
X32034368Y-27949170D01*
X32014962Y-27958349D01*
X31994750Y-27965581D01*
X31973926Y-27970797D01*
X31952691Y-27973947D01*
X31931250Y-27975000D01*
X31493750Y-27975000D01*
X31472309Y-27973947D01*
X31451074Y-27970797D01*
X31430250Y-27965581D01*
X31410038Y-27958349D01*
X31390632Y-27949170D01*
X31372219Y-27938134D01*
X31354976Y-27925346D01*
X31339070Y-27910930D01*
X31324654Y-27895024D01*
X31311866Y-27877781D01*
X31300830Y-27859368D01*
X31291651Y-27839962D01*
X31284419Y-27819750D01*
X31279203Y-27798926D01*
X31276053Y-27777691D01*
X31275000Y-27756250D01*
X31275000Y-27243750D01*
X31276053Y-27222309D01*
X31279203Y-27201074D01*
X31284419Y-27180250D01*
X31291651Y-27160038D01*
X31300830Y-27140632D01*
X31311866Y-27122219D01*
X31324654Y-27104976D01*
X31339070Y-27089070D01*
X31354976Y-27074654D01*
X31372219Y-27061866D01*
X31390632Y-27050830D01*
X31410038Y-27041651D01*
X31430250Y-27034419D01*
X31451074Y-27029203D01*
X31472309Y-27026053D01*
X31493750Y-27025000D01*
X31931250Y-27025000D01*
X31952691Y-27026053D01*
X31952691Y-27026053D01*
G37*
D12*
G04 #@! TD*
G04 #@! TO.P,C2,2*
G04 #@! TO.N,+3V3*
X31712500Y-27500000D03*
D11*
G04 #@! TO.N,+3V3*
G04 #@! TO.C,C4*
G36*
X37452691Y-17026053D02*
X37473926Y-17029203D01*
X37494750Y-17034419D01*
X37514962Y-17041651D01*
X37534368Y-17050830D01*
X37552781Y-17061866D01*
X37570024Y-17074654D01*
X37585930Y-17089070D01*
X37600346Y-17104976D01*
X37613134Y-17122219D01*
X37624170Y-17140632D01*
X37633349Y-17160038D01*
X37640581Y-17180250D01*
X37645797Y-17201074D01*
X37648947Y-17222309D01*
X37650000Y-17243750D01*
X37650000Y-17756250D01*
X37648947Y-17777691D01*
X37645797Y-17798926D01*
X37640581Y-17819750D01*
X37633349Y-17839962D01*
X37624170Y-17859368D01*
X37613134Y-17877781D01*
X37600346Y-17895024D01*
X37585930Y-17910930D01*
X37570024Y-17925346D01*
X37552781Y-17938134D01*
X37534368Y-17949170D01*
X37514962Y-17958349D01*
X37494750Y-17965581D01*
X37473926Y-17970797D01*
X37452691Y-17973947D01*
X37431250Y-17975000D01*
X36993750Y-17975000D01*
X36972309Y-17973947D01*
X36951074Y-17970797D01*
X36930250Y-17965581D01*
X36910038Y-17958349D01*
X36890632Y-17949170D01*
X36872219Y-17938134D01*
X36854976Y-17925346D01*
X36839070Y-17910930D01*
X36824654Y-17895024D01*
X36811866Y-17877781D01*
X36800830Y-17859368D01*
X36791651Y-17839962D01*
X36784419Y-17819750D01*
X36779203Y-17798926D01*
X36776053Y-17777691D01*
X36775000Y-17756250D01*
X36775000Y-17243750D01*
X36776053Y-17222309D01*
X36779203Y-17201074D01*
X36784419Y-17180250D01*
X36791651Y-17160038D01*
X36800830Y-17140632D01*
X36811866Y-17122219D01*
X36824654Y-17104976D01*
X36839070Y-17089070D01*
X36854976Y-17074654D01*
X36872219Y-17061866D01*
X36890632Y-17050830D01*
X36910038Y-17041651D01*
X36930250Y-17034419D01*
X36951074Y-17029203D01*
X36972309Y-17026053D01*
X36993750Y-17025000D01*
X37431250Y-17025000D01*
X37452691Y-17026053D01*
X37452691Y-17026053D01*
G37*
D12*
G04 #@! TD*
G04 #@! TO.P,C4,2*
G04 #@! TO.N,+3V3*
X37212500Y-17500000D03*
D11*
G04 #@! TO.N,GND*
G04 #@! TO.C,C4*
G36*
X39027691Y-17026053D02*
X39048926Y-17029203D01*
X39069750Y-17034419D01*
X39089962Y-17041651D01*
X39109368Y-17050830D01*
X39127781Y-17061866D01*
X39145024Y-17074654D01*
X39160930Y-17089070D01*
X39175346Y-17104976D01*
X39188134Y-17122219D01*
X39199170Y-17140632D01*
X39208349Y-17160038D01*
X39215581Y-17180250D01*
X39220797Y-17201074D01*
X39223947Y-17222309D01*
X39225000Y-17243750D01*
X39225000Y-17756250D01*
X39223947Y-17777691D01*
X39220797Y-17798926D01*
X39215581Y-17819750D01*
X39208349Y-17839962D01*
X39199170Y-17859368D01*
X39188134Y-17877781D01*
X39175346Y-17895024D01*
X39160930Y-17910930D01*
X39145024Y-17925346D01*
X39127781Y-17938134D01*
X39109368Y-17949170D01*
X39089962Y-17958349D01*
X39069750Y-17965581D01*
X39048926Y-17970797D01*
X39027691Y-17973947D01*
X39006250Y-17975000D01*
X38568750Y-17975000D01*
X38547309Y-17973947D01*
X38526074Y-17970797D01*
X38505250Y-17965581D01*
X38485038Y-17958349D01*
X38465632Y-17949170D01*
X38447219Y-17938134D01*
X38429976Y-17925346D01*
X38414070Y-17910930D01*
X38399654Y-17895024D01*
X38386866Y-17877781D01*
X38375830Y-17859368D01*
X38366651Y-17839962D01*
X38359419Y-17819750D01*
X38354203Y-17798926D01*
X38351053Y-17777691D01*
X38350000Y-17756250D01*
X38350000Y-17243750D01*
X38351053Y-17222309D01*
X38354203Y-17201074D01*
X38359419Y-17180250D01*
X38366651Y-17160038D01*
X38375830Y-17140632D01*
X38386866Y-17122219D01*
X38399654Y-17104976D01*
X38414070Y-17089070D01*
X38429976Y-17074654D01*
X38447219Y-17061866D01*
X38465632Y-17050830D01*
X38485038Y-17041651D01*
X38505250Y-17034419D01*
X38526074Y-17029203D01*
X38547309Y-17026053D01*
X38568750Y-17025000D01*
X39006250Y-17025000D01*
X39027691Y-17026053D01*
X39027691Y-17026053D01*
G37*
D12*
G04 #@! TD*
G04 #@! TO.P,C4,1*
G04 #@! TO.N,GND*
X38787500Y-17500000D03*
D11*
G04 #@! TO.N,GND*
G04 #@! TO.C,R1*
G36*
X23202691Y-22776053D02*
X23223926Y-22779203D01*
X23244750Y-22784419D01*
X23264962Y-22791651D01*
X23284368Y-22800830D01*
X23302781Y-22811866D01*
X23320024Y-22824654D01*
X23335930Y-22839070D01*
X23350346Y-22854976D01*
X23363134Y-22872219D01*
X23374170Y-22890632D01*
X23383349Y-22910038D01*
X23390581Y-22930250D01*
X23395797Y-22951074D01*
X23398947Y-22972309D01*
X23400000Y-22993750D01*
X23400000Y-23506250D01*
X23398947Y-23527691D01*
X23395797Y-23548926D01*
X23390581Y-23569750D01*
X23383349Y-23589962D01*
X23374170Y-23609368D01*
X23363134Y-23627781D01*
X23350346Y-23645024D01*
X23335930Y-23660930D01*
X23320024Y-23675346D01*
X23302781Y-23688134D01*
X23284368Y-23699170D01*
X23264962Y-23708349D01*
X23244750Y-23715581D01*
X23223926Y-23720797D01*
X23202691Y-23723947D01*
X23181250Y-23725000D01*
X22743750Y-23725000D01*
X22722309Y-23723947D01*
X22701074Y-23720797D01*
X22680250Y-23715581D01*
X22660038Y-23708349D01*
X22640632Y-23699170D01*
X22622219Y-23688134D01*
X22604976Y-23675346D01*
X22589070Y-23660930D01*
X22574654Y-23645024D01*
X22561866Y-23627781D01*
X22550830Y-23609368D01*
X22541651Y-23589962D01*
X22534419Y-23569750D01*
X22529203Y-23548926D01*
X22526053Y-23527691D01*
X22525000Y-23506250D01*
X22525000Y-22993750D01*
X22526053Y-22972309D01*
X22529203Y-22951074D01*
X22534419Y-22930250D01*
X22541651Y-22910038D01*
X22550830Y-22890632D01*
X22561866Y-22872219D01*
X22574654Y-22854976D01*
X22589070Y-22839070D01*
X22604976Y-22824654D01*
X22622219Y-22811866D01*
X22640632Y-22800830D01*
X22660038Y-22791651D01*
X22680250Y-22784419D01*
X22701074Y-22779203D01*
X22722309Y-22776053D01*
X22743750Y-22775000D01*
X23181250Y-22775000D01*
X23202691Y-22776053D01*
X23202691Y-22776053D01*
G37*
D12*
G04 #@! TD*
G04 #@! TO.P,R1,2*
G04 #@! TO.N,GND*
X22962500Y-23250000D03*
D11*
G04 #@! TO.N,Net-(R1-Pad1)*
G04 #@! TO.C,R1*
G36*
X24777691Y-22776053D02*
X24798926Y-22779203D01*
X24819750Y-22784419D01*
X24839962Y-22791651D01*
X24859368Y-22800830D01*
X24877781Y-22811866D01*
X24895024Y-22824654D01*
X24910930Y-22839070D01*
X24925346Y-22854976D01*
X24938134Y-22872219D01*
X24949170Y-22890632D01*
X24958349Y-22910038D01*
X24965581Y-22930250D01*
X24970797Y-22951074D01*
X24973947Y-22972309D01*
X24975000Y-22993750D01*
X24975000Y-23506250D01*
X24973947Y-23527691D01*
X24970797Y-23548926D01*
X24965581Y-23569750D01*
X24958349Y-23589962D01*
X24949170Y-23609368D01*
X24938134Y-23627781D01*
X24925346Y-23645024D01*
X24910930Y-23660930D01*
X24895024Y-23675346D01*
X24877781Y-23688134D01*
X24859368Y-23699170D01*
X24839962Y-23708349D01*
X24819750Y-23715581D01*
X24798926Y-23720797D01*
X24777691Y-23723947D01*
X24756250Y-23725000D01*
X24318750Y-23725000D01*
X24297309Y-23723947D01*
X24276074Y-23720797D01*
X24255250Y-23715581D01*
X24235038Y-23708349D01*
X24215632Y-23699170D01*
X24197219Y-23688134D01*
X24179976Y-23675346D01*
X24164070Y-23660930D01*
X24149654Y-23645024D01*
X24136866Y-23627781D01*
X24125830Y-23609368D01*
X24116651Y-23589962D01*
X24109419Y-23569750D01*
X24104203Y-23548926D01*
X24101053Y-23527691D01*
X24100000Y-23506250D01*
X24100000Y-22993750D01*
X24101053Y-22972309D01*
X24104203Y-22951074D01*
X24109419Y-22930250D01*
X24116651Y-22910038D01*
X24125830Y-22890632D01*
X24136866Y-22872219D01*
X24149654Y-22854976D01*
X24164070Y-22839070D01*
X24179976Y-22824654D01*
X24197219Y-22811866D01*
X24215632Y-22800830D01*
X24235038Y-22791651D01*
X24255250Y-22784419D01*
X24276074Y-22779203D01*
X24297309Y-22776053D01*
X24318750Y-22775000D01*
X24756250Y-22775000D01*
X24777691Y-22776053D01*
X24777691Y-22776053D01*
G37*
D12*
G04 #@! TD*
G04 #@! TO.P,R1,1*
G04 #@! TO.N,Net-(R1-Pad1)*
X24537500Y-23250000D03*
D13*
G04 #@! TO.P,RV1,3*
G04 #@! TO.N,GND*
X37650000Y-24500000D03*
G04 #@! TO.P,RV1,1*
G04 #@! TO.N,+3V3*
X39350000Y-24500000D03*
D14*
G04 #@! TO.P,RV1,2*
G04 #@! TO.N,/VR1*
X38500000Y-27500000D03*
G04 #@! TD*
D15*
G04 #@! TO.P,U2,1*
G04 #@! TO.N,+3V3*
X28200000Y-25250000D03*
G04 #@! TO.P,U2,2*
G04 #@! TO.N,N/C*
X29000000Y-25250000D03*
G04 #@! TO.P,U2,3*
X29800000Y-25250000D03*
G04 #@! TO.P,U2,4*
G04 #@! TO.N,/NRST*
X30600000Y-25250000D03*
G04 #@! TO.P,U2,5*
G04 #@! TO.N,+3V3*
X31400000Y-25250000D03*
G04 #@! TO.P,U2,6*
G04 #@! TO.N,/VR1*
X32200000Y-25250000D03*
G04 #@! TO.P,U2,7*
G04 #@! TO.N,/PWMIN_3V*
X33000000Y-25250000D03*
G04 #@! TO.P,U2,8*
G04 #@! TO.N,/USART1_TX*
X33800000Y-25250000D03*
D16*
G04 #@! TO.P,U2,9*
G04 #@! TO.N,/USART1_RX*
X35250000Y-23800000D03*
G04 #@! TO.P,U2,10*
G04 #@! TO.N,N/C*
X35250000Y-23000000D03*
G04 #@! TO.P,U2,11*
X35250000Y-22200000D03*
G04 #@! TO.P,U2,12*
G04 #@! TO.N,/FAN_PWM*
X35250000Y-21400000D03*
G04 #@! TO.P,U2,13*
G04 #@! TO.N,/FAKE_PULSE*
X35250000Y-20600000D03*
G04 #@! TO.P,U2,14*
G04 #@! TO.N,N/C*
X35250000Y-19800000D03*
G04 #@! TO.P,U2,15*
X35250000Y-19000000D03*
G04 #@! TO.P,U2,16*
G04 #@! TO.N,GND*
X35250000Y-18200000D03*
D15*
G04 #@! TO.P,U2,17*
G04 #@! TO.N,+3V3*
X33800000Y-16750000D03*
G04 #@! TO.P,U2,18*
G04 #@! TO.N,N/C*
X33000000Y-16750000D03*
G04 #@! TO.P,U2,19*
X32200000Y-16750000D03*
G04 #@! TO.P,U2,20*
X31400000Y-16750000D03*
G04 #@! TO.P,U2,21*
X30600000Y-16750000D03*
G04 #@! TO.P,U2,22*
G04 #@! TO.N,/FAN_PULSE*
X29800000Y-16750000D03*
G04 #@! TO.P,U2,23*
G04 #@! TO.N,/SWDIO*
X29000000Y-16750000D03*
G04 #@! TO.P,U2,24*
G04 #@! TO.N,/SYS_CLK*
X28200000Y-16750000D03*
D16*
G04 #@! TO.P,U2,25*
G04 #@! TO.N,N/C*
X26750000Y-18200000D03*
G04 #@! TO.P,U2,26*
X26750000Y-19000000D03*
G04 #@! TO.P,U2,27*
X26750000Y-19800000D03*
G04 #@! TO.P,U2,28*
X26750000Y-20600000D03*
G04 #@! TO.P,U2,29*
X26750000Y-21400000D03*
G04 #@! TO.P,U2,30*
X26750000Y-22200000D03*
G04 #@! TO.P,U2,31*
G04 #@! TO.N,Net-(R1-Pad1)*
X26750000Y-23000000D03*
G04 #@! TO.P,U2,32*
G04 #@! TO.N,GND*
X26750000Y-23800000D03*
G04 #@! TD*
D17*
G04 #@! TO.P,J1,4*
G04 #@! TO.N,/PWMIN*
X16750000Y-18380000D03*
G04 #@! TO.P,J1,3*
G04 #@! TO.N,/FAKE_PULSE*
X16750000Y-20920000D03*
G04 #@! TO.P,J1,2*
G04 #@! TO.N,+12V*
X16750000Y-23460000D03*
D18*
G04 #@! TO.P,J1,1*
G04 #@! TO.N,GND*
X16750000Y-26000000D03*
G04 #@! TD*
G04 #@! TO.P,J2,1*
G04 #@! TO.N,GND*
X42500000Y-26000000D03*
D17*
G04 #@! TO.P,J2,2*
G04 #@! TO.N,+12V*
X42500000Y-23460000D03*
G04 #@! TO.P,J2,3*
G04 #@! TO.N,/FAN_PULSE*
X42500000Y-20920000D03*
G04 #@! TO.P,J2,4*
G04 #@! TO.N,/FAN_PWM*
X42500000Y-18380000D03*
G04 #@! TD*
D18*
G04 #@! TO.P,J3,1*
G04 #@! TO.N,GND*
X21000000Y-18400000D03*
D17*
G04 #@! TO.P,J3,2*
G04 #@! TO.N,/SYS_CLK*
X23540000Y-18400000D03*
G04 #@! TO.P,J3,3*
G04 #@! TO.N,/NRST*
X21000000Y-20940000D03*
G04 #@! TO.P,J3,4*
G04 #@! TO.N,/SWDIO*
X23540000Y-20940000D03*
G04 #@! TD*
D19*
G04 #@! TO.P,U1,1*
G04 #@! TO.N,+12V*
X21150000Y-25300000D03*
G04 #@! TO.P,U1,2*
G04 #@! TO.N,GND*
X21150000Y-26250000D03*
G04 #@! TO.P,U1,3*
G04 #@! TO.N,+12V*
X21150000Y-27200000D03*
G04 #@! TO.P,U1,4*
G04 #@! TO.N,N/C*
X23350000Y-27200000D03*
G04 #@! TO.P,U1,5*
G04 #@! TO.N,+3V3*
X23350000Y-25300000D03*
G04 #@! TD*
D11*
G04 #@! TO.N,GND*
G04 #@! TO.C,C5*
G36*
X19777691Y-26601053D02*
X19798926Y-26604203D01*
X19819750Y-26609419D01*
X19839962Y-26616651D01*
X19859368Y-26625830D01*
X19877781Y-26636866D01*
X19895024Y-26649654D01*
X19910930Y-26664070D01*
X19925346Y-26679976D01*
X19938134Y-26697219D01*
X19949170Y-26715632D01*
X19958349Y-26735038D01*
X19965581Y-26755250D01*
X19970797Y-26776074D01*
X19973947Y-26797309D01*
X19975000Y-26818750D01*
X19975000Y-27256250D01*
X19973947Y-27277691D01*
X19970797Y-27298926D01*
X19965581Y-27319750D01*
X19958349Y-27339962D01*
X19949170Y-27359368D01*
X19938134Y-27377781D01*
X19925346Y-27395024D01*
X19910930Y-27410930D01*
X19895024Y-27425346D01*
X19877781Y-27438134D01*
X19859368Y-27449170D01*
X19839962Y-27458349D01*
X19819750Y-27465581D01*
X19798926Y-27470797D01*
X19777691Y-27473947D01*
X19756250Y-27475000D01*
X19243750Y-27475000D01*
X19222309Y-27473947D01*
X19201074Y-27470797D01*
X19180250Y-27465581D01*
X19160038Y-27458349D01*
X19140632Y-27449170D01*
X19122219Y-27438134D01*
X19104976Y-27425346D01*
X19089070Y-27410930D01*
X19074654Y-27395024D01*
X19061866Y-27377781D01*
X19050830Y-27359368D01*
X19041651Y-27339962D01*
X19034419Y-27319750D01*
X19029203Y-27298926D01*
X19026053Y-27277691D01*
X19025000Y-27256250D01*
X19025000Y-26818750D01*
X19026053Y-26797309D01*
X19029203Y-26776074D01*
X19034419Y-26755250D01*
X19041651Y-26735038D01*
X19050830Y-26715632D01*
X19061866Y-26697219D01*
X19074654Y-26679976D01*
X19089070Y-26664070D01*
X19104976Y-26649654D01*
X19122219Y-26636866D01*
X19140632Y-26625830D01*
X19160038Y-26616651D01*
X19180250Y-26609419D01*
X19201074Y-26604203D01*
X19222309Y-26601053D01*
X19243750Y-26600000D01*
X19756250Y-26600000D01*
X19777691Y-26601053D01*
X19777691Y-26601053D01*
G37*
D12*
G04 #@! TD*
G04 #@! TO.P,C5,1*
G04 #@! TO.N,GND*
X19500000Y-27037500D03*
D11*
G04 #@! TO.N,+12V*
G04 #@! TO.C,C5*
G36*
X19777691Y-25026053D02*
X19798926Y-25029203D01*
X19819750Y-25034419D01*
X19839962Y-25041651D01*
X19859368Y-25050830D01*
X19877781Y-25061866D01*
X19895024Y-25074654D01*
X19910930Y-25089070D01*
X19925346Y-25104976D01*
X19938134Y-25122219D01*
X19949170Y-25140632D01*
X19958349Y-25160038D01*
X19965581Y-25180250D01*
X19970797Y-25201074D01*
X19973947Y-25222309D01*
X19975000Y-25243750D01*
X19975000Y-25681250D01*
X19973947Y-25702691D01*
X19970797Y-25723926D01*
X19965581Y-25744750D01*
X19958349Y-25764962D01*
X19949170Y-25784368D01*
X19938134Y-25802781D01*
X19925346Y-25820024D01*
X19910930Y-25835930D01*
X19895024Y-25850346D01*
X19877781Y-25863134D01*
X19859368Y-25874170D01*
X19839962Y-25883349D01*
X19819750Y-25890581D01*
X19798926Y-25895797D01*
X19777691Y-25898947D01*
X19756250Y-25900000D01*
X19243750Y-25900000D01*
X19222309Y-25898947D01*
X19201074Y-25895797D01*
X19180250Y-25890581D01*
X19160038Y-25883349D01*
X19140632Y-25874170D01*
X19122219Y-25863134D01*
X19104976Y-25850346D01*
X19089070Y-25835930D01*
X19074654Y-25820024D01*
X19061866Y-25802781D01*
X19050830Y-25784368D01*
X19041651Y-25764962D01*
X19034419Y-25744750D01*
X19029203Y-25723926D01*
X19026053Y-25702691D01*
X19025000Y-25681250D01*
X19025000Y-25243750D01*
X19026053Y-25222309D01*
X19029203Y-25201074D01*
X19034419Y-25180250D01*
X19041651Y-25160038D01*
X19050830Y-25140632D01*
X19061866Y-25122219D01*
X19074654Y-25104976D01*
X19089070Y-25089070D01*
X19104976Y-25074654D01*
X19122219Y-25061866D01*
X19140632Y-25050830D01*
X19160038Y-25041651D01*
X19180250Y-25034419D01*
X19201074Y-25029203D01*
X19222309Y-25026053D01*
X19243750Y-25025000D01*
X19756250Y-25025000D01*
X19777691Y-25026053D01*
X19777691Y-25026053D01*
G37*
D12*
G04 #@! TD*
G04 #@! TO.P,C5,2*
G04 #@! TO.N,+12V*
X19500000Y-25462500D03*
D11*
G04 #@! TO.N,GND*
G04 #@! TO.C,C6*
G36*
X24827691Y-15326053D02*
X24848926Y-15329203D01*
X24869750Y-15334419D01*
X24889962Y-15341651D01*
X24909368Y-15350830D01*
X24927781Y-15361866D01*
X24945024Y-15374654D01*
X24960930Y-15389070D01*
X24975346Y-15404976D01*
X24988134Y-15422219D01*
X24999170Y-15440632D01*
X25008349Y-15460038D01*
X25015581Y-15480250D01*
X25020797Y-15501074D01*
X25023947Y-15522309D01*
X25025000Y-15543750D01*
X25025000Y-16056250D01*
X25023947Y-16077691D01*
X25020797Y-16098926D01*
X25015581Y-16119750D01*
X25008349Y-16139962D01*
X24999170Y-16159368D01*
X24988134Y-16177781D01*
X24975346Y-16195024D01*
X24960930Y-16210930D01*
X24945024Y-16225346D01*
X24927781Y-16238134D01*
X24909368Y-16249170D01*
X24889962Y-16258349D01*
X24869750Y-16265581D01*
X24848926Y-16270797D01*
X24827691Y-16273947D01*
X24806250Y-16275000D01*
X24368750Y-16275000D01*
X24347309Y-16273947D01*
X24326074Y-16270797D01*
X24305250Y-16265581D01*
X24285038Y-16258349D01*
X24265632Y-16249170D01*
X24247219Y-16238134D01*
X24229976Y-16225346D01*
X24214070Y-16210930D01*
X24199654Y-16195024D01*
X24186866Y-16177781D01*
X24175830Y-16159368D01*
X24166651Y-16139962D01*
X24159419Y-16119750D01*
X24154203Y-16098926D01*
X24151053Y-16077691D01*
X24150000Y-16056250D01*
X24150000Y-15543750D01*
X24151053Y-15522309D01*
X24154203Y-15501074D01*
X24159419Y-15480250D01*
X24166651Y-15460038D01*
X24175830Y-15440632D01*
X24186866Y-15422219D01*
X24199654Y-15404976D01*
X24214070Y-15389070D01*
X24229976Y-15374654D01*
X24247219Y-15361866D01*
X24265632Y-15350830D01*
X24285038Y-15341651D01*
X24305250Y-15334419D01*
X24326074Y-15329203D01*
X24347309Y-15326053D01*
X24368750Y-15325000D01*
X24806250Y-15325000D01*
X24827691Y-15326053D01*
X24827691Y-15326053D01*
G37*
D12*
G04 #@! TD*
G04 #@! TO.P,C6,1*
G04 #@! TO.N,GND*
X24587500Y-15800000D03*
D11*
G04 #@! TO.N,/PWMIN_3V*
G04 #@! TO.C,C6*
G36*
X23252691Y-15326053D02*
X23273926Y-15329203D01*
X23294750Y-15334419D01*
X23314962Y-15341651D01*
X23334368Y-15350830D01*
X23352781Y-15361866D01*
X23370024Y-15374654D01*
X23385930Y-15389070D01*
X23400346Y-15404976D01*
X23413134Y-15422219D01*
X23424170Y-15440632D01*
X23433349Y-15460038D01*
X23440581Y-15480250D01*
X23445797Y-15501074D01*
X23448947Y-15522309D01*
X23450000Y-15543750D01*
X23450000Y-16056250D01*
X23448947Y-16077691D01*
X23445797Y-16098926D01*
X23440581Y-16119750D01*
X23433349Y-16139962D01*
X23424170Y-16159368D01*
X23413134Y-16177781D01*
X23400346Y-16195024D01*
X23385930Y-16210930D01*
X23370024Y-16225346D01*
X23352781Y-16238134D01*
X23334368Y-16249170D01*
X23314962Y-16258349D01*
X23294750Y-16265581D01*
X23273926Y-16270797D01*
X23252691Y-16273947D01*
X23231250Y-16275000D01*
X22793750Y-16275000D01*
X22772309Y-16273947D01*
X22751074Y-16270797D01*
X22730250Y-16265581D01*
X22710038Y-16258349D01*
X22690632Y-16249170D01*
X22672219Y-16238134D01*
X22654976Y-16225346D01*
X22639070Y-16210930D01*
X22624654Y-16195024D01*
X22611866Y-16177781D01*
X22600830Y-16159368D01*
X22591651Y-16139962D01*
X22584419Y-16119750D01*
X22579203Y-16098926D01*
X22576053Y-16077691D01*
X22575000Y-16056250D01*
X22575000Y-15543750D01*
X22576053Y-15522309D01*
X22579203Y-15501074D01*
X22584419Y-15480250D01*
X22591651Y-15460038D01*
X22600830Y-15440632D01*
X22611866Y-15422219D01*
X22624654Y-15404976D01*
X22639070Y-15389070D01*
X22654976Y-15374654D01*
X22672219Y-15361866D01*
X22690632Y-15350830D01*
X22710038Y-15341651D01*
X22730250Y-15334419D01*
X22751074Y-15329203D01*
X22772309Y-15326053D01*
X22793750Y-15325000D01*
X23231250Y-15325000D01*
X23252691Y-15326053D01*
X23252691Y-15326053D01*
G37*
D12*
G04 #@! TD*
G04 #@! TO.P,C6,2*
G04 #@! TO.N,/PWMIN_3V*
X23012500Y-15800000D03*
D11*
G04 #@! TO.N,/PWMIN_3V*
G04 #@! TO.C,R2*
G36*
X18427691Y-15326053D02*
X18448926Y-15329203D01*
X18469750Y-15334419D01*
X18489962Y-15341651D01*
X18509368Y-15350830D01*
X18527781Y-15361866D01*
X18545024Y-15374654D01*
X18560930Y-15389070D01*
X18575346Y-15404976D01*
X18588134Y-15422219D01*
X18599170Y-15440632D01*
X18608349Y-15460038D01*
X18615581Y-15480250D01*
X18620797Y-15501074D01*
X18623947Y-15522309D01*
X18625000Y-15543750D01*
X18625000Y-16056250D01*
X18623947Y-16077691D01*
X18620797Y-16098926D01*
X18615581Y-16119750D01*
X18608349Y-16139962D01*
X18599170Y-16159368D01*
X18588134Y-16177781D01*
X18575346Y-16195024D01*
X18560930Y-16210930D01*
X18545024Y-16225346D01*
X18527781Y-16238134D01*
X18509368Y-16249170D01*
X18489962Y-16258349D01*
X18469750Y-16265581D01*
X18448926Y-16270797D01*
X18427691Y-16273947D01*
X18406250Y-16275000D01*
X17968750Y-16275000D01*
X17947309Y-16273947D01*
X17926074Y-16270797D01*
X17905250Y-16265581D01*
X17885038Y-16258349D01*
X17865632Y-16249170D01*
X17847219Y-16238134D01*
X17829976Y-16225346D01*
X17814070Y-16210930D01*
X17799654Y-16195024D01*
X17786866Y-16177781D01*
X17775830Y-16159368D01*
X17766651Y-16139962D01*
X17759419Y-16119750D01*
X17754203Y-16098926D01*
X17751053Y-16077691D01*
X17750000Y-16056250D01*
X17750000Y-15543750D01*
X17751053Y-15522309D01*
X17754203Y-15501074D01*
X17759419Y-15480250D01*
X17766651Y-15460038D01*
X17775830Y-15440632D01*
X17786866Y-15422219D01*
X17799654Y-15404976D01*
X17814070Y-15389070D01*
X17829976Y-15374654D01*
X17847219Y-15361866D01*
X17865632Y-15350830D01*
X17885038Y-15341651D01*
X17905250Y-15334419D01*
X17926074Y-15329203D01*
X17947309Y-15326053D01*
X17968750Y-15325000D01*
X18406250Y-15325000D01*
X18427691Y-15326053D01*
X18427691Y-15326053D01*
G37*
D12*
G04 #@! TD*
G04 #@! TO.P,R2,1*
G04 #@! TO.N,/PWMIN_3V*
X18187500Y-15800000D03*
D11*
G04 #@! TO.N,/PWMIN*
G04 #@! TO.C,R2*
G36*
X16852691Y-15326053D02*
X16873926Y-15329203D01*
X16894750Y-15334419D01*
X16914962Y-15341651D01*
X16934368Y-15350830D01*
X16952781Y-15361866D01*
X16970024Y-15374654D01*
X16985930Y-15389070D01*
X17000346Y-15404976D01*
X17013134Y-15422219D01*
X17024170Y-15440632D01*
X17033349Y-15460038D01*
X17040581Y-15480250D01*
X17045797Y-15501074D01*
X17048947Y-15522309D01*
X17050000Y-15543750D01*
X17050000Y-16056250D01*
X17048947Y-16077691D01*
X17045797Y-16098926D01*
X17040581Y-16119750D01*
X17033349Y-16139962D01*
X17024170Y-16159368D01*
X17013134Y-16177781D01*
X17000346Y-16195024D01*
X16985930Y-16210930D01*
X16970024Y-16225346D01*
X16952781Y-16238134D01*
X16934368Y-16249170D01*
X16914962Y-16258349D01*
X16894750Y-16265581D01*
X16873926Y-16270797D01*
X16852691Y-16273947D01*
X16831250Y-16275000D01*
X16393750Y-16275000D01*
X16372309Y-16273947D01*
X16351074Y-16270797D01*
X16330250Y-16265581D01*
X16310038Y-16258349D01*
X16290632Y-16249170D01*
X16272219Y-16238134D01*
X16254976Y-16225346D01*
X16239070Y-16210930D01*
X16224654Y-16195024D01*
X16211866Y-16177781D01*
X16200830Y-16159368D01*
X16191651Y-16139962D01*
X16184419Y-16119750D01*
X16179203Y-16098926D01*
X16176053Y-16077691D01*
X16175000Y-16056250D01*
X16175000Y-15543750D01*
X16176053Y-15522309D01*
X16179203Y-15501074D01*
X16184419Y-15480250D01*
X16191651Y-15460038D01*
X16200830Y-15440632D01*
X16211866Y-15422219D01*
X16224654Y-15404976D01*
X16239070Y-15389070D01*
X16254976Y-15374654D01*
X16272219Y-15361866D01*
X16290632Y-15350830D01*
X16310038Y-15341651D01*
X16330250Y-15334419D01*
X16351074Y-15329203D01*
X16372309Y-15326053D01*
X16393750Y-15325000D01*
X16831250Y-15325000D01*
X16852691Y-15326053D01*
X16852691Y-15326053D01*
G37*
D12*
G04 #@! TD*
G04 #@! TO.P,R2,2*
G04 #@! TO.N,/PWMIN*
X16612500Y-15800000D03*
D11*
G04 #@! TO.N,/PWMIN_3V*
G04 #@! TO.C,R3*
G36*
X20052691Y-15326053D02*
X20073926Y-15329203D01*
X20094750Y-15334419D01*
X20114962Y-15341651D01*
X20134368Y-15350830D01*
X20152781Y-15361866D01*
X20170024Y-15374654D01*
X20185930Y-15389070D01*
X20200346Y-15404976D01*
X20213134Y-15422219D01*
X20224170Y-15440632D01*
X20233349Y-15460038D01*
X20240581Y-15480250D01*
X20245797Y-15501074D01*
X20248947Y-15522309D01*
X20250000Y-15543750D01*
X20250000Y-16056250D01*
X20248947Y-16077691D01*
X20245797Y-16098926D01*
X20240581Y-16119750D01*
X20233349Y-16139962D01*
X20224170Y-16159368D01*
X20213134Y-16177781D01*
X20200346Y-16195024D01*
X20185930Y-16210930D01*
X20170024Y-16225346D01*
X20152781Y-16238134D01*
X20134368Y-16249170D01*
X20114962Y-16258349D01*
X20094750Y-16265581D01*
X20073926Y-16270797D01*
X20052691Y-16273947D01*
X20031250Y-16275000D01*
X19593750Y-16275000D01*
X19572309Y-16273947D01*
X19551074Y-16270797D01*
X19530250Y-16265581D01*
X19510038Y-16258349D01*
X19490632Y-16249170D01*
X19472219Y-16238134D01*
X19454976Y-16225346D01*
X19439070Y-16210930D01*
X19424654Y-16195024D01*
X19411866Y-16177781D01*
X19400830Y-16159368D01*
X19391651Y-16139962D01*
X19384419Y-16119750D01*
X19379203Y-16098926D01*
X19376053Y-16077691D01*
X19375000Y-16056250D01*
X19375000Y-15543750D01*
X19376053Y-15522309D01*
X19379203Y-15501074D01*
X19384419Y-15480250D01*
X19391651Y-15460038D01*
X19400830Y-15440632D01*
X19411866Y-15422219D01*
X19424654Y-15404976D01*
X19439070Y-15389070D01*
X19454976Y-15374654D01*
X19472219Y-15361866D01*
X19490632Y-15350830D01*
X19510038Y-15341651D01*
X19530250Y-15334419D01*
X19551074Y-15329203D01*
X19572309Y-15326053D01*
X19593750Y-15325000D01*
X20031250Y-15325000D01*
X20052691Y-15326053D01*
X20052691Y-15326053D01*
G37*
D12*
G04 #@! TD*
G04 #@! TO.P,R3,2*
G04 #@! TO.N,/PWMIN_3V*
X19812500Y-15800000D03*
D11*
G04 #@! TO.N,GND*
G04 #@! TO.C,R3*
G36*
X21627691Y-15326053D02*
X21648926Y-15329203D01*
X21669750Y-15334419D01*
X21689962Y-15341651D01*
X21709368Y-15350830D01*
X21727781Y-15361866D01*
X21745024Y-15374654D01*
X21760930Y-15389070D01*
X21775346Y-15404976D01*
X21788134Y-15422219D01*
X21799170Y-15440632D01*
X21808349Y-15460038D01*
X21815581Y-15480250D01*
X21820797Y-15501074D01*
X21823947Y-15522309D01*
X21825000Y-15543750D01*
X21825000Y-16056250D01*
X21823947Y-16077691D01*
X21820797Y-16098926D01*
X21815581Y-16119750D01*
X21808349Y-16139962D01*
X21799170Y-16159368D01*
X21788134Y-16177781D01*
X21775346Y-16195024D01*
X21760930Y-16210930D01*
X21745024Y-16225346D01*
X21727781Y-16238134D01*
X21709368Y-16249170D01*
X21689962Y-16258349D01*
X21669750Y-16265581D01*
X21648926Y-16270797D01*
X21627691Y-16273947D01*
X21606250Y-16275000D01*
X21168750Y-16275000D01*
X21147309Y-16273947D01*
X21126074Y-16270797D01*
X21105250Y-16265581D01*
X21085038Y-16258349D01*
X21065632Y-16249170D01*
X21047219Y-16238134D01*
X21029976Y-16225346D01*
X21014070Y-16210930D01*
X20999654Y-16195024D01*
X20986866Y-16177781D01*
X20975830Y-16159368D01*
X20966651Y-16139962D01*
X20959419Y-16119750D01*
X20954203Y-16098926D01*
X20951053Y-16077691D01*
X20950000Y-16056250D01*
X20950000Y-15543750D01*
X20951053Y-15522309D01*
X20954203Y-15501074D01*
X20959419Y-15480250D01*
X20966651Y-15460038D01*
X20975830Y-15440632D01*
X20986866Y-15422219D01*
X20999654Y-15404976D01*
X21014070Y-15389070D01*
X21029976Y-15374654D01*
X21047219Y-15361866D01*
X21065632Y-15350830D01*
X21085038Y-15341651D01*
X21105250Y-15334419D01*
X21126074Y-15329203D01*
X21147309Y-15326053D01*
X21168750Y-15325000D01*
X21606250Y-15325000D01*
X21627691Y-15326053D01*
X21627691Y-15326053D01*
G37*
D12*
G04 #@! TD*
G04 #@! TO.P,R3,1*
G04 #@! TO.N,GND*
X21387500Y-15800000D03*
D11*
G04 #@! TO.N,/FAN_PULSE*
G04 #@! TO.C,R4*
G36*
X39027691Y-15526053D02*
X39048926Y-15529203D01*
X39069750Y-15534419D01*
X39089962Y-15541651D01*
X39109368Y-15550830D01*
X39127781Y-15561866D01*
X39145024Y-15574654D01*
X39160930Y-15589070D01*
X39175346Y-15604976D01*
X39188134Y-15622219D01*
X39199170Y-15640632D01*
X39208349Y-15660038D01*
X39215581Y-15680250D01*
X39220797Y-15701074D01*
X39223947Y-15722309D01*
X39225000Y-15743750D01*
X39225000Y-16256250D01*
X39223947Y-16277691D01*
X39220797Y-16298926D01*
X39215581Y-16319750D01*
X39208349Y-16339962D01*
X39199170Y-16359368D01*
X39188134Y-16377781D01*
X39175346Y-16395024D01*
X39160930Y-16410930D01*
X39145024Y-16425346D01*
X39127781Y-16438134D01*
X39109368Y-16449170D01*
X39089962Y-16458349D01*
X39069750Y-16465581D01*
X39048926Y-16470797D01*
X39027691Y-16473947D01*
X39006250Y-16475000D01*
X38568750Y-16475000D01*
X38547309Y-16473947D01*
X38526074Y-16470797D01*
X38505250Y-16465581D01*
X38485038Y-16458349D01*
X38465632Y-16449170D01*
X38447219Y-16438134D01*
X38429976Y-16425346D01*
X38414070Y-16410930D01*
X38399654Y-16395024D01*
X38386866Y-16377781D01*
X38375830Y-16359368D01*
X38366651Y-16339962D01*
X38359419Y-16319750D01*
X38354203Y-16298926D01*
X38351053Y-16277691D01*
X38350000Y-16256250D01*
X38350000Y-15743750D01*
X38351053Y-15722309D01*
X38354203Y-15701074D01*
X38359419Y-15680250D01*
X38366651Y-15660038D01*
X38375830Y-15640632D01*
X38386866Y-15622219D01*
X38399654Y-15604976D01*
X38414070Y-15589070D01*
X38429976Y-15574654D01*
X38447219Y-15561866D01*
X38465632Y-15550830D01*
X38485038Y-15541651D01*
X38505250Y-15534419D01*
X38526074Y-15529203D01*
X38547309Y-15526053D01*
X38568750Y-15525000D01*
X39006250Y-15525000D01*
X39027691Y-15526053D01*
X39027691Y-15526053D01*
G37*
D12*
G04 #@! TD*
G04 #@! TO.P,R4,1*
G04 #@! TO.N,/FAN_PULSE*
X38787500Y-16000000D03*
D11*
G04 #@! TO.N,+3V3*
G04 #@! TO.C,R4*
G36*
X37452691Y-15526053D02*
X37473926Y-15529203D01*
X37494750Y-15534419D01*
X37514962Y-15541651D01*
X37534368Y-15550830D01*
X37552781Y-15561866D01*
X37570024Y-15574654D01*
X37585930Y-15589070D01*
X37600346Y-15604976D01*
X37613134Y-15622219D01*
X37624170Y-15640632D01*
X37633349Y-15660038D01*
X37640581Y-15680250D01*
X37645797Y-15701074D01*
X37648947Y-15722309D01*
X37650000Y-15743750D01*
X37650000Y-16256250D01*
X37648947Y-16277691D01*
X37645797Y-16298926D01*
X37640581Y-16319750D01*
X37633349Y-16339962D01*
X37624170Y-16359368D01*
X37613134Y-16377781D01*
X37600346Y-16395024D01*
X37585930Y-16410930D01*
X37570024Y-16425346D01*
X37552781Y-16438134D01*
X37534368Y-16449170D01*
X37514962Y-16458349D01*
X37494750Y-16465581D01*
X37473926Y-16470797D01*
X37452691Y-16473947D01*
X37431250Y-16475000D01*
X36993750Y-16475000D01*
X36972309Y-16473947D01*
X36951074Y-16470797D01*
X36930250Y-16465581D01*
X36910038Y-16458349D01*
X36890632Y-16449170D01*
X36872219Y-16438134D01*
X36854976Y-16425346D01*
X36839070Y-16410930D01*
X36824654Y-16395024D01*
X36811866Y-16377781D01*
X36800830Y-16359368D01*
X36791651Y-16339962D01*
X36784419Y-16319750D01*
X36779203Y-16298926D01*
X36776053Y-16277691D01*
X36775000Y-16256250D01*
X36775000Y-15743750D01*
X36776053Y-15722309D01*
X36779203Y-15701074D01*
X36784419Y-15680250D01*
X36791651Y-15660038D01*
X36800830Y-15640632D01*
X36811866Y-15622219D01*
X36824654Y-15604976D01*
X36839070Y-15589070D01*
X36854976Y-15574654D01*
X36872219Y-15561866D01*
X36890632Y-15550830D01*
X36910038Y-15541651D01*
X36930250Y-15534419D01*
X36951074Y-15529203D01*
X36972309Y-15526053D01*
X36993750Y-15525000D01*
X37431250Y-15525000D01*
X37452691Y-15526053D01*
X37452691Y-15526053D01*
G37*
D12*
G04 #@! TD*
G04 #@! TO.P,R4,2*
G04 #@! TO.N,+3V3*
X37212500Y-16000000D03*
D20*
G04 #@! TO.N,GND*
X33250000Y-18500000D03*
X29000000Y-21500000D03*
X26000000Y-16000000D03*
X39750000Y-18500000D03*
G04 #@! TO.N,+3V3*
X39250000Y-26000000D03*
X26200000Y-26400000D03*
X30500000Y-26500000D03*
G04 #@! TO.N,/SYS_CLK*
X27987347Y-17987347D03*
G04 #@! TO.N,/SWDIO*
X29000000Y-18000000D03*
G04 #@! TO.N,/NRST*
X29000000Y-19500000D03*
G04 #@! TO.N,/PWMIN_3V*
X19000000Y-17000000D03*
X22600000Y-16800000D03*
X30500000Y-19500000D03*
G04 #@! TO.N,/FAKE_PULSE*
X33500000Y-20500000D03*
G04 #@! TO.N,/FAN_PULSE*
X30500000Y-18000000D03*
X40000000Y-16000000D03*
G04 #@! TO.N,/FAN_PWM*
X37000000Y-22500000D03*
G04 #@! TO.N,/USART1_TX*
X33500000Y-19500000D03*
G04 #@! TO.N,/USART1_RX*
X33750000Y-22250000D03*
G04 #@! TD*
D21*
G04 #@! TO.N,GND*
X20287500Y-26250000D02*
X19500000Y-27037500D01*
X21150000Y-26250000D02*
X20287500Y-26250000D01*
X34400000Y-18200000D02*
X34100000Y-18500000D01*
X35250000Y-18200000D02*
X34400000Y-18200000D01*
X34100000Y-18500000D02*
X33750000Y-18500000D01*
X33750000Y-18500000D02*
X33250000Y-18500000D01*
X36100000Y-18200000D02*
X35250000Y-18200000D01*
X37650000Y-24500000D02*
X37650000Y-23750000D01*
X27600000Y-23800000D02*
X29000000Y-22400000D01*
X26750000Y-23800000D02*
X27600000Y-23800000D01*
X29000000Y-22400000D02*
X29000000Y-21500000D01*
X23424112Y-23711612D02*
X22962500Y-23250000D01*
X23762510Y-24050010D02*
X23424112Y-23711612D01*
X25649990Y-24050010D02*
X23762510Y-24050010D01*
X25900000Y-23800000D02*
X25649990Y-24050010D01*
X26750000Y-23800000D02*
X25900000Y-23800000D01*
X37650000Y-23750000D02*
X38000000Y-23400000D01*
X38000000Y-23400000D02*
X38000000Y-20277462D01*
X36100000Y-18200000D02*
X36500000Y-18600000D01*
X36500000Y-18600000D02*
X36500000Y-19500000D01*
X37000000Y-20000000D02*
X37722538Y-20000000D01*
X36500000Y-19500000D02*
X37000000Y-20000000D01*
X38000000Y-20277462D02*
X37722538Y-20000000D01*
X24587500Y-15800000D02*
X25800000Y-15800000D01*
X25800000Y-15800000D02*
X26000000Y-16000000D01*
D22*
X39250000Y-17500000D02*
X38787500Y-17500000D01*
X39750000Y-18500000D02*
X39250000Y-17500000D01*
D21*
G04 #@! TO.N,+12V*
X16910000Y-23300000D02*
X16750000Y-23460000D01*
X21930000Y-25300000D02*
X21150000Y-25300000D01*
X22005001Y-25375001D02*
X21930000Y-25300000D01*
X22005001Y-27124999D02*
X22005001Y-25375001D01*
X21930000Y-27200000D02*
X22005001Y-27124999D01*
X21150000Y-27200000D02*
X21930000Y-27200000D01*
D22*
X19500000Y-25462500D02*
X19500000Y-24000000D01*
X18960000Y-23460000D02*
X16750000Y-23460000D01*
X19500000Y-24000000D02*
X18960000Y-23460000D01*
X19662500Y-25300000D02*
X21150000Y-25300000D01*
X19500000Y-25462500D02*
X19662500Y-25300000D01*
D21*
G04 #@! TO.N,+3V3*
X28200000Y-26662500D02*
X28200000Y-25250000D01*
X29037500Y-27500000D02*
X28200000Y-26662500D01*
X31400000Y-25250000D02*
X31400000Y-26150000D01*
X31712500Y-26462500D02*
X31712500Y-27500000D01*
X31400000Y-26150000D02*
X31712500Y-26462500D01*
D22*
X24630000Y-25300000D02*
X23350000Y-25300000D01*
X25000000Y-25670000D02*
X24630000Y-25300000D01*
X25000000Y-26462500D02*
X25000000Y-25670000D01*
X39250000Y-24600000D02*
X39350000Y-24500000D01*
X39250000Y-26000000D02*
X39250000Y-24600000D01*
D21*
X33750000Y-16800000D02*
X33800000Y-16750000D01*
X37212500Y-17500000D02*
X33750000Y-17500000D01*
X33750000Y-17500000D02*
X33750000Y-16800000D01*
D22*
X25062500Y-26400000D02*
X25000000Y-26462500D01*
X26200000Y-26400000D02*
X25062500Y-26400000D01*
D21*
X37212500Y-17500000D02*
X37212500Y-16000000D01*
D22*
X37212500Y-18500000D02*
X37212500Y-17500000D01*
X37712500Y-19000000D02*
X37212500Y-18500000D01*
X38500000Y-19000000D02*
X37712500Y-19000000D01*
X39350000Y-19850000D02*
X38500000Y-19000000D01*
X39350000Y-24500000D02*
X39350000Y-19850000D01*
X29500000Y-27500000D02*
X30500000Y-26500000D01*
X29037500Y-27500000D02*
X29500000Y-27500000D01*
X31500000Y-27500000D02*
X30500000Y-26500000D01*
X31712500Y-27500000D02*
X31500000Y-27500000D01*
D21*
G04 #@! TO.N,/SYS_CLK*
X28200000Y-16750000D02*
X28200000Y-17774694D01*
X28200000Y-17774694D02*
X27987347Y-17987347D01*
G04 #@! TO.N,/SWDIO*
X29000000Y-16750000D02*
X29000000Y-18000000D01*
G04 #@! TO.N,/NRST*
X30600000Y-21100000D02*
X30600000Y-25250000D01*
X29000000Y-19500000D02*
X30600000Y-21100000D01*
G04 #@! TO.N,/VR1*
X32200000Y-26100000D02*
X32600000Y-26500000D01*
X32200000Y-25250000D02*
X32200000Y-26100000D01*
X32600000Y-26500000D02*
X38250000Y-26500000D01*
X38500000Y-26750000D02*
X38500000Y-27500000D01*
X38250000Y-26500000D02*
X38500000Y-26750000D01*
G04 #@! TO.N,Net-(R1-Pad1)*
X24787500Y-23000000D02*
X24537500Y-23250000D01*
X26750000Y-23000000D02*
X24787500Y-23000000D01*
G04 #@! TO.N,/PWMIN_3V*
X19000000Y-15800000D02*
X19000000Y-17000000D01*
X19000000Y-15800000D02*
X19812500Y-15800000D01*
X18187500Y-15800000D02*
X19000000Y-15800000D01*
X22600000Y-16212500D02*
X23012500Y-15800000D01*
X22600000Y-16800000D02*
X22600000Y-16212500D01*
X31750000Y-23150000D02*
X31750000Y-20750000D01*
X33000000Y-24400000D02*
X31750000Y-23150000D01*
X33000000Y-25250000D02*
X33000000Y-24400000D01*
X31750000Y-20750000D02*
X30500000Y-19500000D01*
G04 #@! TO.N,/PWMIN*
X16750000Y-15937500D02*
X16612500Y-15800000D01*
X16750000Y-18380000D02*
X16750000Y-15937500D01*
G04 #@! TO.N,/FAKE_PULSE*
X33600000Y-20600000D02*
X33500000Y-20500000D01*
X35250000Y-20600000D02*
X33600000Y-20600000D01*
G04 #@! TO.N,/FAN_PULSE*
X38787500Y-16000000D02*
X40000000Y-16000000D01*
X29800000Y-17600000D02*
X29800000Y-16750000D01*
X29800000Y-17865685D02*
X29800000Y-17600000D01*
X29934315Y-18000000D02*
X29800000Y-17865685D01*
X30500000Y-18000000D02*
X29934315Y-18000000D01*
X43750000Y-19670000D02*
X42500000Y-20920000D01*
X43750000Y-17250000D02*
X43750000Y-19670000D01*
X40000000Y-16000000D02*
X42500000Y-16000000D01*
X42500000Y-16000000D02*
X43750000Y-17250000D01*
G04 #@! TO.N,/FAN_PWM*
X35250000Y-21400000D02*
X35900000Y-21400000D01*
X35900000Y-21400000D02*
X37000000Y-22500000D01*
G04 #@! TO.N,/USART1_TX*
X33000000Y-19500000D02*
X33500000Y-19500000D01*
X32774999Y-19725001D02*
X33000000Y-19500000D01*
X32774999Y-23374999D02*
X32774999Y-19725001D01*
X33800000Y-24400000D02*
X32774999Y-23374999D01*
X33800000Y-25250000D02*
X33800000Y-24400000D01*
G04 #@! TO.N,/USART1_RX*
X33750000Y-23150000D02*
X33750000Y-22250000D01*
X35250000Y-23800000D02*
X34400000Y-23800000D01*
X34400000Y-23800000D02*
X33750000Y-23150000D01*
G04 #@! TD*
D23*
G04 #@! TO.N,GND*
G36*
X16062273Y-14743495D02*
X15781261Y-14931261D01*
X15593495Y-15212273D01*
X15527560Y-15543750D01*
X15527560Y-16056250D01*
X15593495Y-16387727D01*
X15781261Y-16668739D01*
X15990001Y-16808214D01*
X15990001Y-17101822D01*
X15679375Y-17309375D01*
X15351161Y-17800582D01*
X15235908Y-18380000D01*
X15351161Y-18959418D01*
X15679375Y-19450625D01*
X15977761Y-19650000D01*
X15679375Y-19849375D01*
X15351161Y-20340582D01*
X15235908Y-20920000D01*
X15351161Y-21499418D01*
X15679375Y-21990625D01*
X15977761Y-22190000D01*
X15679375Y-22389375D01*
X15351161Y-22880582D01*
X15235908Y-23460000D01*
X15351161Y-24039418D01*
X15679375Y-24530625D01*
X16170582Y-24858839D01*
X16603744Y-24945000D01*
X16896256Y-24945000D01*
X17329418Y-24858839D01*
X17820625Y-24530625D01*
X17861133Y-24470000D01*
X18490001Y-24470000D01*
X18490000Y-24842673D01*
X18443495Y-24912273D01*
X18377560Y-25243750D01*
X18377560Y-25681250D01*
X18443495Y-26012727D01*
X18631261Y-26293739D01*
X18912273Y-26481505D01*
X19243750Y-26547440D01*
X19756250Y-26547440D01*
X20087727Y-26481505D01*
X20144617Y-26443493D01*
X20021843Y-26627235D01*
X19972560Y-26875000D01*
X19972560Y-27525000D01*
X20021843Y-27772765D01*
X20162191Y-27982809D01*
X20372235Y-28123157D01*
X20620000Y-28172440D01*
X21680000Y-28172440D01*
X21927765Y-28123157D01*
X22137809Y-27982809D01*
X22175766Y-27926003D01*
X22226537Y-27915904D01*
X22289414Y-27873891D01*
X22362191Y-27982809D01*
X22572235Y-28123157D01*
X22820000Y-28172440D01*
X23880000Y-28172440D01*
X24127765Y-28123157D01*
X24337809Y-27982809D01*
X24478157Y-27772765D01*
X24527440Y-27525000D01*
X24527440Y-27504413D01*
X24743750Y-27547440D01*
X25256250Y-27547440D01*
X25587727Y-27481505D01*
X25694742Y-27410000D01*
X25933771Y-27410000D01*
X25994126Y-27435000D01*
X26405874Y-27435000D01*
X26786280Y-27277431D01*
X27077431Y-26986280D01*
X27235000Y-26605874D01*
X27235000Y-26194126D01*
X27077431Y-25813720D01*
X26786280Y-25522569D01*
X26405874Y-25365000D01*
X25994126Y-25365000D01*
X25971022Y-25374570D01*
X25951399Y-25275918D01*
X25728169Y-24941831D01*
X25643835Y-24885481D01*
X25414518Y-24656164D01*
X25358169Y-24571831D01*
X25024082Y-24348601D01*
X24950089Y-24333883D01*
X25087727Y-24306505D01*
X25368739Y-24118739D01*
X25556505Y-23837727D01*
X25571966Y-23760000D01*
X25695470Y-23760000D01*
X25902235Y-23898157D01*
X26150000Y-23947440D01*
X27350000Y-23947440D01*
X27597765Y-23898157D01*
X27807809Y-23757809D01*
X27948157Y-23547765D01*
X27997440Y-23300000D01*
X27997440Y-22700000D01*
X27977549Y-22600000D01*
X27997440Y-22500000D01*
X27997440Y-21900000D01*
X27977549Y-21800000D01*
X27997440Y-21700000D01*
X27997440Y-21100000D01*
X27977549Y-21000000D01*
X27997440Y-20900000D01*
X27997440Y-20300000D01*
X27977549Y-20200000D01*
X27997440Y-20100000D01*
X27997440Y-19784191D01*
X28122569Y-20086280D01*
X28413720Y-20377431D01*
X28794126Y-20535000D01*
X28960199Y-20535000D01*
X29840000Y-21414802D01*
X29840001Y-24002560D01*
X29500000Y-24002560D01*
X29400000Y-24022451D01*
X29300000Y-24002560D01*
X28700000Y-24002560D01*
X28600000Y-24022451D01*
X28500000Y-24002560D01*
X27900000Y-24002560D01*
X27652235Y-24051843D01*
X27442191Y-24192191D01*
X27301843Y-24402235D01*
X27252560Y-24650000D01*
X27252560Y-25850000D01*
X27301843Y-26097765D01*
X27440000Y-26304530D01*
X27440000Y-26587653D01*
X27425112Y-26662500D01*
X27440000Y-26737347D01*
X27440000Y-26737351D01*
X27484096Y-26959036D01*
X27652071Y-27210429D01*
X27715530Y-27252831D01*
X27952560Y-27489861D01*
X27952560Y-27756250D01*
X28018495Y-28087727D01*
X28206261Y-28368739D01*
X28487273Y-28556505D01*
X28818750Y-28622440D01*
X29256250Y-28622440D01*
X29587727Y-28556505D01*
X29681849Y-28493615D01*
X29894082Y-28451399D01*
X30228169Y-28228169D01*
X30284517Y-28143838D01*
X30500000Y-27928356D01*
X30715484Y-28143840D01*
X30771831Y-28228169D01*
X30799840Y-28246884D01*
X30881261Y-28368739D01*
X31162273Y-28556505D01*
X31493750Y-28622440D01*
X31931250Y-28622440D01*
X32262727Y-28556505D01*
X32543739Y-28368739D01*
X32731505Y-28087727D01*
X32797440Y-27756250D01*
X32797440Y-27260000D01*
X37302560Y-27260000D01*
X37302560Y-28000000D01*
X37351843Y-28247765D01*
X37492191Y-28457809D01*
X37702235Y-28598157D01*
X37950000Y-28647440D01*
X39050000Y-28647440D01*
X39297765Y-28598157D01*
X39507809Y-28457809D01*
X39648157Y-28247765D01*
X39697440Y-28000000D01*
X39697440Y-27000000D01*
X39685484Y-26939893D01*
X39836280Y-26877431D01*
X40127431Y-26586280D01*
X40285000Y-26205874D01*
X40285000Y-25794126D01*
X40260000Y-25733771D01*
X40260000Y-25489754D01*
X40307809Y-25457809D01*
X40448157Y-25247765D01*
X40497440Y-25000000D01*
X40497440Y-24000000D01*
X40448157Y-23752235D01*
X40360000Y-23620300D01*
X40360000Y-19949472D01*
X40379786Y-19850000D01*
X40360000Y-19750528D01*
X40360000Y-19750524D01*
X40310168Y-19500001D01*
X40301399Y-19455917D01*
X40134518Y-19206162D01*
X40134516Y-19206160D01*
X40078169Y-19121831D01*
X39993840Y-19065484D01*
X39284517Y-18356162D01*
X39228169Y-18271831D01*
X39129458Y-18205874D01*
X39110521Y-18193221D01*
X38894082Y-18048601D01*
X38599476Y-17990000D01*
X38599471Y-17990000D01*
X38500000Y-17970214D01*
X38400529Y-17990000D01*
X38250944Y-17990000D01*
X38297440Y-17756250D01*
X38297440Y-17243750D01*
X38261139Y-17061252D01*
X38568750Y-17122440D01*
X39006250Y-17122440D01*
X39337727Y-17056505D01*
X39532251Y-16926528D01*
X39794126Y-17035000D01*
X40205874Y-17035000D01*
X40586280Y-16877431D01*
X40703711Y-16760000D01*
X42185199Y-16760000D01*
X42325764Y-16900566D01*
X41920582Y-16981161D01*
X41429375Y-17309375D01*
X41101161Y-17800582D01*
X40985908Y-18380000D01*
X41101161Y-18959418D01*
X41429375Y-19450625D01*
X41727761Y-19650000D01*
X41429375Y-19849375D01*
X41101161Y-20340582D01*
X40985908Y-20920000D01*
X41101161Y-21499418D01*
X41429375Y-21990625D01*
X41727761Y-22190000D01*
X41429375Y-22389375D01*
X41101161Y-22880582D01*
X40985908Y-23460000D01*
X41101161Y-24039418D01*
X41429375Y-24530625D01*
X41920582Y-24858839D01*
X42353744Y-24945000D01*
X42646256Y-24945000D01*
X43079418Y-24858839D01*
X43570625Y-24530625D01*
X43898839Y-24039418D01*
X44014092Y-23460000D01*
X43898839Y-22880582D01*
X43570625Y-22389375D01*
X43272239Y-22190000D01*
X43570625Y-21990625D01*
X43898839Y-21499418D01*
X44014092Y-20920000D01*
X43941209Y-20553592D01*
X44234473Y-20260329D01*
X44297929Y-20217929D01*
X44465904Y-19966537D01*
X44510000Y-19744852D01*
X44510000Y-19744847D01*
X44524888Y-19670000D01*
X44510000Y-19595153D01*
X44510000Y-17324847D01*
X44524888Y-17250000D01*
X44510000Y-17175153D01*
X44510000Y-17175148D01*
X44465904Y-16953463D01*
X44297929Y-16702071D01*
X44234473Y-16659671D01*
X43090331Y-15515530D01*
X43047929Y-15452071D01*
X42796537Y-15284096D01*
X42574852Y-15240000D01*
X42574847Y-15240000D01*
X42500000Y-15225112D01*
X42425153Y-15240000D01*
X40703711Y-15240000D01*
X40586280Y-15122569D01*
X40205874Y-14965000D01*
X39794126Y-14965000D01*
X39532251Y-15073472D01*
X39337727Y-14943495D01*
X39006250Y-14877560D01*
X38568750Y-14877560D01*
X38237273Y-14943495D01*
X38000000Y-15102036D01*
X37762727Y-14943495D01*
X37431250Y-14877560D01*
X36993750Y-14877560D01*
X36662273Y-14943495D01*
X36381261Y-15131261D01*
X36193495Y-15412273D01*
X36127560Y-15743750D01*
X36127560Y-16256250D01*
X36193495Y-16587727D01*
X36295240Y-16740000D01*
X34747440Y-16740000D01*
X34747440Y-16150000D01*
X34698157Y-15902235D01*
X34557809Y-15692191D01*
X34347765Y-15551843D01*
X34100000Y-15502560D01*
X33500000Y-15502560D01*
X33400000Y-15522451D01*
X33300000Y-15502560D01*
X32700000Y-15502560D01*
X32600000Y-15522451D01*
X32500000Y-15502560D01*
X31900000Y-15502560D01*
X31800000Y-15522451D01*
X31700000Y-15502560D01*
X31100000Y-15502560D01*
X31000000Y-15522451D01*
X30900000Y-15502560D01*
X30300000Y-15502560D01*
X30200000Y-15522451D01*
X30100000Y-15502560D01*
X29500000Y-15502560D01*
X29400000Y-15522451D01*
X29300000Y-15502560D01*
X28700000Y-15502560D01*
X28600000Y-15522451D01*
X28500000Y-15502560D01*
X27900000Y-15502560D01*
X27652235Y-15551843D01*
X27442191Y-15692191D01*
X27301843Y-15902235D01*
X27252560Y-16150000D01*
X27252560Y-17252560D01*
X26150000Y-17252560D01*
X25902235Y-17301843D01*
X25692191Y-17442191D01*
X25551843Y-17652235D01*
X25502560Y-17900000D01*
X25502560Y-18500000D01*
X25522451Y-18600000D01*
X25502560Y-18700000D01*
X25502560Y-19300000D01*
X25522451Y-19400000D01*
X25502560Y-19500000D01*
X25502560Y-20100000D01*
X25522451Y-20200000D01*
X25502560Y-20300000D01*
X25502560Y-20900000D01*
X25522451Y-21000000D01*
X25502560Y-21100000D01*
X25502560Y-21700000D01*
X25522451Y-21800000D01*
X25502560Y-21900000D01*
X25502560Y-22240000D01*
X25157327Y-22240000D01*
X25087727Y-22193495D01*
X24756250Y-22127560D01*
X24435619Y-22127560D01*
X24610625Y-22010625D01*
X24938839Y-21519418D01*
X25054092Y-20940000D01*
X24938839Y-20360582D01*
X24610625Y-19869375D01*
X24312239Y-19670000D01*
X24610625Y-19470625D01*
X24938839Y-18979418D01*
X25054092Y-18400000D01*
X24938839Y-17820582D01*
X24610625Y-17329375D01*
X24119418Y-17001161D01*
X23686256Y-16915000D01*
X23635000Y-16915000D01*
X23635000Y-16808214D01*
X23843739Y-16668739D01*
X24031505Y-16387727D01*
X24097440Y-16056250D01*
X24097440Y-15543750D01*
X24031505Y-15212273D01*
X23843739Y-14931261D01*
X23562727Y-14743495D01*
X23520020Y-14735000D01*
X45265000Y-14735000D01*
X45265001Y-29265000D01*
X14735000Y-29265000D01*
X14735000Y-14735000D01*
X16104980Y-14735000D01*
X16062273Y-14743495D01*
X16062273Y-14743495D01*
G37*
X16062273Y-14743495D02*
X15781261Y-14931261D01*
X15593495Y-15212273D01*
X15527560Y-15543750D01*
X15527560Y-16056250D01*
X15593495Y-16387727D01*
X15781261Y-16668739D01*
X15990001Y-16808214D01*
X15990001Y-17101822D01*
X15679375Y-17309375D01*
X15351161Y-17800582D01*
X15235908Y-18380000D01*
X15351161Y-18959418D01*
X15679375Y-19450625D01*
X15977761Y-19650000D01*
X15679375Y-19849375D01*
X15351161Y-20340582D01*
X15235908Y-20920000D01*
X15351161Y-21499418D01*
X15679375Y-21990625D01*
X15977761Y-22190000D01*
X15679375Y-22389375D01*
X15351161Y-22880582D01*
X15235908Y-23460000D01*
X15351161Y-24039418D01*
X15679375Y-24530625D01*
X16170582Y-24858839D01*
X16603744Y-24945000D01*
X16896256Y-24945000D01*
X17329418Y-24858839D01*
X17820625Y-24530625D01*
X17861133Y-24470000D01*
X18490001Y-24470000D01*
X18490000Y-24842673D01*
X18443495Y-24912273D01*
X18377560Y-25243750D01*
X18377560Y-25681250D01*
X18443495Y-26012727D01*
X18631261Y-26293739D01*
X18912273Y-26481505D01*
X19243750Y-26547440D01*
X19756250Y-26547440D01*
X20087727Y-26481505D01*
X20144617Y-26443493D01*
X20021843Y-26627235D01*
X19972560Y-26875000D01*
X19972560Y-27525000D01*
X20021843Y-27772765D01*
X20162191Y-27982809D01*
X20372235Y-28123157D01*
X20620000Y-28172440D01*
X21680000Y-28172440D01*
X21927765Y-28123157D01*
X22137809Y-27982809D01*
X22175766Y-27926003D01*
X22226537Y-27915904D01*
X22289414Y-27873891D01*
X22362191Y-27982809D01*
X22572235Y-28123157D01*
X22820000Y-28172440D01*
X23880000Y-28172440D01*
X24127765Y-28123157D01*
X24337809Y-27982809D01*
X24478157Y-27772765D01*
X24527440Y-27525000D01*
X24527440Y-27504413D01*
X24743750Y-27547440D01*
X25256250Y-27547440D01*
X25587727Y-27481505D01*
X25694742Y-27410000D01*
X25933771Y-27410000D01*
X25994126Y-27435000D01*
X26405874Y-27435000D01*
X26786280Y-27277431D01*
X27077431Y-26986280D01*
X27235000Y-26605874D01*
X27235000Y-26194126D01*
X27077431Y-25813720D01*
X26786280Y-25522569D01*
X26405874Y-25365000D01*
X25994126Y-25365000D01*
X25971022Y-25374570D01*
X25951399Y-25275918D01*
X25728169Y-24941831D01*
X25643835Y-24885481D01*
X25414518Y-24656164D01*
X25358169Y-24571831D01*
X25024082Y-24348601D01*
X24950089Y-24333883D01*
X25087727Y-24306505D01*
X25368739Y-24118739D01*
X25556505Y-23837727D01*
X25571966Y-23760000D01*
X25695470Y-23760000D01*
X25902235Y-23898157D01*
X26150000Y-23947440D01*
X27350000Y-23947440D01*
X27597765Y-23898157D01*
X27807809Y-23757809D01*
X27948157Y-23547765D01*
X27997440Y-23300000D01*
X27997440Y-22700000D01*
X27977549Y-22600000D01*
X27997440Y-22500000D01*
X27997440Y-21900000D01*
X27977549Y-21800000D01*
X27997440Y-21700000D01*
X27997440Y-21100000D01*
X27977549Y-21000000D01*
X27997440Y-20900000D01*
X27997440Y-20300000D01*
X27977549Y-20200000D01*
X27997440Y-20100000D01*
X27997440Y-19784191D01*
X28122569Y-20086280D01*
X28413720Y-20377431D01*
X28794126Y-20535000D01*
X28960199Y-20535000D01*
X29840000Y-21414802D01*
X29840001Y-24002560D01*
X29500000Y-24002560D01*
X29400000Y-24022451D01*
X29300000Y-24002560D01*
X28700000Y-24002560D01*
X28600000Y-24022451D01*
X28500000Y-24002560D01*
X27900000Y-24002560D01*
X27652235Y-24051843D01*
X27442191Y-24192191D01*
X27301843Y-24402235D01*
X27252560Y-24650000D01*
X27252560Y-25850000D01*
X27301843Y-26097765D01*
X27440000Y-26304530D01*
X27440000Y-26587653D01*
X27425112Y-26662500D01*
X27440000Y-26737347D01*
X27440000Y-26737351D01*
X27484096Y-26959036D01*
X27652071Y-27210429D01*
X27715530Y-27252831D01*
X27952560Y-27489861D01*
X27952560Y-27756250D01*
X28018495Y-28087727D01*
X28206261Y-28368739D01*
X28487273Y-28556505D01*
X28818750Y-28622440D01*
X29256250Y-28622440D01*
X29587727Y-28556505D01*
X29681849Y-28493615D01*
X29894082Y-28451399D01*
X30228169Y-28228169D01*
X30284517Y-28143838D01*
X30500000Y-27928356D01*
X30715484Y-28143840D01*
X30771831Y-28228169D01*
X30799840Y-28246884D01*
X30881261Y-28368739D01*
X31162273Y-28556505D01*
X31493750Y-28622440D01*
X31931250Y-28622440D01*
X32262727Y-28556505D01*
X32543739Y-28368739D01*
X32731505Y-28087727D01*
X32797440Y-27756250D01*
X32797440Y-27260000D01*
X37302560Y-27260000D01*
X37302560Y-28000000D01*
X37351843Y-28247765D01*
X37492191Y-28457809D01*
X37702235Y-28598157D01*
X37950000Y-28647440D01*
X39050000Y-28647440D01*
X39297765Y-28598157D01*
X39507809Y-28457809D01*
X39648157Y-28247765D01*
X39697440Y-28000000D01*
X39697440Y-27000000D01*
X39685484Y-26939893D01*
X39836280Y-26877431D01*
X40127431Y-26586280D01*
X40285000Y-26205874D01*
X40285000Y-25794126D01*
X40260000Y-25733771D01*
X40260000Y-25489754D01*
X40307809Y-25457809D01*
X40448157Y-25247765D01*
X40497440Y-25000000D01*
X40497440Y-24000000D01*
X40448157Y-23752235D01*
X40360000Y-23620300D01*
X40360000Y-19949472D01*
X40379786Y-19850000D01*
X40360000Y-19750528D01*
X40360000Y-19750524D01*
X40310168Y-19500001D01*
X40301399Y-19455917D01*
X40134518Y-19206162D01*
X40134516Y-19206160D01*
X40078169Y-19121831D01*
X39993840Y-19065484D01*
X39284517Y-18356162D01*
X39228169Y-18271831D01*
X39129458Y-18205874D01*
X39110521Y-18193221D01*
X38894082Y-18048601D01*
X38599476Y-17990000D01*
X38599471Y-17990000D01*
X38500000Y-17970214D01*
X38400529Y-17990000D01*
X38250944Y-17990000D01*
X38297440Y-17756250D01*
X38297440Y-17243750D01*
X38261139Y-17061252D01*
X38568750Y-17122440D01*
X39006250Y-17122440D01*
X39337727Y-17056505D01*
X39532251Y-16926528D01*
X39794126Y-17035000D01*
X40205874Y-17035000D01*
X40586280Y-16877431D01*
X40703711Y-16760000D01*
X42185199Y-16760000D01*
X42325764Y-16900566D01*
X41920582Y-16981161D01*
X41429375Y-17309375D01*
X41101161Y-17800582D01*
X40985908Y-18380000D01*
X41101161Y-18959418D01*
X41429375Y-19450625D01*
X41727761Y-19650000D01*
X41429375Y-19849375D01*
X41101161Y-20340582D01*
X40985908Y-20920000D01*
X41101161Y-21499418D01*
X41429375Y-21990625D01*
X41727761Y-22190000D01*
X41429375Y-22389375D01*
X41101161Y-22880582D01*
X40985908Y-23460000D01*
X41101161Y-24039418D01*
X41429375Y-24530625D01*
X41920582Y-24858839D01*
X42353744Y-24945000D01*
X42646256Y-24945000D01*
X43079418Y-24858839D01*
X43570625Y-24530625D01*
X43898839Y-24039418D01*
X44014092Y-23460000D01*
X43898839Y-22880582D01*
X43570625Y-22389375D01*
X43272239Y-22190000D01*
X43570625Y-21990625D01*
X43898839Y-21499418D01*
X44014092Y-20920000D01*
X43941209Y-20553592D01*
X44234473Y-20260329D01*
X44297929Y-20217929D01*
X44465904Y-19966537D01*
X44510000Y-19744852D01*
X44510000Y-19744847D01*
X44524888Y-19670000D01*
X44510000Y-19595153D01*
X44510000Y-17324847D01*
X44524888Y-17250000D01*
X44510000Y-17175153D01*
X44510000Y-17175148D01*
X44465904Y-16953463D01*
X44297929Y-16702071D01*
X44234473Y-16659671D01*
X43090331Y-15515530D01*
X43047929Y-15452071D01*
X42796537Y-15284096D01*
X42574852Y-15240000D01*
X42574847Y-15240000D01*
X42500000Y-15225112D01*
X42425153Y-15240000D01*
X40703711Y-15240000D01*
X40586280Y-15122569D01*
X40205874Y-14965000D01*
X39794126Y-14965000D01*
X39532251Y-15073472D01*
X39337727Y-14943495D01*
X39006250Y-14877560D01*
X38568750Y-14877560D01*
X38237273Y-14943495D01*
X38000000Y-15102036D01*
X37762727Y-14943495D01*
X37431250Y-14877560D01*
X36993750Y-14877560D01*
X36662273Y-14943495D01*
X36381261Y-15131261D01*
X36193495Y-15412273D01*
X36127560Y-15743750D01*
X36127560Y-16256250D01*
X36193495Y-16587727D01*
X36295240Y-16740000D01*
X34747440Y-16740000D01*
X34747440Y-16150000D01*
X34698157Y-15902235D01*
X34557809Y-15692191D01*
X34347765Y-15551843D01*
X34100000Y-15502560D01*
X33500000Y-15502560D01*
X33400000Y-15522451D01*
X33300000Y-15502560D01*
X32700000Y-15502560D01*
X32600000Y-15522451D01*
X32500000Y-15502560D01*
X31900000Y-15502560D01*
X31800000Y-15522451D01*
X31700000Y-15502560D01*
X31100000Y-15502560D01*
X31000000Y-15522451D01*
X30900000Y-15502560D01*
X30300000Y-15502560D01*
X30200000Y-15522451D01*
X30100000Y-15502560D01*
X29500000Y-15502560D01*
X29400000Y-15522451D01*
X29300000Y-15502560D01*
X28700000Y-15502560D01*
X28600000Y-15522451D01*
X28500000Y-15502560D01*
X27900000Y-15502560D01*
X27652235Y-15551843D01*
X27442191Y-15692191D01*
X27301843Y-15902235D01*
X27252560Y-16150000D01*
X27252560Y-17252560D01*
X26150000Y-17252560D01*
X25902235Y-17301843D01*
X25692191Y-17442191D01*
X25551843Y-17652235D01*
X25502560Y-17900000D01*
X25502560Y-18500000D01*
X25522451Y-18600000D01*
X25502560Y-18700000D01*
X25502560Y-19300000D01*
X25522451Y-19400000D01*
X25502560Y-19500000D01*
X25502560Y-20100000D01*
X25522451Y-20200000D01*
X25502560Y-20300000D01*
X25502560Y-20900000D01*
X25522451Y-21000000D01*
X25502560Y-21100000D01*
X25502560Y-21700000D01*
X25522451Y-21800000D01*
X25502560Y-21900000D01*
X25502560Y-22240000D01*
X25157327Y-22240000D01*
X25087727Y-22193495D01*
X24756250Y-22127560D01*
X24435619Y-22127560D01*
X24610625Y-22010625D01*
X24938839Y-21519418D01*
X25054092Y-20940000D01*
X24938839Y-20360582D01*
X24610625Y-19869375D01*
X24312239Y-19670000D01*
X24610625Y-19470625D01*
X24938839Y-18979418D01*
X25054092Y-18400000D01*
X24938839Y-17820582D01*
X24610625Y-17329375D01*
X24119418Y-17001161D01*
X23686256Y-16915000D01*
X23635000Y-16915000D01*
X23635000Y-16808214D01*
X23843739Y-16668739D01*
X24031505Y-16387727D01*
X24097440Y-16056250D01*
X24097440Y-15543750D01*
X24031505Y-15212273D01*
X23843739Y-14931261D01*
X23562727Y-14743495D01*
X23520020Y-14735000D01*
X45265000Y-14735000D01*
X45265001Y-29265000D01*
X14735000Y-29265000D01*
X14735000Y-14735000D01*
X16104980Y-14735000D01*
X16062273Y-14743495D01*
G36*
X36568663Y-19284518D02*
X36927982Y-19643837D01*
X36984331Y-19728169D01*
X37318418Y-19951399D01*
X37613024Y-20010000D01*
X37613029Y-20010000D01*
X37712500Y-20029786D01*
X37811971Y-20010000D01*
X38081645Y-20010000D01*
X38340001Y-20268357D01*
X38340000Y-23620299D01*
X38251843Y-23752235D01*
X38202560Y-24000000D01*
X38202560Y-25000000D01*
X38240001Y-25188228D01*
X38240000Y-25727101D01*
X38175153Y-25740000D01*
X34747440Y-25740000D01*
X34747440Y-24747440D01*
X35850000Y-24747440D01*
X36097765Y-24698157D01*
X36307809Y-24557809D01*
X36448157Y-24347765D01*
X36497440Y-24100000D01*
X36497440Y-23500000D01*
X36478388Y-23404217D01*
X36794126Y-23535000D01*
X37205874Y-23535000D01*
X37586280Y-23377431D01*
X37877431Y-23086280D01*
X38035000Y-22705874D01*
X38035000Y-22294126D01*
X37877431Y-21913720D01*
X37586280Y-21622569D01*
X37205874Y-21465000D01*
X37039802Y-21465000D01*
X36493684Y-20918883D01*
X36497440Y-20900000D01*
X36497440Y-20300000D01*
X36477549Y-20200000D01*
X36497440Y-20100000D01*
X36497440Y-19500000D01*
X36477549Y-19400000D01*
X36497440Y-19300000D01*
X36497440Y-19236928D01*
X36568663Y-19284518D01*
X36568663Y-19284518D01*
G37*
X36568663Y-19284518D02*
X36927982Y-19643837D01*
X36984331Y-19728169D01*
X37318418Y-19951399D01*
X37613024Y-20010000D01*
X37613029Y-20010000D01*
X37712500Y-20029786D01*
X37811971Y-20010000D01*
X38081645Y-20010000D01*
X38340001Y-20268357D01*
X38340000Y-23620299D01*
X38251843Y-23752235D01*
X38202560Y-24000000D01*
X38202560Y-25000000D01*
X38240001Y-25188228D01*
X38240000Y-25727101D01*
X38175153Y-25740000D01*
X34747440Y-25740000D01*
X34747440Y-24747440D01*
X35850000Y-24747440D01*
X36097765Y-24698157D01*
X36307809Y-24557809D01*
X36448157Y-24347765D01*
X36497440Y-24100000D01*
X36497440Y-23500000D01*
X36478388Y-23404217D01*
X36794126Y-23535000D01*
X37205874Y-23535000D01*
X37586280Y-23377431D01*
X37877431Y-23086280D01*
X38035000Y-22705874D01*
X38035000Y-22294126D01*
X37877431Y-21913720D01*
X37586280Y-21622569D01*
X37205874Y-21465000D01*
X37039802Y-21465000D01*
X36493684Y-20918883D01*
X36497440Y-20900000D01*
X36497440Y-20300000D01*
X36477549Y-20200000D01*
X36497440Y-20100000D01*
X36497440Y-19500000D01*
X36477549Y-19400000D01*
X36497440Y-19300000D01*
X36497440Y-19236928D01*
X36568663Y-19284518D01*
G36*
X22462273Y-14743495D02*
X22181261Y-14931261D01*
X21993495Y-15212273D01*
X21927560Y-15543750D01*
X21927560Y-15850915D01*
X21884096Y-15915963D01*
X21850270Y-16086019D01*
X21722569Y-16213720D01*
X21565000Y-16594126D01*
X21565000Y-17005874D01*
X21722569Y-17386280D01*
X22013720Y-17677431D01*
X22188451Y-17749807D01*
X22141161Y-17820582D01*
X22025908Y-18400000D01*
X22141161Y-18979418D01*
X22469375Y-19470625D01*
X22767761Y-19670000D01*
X22469375Y-19869375D01*
X22270000Y-20167761D01*
X22070625Y-19869375D01*
X21579418Y-19541161D01*
X21146256Y-19455000D01*
X20853744Y-19455000D01*
X20420582Y-19541161D01*
X19929375Y-19869375D01*
X19601161Y-20360582D01*
X19485908Y-20940000D01*
X19601161Y-21519418D01*
X19929375Y-22010625D01*
X20420582Y-22338839D01*
X20853744Y-22425000D01*
X21146256Y-22425000D01*
X21579418Y-22338839D01*
X22070625Y-22010625D01*
X22270000Y-21712239D01*
X22469375Y-22010625D01*
X22960582Y-22338839D01*
X23393744Y-22425000D01*
X23677036Y-22425000D01*
X23518495Y-22662273D01*
X23452560Y-22993750D01*
X23452560Y-23506250D01*
X23518495Y-23837727D01*
X23706261Y-24118739D01*
X23962571Y-24290000D01*
X23250524Y-24290000D01*
X23061698Y-24327560D01*
X22820000Y-24327560D01*
X22572235Y-24376843D01*
X22362191Y-24517191D01*
X22289414Y-24626109D01*
X22226537Y-24584096D01*
X22175766Y-24573997D01*
X22137809Y-24517191D01*
X21927765Y-24376843D01*
X21680000Y-24327560D01*
X21438302Y-24327560D01*
X21249476Y-24290000D01*
X20510000Y-24290000D01*
X20510000Y-24099470D01*
X20529786Y-23999999D01*
X20510000Y-23900528D01*
X20510000Y-23900524D01*
X20451399Y-23605918D01*
X20228169Y-23271831D01*
X20143835Y-23215481D01*
X19744518Y-22816163D01*
X19688169Y-22731831D01*
X19354082Y-22508601D01*
X19059476Y-22450000D01*
X19059471Y-22450000D01*
X18960000Y-22430214D01*
X18860529Y-22450000D01*
X17861133Y-22450000D01*
X17820625Y-22389375D01*
X17522239Y-22190000D01*
X17820625Y-21990625D01*
X18148839Y-21499418D01*
X18264092Y-20920000D01*
X18148839Y-20340582D01*
X17820625Y-19849375D01*
X17522239Y-19650000D01*
X17820625Y-19450625D01*
X18148839Y-18959418D01*
X18264092Y-18380000D01*
X18148839Y-17800582D01*
X17820625Y-17309375D01*
X17510000Y-17101822D01*
X17510000Y-16771464D01*
X17637273Y-16856505D01*
X17965000Y-16921694D01*
X17965000Y-17205874D01*
X18122569Y-17586280D01*
X18413720Y-17877431D01*
X18794126Y-18035000D01*
X19205874Y-18035000D01*
X19586280Y-17877431D01*
X19877431Y-17586280D01*
X20035000Y-17205874D01*
X20035000Y-16921694D01*
X20362727Y-16856505D01*
X20643739Y-16668739D01*
X20831505Y-16387727D01*
X20897440Y-16056250D01*
X20897440Y-15543750D01*
X20831505Y-15212273D01*
X20643739Y-14931261D01*
X20362727Y-14743495D01*
X20320020Y-14735000D01*
X22504980Y-14735000D01*
X22462273Y-14743495D01*
X22462273Y-14743495D01*
G37*
X22462273Y-14743495D02*
X22181261Y-14931261D01*
X21993495Y-15212273D01*
X21927560Y-15543750D01*
X21927560Y-15850915D01*
X21884096Y-15915963D01*
X21850270Y-16086019D01*
X21722569Y-16213720D01*
X21565000Y-16594126D01*
X21565000Y-17005874D01*
X21722569Y-17386280D01*
X22013720Y-17677431D01*
X22188451Y-17749807D01*
X22141161Y-17820582D01*
X22025908Y-18400000D01*
X22141161Y-18979418D01*
X22469375Y-19470625D01*
X22767761Y-19670000D01*
X22469375Y-19869375D01*
X22270000Y-20167761D01*
X22070625Y-19869375D01*
X21579418Y-19541161D01*
X21146256Y-19455000D01*
X20853744Y-19455000D01*
X20420582Y-19541161D01*
X19929375Y-19869375D01*
X19601161Y-20360582D01*
X19485908Y-20940000D01*
X19601161Y-21519418D01*
X19929375Y-22010625D01*
X20420582Y-22338839D01*
X20853744Y-22425000D01*
X21146256Y-22425000D01*
X21579418Y-22338839D01*
X22070625Y-22010625D01*
X22270000Y-21712239D01*
X22469375Y-22010625D01*
X22960582Y-22338839D01*
X23393744Y-22425000D01*
X23677036Y-22425000D01*
X23518495Y-22662273D01*
X23452560Y-22993750D01*
X23452560Y-23506250D01*
X23518495Y-23837727D01*
X23706261Y-24118739D01*
X23962571Y-24290000D01*
X23250524Y-24290000D01*
X23061698Y-24327560D01*
X22820000Y-24327560D01*
X22572235Y-24376843D01*
X22362191Y-24517191D01*
X22289414Y-24626109D01*
X22226537Y-24584096D01*
X22175766Y-24573997D01*
X22137809Y-24517191D01*
X21927765Y-24376843D01*
X21680000Y-24327560D01*
X21438302Y-24327560D01*
X21249476Y-24290000D01*
X20510000Y-24290000D01*
X20510000Y-24099470D01*
X20529786Y-23999999D01*
X20510000Y-23900528D01*
X20510000Y-23900524D01*
X20451399Y-23605918D01*
X20228169Y-23271831D01*
X20143835Y-23215481D01*
X19744518Y-22816163D01*
X19688169Y-22731831D01*
X19354082Y-22508601D01*
X19059476Y-22450000D01*
X19059471Y-22450000D01*
X18960000Y-22430214D01*
X18860529Y-22450000D01*
X17861133Y-22450000D01*
X17820625Y-22389375D01*
X17522239Y-22190000D01*
X17820625Y-21990625D01*
X18148839Y-21499418D01*
X18264092Y-20920000D01*
X18148839Y-20340582D01*
X17820625Y-19849375D01*
X17522239Y-19650000D01*
X17820625Y-19450625D01*
X18148839Y-18959418D01*
X18264092Y-18380000D01*
X18148839Y-17800582D01*
X17820625Y-17309375D01*
X17510000Y-17101822D01*
X17510000Y-16771464D01*
X17637273Y-16856505D01*
X17965000Y-16921694D01*
X17965000Y-17205874D01*
X18122569Y-17586280D01*
X18413720Y-17877431D01*
X18794126Y-18035000D01*
X19205874Y-18035000D01*
X19586280Y-17877431D01*
X19877431Y-17586280D01*
X20035000Y-17205874D01*
X20035000Y-16921694D01*
X20362727Y-16856505D01*
X20643739Y-16668739D01*
X20831505Y-16387727D01*
X20897440Y-16056250D01*
X20897440Y-15543750D01*
X20831505Y-15212273D01*
X20643739Y-14931261D01*
X20362727Y-14743495D01*
X20320020Y-14735000D01*
X22504980Y-14735000D01*
X22462273Y-14743495D01*
G36*
X32700000Y-17997440D02*
X33168335Y-17997440D01*
X33193432Y-18035000D01*
X33202071Y-18047929D01*
X33453463Y-18215904D01*
X33750000Y-18274889D01*
X33824852Y-18260000D01*
X34180291Y-18260000D01*
X34051843Y-18452235D01*
X34023162Y-18596425D01*
X33705874Y-18465000D01*
X33294126Y-18465000D01*
X32913720Y-18622569D01*
X32764293Y-18771996D01*
X32703463Y-18784096D01*
X32452071Y-18952071D01*
X32409670Y-19015528D01*
X32290526Y-19134673D01*
X32227071Y-19177072D01*
X32184671Y-19240528D01*
X32184670Y-19240529D01*
X32082069Y-19394082D01*
X32059096Y-19428464D01*
X32035366Y-19547765D01*
X32000111Y-19725001D01*
X32015000Y-19799853D01*
X32015000Y-19940198D01*
X31535000Y-19460199D01*
X31535000Y-19294126D01*
X31377431Y-18913720D01*
X31213711Y-18750000D01*
X31377431Y-18586280D01*
X31535000Y-18205874D01*
X31535000Y-17997440D01*
X31700000Y-17997440D01*
X31800000Y-17977549D01*
X31900000Y-17997440D01*
X32500000Y-17997440D01*
X32600000Y-17977549D01*
X32700000Y-17997440D01*
X32700000Y-17997440D01*
G37*
X32700000Y-17997440D02*
X33168335Y-17997440D01*
X33193432Y-18035000D01*
X33202071Y-18047929D01*
X33453463Y-18215904D01*
X33750000Y-18274889D01*
X33824852Y-18260000D01*
X34180291Y-18260000D01*
X34051843Y-18452235D01*
X34023162Y-18596425D01*
X33705874Y-18465000D01*
X33294126Y-18465000D01*
X32913720Y-18622569D01*
X32764293Y-18771996D01*
X32703463Y-18784096D01*
X32452071Y-18952071D01*
X32409670Y-19015528D01*
X32290526Y-19134673D01*
X32227071Y-19177072D01*
X32184671Y-19240528D01*
X32184670Y-19240529D01*
X32082069Y-19394082D01*
X32059096Y-19428464D01*
X32035366Y-19547765D01*
X32000111Y-19725001D01*
X32015000Y-19799853D01*
X32015000Y-19940198D01*
X31535000Y-19460199D01*
X31535000Y-19294126D01*
X31377431Y-18913720D01*
X31213711Y-18750000D01*
X31377431Y-18586280D01*
X31535000Y-18205874D01*
X31535000Y-17997440D01*
X31700000Y-17997440D01*
X31800000Y-17977549D01*
X31900000Y-17997440D01*
X32500000Y-17997440D01*
X32600000Y-17977549D01*
X32700000Y-17997440D01*
G04 #@! TD*
M02*
