G04 #@! TF.GenerationSoftware,KiCad,Pcbnew,(5.0.0-dirty)*
G04 #@! TF.CreationDate,2020-07-10T19:56:49+09:00*
G04 #@! TF.ProjectId,fake-fan-mk2,66616B652D66616E2D6D6B322E6B6963,rev?*
G04 #@! TF.SameCoordinates,Original*
G04 #@! TF.FileFunction,Copper,L2,Bot,Signal*
G04 #@! TF.FilePolarity,Positive*
%FSLAX46Y46*%
G04 Gerber Fmt 4.6, Leading zero omitted, Abs format (unit mm)*
G04 Created by KiCad (PCBNEW (5.0.0-dirty)) date 07/10/20 19:56:49*
%MOMM*%
%LPD*%
G01*
G04 APERTURE LIST*
G04 #@! TA.AperFunction,NonConductor*
%ADD10C,0.200000*%
G04 #@! TD*
G04 #@! TA.AperFunction,ComponentPad*
%ADD11O,1.700000X1.700000*%
G04 #@! TD*
G04 #@! TA.AperFunction,ComponentPad*
%ADD12R,1.700000X1.700000*%
G04 #@! TD*
G04 #@! TA.AperFunction,ViaPad*
%ADD13C,0.800000*%
G04 #@! TD*
G04 #@! TA.AperFunction,Conductor*
%ADD14C,0.750000*%
G04 #@! TD*
G04 #@! TA.AperFunction,Conductor*
%ADD15C,2.000000*%
G04 #@! TD*
G04 #@! TA.AperFunction,Conductor*
%ADD16C,0.250000*%
G04 #@! TD*
G04 #@! TA.AperFunction,Conductor*
%ADD17C,0.254000*%
G04 #@! TD*
G04 APERTURE END LIST*
D10*
X14500000Y-29500000D02*
X14478000Y-14500000D01*
X45500000Y-29500000D02*
X14500000Y-29500000D01*
X45500000Y-14500000D02*
X45500000Y-29500000D01*
X14500000Y-14500000D02*
X45500000Y-14500000D01*
D11*
G04 #@! TO.P,J1,4*
G04 #@! TO.N,N/C*
X16750000Y-18380000D03*
G04 #@! TO.P,J1,3*
G04 #@! TO.N,/FAKE1*
X16750000Y-20920000D03*
G04 #@! TO.P,J1,2*
G04 #@! TO.N,+12V*
X16750000Y-23460000D03*
D12*
G04 #@! TO.P,J1,1*
G04 #@! TO.N,GND*
X16750000Y-26000000D03*
G04 #@! TD*
G04 #@! TO.P,J2,1*
G04 #@! TO.N,GND*
X42500000Y-26000000D03*
D11*
G04 #@! TO.P,J2,2*
G04 #@! TO.N,+12V*
X42500000Y-23460000D03*
G04 #@! TO.P,J2,3*
G04 #@! TO.N,N/C*
X42500000Y-20920000D03*
G04 #@! TO.P,J2,4*
G04 #@! TO.N,/FAN1*
X42500000Y-18380000D03*
G04 #@! TD*
D12*
G04 #@! TO.P,J3,1*
G04 #@! TO.N,GND*
X21000000Y-18000000D03*
D11*
G04 #@! TO.P,J3,2*
G04 #@! TO.N,/SYS_CLK*
X23540000Y-18000000D03*
G04 #@! TO.P,J3,3*
G04 #@! TO.N,/NRST*
X21000000Y-20540000D03*
G04 #@! TO.P,J3,4*
G04 #@! TO.N,/SWDIO*
X23540000Y-20540000D03*
G04 #@! TD*
D13*
G04 #@! TO.N,GND*
X33250000Y-18500000D03*
X29000000Y-21500000D03*
X40500000Y-21250000D03*
X40500000Y-20000000D03*
X40500000Y-18750000D03*
G04 #@! TO.N,+3V3*
X30250000Y-27500000D03*
X39250000Y-26000000D03*
X26250000Y-25250000D03*
G04 #@! TO.N,/SYS_CLK*
X27987347Y-17987347D03*
G04 #@! TO.N,/SWDIO*
X29000000Y-18000000D03*
G04 #@! TO.N,/NRST*
X29000000Y-19500000D03*
G04 #@! TO.N,/FAN1*
X30500000Y-18000000D03*
G04 #@! TD*
D14*
G04 #@! TO.N,GND*
X40500000Y-18750000D02*
X40500000Y-20000000D01*
D15*
G04 #@! TO.N,+12V*
X38937400Y-23460000D02*
X42500000Y-23460000D01*
X16750000Y-23460000D02*
X38937400Y-23460000D01*
D14*
G04 #@! TO.N,+3V3*
X26250000Y-25250000D02*
X28000000Y-25250000D01*
X28000000Y-25250000D02*
X30250000Y-27500000D01*
X28000000Y-25250000D02*
X38500000Y-25250000D01*
X38500000Y-25250000D02*
X39250000Y-26000000D01*
D16*
G04 #@! TO.N,/SYS_CLK*
X23552653Y-17987347D02*
X23540000Y-18000000D01*
X27987347Y-17987347D02*
X23552653Y-17987347D01*
G04 #@! TO.N,/SWDIO*
X24742081Y-20540000D02*
X26282081Y-19000000D01*
X23540000Y-20540000D02*
X24742081Y-20540000D01*
X28000000Y-19000000D02*
X29000000Y-18000000D01*
X26282081Y-19000000D02*
X28000000Y-19000000D01*
G04 #@! TO.N,/NRST*
X26500000Y-22000000D02*
X29000000Y-19500000D01*
X21000000Y-20540000D02*
X22460000Y-22000000D01*
X22460000Y-22000000D02*
X26500000Y-22000000D01*
G04 #@! TO.N,/FAN1*
X30969999Y-17530001D02*
X30500000Y-18000000D01*
X42500000Y-18380000D02*
X41650001Y-17530001D01*
X41650001Y-17530001D02*
X30969999Y-17530001D01*
G04 #@! TD*
D17*
G04 #@! TO.N,GND*
G36*
X44765001Y-28765000D02*
X15233922Y-28765000D01*
X15227115Y-24123764D01*
X15571231Y-24638769D01*
X16112055Y-25000136D01*
X16588969Y-25095000D01*
X25215000Y-25095000D01*
X25215000Y-25455874D01*
X25372569Y-25836280D01*
X25663720Y-26127431D01*
X26044126Y-26285000D01*
X26455874Y-26285000D01*
X26516229Y-26260000D01*
X27581645Y-26260000D01*
X29347569Y-28025925D01*
X29372569Y-28086280D01*
X29663720Y-28377431D01*
X30044126Y-28535000D01*
X30455874Y-28535000D01*
X30836280Y-28377431D01*
X31127431Y-28086280D01*
X31285000Y-27705874D01*
X31285000Y-27294126D01*
X31127431Y-26913720D01*
X30836280Y-26622569D01*
X30775925Y-26597569D01*
X30438356Y-26260000D01*
X38081645Y-26260000D01*
X38347569Y-26525924D01*
X38372569Y-26586280D01*
X38663720Y-26877431D01*
X39044126Y-27035000D01*
X39455874Y-27035000D01*
X39836280Y-26877431D01*
X40127431Y-26586280D01*
X40285000Y-26205874D01*
X40285000Y-25794126D01*
X40127431Y-25413720D01*
X39836280Y-25122569D01*
X39775924Y-25097569D01*
X39773355Y-25095000D01*
X42661031Y-25095000D01*
X43137945Y-25000136D01*
X43678769Y-24638769D01*
X44040136Y-24097945D01*
X44167031Y-23460000D01*
X44040136Y-22822055D01*
X43678769Y-22281231D01*
X43407236Y-22099798D01*
X43570625Y-21990625D01*
X43898839Y-21499418D01*
X44014092Y-20920000D01*
X43898839Y-20340582D01*
X43570625Y-19849375D01*
X43272239Y-19650000D01*
X43570625Y-19450625D01*
X43898839Y-18959418D01*
X44014092Y-18380000D01*
X43898839Y-17800582D01*
X43570625Y-17309375D01*
X43079418Y-16981161D01*
X42646256Y-16895000D01*
X42353744Y-16895000D01*
X42133255Y-16938858D01*
X41946538Y-16814097D01*
X41724853Y-16770001D01*
X41724848Y-16770001D01*
X41650001Y-16755113D01*
X41575154Y-16770001D01*
X31044846Y-16770001D01*
X30969999Y-16755113D01*
X30895152Y-16770001D01*
X30895147Y-16770001D01*
X30673462Y-16814097D01*
X30447620Y-16965000D01*
X30294126Y-16965000D01*
X29913720Y-17122569D01*
X29750000Y-17286289D01*
X29586280Y-17122569D01*
X29205874Y-16965000D01*
X28794126Y-16965000D01*
X28508947Y-17083125D01*
X28193221Y-16952347D01*
X27781473Y-16952347D01*
X27401067Y-17109916D01*
X27283636Y-17227347D01*
X24809724Y-17227347D01*
X24610625Y-16929375D01*
X24119418Y-16601161D01*
X23686256Y-16515000D01*
X23393744Y-16515000D01*
X22960582Y-16601161D01*
X22469375Y-16929375D01*
X22141161Y-17420582D01*
X22025908Y-18000000D01*
X22141161Y-18579418D01*
X22469375Y-19070625D01*
X22767761Y-19270000D01*
X22469375Y-19469375D01*
X22270000Y-19767761D01*
X22070625Y-19469375D01*
X21579418Y-19141161D01*
X21146256Y-19055000D01*
X20853744Y-19055000D01*
X20420582Y-19141161D01*
X19929375Y-19469375D01*
X19601161Y-19960582D01*
X19485908Y-20540000D01*
X19601161Y-21119418D01*
X19929375Y-21610625D01*
X20250210Y-21825000D01*
X17931292Y-21825000D01*
X18148839Y-21499418D01*
X18264092Y-20920000D01*
X18148839Y-20340582D01*
X17820625Y-19849375D01*
X17522239Y-19650000D01*
X17820625Y-19450625D01*
X18148839Y-18959418D01*
X18264092Y-18380000D01*
X18148839Y-17800582D01*
X17820625Y-17309375D01*
X17329418Y-16981161D01*
X16896256Y-16895000D01*
X16603744Y-16895000D01*
X16170582Y-16981161D01*
X15679375Y-17309375D01*
X15351161Y-17800582D01*
X15235908Y-18380000D01*
X15351161Y-18959418D01*
X15679375Y-19450625D01*
X15977761Y-19650000D01*
X15679375Y-19849375D01*
X15351161Y-20340582D01*
X15235908Y-20920000D01*
X15351161Y-21499418D01*
X15679375Y-21990625D01*
X15842764Y-22099798D01*
X15571231Y-22281231D01*
X15225173Y-22799144D01*
X15214079Y-15235000D01*
X44765000Y-15235000D01*
X44765001Y-28765000D01*
X44765001Y-28765000D01*
G37*
X44765001Y-28765000D02*
X15233922Y-28765000D01*
X15227115Y-24123764D01*
X15571231Y-24638769D01*
X16112055Y-25000136D01*
X16588969Y-25095000D01*
X25215000Y-25095000D01*
X25215000Y-25455874D01*
X25372569Y-25836280D01*
X25663720Y-26127431D01*
X26044126Y-26285000D01*
X26455874Y-26285000D01*
X26516229Y-26260000D01*
X27581645Y-26260000D01*
X29347569Y-28025925D01*
X29372569Y-28086280D01*
X29663720Y-28377431D01*
X30044126Y-28535000D01*
X30455874Y-28535000D01*
X30836280Y-28377431D01*
X31127431Y-28086280D01*
X31285000Y-27705874D01*
X31285000Y-27294126D01*
X31127431Y-26913720D01*
X30836280Y-26622569D01*
X30775925Y-26597569D01*
X30438356Y-26260000D01*
X38081645Y-26260000D01*
X38347569Y-26525924D01*
X38372569Y-26586280D01*
X38663720Y-26877431D01*
X39044126Y-27035000D01*
X39455874Y-27035000D01*
X39836280Y-26877431D01*
X40127431Y-26586280D01*
X40285000Y-26205874D01*
X40285000Y-25794126D01*
X40127431Y-25413720D01*
X39836280Y-25122569D01*
X39775924Y-25097569D01*
X39773355Y-25095000D01*
X42661031Y-25095000D01*
X43137945Y-25000136D01*
X43678769Y-24638769D01*
X44040136Y-24097945D01*
X44167031Y-23460000D01*
X44040136Y-22822055D01*
X43678769Y-22281231D01*
X43407236Y-22099798D01*
X43570625Y-21990625D01*
X43898839Y-21499418D01*
X44014092Y-20920000D01*
X43898839Y-20340582D01*
X43570625Y-19849375D01*
X43272239Y-19650000D01*
X43570625Y-19450625D01*
X43898839Y-18959418D01*
X44014092Y-18380000D01*
X43898839Y-17800582D01*
X43570625Y-17309375D01*
X43079418Y-16981161D01*
X42646256Y-16895000D01*
X42353744Y-16895000D01*
X42133255Y-16938858D01*
X41946538Y-16814097D01*
X41724853Y-16770001D01*
X41724848Y-16770001D01*
X41650001Y-16755113D01*
X41575154Y-16770001D01*
X31044846Y-16770001D01*
X30969999Y-16755113D01*
X30895152Y-16770001D01*
X30895147Y-16770001D01*
X30673462Y-16814097D01*
X30447620Y-16965000D01*
X30294126Y-16965000D01*
X29913720Y-17122569D01*
X29750000Y-17286289D01*
X29586280Y-17122569D01*
X29205874Y-16965000D01*
X28794126Y-16965000D01*
X28508947Y-17083125D01*
X28193221Y-16952347D01*
X27781473Y-16952347D01*
X27401067Y-17109916D01*
X27283636Y-17227347D01*
X24809724Y-17227347D01*
X24610625Y-16929375D01*
X24119418Y-16601161D01*
X23686256Y-16515000D01*
X23393744Y-16515000D01*
X22960582Y-16601161D01*
X22469375Y-16929375D01*
X22141161Y-17420582D01*
X22025908Y-18000000D01*
X22141161Y-18579418D01*
X22469375Y-19070625D01*
X22767761Y-19270000D01*
X22469375Y-19469375D01*
X22270000Y-19767761D01*
X22070625Y-19469375D01*
X21579418Y-19141161D01*
X21146256Y-19055000D01*
X20853744Y-19055000D01*
X20420582Y-19141161D01*
X19929375Y-19469375D01*
X19601161Y-19960582D01*
X19485908Y-20540000D01*
X19601161Y-21119418D01*
X19929375Y-21610625D01*
X20250210Y-21825000D01*
X17931292Y-21825000D01*
X18148839Y-21499418D01*
X18264092Y-20920000D01*
X18148839Y-20340582D01*
X17820625Y-19849375D01*
X17522239Y-19650000D01*
X17820625Y-19450625D01*
X18148839Y-18959418D01*
X18264092Y-18380000D01*
X18148839Y-17800582D01*
X17820625Y-17309375D01*
X17329418Y-16981161D01*
X16896256Y-16895000D01*
X16603744Y-16895000D01*
X16170582Y-16981161D01*
X15679375Y-17309375D01*
X15351161Y-17800582D01*
X15235908Y-18380000D01*
X15351161Y-18959418D01*
X15679375Y-19450625D01*
X15977761Y-19650000D01*
X15679375Y-19849375D01*
X15351161Y-20340582D01*
X15235908Y-20920000D01*
X15351161Y-21499418D01*
X15679375Y-21990625D01*
X15842764Y-22099798D01*
X15571231Y-22281231D01*
X15225173Y-22799144D01*
X15214079Y-15235000D01*
X44765000Y-15235000D01*
X44765001Y-28765000D01*
G36*
X40985908Y-18380000D02*
X41101161Y-18959418D01*
X41429375Y-19450625D01*
X41727761Y-19650000D01*
X41429375Y-19849375D01*
X41101161Y-20340582D01*
X40985908Y-20920000D01*
X41101161Y-21499418D01*
X41318708Y-21825000D01*
X27749801Y-21825000D01*
X29039802Y-20535000D01*
X29205874Y-20535000D01*
X29586280Y-20377431D01*
X29877431Y-20086280D01*
X30035000Y-19705874D01*
X30035000Y-19294126D01*
X29877431Y-18913720D01*
X29713711Y-18750000D01*
X29750000Y-18713711D01*
X29913720Y-18877431D01*
X30294126Y-19035000D01*
X30705874Y-19035000D01*
X31086280Y-18877431D01*
X31377431Y-18586280D01*
X31500154Y-18290001D01*
X41003810Y-18290001D01*
X40985908Y-18380000D01*
X40985908Y-18380000D01*
G37*
X40985908Y-18380000D02*
X41101161Y-18959418D01*
X41429375Y-19450625D01*
X41727761Y-19650000D01*
X41429375Y-19849375D01*
X41101161Y-20340582D01*
X40985908Y-20920000D01*
X41101161Y-21499418D01*
X41318708Y-21825000D01*
X27749801Y-21825000D01*
X29039802Y-20535000D01*
X29205874Y-20535000D01*
X29586280Y-20377431D01*
X29877431Y-20086280D01*
X30035000Y-19705874D01*
X30035000Y-19294126D01*
X29877431Y-18913720D01*
X29713711Y-18750000D01*
X29750000Y-18713711D01*
X29913720Y-18877431D01*
X30294126Y-19035000D01*
X30705874Y-19035000D01*
X31086280Y-18877431D01*
X31377431Y-18586280D01*
X31500154Y-18290001D01*
X41003810Y-18290001D01*
X40985908Y-18380000D01*
G04 #@! TD*
M02*
