G04 #@! TF.GenerationSoftware,KiCad,Pcbnew,(5.0.0-dirty)*
G04 #@! TF.CreationDate,2020-07-10T19:56:49+09:00*
G04 #@! TF.ProjectId,fake-fan-mk2,66616B652D66616E2D6D6B322E6B6963,rev?*
G04 #@! TF.SameCoordinates,Original*
G04 #@! TF.FileFunction,Legend,Bot*
G04 #@! TF.FilePolarity,Positive*
%FSLAX46Y46*%
G04 Gerber Fmt 4.6, Leading zero omitted, Abs format (unit mm)*
G04 Created by KiCad (PCBNEW (5.0.0-dirty)) date 07/10/20 19:56:49*
%MOMM*%
%LPD*%
G01*
G04 APERTURE LIST*
%ADD10C,0.300000*%
%ADD11C,0.200000*%
G04 APERTURE END LIST*
D10*
X37942857Y-21064285D02*
X38342857Y-21064285D01*
X38342857Y-21692857D02*
X38342857Y-20492857D01*
X37771428Y-20492857D01*
X36800000Y-21692857D02*
X36800000Y-21064285D01*
X36857142Y-20950000D01*
X36971428Y-20892857D01*
X37200000Y-20892857D01*
X37314285Y-20950000D01*
X36800000Y-21635714D02*
X36914285Y-21692857D01*
X37200000Y-21692857D01*
X37314285Y-21635714D01*
X37371428Y-21521428D01*
X37371428Y-21407142D01*
X37314285Y-21292857D01*
X37200000Y-21235714D01*
X36914285Y-21235714D01*
X36800000Y-21178571D01*
X36228571Y-21692857D02*
X36228571Y-20492857D01*
X36114285Y-21235714D02*
X35771428Y-21692857D01*
X35771428Y-20892857D02*
X36228571Y-21350000D01*
X34800000Y-21635714D02*
X34914285Y-21692857D01*
X35142857Y-21692857D01*
X35257142Y-21635714D01*
X35314285Y-21521428D01*
X35314285Y-21064285D01*
X35257142Y-20950000D01*
X35142857Y-20892857D01*
X34914285Y-20892857D01*
X34800000Y-20950000D01*
X34742857Y-21064285D01*
X34742857Y-21178571D01*
X35314285Y-21292857D01*
X33828571Y-21064285D02*
X34228571Y-21064285D01*
X34228571Y-21692857D02*
X34228571Y-20492857D01*
X33657142Y-20492857D01*
X32685714Y-21692857D02*
X32685714Y-21064285D01*
X32742857Y-20950000D01*
X32857142Y-20892857D01*
X33085714Y-20892857D01*
X33200000Y-20950000D01*
X32685714Y-21635714D02*
X32800000Y-21692857D01*
X33085714Y-21692857D01*
X33200000Y-21635714D01*
X33257142Y-21521428D01*
X33257142Y-21407142D01*
X33200000Y-21292857D01*
X33085714Y-21235714D01*
X32800000Y-21235714D01*
X32685714Y-21178571D01*
X32114285Y-20892857D02*
X32114285Y-21692857D01*
X32114285Y-21007142D02*
X32057142Y-20950000D01*
X31942857Y-20892857D01*
X31771428Y-20892857D01*
X31657142Y-20950000D01*
X31600000Y-21064285D01*
X31600000Y-21692857D01*
X31142857Y-20492857D02*
X30400000Y-20492857D01*
X30800000Y-20950000D01*
X30628571Y-20950000D01*
X30514285Y-21007142D01*
X30457142Y-21064285D01*
X30400000Y-21178571D01*
X30400000Y-21464285D01*
X30457142Y-21578571D01*
X30514285Y-21635714D01*
X30628571Y-21692857D01*
X30971428Y-21692857D01*
X31085714Y-21635714D01*
X31142857Y-21578571D01*
X39057142Y-23221428D02*
X39114285Y-23164285D01*
X39228571Y-23107142D01*
X39342857Y-23107142D01*
X39457142Y-23164285D01*
X39514285Y-23221428D01*
X39571428Y-23335714D01*
X39571428Y-23450000D01*
X39514285Y-23564285D01*
X39457142Y-23621428D01*
X39342857Y-23678571D01*
X39228571Y-23678571D01*
X39114285Y-23621428D01*
X39057142Y-23564285D01*
X39057142Y-23107142D02*
X39057142Y-23564285D01*
X39000000Y-23621428D01*
X38942857Y-23621428D01*
X38828571Y-23564285D01*
X38771428Y-23450000D01*
X38771428Y-23164285D01*
X38885714Y-22992857D01*
X39057142Y-22878571D01*
X39285714Y-22821428D01*
X39514285Y-22878571D01*
X39685714Y-22992857D01*
X39800000Y-23164285D01*
X39857142Y-23392857D01*
X39800000Y-23621428D01*
X39685714Y-23792857D01*
X39514285Y-23907142D01*
X39285714Y-23964285D01*
X39057142Y-23907142D01*
X38885714Y-23792857D01*
X38257142Y-23792857D02*
X38257142Y-22592857D01*
X38257142Y-23164285D02*
X37571428Y-23164285D01*
X37571428Y-23792857D02*
X37571428Y-22592857D01*
X37114285Y-22992857D02*
X36828571Y-23792857D01*
X36542857Y-22992857D02*
X36828571Y-23792857D01*
X36942857Y-24078571D01*
X37000000Y-24135714D01*
X37114285Y-24192857D01*
X36085714Y-22992857D02*
X36085714Y-24192857D01*
X36085714Y-23050000D02*
X35971428Y-22992857D01*
X35742857Y-22992857D01*
X35628571Y-23050000D01*
X35571428Y-23107142D01*
X35514285Y-23221428D01*
X35514285Y-23564285D01*
X35571428Y-23678571D01*
X35628571Y-23735714D01*
X35742857Y-23792857D01*
X35971428Y-23792857D01*
X36085714Y-23735714D01*
X34542857Y-23735714D02*
X34657142Y-23792857D01*
X34885714Y-23792857D01*
X35000000Y-23735714D01*
X35057142Y-23621428D01*
X35057142Y-23164285D01*
X35000000Y-23050000D01*
X34885714Y-22992857D01*
X34657142Y-22992857D01*
X34542857Y-23050000D01*
X34485714Y-23164285D01*
X34485714Y-23278571D01*
X35057142Y-23392857D01*
X33971428Y-23792857D02*
X33971428Y-22992857D01*
X33971428Y-23221428D02*
X33914285Y-23107142D01*
X33857142Y-23050000D01*
X33742857Y-22992857D01*
X33628571Y-22992857D01*
X33514285Y-23907142D02*
X32600000Y-23907142D01*
X32314285Y-23792857D02*
X32314285Y-22592857D01*
X32314285Y-23050000D02*
X32200000Y-22992857D01*
X31971428Y-22992857D01*
X31857142Y-23050000D01*
X31800000Y-23107142D01*
X31742857Y-23221428D01*
X31742857Y-23564285D01*
X31800000Y-23678571D01*
X31857142Y-23735714D01*
X31971428Y-23792857D01*
X32200000Y-23792857D01*
X32314285Y-23735714D01*
X30771428Y-23735714D02*
X30885714Y-23792857D01*
X31114285Y-23792857D01*
X31228571Y-23735714D01*
X31285714Y-23621428D01*
X31285714Y-23164285D01*
X31228571Y-23050000D01*
X31114285Y-22992857D01*
X30885714Y-22992857D01*
X30771428Y-23050000D01*
X30714285Y-23164285D01*
X30714285Y-23278571D01*
X31285714Y-23392857D01*
X30371428Y-22992857D02*
X29914285Y-22992857D01*
X30200000Y-22592857D02*
X30200000Y-23621428D01*
X30142857Y-23735714D01*
X30028571Y-23792857D01*
X29914285Y-23792857D01*
X29000000Y-23792857D02*
X29000000Y-23164285D01*
X29057142Y-23050000D01*
X29171428Y-22992857D01*
X29400000Y-22992857D01*
X29514285Y-23050000D01*
X29000000Y-23735714D02*
X29114285Y-23792857D01*
X29400000Y-23792857D01*
X29514285Y-23735714D01*
X29571428Y-23621428D01*
X29571428Y-23507142D01*
X29514285Y-23392857D01*
X29400000Y-23335714D01*
X29114285Y-23335714D01*
X29000000Y-23278571D01*
D11*
X14500000Y-29500000D02*
X14478000Y-14500000D01*
X45500000Y-29500000D02*
X14500000Y-29500000D01*
X45500000Y-14500000D02*
X45500000Y-29500000D01*
X14500000Y-14500000D02*
X45500000Y-14500000D01*
M02*
