M48
;DRILL file {KiCad (5.0.0-dirty)} date 07/10/20 19:56:52
;FORMAT={-:-/ absolute / inch / decimal}
FMAT,2
INCH,TZ
T1C0.0157
T2C0.0394
%
G90
G05
M72
T1
X1.0335Y-0.9941
X1.1019Y-0.7082
X1.1417Y-0.7087
X1.1417Y-0.7677
X1.1417Y-0.8465
X1.1909Y-1.0827
X1.2008Y-0.7087
X1.3091Y-0.7283
X1.5453Y-1.0236
X1.5945Y-0.7382
X1.5945Y-0.7874
X1.5945Y-0.8366
T2
X0.8268Y-0.7087
X0.8268Y-0.8087
X0.9268Y-0.7087
X0.9268Y-0.8087
X1.6732Y-0.7236
X1.6732Y-0.8236
X1.6732Y-0.9236
X1.6732Y-1.0236
X0.6594Y-0.7236
X0.6594Y-0.8236
X0.6594Y-0.9236
X0.6594Y-1.0236
T0
M30
